<svg width="1440" height="395" viewBox="0 0 1440 395" fill="none" xmlns="http://www.w3.org/2000/svg">
<path d="M1743.58 143.918V188.867H1710.84V464.529H1700.65V250.957H1673.73V210.391H1616.23V251.732H1582.03V358.964H1539.1V329.645H1525.27V191.814H1514V125.846L1505.62 114.599L1497.61 125.342V194.723H1486.71V151.714H1451.79V196.662H1443.78V266.043H1413.94V76.9806H1395.55V23.6941H1384.64V0.967896H1365.36V23.6941H1354.05V76.9806H1329.46L1329.52 551.517H1270.58V226.989H1252.05V184.95H1237.84V163.93L1228.75 151.714L1220.03 163.426V190.806H1208.38V226.989H1186.14V426.368H1163.58V402.904H1135.92V425.398H1077.7V619.89H1063.87V439.049H1068.23V426.329H1061.69V400.927H1034.78V427.298H974.376V566.099H964.907V210.391H970.014V196.701H959.828V155.63H919.082V196.701H900.891V173.238H906.715V132.167L894.348 120.455L881.235 132.167V173.238H887.06V197.67H873.23V532.94H857.936V357.995H850.647V330.615H814.981V314.016L804.794 303.274L793.891 314.016V357.025H777.879V314.986H712.371V356.056H650.507V402.982H621.382V426.445H610.479V393.209H560.981V476.28H547.151V292.531H455.445V452.817H402.303V510.486H382.648V535.888H348.445V613.103H324.428V530.342H305.519V505.56H266.954V529.024H244.4V547.6H218.92V315.955H173.785V339.418H154.875V371.685H143.225V337.479H127.932V255.378H118.836V198.213L110.457 186.966L103.915 195.77V255.378H90.8015V218.225H55.8809V256.347H47.1579V533.949H37.6888V136.084H30.9171L15.1928 56.9303L-0.588959 136.084H-8.19287V413.686H-16.1985V335.501H-64.9496V427.376H-78.7801V385.336H-106.441V400.965H-118.808V423.459H-126.097V398.057H-155.938V424.933H-162.481V534.88H-175.594V358.926H-186.497V327.629H-204.689V247.466H-218.52V202.518H-244.689V171.26H-270.198V202.518H-296.395V247.466H-314.587V203.487H-359.694V247.466H-373.525V656.035C-373.525 655.065 1778.53 656.035 1778.53 656.035V143.918H1743.6H1743.58Z" fill="url(#paint0_linear_49_17418)"/>
<g style="mix-blend-mode:color-dodge">
<path d="M951.506 223.732H885.711V229.2H951.506V223.732Z" fill="white"/>
</g>
<g style="mix-blend-mode:color-dodge" opacity="0.94">
<path d="M951.506 245.178H885.711V250.646H951.506V245.178Z" fill="white"/>
</g>
<g style="mix-blend-mode:color-dodge" opacity="0.88">
<path d="M951.506 266.586H885.711V272.054H951.506V266.586Z" fill="white"/>
</g>
<g style="mix-blend-mode:color-dodge" opacity="0.81">
<path d="M951.506 287.994H885.711V293.462H951.506V287.994Z" fill="white"/>
</g>
<g style="mix-blend-mode:color-dodge" opacity="0.75">
<path d="M951.506 309.44H885.711V314.908H951.506V309.44Z" fill="white"/>
</g>
<g style="mix-blend-mode:color-dodge" opacity="0.69">
<path d="M951.506 330.848H885.711V336.316H951.506V330.848Z" fill="white"/>
</g>
<g style="mix-blend-mode:color-dodge" opacity="0.62">
<path d="M951.506 352.255H885.711V357.724H951.506V352.255Z" fill="white"/>
</g>
<g style="mix-blend-mode:color-dodge" opacity="0.56">
<path d="M951.506 373.702H885.711V379.17H951.506V373.702Z" fill="white"/>
</g>
<g style="mix-blend-mode:color-dodge">
<path d="M1210.38 255.378H1202.12V266.974H1210.38V255.378Z" fill="white"/>
</g>
<g style="mix-blend-mode:color-dodge">
<path d="M1224.85 255.378H1216.58V266.974H1224.85V255.378Z" fill="white"/>
</g>
<g style="mix-blend-mode:color-dodge">
<path d="M1239.31 255.378H1231.04V266.974H1239.31V255.378Z" fill="white"/>
</g>
<g style="mix-blend-mode:color-dodge">
<path d="M1253.74 255.378H1245.48V266.974H1253.74V255.378Z" fill="white"/>
</g>
<g opacity="0.91">
<g style="mix-blend-mode:color-dodge">
<path d="M1210.38 287.179H1202.12V298.775H1210.38V287.179Z" fill="white"/>
</g>
<g style="mix-blend-mode:color-dodge">
<path d="M1224.85 287.179H1216.58V298.775H1224.85V287.179Z" fill="white"/>
</g>
<g style="mix-blend-mode:color-dodge">
<path d="M1239.31 287.179H1231.04V298.775H1239.31V287.179Z" fill="white"/>
</g>
<g style="mix-blend-mode:color-dodge">
<path d="M1253.74 287.179H1245.48V298.775H1253.74V287.179Z" fill="white"/>
</g>
</g>
<g opacity="0.82">
<g style="mix-blend-mode:color-dodge">
<path d="M1210.38 319.019H1202.12V330.615H1210.38V319.019Z" fill="white"/>
</g>
<g style="mix-blend-mode:color-dodge">
<path d="M1224.85 319.019H1216.58V330.615H1224.85V319.019Z" fill="white"/>
</g>
<g style="mix-blend-mode:color-dodge">
<path d="M1239.31 319.019H1231.04V330.615H1239.31V319.019Z" fill="white"/>
</g>
<g style="mix-blend-mode:color-dodge">
<path d="M1253.74 319.019H1245.48V330.615H1253.74V319.019Z" fill="white"/>
</g>
</g>
<g opacity="0.73">
<g style="mix-blend-mode:color-dodge">
<path d="M1210.38 350.859H1202.12V362.455H1210.38V350.859Z" fill="white"/>
</g>
<g style="mix-blend-mode:color-dodge">
<path d="M1224.85 350.859H1216.58V362.455H1224.85V350.859Z" fill="white"/>
</g>
<g style="mix-blend-mode:color-dodge">
<path d="M1239.31 350.859H1231.04V362.455H1239.31V350.859Z" fill="white"/>
</g>
<g style="mix-blend-mode:color-dodge">
<path d="M1253.74 350.859H1245.48V362.455H1253.74V350.859Z" fill="white"/>
</g>
</g>
<g opacity="0.64">
<g style="mix-blend-mode:color-dodge">
<path d="M1210.38 382.66H1202.12V394.256H1210.38V382.66Z" fill="white"/>
</g>
<g style="mix-blend-mode:color-dodge">
<path d="M1224.85 382.66H1216.58V394.256H1224.85V382.66Z" fill="white"/>
</g>
<g style="mix-blend-mode:color-dodge">
<path d="M1239.31 382.66H1231.04V394.256H1239.31V382.66Z" fill="white"/>
</g>
<g style="mix-blend-mode:color-dodge">
<path d="M1253.74 382.66H1245.48V394.256H1253.74V382.66Z" fill="white"/>
</g>
</g>
<path d="M188.275 330.925H182.192V340.233H188.275V330.925Z" fill="#5B00FF"/>
<path d="M198.921 330.925H192.837V340.233H198.921V330.925Z" fill="#5B00FF"/>
<path d="M209.538 330.925H203.455V340.233H209.538V330.925Z" fill="#5B00FF"/>
<g opacity="0.91">
<path d="M188.276 356.405H182.192V365.712H188.276V356.405Z" fill="#5B00FF"/>
<path d="M198.921 356.405H192.838V365.712H198.921V356.405Z" fill="#5B00FF"/>
<path d="M209.538 356.405H203.455V365.712H209.538V356.405Z" fill="#5B00FF"/>
</g>
<g opacity="0.82">
<path d="M188.276 381.885H182.192V391.192H188.276V381.885Z" fill="#5B00FF"/>
<path d="M198.921 381.885H192.838V391.192H198.921V381.885Z" fill="#5B00FF"/>
<path d="M209.538 381.885H203.455V391.192H209.538V381.885Z" fill="#5B00FF"/>
</g>
<path d="M117.774 271.162H57.0288V284.852H117.774V271.162Z" fill="#5B00FF"/>
<path opacity="0.91" d="M117.774 302.188H57.0288V315.878H117.774V302.188Z" fill="#5B00FF"/>
<path opacity="0.82" d="M117.774 333.213H57.0288V346.903H117.774V333.213Z" fill="#5B00FF"/>
<path opacity="0.73" d="M117.774 364.2H57.0288V377.89H117.774V364.2Z" fill="#5B00FF"/>
<path style="mix-blend-mode:color-dodge" d="M18.2055 168.351H10.1138V630.788H18.2055V168.351Z" fill="url(#paint1_linear_49_17418)"/>
<path style="mix-blend-mode:color-dodge" d="M484.081 305.833H478.429V625.978H484.081V305.833Z" fill="url(#paint2_linear_49_17418)"/>
<path style="mix-blend-mode:color-dodge" d="M470.997 305.833H465.344V625.978H470.997V305.833Z" fill="url(#paint3_linear_49_17418)"/>
<path style="mix-blend-mode:color-dodge" d="M497.195 305.833H491.542V625.978H497.195V305.833Z" fill="url(#paint4_linear_49_17418)"/>
<path style="mix-blend-mode:color-dodge" d="M510.279 305.833H504.626V625.978H510.279V305.833Z" fill="url(#paint5_linear_49_17418)"/>
<path style="mix-blend-mode:color-dodge" d="M523.363 305.833H517.71V625.978H523.363V305.833Z" fill="url(#paint6_linear_49_17418)"/>
<path style="mix-blend-mode:color-dodge" d="M536.448 305.833H530.795V625.978H536.448V305.833Z" fill="url(#paint7_linear_49_17418)"/>
<path d="M670.449 372.422H660.32V387.004H670.449V372.422Z" fill="#5B00FF"/>
<path d="M689.703 372.422H679.574V387.004H689.703V372.422Z" fill="#5B00FF"/>
<path d="M708.928 372.422H698.799V387.004H708.928V372.422Z" fill="#5B00FF"/>
<path d="M728.153 372.422H718.024V387.004H728.153V372.422Z" fill="#5B00FF"/>
<path d="M747.378 372.422H737.249V387.004H747.378V372.422Z" fill="#5B00FF"/>
<path d="M766.631 372.422H756.502V387.004H766.631V372.422Z" fill="#5B00FF"/>
<path d="M785.857 372.422H775.728V387.004H785.857V372.422Z" fill="#5B00FF"/>
<path d="M805.082 372.422H794.953V387.004H805.082V372.422Z" fill="#5B00FF"/>
<path d="M824.306 372.422H814.177V387.004H824.306V372.422Z" fill="#5B00FF"/>
<path d="M843.56 372.422H833.431V387.004H843.56V372.422Z" fill="#5B00FF"/>
<path d="M1360.14 92.4159H1353.82V623.264H1360.14V92.4159Z" fill="url(#paint8_linear_49_17418)"/>
<path d="M1345.53 92.4159H1339.22V623.264H1345.53V92.4159Z" fill="url(#paint9_linear_49_17418)"/>
<path d="M1374.77 92.4159H1368.46V623.264H1374.77V92.4159Z" fill="url(#paint10_linear_49_17418)"/>
<path d="M1389.41 92.4159H1383.09V623.264H1389.41V92.4159Z" fill="url(#paint11_linear_49_17418)"/>
<path d="M1404.01 92.4159H1397.7V623.264H1404.01V92.4159Z" fill="url(#paint12_linear_49_17418)"/>
<defs>
<linearGradient id="paint0_linear_49_17418" x1="702.5" y1="751.684" x2="702.5" y2="129.53" gradientUnits="userSpaceOnUse">
<stop stop-color="#B104A0"/>
<stop offset="0.0832333" stop-color="#6600CC"/>
<stop offset="0.0833333" stop-color="#6000B3"/>
<stop offset="0.21" stop-color="#3A00A1"/>
<stop offset="0.29" stop-color="#300086"/>
<stop offset="0.33" stop-color="#2D007D"/>
<stop offset="0.34" stop-color="#2C007A"/>
<stop offset="0.43" stop-color="#230060"/>
<stop offset="0.53" stop-color="#1C004C"/>
<stop offset="0.64" stop-color="#17003D"/>
<stop offset="0.78" stop-color="#140035"/>
<stop offset="1" stop-color="#140033"/>
</linearGradient>
<linearGradient id="paint1_linear_49_17418" x1="14.1596" y1="164.938" x2="14.1596" y2="571.412" gradientUnits="userSpaceOnUse">
<stop stop-color="white"/>
<stop offset="1" stop-color="white" stop-opacity="0"/>
</linearGradient>
<linearGradient id="paint2_linear_49_17418" x1="481.269" y1="303.506" x2="481.269" y2="584.87" gradientUnits="userSpaceOnUse">
<stop stop-color="white"/>
<stop offset="1" stop-color="white" stop-opacity="0"/>
</linearGradient>
<linearGradient id="paint3_linear_49_17418" x1="468.156" y1="303.506" x2="468.156" y2="584.87" gradientUnits="userSpaceOnUse">
<stop stop-color="white"/>
<stop offset="1" stop-color="white" stop-opacity="0"/>
</linearGradient>
<linearGradient id="paint4_linear_49_17418" x1="494.354" y1="303.506" x2="494.354" y2="584.87" gradientUnits="userSpaceOnUse">
<stop stop-color="white"/>
<stop offset="1" stop-color="white" stop-opacity="0"/>
</linearGradient>
<linearGradient id="paint5_linear_49_17418" x1="507.438" y1="303.506" x2="507.438" y2="584.87" gradientUnits="userSpaceOnUse">
<stop stop-color="white"/>
<stop offset="1" stop-color="white" stop-opacity="0"/>
</linearGradient>
<linearGradient id="paint6_linear_49_17418" x1="520.522" y1="303.506" x2="520.522" y2="584.87" gradientUnits="userSpaceOnUse">
<stop stop-color="white"/>
<stop offset="1" stop-color="white" stop-opacity="0"/>
</linearGradient>
<linearGradient id="paint7_linear_49_17418" x1="533.636" y1="303.506" x2="533.636" y2="584.87" gradientUnits="userSpaceOnUse">
<stop stop-color="white"/>
<stop offset="1" stop-color="white" stop-opacity="0"/>
</linearGradient>
<linearGradient id="paint8_linear_49_17418" x1="1356.98" y1="81.4794" x2="1356.98" y2="589.058" gradientUnits="userSpaceOnUse">
<stop stop-color="#5B00FF"/>
<stop offset="0.09" stop-color="#5B00FF" stop-opacity="0.97"/>
<stop offset="0.22" stop-color="#5B00FF" stop-opacity="0.88"/>
<stop offset="0.38" stop-color="#5B00FF" stop-opacity="0.74"/>
<stop offset="0.57" stop-color="#5B00FF" stop-opacity="0.55"/>
<stop offset="0.78" stop-color="#5B00FF" stop-opacity="0.3"/>
<stop offset="1" stop-color="#5B00FF" stop-opacity="0"/>
</linearGradient>
<linearGradient id="paint9_linear_49_17418" x1="1342.38" y1="0.96796" x2="1342.38" y2="0.96796" gradientUnits="userSpaceOnUse">
<stop stop-color="#5B00FF"/>
<stop offset="0.09" stop-color="#5B00FF" stop-opacity="0.97"/>
<stop offset="0.22" stop-color="#5B00FF" stop-opacity="0.88"/>
<stop offset="0.38" stop-color="#5B00FF" stop-opacity="0.74"/>
<stop offset="0.57" stop-color="#5B00FF" stop-opacity="0.55"/>
<stop offset="0.78" stop-color="#5B00FF" stop-opacity="0.3"/>
<stop offset="1" stop-color="#5B00FF" stop-opacity="0"/>
</linearGradient>
<linearGradient id="paint10_linear_49_17418" x1="1371.62" y1="0.96796" x2="1371.62" y2="0.96796" gradientUnits="userSpaceOnUse">
<stop stop-color="#5B00FF"/>
<stop offset="0.09" stop-color="#5B00FF" stop-opacity="0.97"/>
<stop offset="0.22" stop-color="#5B00FF" stop-opacity="0.88"/>
<stop offset="0.38" stop-color="#5B00FF" stop-opacity="0.74"/>
<stop offset="0.57" stop-color="#5B00FF" stop-opacity="0.55"/>
<stop offset="0.78" stop-color="#5B00FF" stop-opacity="0.3"/>
<stop offset="1" stop-color="#5B00FF" stop-opacity="0"/>
</linearGradient>
<linearGradient id="paint11_linear_49_17418" x1="1386.22" y1="0.96796" x2="1386.22" y2="0.96796" gradientUnits="userSpaceOnUse">
<stop stop-color="#5B00FF"/>
<stop offset="0.09" stop-color="#5B00FF" stop-opacity="0.97"/>
<stop offset="0.22" stop-color="#5B00FF" stop-opacity="0.88"/>
<stop offset="0.38" stop-color="#5B00FF" stop-opacity="0.74"/>
<stop offset="0.57" stop-color="#5B00FF" stop-opacity="0.55"/>
<stop offset="0.78" stop-color="#5B00FF" stop-opacity="0.3"/>
<stop offset="1" stop-color="#5B00FF" stop-opacity="0"/>
</linearGradient>
<linearGradient id="paint12_linear_49_17418" x1="1400.85" y1="0.96796" x2="1400.85" y2="0.96796" gradientUnits="userSpaceOnUse">
<stop stop-color="#5B00FF"/>
<stop offset="0.09" stop-color="#5B00FF" stop-opacity="0.97"/>
<stop offset="0.22" stop-color="#5B00FF" stop-opacity="0.88"/>
<stop offset="0.38" stop-color="#5B00FF" stop-opacity="0.74"/>
<stop offset="0.57" stop-color="#5B00FF" stop-opacity="0.55"/>
<stop offset="0.78" stop-color="#5B00FF" stop-opacity="0.3"/>
<stop offset="1" stop-color="#5B00FF" stop-opacity="0"/>
</linearGradient>
</defs>
</svg>
