<svg width="26" height="25" viewBox="0 0 26 25" fill="none" xmlns="http://www.w3.org/2000/svg">
<g id="Add Photo" clip-path="url(#clip0_2061_3592)">
<path id="Vector" d="M3.22079 8.67557C3.22079 9.20775 3.6878 9.64317 4.25858 9.64317C4.82937 9.64317 5.29637 9.20775 5.29637 8.67557V6.74036H7.37195C7.94274 6.74036 8.40974 6.30494 8.40974 5.77276C8.40974 5.24058 7.94274 4.80515 7.37195 4.80515H5.29637V2.86995C5.29637 2.33777 4.82937 1.90234 4.25858 1.90234C3.6878 1.90234 3.22079 2.33777 3.22079 2.86995V4.80515H1.14521C0.574427 4.80515 0.107422 5.24058 0.107422 5.77276C0.107422 6.30494 0.574427 6.74036 1.14521 6.74036H3.22079V8.67557Z" fill="white"/>
<path id="Vector_2" d="M13.5977 17.3837C15.3172 17.3837 16.7111 16.0841 16.7111 14.4809C16.7111 12.8778 15.3172 11.5781 13.5977 11.5781C11.8783 11.5781 10.4844 12.8778 10.4844 14.4809C10.4844 16.0841 11.8783 17.3837 13.5977 17.3837Z" fill="white"/>
<path id="Vector_3" d="M21.9009 6.74185H18.6111L17.3243 5.43558C16.9403 5.03887 16.3799 4.80664 15.7987 4.80664H9.15686C9.33329 5.09692 9.44744 5.41623 9.44744 5.77424C9.44744 6.83861 8.51343 7.70945 7.37186 7.70945H6.33407V8.67706C6.33407 9.74142 5.40006 10.6123 4.25849 10.6123C3.87451 10.6123 3.53204 10.5058 3.2207 10.3413V20.2883C3.2207 21.3527 4.15471 22.2235 5.29628 22.2235H21.9009C23.0425 22.2235 23.9765 21.3527 23.9765 20.2883V8.67706C23.9765 7.61269 23.0425 6.74185 21.9009 6.74185ZM13.5986 19.3207C10.7343 19.3207 8.40965 17.1533 8.40965 14.4827C8.40965 11.8121 10.7343 9.64466 13.5986 9.64466C16.4629 9.64466 18.7876 11.8121 18.7876 14.4827C18.7876 17.1533 16.4629 19.3207 13.5986 19.3207Z" fill="white"/>
</g>
<defs>
<clipPath id="clip0_2061_3592">
<rect width="24.907" height="23.2225" fill="white" transform="translate(0.107422 0.935547)"/>
</clipPath>
</defs>
</svg>
