<svg width="562" height="86" viewBox="0 0 562 86" fill="none" xmlns="http://www.w3.org/2000/svg">
<mask id="path-1-outside-1_303_1462" maskUnits="userSpaceOnUse" x="2" y="-3.19995" width="547" height="58" fill="black">
<rect fill="white" x="2" y="-3.19995" width="547" height="58"/>
<path d="M53.928 36.048C52.008 40.896 48.888 44.832 44.568 47.856C40.248 50.88 35.4 52.392 30.024 52.392C22.92 52.392 16.848 49.896 11.808 44.904C6.816 39.864 4.32 33.792 4.32 26.688C4.32 19.584 6.816 13.536 11.808 8.54405C16.848 3.50405 22.92 0.984046 30.024 0.984046C34.776 0.984046 39.192 2.20805 43.272 4.65605C47.208 7.05605 50.28 10.272 52.488 14.304L32.112 26.688C32.256 26.688 39.528 29.808 53.928 36.048ZM49.248 37.848L48.312 37.488C46.296 36.672 41.904 34.992 35.136 32.448L34.56 34.032L46.656 38.712C45.6 40.152 44.4 41.424 43.056 42.528L44.136 43.896C45.912 42.408 47.616 40.392 49.248 37.848ZM109.658 26.688C109.658 33.792 107.138 39.864 102.098 44.904C97.1057 49.896 91.0577 52.392 83.9537 52.392C76.8497 52.392 70.7777 49.896 65.7377 44.904C60.7457 39.864 58.2497 33.792 58.2497 26.688C58.2497 19.584 60.7457 13.536 65.7377 8.54405C70.7777 3.50405 76.8497 0.984046 83.9537 0.984046C91.0577 0.984046 97.1057 3.50405 102.098 8.54405C107.138 13.536 109.658 19.584 109.658 26.688ZM86.6177 26.688C86.6177 25.968 86.3537 25.344 85.8257 24.816C85.2977 24.288 84.6737 24.024 83.9537 24.024C83.2337 24.024 82.6097 24.288 82.0817 24.816C81.5537 25.344 81.2897 25.968 81.2897 26.688C81.2897 27.408 81.5537 28.032 82.0817 28.56C82.6097 29.088 83.2337 29.352 83.9537 29.352C84.6737 29.352 85.2977 29.088 85.8257 28.56C86.3537 28.032 86.6177 27.408 86.6177 26.688ZM83.9537 48.936V47.208C78.2897 47.208 73.4417 45.216 69.4097 41.232C65.4257 37.2 63.4337 32.352 63.4337 26.688H61.7057C61.7057 32.832 63.8657 38.088 68.1857 42.456C72.5537 46.776 77.8097 48.936 83.9537 48.936ZM165.416 52.392H114.008V0.984046L139.712 26.688L165.416 0.984046V52.392ZM161.96 48.936V37.128H160.232V47.208H147.632V48.936H161.96ZM127.256 19.128L117.464 9.33605V27.624H119.191V13.512L126.032 20.352L127.256 19.128ZM188.629 52.392H169.765V0.984046H188.629V52.392ZM178.549 48.936V47.208H174.949V12.144H173.221V48.936H178.549ZM237.464 52.392H192.968V0.984046L218.528 26.544V0.984046H237.464V52.392ZM233.936 48.936V37.128H232.208V47.208H219.68V48.936H233.936ZM206.216 19.128L196.424 9.33605V27.624H198.152V13.512L204.992 20.352L206.216 19.128ZM291.373 26.616V52.392H267.469C260.365 52.392 254.293 49.896 249.253 44.904C244.261 39.864 241.765 33.792 241.765 26.688C241.765 19.584 244.261 13.536 249.253 8.54405C254.293 3.50405 260.365 0.984046 267.469 0.984046C272.221 0.984046 276.637 2.20805 280.717 4.65605C284.653 7.05605 287.725 10.272 289.933 14.304L269.557 26.688L291.373 26.616ZM285.181 13.152C280.525 7.68005 274.957 4.80005 268.477 4.51205L268.405 6.24005C274.021 6.48005 278.725 8.66405 282.517 12.792L273.301 18.336L274.237 19.776L285.181 13.152ZM287.917 31.512H286.189V47.208H273.517V48.936H287.917V31.512ZM386.225 18.984L374.057 22.224C374.585 24.288 374.849 26.376 374.849 28.488C374.849 33.864 373.241 38.688 370.025 42.96C366.713 47.376 362.393 50.28 357.065 51.672C355.001 52.248 352.913 52.536 350.801 52.536C345.425 52.536 340.577 50.904 336.257 47.64C331.937 44.328 329.057 40.008 327.617 34.68L339.857 31.44C339.281 29.376 338.993 27.288 338.993 25.176C338.993 19.8 340.625 14.952 343.889 10.632C347.201 6.31205 351.521 3.43204 356.849 1.99205C358.865 1.41605 360.929 1.12804 363.041 1.12804C368.417 1.12804 373.265 2.78404 377.585 6.09605C381.953 9.36005 384.833 13.656 386.225 18.984ZM365.705 42.456L364.409 41.304C360.857 45.288 356.297 47.28 350.729 47.28C347.513 47.28 344.513 46.536 341.729 45.048C338.801 43.464 336.449 41.184 334.673 38.208L340.721 36.624L340.289 34.896L332.081 37.056C334.049 40.752 336.761 43.704 340.217 45.912C343.721 48.072 347.417 49.152 351.305 49.152C356.921 49.152 361.721 46.92 365.705 42.456ZM441.955 26.688C441.955 33.792 439.435 39.864 434.395 44.904C429.403 49.896 423.355 52.392 416.251 52.392C409.147 52.392 403.075 49.896 398.035 44.904C393.043 39.864 390.547 33.792 390.547 26.688C390.547 19.584 393.043 13.536 398.035 8.54405C403.075 3.50405 409.147 0.984046 416.251 0.984046C423.355 0.984046 429.403 3.50405 434.395 8.54405C439.435 13.536 441.955 19.584 441.955 26.688ZM418.915 26.688C418.915 25.968 418.651 25.344 418.123 24.816C417.595 24.288 416.971 24.024 416.251 24.024C415.531 24.024 414.907 24.288 414.379 24.816C413.851 25.344 413.587 25.968 413.587 26.688C413.587 27.408 413.851 28.032 414.379 28.56C414.907 29.088 415.531 29.352 416.251 29.352C416.971 29.352 417.595 29.088 418.123 28.56C418.651 28.032 418.915 27.408 418.915 26.688ZM416.251 48.936V47.208C410.587 47.208 405.739 45.216 401.707 41.232C397.723 37.2 395.731 32.352 395.731 26.688H394.003C394.003 32.832 396.163 38.088 400.483 42.456C404.851 46.776 410.107 48.936 416.251 48.936ZM497.712 26.688C497.712 33.792 495.192 39.864 490.152 44.904C485.16 49.896 479.112 52.392 472.008 52.392C464.904 52.392 458.832 49.896 453.792 44.904C448.8 39.864 446.304 33.792 446.304 26.688C446.304 19.584 448.8 13.536 453.792 8.54405C458.832 3.50405 464.904 0.984046 472.008 0.984046C479.112 0.984046 485.16 3.50405 490.152 8.54405C495.192 13.536 497.712 19.584 497.712 26.688ZM474.672 26.688C474.672 25.968 474.408 25.344 473.88 24.816C473.352 24.288 472.728 24.024 472.008 24.024C471.288 24.024 470.664 24.288 470.136 24.816C469.608 25.344 469.344 25.968 469.344 26.688C469.344 27.408 469.608 28.032 470.136 28.56C470.664 29.088 471.288 29.352 472.008 29.352C472.728 29.352 473.352 29.088 473.88 28.56C474.408 28.032 474.672 27.408 474.672 26.688ZM472.008 48.936V47.208C466.344 47.208 461.496 45.216 457.464 41.232C453.48 37.2 451.488 32.352 451.488 26.688H449.76C449.76 32.832 451.92 38.088 456.24 42.456C460.608 46.776 465.864 48.936 472.008 48.936ZM546.558 52.392H502.062V0.984046L527.622 26.544V0.984046H546.558V52.392ZM543.03 48.936V37.128H541.302V47.208H528.774V48.936H543.03ZM515.31 19.128L505.518 9.33605V27.624H507.246V13.512L514.086 20.352L515.31 19.128Z"/>
</mask>
<path d="M53.928 36.048C52.008 40.896 48.888 44.832 44.568 47.856C40.248 50.88 35.4 52.392 30.024 52.392C22.92 52.392 16.848 49.896 11.808 44.904C6.816 39.864 4.32 33.792 4.32 26.688C4.32 19.584 6.816 13.536 11.808 8.54405C16.848 3.50405 22.92 0.984046 30.024 0.984046C34.776 0.984046 39.192 2.20805 43.272 4.65605C47.208 7.05605 50.28 10.272 52.488 14.304L32.112 26.688C32.256 26.688 39.528 29.808 53.928 36.048ZM49.248 37.848L48.312 37.488C46.296 36.672 41.904 34.992 35.136 32.448L34.56 34.032L46.656 38.712C45.6 40.152 44.4 41.424 43.056 42.528L44.136 43.896C45.912 42.408 47.616 40.392 49.248 37.848ZM109.658 26.688C109.658 33.792 107.138 39.864 102.098 44.904C97.1057 49.896 91.0577 52.392 83.9537 52.392C76.8497 52.392 70.7777 49.896 65.7377 44.904C60.7457 39.864 58.2497 33.792 58.2497 26.688C58.2497 19.584 60.7457 13.536 65.7377 8.54405C70.7777 3.50405 76.8497 0.984046 83.9537 0.984046C91.0577 0.984046 97.1057 3.50405 102.098 8.54405C107.138 13.536 109.658 19.584 109.658 26.688ZM86.6177 26.688C86.6177 25.968 86.3537 25.344 85.8257 24.816C85.2977 24.288 84.6737 24.024 83.9537 24.024C83.2337 24.024 82.6097 24.288 82.0817 24.816C81.5537 25.344 81.2897 25.968 81.2897 26.688C81.2897 27.408 81.5537 28.032 82.0817 28.56C82.6097 29.088 83.2337 29.352 83.9537 29.352C84.6737 29.352 85.2977 29.088 85.8257 28.56C86.3537 28.032 86.6177 27.408 86.6177 26.688ZM83.9537 48.936V47.208C78.2897 47.208 73.4417 45.216 69.4097 41.232C65.4257 37.2 63.4337 32.352 63.4337 26.688H61.7057C61.7057 32.832 63.8657 38.088 68.1857 42.456C72.5537 46.776 77.8097 48.936 83.9537 48.936ZM165.416 52.392H114.008V0.984046L139.712 26.688L165.416 0.984046V52.392ZM161.96 48.936V37.128H160.232V47.208H147.632V48.936H161.96ZM127.256 19.128L117.464 9.33605V27.624H119.191V13.512L126.032 20.352L127.256 19.128ZM188.629 52.392H169.765V0.984046H188.629V52.392ZM178.549 48.936V47.208H174.949V12.144H173.221V48.936H178.549ZM237.464 52.392H192.968V0.984046L218.528 26.544V0.984046H237.464V52.392ZM233.936 48.936V37.128H232.208V47.208H219.68V48.936H233.936ZM206.216 19.128L196.424 9.33605V27.624H198.152V13.512L204.992 20.352L206.216 19.128ZM291.373 26.616V52.392H267.469C260.365 52.392 254.293 49.896 249.253 44.904C244.261 39.864 241.765 33.792 241.765 26.688C241.765 19.584 244.261 13.536 249.253 8.54405C254.293 3.50405 260.365 0.984046 267.469 0.984046C272.221 0.984046 276.637 2.20805 280.717 4.65605C284.653 7.05605 287.725 10.272 289.933 14.304L269.557 26.688L291.373 26.616ZM285.181 13.152C280.525 7.68005 274.957 4.80005 268.477 4.51205L268.405 6.24005C274.021 6.48005 278.725 8.66405 282.517 12.792L273.301 18.336L274.237 19.776L285.181 13.152ZM287.917 31.512H286.189V47.208H273.517V48.936H287.917V31.512ZM386.225 18.984L374.057 22.224C374.585 24.288 374.849 26.376 374.849 28.488C374.849 33.864 373.241 38.688 370.025 42.96C366.713 47.376 362.393 50.28 357.065 51.672C355.001 52.248 352.913 52.536 350.801 52.536C345.425 52.536 340.577 50.904 336.257 47.64C331.937 44.328 329.057 40.008 327.617 34.68L339.857 31.44C339.281 29.376 338.993 27.288 338.993 25.176C338.993 19.8 340.625 14.952 343.889 10.632C347.201 6.31205 351.521 3.43204 356.849 1.99205C358.865 1.41605 360.929 1.12804 363.041 1.12804C368.417 1.12804 373.265 2.78404 377.585 6.09605C381.953 9.36005 384.833 13.656 386.225 18.984ZM365.705 42.456L364.409 41.304C360.857 45.288 356.297 47.28 350.729 47.28C347.513 47.28 344.513 46.536 341.729 45.048C338.801 43.464 336.449 41.184 334.673 38.208L340.721 36.624L340.289 34.896L332.081 37.056C334.049 40.752 336.761 43.704 340.217 45.912C343.721 48.072 347.417 49.152 351.305 49.152C356.921 49.152 361.721 46.92 365.705 42.456ZM441.955 26.688C441.955 33.792 439.435 39.864 434.395 44.904C429.403 49.896 423.355 52.392 416.251 52.392C409.147 52.392 403.075 49.896 398.035 44.904C393.043 39.864 390.547 33.792 390.547 26.688C390.547 19.584 393.043 13.536 398.035 8.54405C403.075 3.50405 409.147 0.984046 416.251 0.984046C423.355 0.984046 429.403 3.50405 434.395 8.54405C439.435 13.536 441.955 19.584 441.955 26.688ZM418.915 26.688C418.915 25.968 418.651 25.344 418.123 24.816C417.595 24.288 416.971 24.024 416.251 24.024C415.531 24.024 414.907 24.288 414.379 24.816C413.851 25.344 413.587 25.968 413.587 26.688C413.587 27.408 413.851 28.032 414.379 28.56C414.907 29.088 415.531 29.352 416.251 29.352C416.971 29.352 417.595 29.088 418.123 28.56C418.651 28.032 418.915 27.408 418.915 26.688ZM416.251 48.936V47.208C410.587 47.208 405.739 45.216 401.707 41.232C397.723 37.2 395.731 32.352 395.731 26.688H394.003C394.003 32.832 396.163 38.088 400.483 42.456C404.851 46.776 410.107 48.936 416.251 48.936ZM497.712 26.688C497.712 33.792 495.192 39.864 490.152 44.904C485.16 49.896 479.112 52.392 472.008 52.392C464.904 52.392 458.832 49.896 453.792 44.904C448.8 39.864 446.304 33.792 446.304 26.688C446.304 19.584 448.8 13.536 453.792 8.54405C458.832 3.50405 464.904 0.984046 472.008 0.984046C479.112 0.984046 485.16 3.50405 490.152 8.54405C495.192 13.536 497.712 19.584 497.712 26.688ZM474.672 26.688C474.672 25.968 474.408 25.344 473.88 24.816C473.352 24.288 472.728 24.024 472.008 24.024C471.288 24.024 470.664 24.288 470.136 24.816C469.608 25.344 469.344 25.968 469.344 26.688C469.344 27.408 469.608 28.032 470.136 28.56C470.664 29.088 471.288 29.352 472.008 29.352C472.728 29.352 473.352 29.088 473.88 28.56C474.408 28.032 474.672 27.408 474.672 26.688ZM472.008 48.936V47.208C466.344 47.208 461.496 45.216 457.464 41.232C453.48 37.2 451.488 32.352 451.488 26.688H449.76C449.76 32.832 451.92 38.088 456.24 42.456C460.608 46.776 465.864 48.936 472.008 48.936ZM546.558 52.392H502.062V0.984046L527.622 26.544V0.984046H546.558V52.392ZM543.03 48.936V37.128H541.302V47.208H528.774V48.936H543.03ZM515.31 19.128L505.518 9.33605V27.624H507.246V13.512L514.086 20.352L515.31 19.128Z" fill="url(#paint0_linear_303_1462)"/>
<path d="M53.928 36.048L55.3226 36.6004L55.8576 35.2494L54.5244 34.6717L53.928 36.048ZM44.568 47.856L43.7078 46.6272H43.7078L44.568 47.856ZM11.808 44.904L10.7423 45.9596L10.7473 45.9647L10.7524 45.9698L11.808 44.904ZM11.808 8.54405L12.8687 9.60471H12.8687L11.808 8.54405ZM43.272 4.65605L44.0529 3.37532L44.0437 3.36981L43.272 4.65605ZM52.488 14.304L53.2671 15.5859L54.4923 14.8412L53.8036 13.5836L52.488 14.304ZM32.112 26.688L31.3329 25.4062L26.7559 28.188H32.112V26.688ZM49.248 37.848L50.5105 38.658L51.5044 37.1088L49.7865 36.448L49.248 37.848ZM48.312 37.488L47.7492 38.8785L47.7613 38.8834L47.7735 38.8881L48.312 37.488ZM35.136 32.448L35.6638 31.044L34.2445 30.5105L33.7263 31.9354L35.136 32.448ZM34.56 34.032L33.1503 33.5194L32.648 34.9007L34.0187 35.431L34.56 34.032ZM46.656 38.712L47.8656 39.5991L49.0238 38.0198L47.1973 37.3131L46.656 38.712ZM43.056 42.528L42.1039 41.369L40.9671 42.3028L41.8787 43.4575L43.056 42.528ZM44.136 43.896L42.9587 44.8255L43.9156 46.0376L45.0993 45.0458L44.136 43.896ZM52.5334 35.4957C50.7228 40.0675 47.7902 43.7695 43.7078 46.6272L45.4282 49.0849C49.9858 45.8946 53.2932 41.7246 55.3226 36.6004L52.5334 35.4957ZM43.7078 46.6272C39.6451 49.4711 35.0987 50.892 30.024 50.892V53.892C35.7014 53.892 40.8509 52.289 45.4282 49.0849L43.7078 46.6272ZM30.024 50.892C23.3147 50.892 17.6222 48.5517 12.8636 43.8383L10.7524 45.9698C16.0738 51.2404 22.5253 53.892 30.024 53.892V50.892ZM12.8737 43.8485C8.16038 39.0898 5.82 33.3974 5.82 26.688H2.82C2.82 34.1867 5.47162 40.6383 10.7423 45.9596L12.8737 43.8485ZM5.82 26.688C5.82 19.9791 8.15994 14.3134 12.8687 9.60471L10.7473 7.48339C5.47206 12.7587 2.82 19.189 2.82 26.688H5.82ZM12.8687 9.60471C17.6284 4.84496 23.3193 2.48405 30.024 2.48405V-0.515954C22.5207 -0.515954 16.0676 2.16314 10.7473 7.48339L12.8687 9.60471ZM30.024 2.48405C34.5038 2.48405 38.6531 3.63397 42.5003 5.94229L44.0437 3.36981C39.7309 0.782122 35.0482 -0.515954 30.024 -0.515954V2.48405ZM42.4911 5.93674C46.2035 8.20044 49.0909 11.2235 51.1724 15.0245L53.8036 13.5836C51.4691 9.32056 48.2125 5.91166 44.0529 3.37535L42.4911 5.93674ZM51.7089 13.0222L31.3329 25.4062L32.8911 27.9699L53.2671 15.5859L51.7089 13.0222ZM32.112 28.188C31.972 28.188 31.8649 28.1676 31.8354 28.162C31.7906 28.1535 31.7561 28.1446 31.7386 28.14C31.7033 28.1306 31.6791 28.1225 31.6753 28.1213C31.6649 28.1179 31.6681 28.1187 31.6936 28.1283C31.741 28.1461 31.8201 28.1772 31.9371 28.2246C32.1683 28.3182 32.5129 28.4613 32.9748 28.6557C33.8968 29.0436 35.2654 29.6269 37.0826 30.4065C40.716 31.9654 46.132 34.3046 53.3316 37.4244L54.5244 34.6717C47.324 31.5515 41.904 29.2107 38.2654 27.6496C36.4466 26.8692 35.0702 26.2825 34.1382 25.8904C33.6731 25.6947 33.3135 25.5454 33.0632 25.444C32.9394 25.3939 32.8335 25.3519 32.7514 25.321C32.7122 25.3062 32.6647 25.2887 32.6175 25.2731C32.5953 25.2657 32.5561 25.2531 32.5094 25.2407C32.4862 25.2345 32.4468 25.2245 32.3979 25.2152C32.3645 25.2088 32.2542 25.188 32.112 25.188V28.188ZM49.7865 36.448L48.8505 36.088L47.7735 38.8881L48.7095 39.2481L49.7865 36.448ZM48.8748 36.0976C46.838 35.2732 42.4275 33.5864 35.6638 31.044L34.6082 33.8521C41.3805 36.3977 45.754 38.0709 47.7492 38.8785L48.8748 36.0976ZM33.7263 31.9354L33.1503 33.5194L35.9697 34.5447L36.5457 32.9607L33.7263 31.9354ZM34.0187 35.431L46.1147 40.111L47.1973 37.3131L35.1013 32.6331L34.0187 35.431ZM45.4464 37.825C44.4625 39.1666 43.3485 40.3466 42.1039 41.369L44.0081 43.6871C45.4515 42.5015 46.7375 41.1375 47.8656 39.5991L45.4464 37.825ZM41.8787 43.4575L42.9587 44.8255L45.3133 42.9666L44.2333 41.5986L41.8787 43.4575ZM45.0993 45.0458C47.0209 43.4359 48.8201 41.2931 50.5105 38.658L47.9855 37.0381C46.4119 39.491 44.8031 41.3802 43.1727 42.7463L45.0993 45.0458ZM102.098 44.904L103.158 45.9647L102.098 44.904ZM65.7377 44.904L64.672 45.9596L64.677 45.9647L64.6821 45.9698L65.7377 44.904ZM65.7377 8.54405L66.7983 9.60471L65.7377 8.54405ZM102.098 8.54405L101.032 9.59962L101.037 9.60472L101.042 9.60977L102.098 8.54405ZM85.8257 24.816L86.8864 23.7554L86.8863 23.7554L85.8257 24.816ZM82.0817 28.56L83.1423 27.4994V27.4994L82.0817 28.56ZM83.9537 48.936V50.436H85.4537V48.936H83.9537ZM83.9537 47.208H85.4537V45.708H83.9537V47.208ZM69.4097 41.232L68.3427 42.2863L68.349 42.2927L68.3554 42.299L69.4097 41.232ZM63.4337 26.688H64.9337V25.188H63.4337V26.688ZM61.7057 26.688V25.188H60.2057V26.688H61.7057ZM68.1857 42.456L67.1192 43.5108L67.125 43.5167L67.1309 43.5226L68.1857 42.456ZM108.158 26.688C108.158 33.3927 105.797 39.0836 101.037 43.8434L103.158 45.9647C108.479 40.6445 111.158 34.1914 111.158 26.688H108.158ZM101.037 43.8434C96.3283 48.5521 90.6627 50.892 83.9537 50.892V53.892C91.4527 53.892 97.8831 51.24 103.158 45.9647L101.037 43.8434ZM83.9537 50.892C77.2444 50.892 71.5519 48.5517 66.7933 43.8383L64.6821 45.9698C70.0034 51.2404 76.455 53.892 83.9537 53.892V50.892ZM66.8034 43.8485C62.0901 39.0898 59.7497 33.3974 59.7497 26.688H56.7497C56.7497 34.1867 59.4013 40.6383 64.672 45.9596L66.8034 43.8485ZM59.7497 26.688C59.7497 19.9791 62.0896 14.3134 66.7983 9.60471L64.677 7.48339C59.4017 12.7587 56.7497 19.189 56.7497 26.688H59.7497ZM66.7983 9.60471C71.5581 4.84496 77.249 2.48405 83.9537 2.48405V-0.515954C76.4504 -0.515954 69.9973 2.16314 64.677 7.48339L66.7983 9.60471ZM83.9537 2.48405C90.658 2.48405 96.3221 4.8445 101.032 9.59962L103.163 7.48847C97.8892 2.1636 91.4574 -0.515954 83.9537 -0.515954V2.48405ZM101.042 9.60977C105.797 14.3196 108.158 19.9837 108.158 26.688H111.158C111.158 19.1844 108.478 12.7525 103.153 7.47832L101.042 9.60977ZM88.1177 26.688C88.1177 25.554 87.684 24.553 86.8864 23.7554L84.765 25.8767C85.0234 26.1351 85.1177 26.382 85.1177 26.688H88.1177ZM86.8863 23.7554C86.0887 22.9577 85.0877 22.524 83.9537 22.524V25.524C84.2597 25.524 84.5067 25.6184 84.765 25.8767L86.8863 23.7554ZM83.9537 22.524C82.8197 22.524 81.8187 22.9577 81.021 23.7554L83.1423 25.8767C83.4007 25.6184 83.6477 25.524 83.9537 25.524V22.524ZM81.021 23.7554C80.2234 24.553 79.7897 25.554 79.7897 26.688H82.7897C82.7897 26.382 82.884 26.1351 83.1423 25.8767L81.021 23.7554ZM79.7897 26.688C79.7897 27.8221 80.2234 28.8231 81.021 29.6207L83.1423 27.4994C82.884 27.241 82.7897 26.994 82.7897 26.688H79.7897ZM81.021 29.6207C81.8187 30.4184 82.8197 30.852 83.9537 30.852V27.852C83.6477 27.852 83.4007 27.7577 83.1423 27.4994L81.021 29.6207ZM83.9537 30.852C85.0877 30.852 86.0887 30.4184 86.8864 29.6207L84.765 27.4994C84.5067 27.7577 84.2597 27.852 83.9537 27.852V30.852ZM86.8864 29.6207C87.684 28.8231 88.1177 27.8221 88.1177 26.688H85.1177C85.1177 26.994 85.0234 27.241 84.765 27.4994L86.8864 29.6207ZM85.4537 48.936V47.208H82.4537V48.936H85.4537ZM83.9537 45.708C78.6847 45.708 74.2154 43.8719 70.464 40.1651L68.3554 42.299C72.6679 46.5602 77.8946 48.708 83.9537 48.708V45.708ZM70.4767 40.1778C66.7699 36.4263 64.9337 31.957 64.9337 26.688H61.9337C61.9337 32.7471 64.0815 37.9738 68.3427 42.2863L70.4767 40.1778ZM63.4337 25.188H61.7057V28.188H63.4337V25.188ZM60.2057 26.688C60.2057 33.227 62.5214 38.862 67.1192 43.5108L69.2522 41.4013C65.2099 37.3141 63.2057 32.4371 63.2057 26.688H60.2057ZM67.1309 43.5226C71.7797 48.1203 77.4148 50.436 83.9537 50.436V47.436C78.2046 47.436 73.3276 45.4318 69.2405 41.3895L67.1309 43.5226ZM165.415 52.392V53.892H166.915V52.392H165.415ZM114.007 52.392H112.507V53.892H114.007V52.392ZM114.007 0.984046L115.068 -0.0766137L112.507 -2.63727V0.984046H114.007ZM139.712 26.688L138.651 27.7487L139.712 28.8094L140.772 27.7487L139.712 26.688ZM165.415 0.984046H166.915V-2.63727L164.355 -0.0766137L165.415 0.984046ZM161.96 48.936V50.436H163.46V48.936H161.96ZM161.96 37.128H163.46V35.628H161.96V37.128ZM160.232 37.128V35.628H158.732V37.128H160.232ZM160.232 47.208V48.708H161.732V47.208H160.232ZM147.632 47.208V45.708H146.132V47.208H147.632ZM147.632 48.936H146.132V50.436H147.632V48.936ZM127.256 19.128L128.316 20.1887L129.377 19.128L128.316 18.0674L127.256 19.128ZM117.464 9.33605L118.524 8.27539L115.964 5.71473V9.33605H117.464ZM117.464 27.624H115.964V29.124H117.464V27.624ZM119.191 27.624V29.124H120.691V27.624H119.191ZM119.191 13.512L120.252 12.4514L117.691 9.89073V13.512H119.191ZM126.032 20.352L124.971 21.4127L126.032 22.4734L127.092 21.4127L126.032 20.352ZM165.415 50.892H114.007V53.892H165.415V50.892ZM115.507 52.392V0.984046H112.507V52.392H115.507ZM112.947 2.04471L138.651 27.7487L140.772 25.6274L115.068 -0.0766137L112.947 2.04471ZM140.772 27.7487L166.476 2.04471L164.355 -0.0766137L138.651 25.6274L140.772 27.7487ZM163.915 0.984046V52.392H166.915V0.984046H163.915ZM163.46 48.936V37.128H160.46V48.936H163.46ZM161.96 35.628H160.232V38.628H161.96V35.628ZM158.732 37.128V47.208H161.732V37.128H158.732ZM160.232 45.708H147.632V48.708H160.232V45.708ZM146.132 47.208V48.936H149.132V47.208H146.132ZM147.632 50.436H161.96V47.436H147.632V50.436ZM128.316 18.0674L118.524 8.27539L116.403 10.3967L126.195 20.1887L128.316 18.0674ZM115.964 9.33605V27.624H118.964V9.33605H115.964ZM117.464 29.124H119.191V26.124H117.464V29.124ZM120.691 27.624V13.512H117.691V27.624H120.691ZM118.131 14.5727L124.971 21.4127L127.092 19.2914L120.252 12.4514L118.131 14.5727ZM127.092 21.4127L128.316 20.1887L126.195 18.0674L124.971 19.2914L127.092 21.4127ZM188.629 52.392V53.892H190.129V52.392H188.629ZM169.765 52.392H168.265V53.892H169.765V52.392ZM169.765 0.984046V-0.515954H168.265V0.984046H169.765ZM188.629 0.984046H190.129V-0.515954H188.629V0.984046ZM178.549 48.936V50.436H180.049V48.936H178.549ZM178.549 47.208H180.049V45.708H178.549V47.208ZM174.949 47.208H173.449V48.708H174.949V47.208ZM174.949 12.144H176.449V10.644H174.949V12.144ZM173.221 12.144V10.644H171.721V12.144H173.221ZM173.221 48.936H171.721V50.436H173.221V48.936ZM188.629 50.892H169.765V53.892H188.629V50.892ZM171.265 52.392V0.984046H168.265V52.392H171.265ZM169.765 2.48405H188.629V-0.515954H169.765V2.48405ZM187.129 0.984046V52.392H190.129V0.984046H187.129ZM180.049 48.936V47.208H177.049V48.936H180.049ZM178.549 45.708H174.949V48.708H178.549V45.708ZM176.449 47.208V12.144H173.449V47.208H176.449ZM174.949 10.644H173.221V13.644H174.949V10.644ZM171.721 12.144V48.936H174.721V12.144H171.721ZM173.221 50.436H178.549V47.436H173.221V50.436ZM237.464 52.392V53.892H238.964V52.392H237.464ZM192.968 52.392H191.468V53.892H192.968V52.392ZM192.968 0.984046L194.029 -0.0766137L191.468 -2.63727V0.984046H192.968ZM218.528 26.544L217.468 27.6047L220.028 30.1654V26.544H218.528ZM218.528 0.984046V-0.515954H217.028V0.984046H218.528ZM237.464 0.984046H238.964V-0.515954H237.464V0.984046ZM233.936 48.936V50.436H235.436V48.936H233.936ZM233.936 37.128H235.436V35.628H233.936V37.128ZM232.208 37.128V35.628H230.708V37.128H232.208ZM232.208 47.208V48.708H233.708V47.208H232.208ZM219.68 47.208V45.708H218.18V47.208H219.68ZM219.68 48.936H218.18V50.436H219.68V48.936ZM206.216 19.128L207.277 20.1887L208.338 19.128L207.277 18.0674L206.216 19.128ZM196.424 9.33605L197.485 8.27539L194.924 5.71473V9.33605H196.424ZM196.424 27.624H194.924V29.124H196.424V27.624ZM198.152 27.624V29.124H199.652V27.624H198.152ZM198.152 13.512L199.213 12.4514L196.652 9.89073V13.512H198.152ZM204.992 20.352L203.932 21.4127L204.992 22.4734L206.053 21.4127L204.992 20.352ZM237.464 50.892H192.968V53.892H237.464V50.892ZM194.468 52.392V0.984046H191.468V52.392H194.468ZM191.908 2.04471L217.468 27.6047L219.589 25.4834L194.029 -0.0766137L191.908 2.04471ZM220.028 26.544V0.984046H217.028V26.544H220.028ZM218.528 2.48405H237.464V-0.515954H218.528V2.48405ZM235.964 0.984046V52.392H238.964V0.984046H235.964ZM235.436 48.936V37.128H232.436V48.936H235.436ZM233.936 35.628H232.208V38.628H233.936V35.628ZM230.708 37.128V47.208H233.708V37.128H230.708ZM232.208 45.708H219.68V48.708H232.208V45.708ZM218.18 47.208V48.936H221.18V47.208H218.18ZM219.68 50.436H233.936V47.436H219.68V50.436ZM207.277 18.0674L197.485 8.27539L195.364 10.3967L205.156 20.1887L207.277 18.0674ZM194.924 9.33605V27.624H197.924V9.33605H194.924ZM196.424 29.124H198.152V26.124H196.424V29.124ZM199.652 27.624V13.512H196.652V27.624H199.652ZM197.092 14.5727L203.932 21.4127L206.053 19.2914L199.213 12.4514L197.092 14.5727ZM206.053 21.4127L207.277 20.1887L205.156 18.0674L203.932 19.2914L206.053 21.4127ZM291.373 26.616H292.873V25.1111L291.368 25.1161L291.373 26.616ZM291.373 52.392V53.892H292.873V52.392H291.373ZM249.253 44.904L248.188 45.9596L248.193 45.9647L248.198 45.9698L249.253 44.904ZM249.253 8.54405L250.314 9.60471L249.253 8.54405ZM280.717 4.65605L281.498 3.37532L281.489 3.36981L280.717 4.65605ZM289.933 14.304L290.712 15.5859L291.938 14.8412L291.249 13.5836L289.933 14.304ZM269.557 26.688L268.778 25.4062L264.172 28.2058L269.562 28.188L269.557 26.688ZM285.181 13.152L285.958 14.4353L287.466 13.5225L286.324 12.18L285.181 13.152ZM268.477 4.51205L268.544 3.01353L267.041 2.94674L266.979 4.4496L268.477 4.51205ZM268.405 6.24005L266.907 6.1776L266.844 7.6747L268.341 7.73868L268.405 6.24005ZM282.517 12.792L283.291 14.0774L284.865 13.1303L283.622 11.7773L282.517 12.792ZM273.301 18.336L272.528 17.0507L271.197 17.8513L272.044 19.1535L273.301 18.336ZM274.237 19.776L272.98 20.5935L273.771 21.8115L275.014 21.0593L274.237 19.776ZM287.917 31.512H289.417V30.012H287.917V31.512ZM286.189 31.512V30.012H284.689V31.512H286.189ZM286.189 47.208V48.708H287.689V47.208H286.189ZM273.517 47.208V45.708H272.017V47.208H273.517ZM273.517 48.936H272.017V50.436H273.517V48.936ZM287.917 48.936V50.436H289.417V48.936H287.917ZM289.873 26.616V52.392H292.873V26.616H289.873ZM291.373 50.892H267.469V53.892H291.373V50.892ZM267.469 50.892C260.76 50.892 255.068 48.5517 250.309 43.8383L248.198 45.9698C253.519 51.2404 259.971 53.892 267.469 53.892V50.892ZM250.319 43.8485C245.606 39.0898 243.265 33.3974 243.265 26.688H240.265C240.265 34.1867 242.917 40.6383 248.188 45.9596L250.319 43.8485ZM243.265 26.688C243.265 19.9791 245.605 14.3134 250.314 9.60471L248.193 7.48339C242.917 12.7587 240.265 19.189 240.265 26.688H243.265ZM250.314 9.60471C255.074 4.84496 260.765 2.48405 267.469 2.48405V-0.515954C259.966 -0.515954 253.513 2.16314 248.193 7.48339L250.314 9.60471ZM267.469 2.48405C271.949 2.48405 276.098 3.63397 279.946 5.94229L281.489 3.36981C277.176 0.782122 272.494 -0.515954 267.469 -0.515954V2.48405ZM279.936 5.93674C283.649 8.20044 286.536 11.2235 288.618 15.0245L291.249 13.5836C288.914 9.32056 285.658 5.91166 281.498 3.37535L279.936 5.93674ZM289.154 13.0222L268.778 25.4062L270.336 27.9699L290.712 15.5859L289.154 13.0222ZM269.562 28.188L291.378 28.116L291.368 25.1161L269.552 25.1881L269.562 28.188ZM286.324 12.18C281.43 6.42863 275.487 3.32212 268.544 3.01353L268.411 6.01057C274.427 6.27797 279.621 8.93147 284.039 14.1241L286.324 12.18ZM266.979 4.4496L266.907 6.1776L269.904 6.30249L269.976 4.5745L266.979 4.4496ZM268.341 7.73868C273.561 7.96175 277.891 9.97258 281.413 13.8068L283.622 11.7773C279.56 7.35551 274.481 4.99834 268.469 4.74142L268.341 7.73868ZM281.744 11.5067L272.528 17.0507L274.075 19.6214L283.291 14.0774L281.744 11.5067ZM272.044 19.1535L272.98 20.5935L275.495 18.9586L274.559 17.5186L272.044 19.1535ZM275.014 21.0593L285.958 14.4353L284.405 11.8688L273.461 18.4928L275.014 21.0593ZM287.917 30.012H286.189V33.012H287.917V30.012ZM284.689 31.512V47.208H287.689V31.512H284.689ZM286.189 45.708H273.517V48.708H286.189V45.708ZM272.017 47.208V48.936H275.017V47.208H272.017ZM273.517 50.436H287.917V47.436H273.517V50.436ZM289.417 48.936V31.512H286.417V48.936H289.417ZM386.225 18.984L386.611 20.4335L388.054 20.0494L387.676 18.6049L386.225 18.984ZM374.057 22.224L373.671 20.7746L372.236 21.1568L372.604 22.5958L374.057 22.224ZM370.025 42.96L368.827 42.0579L368.825 42.06L370.025 42.96ZM357.065 51.672L356.686 50.2208L356.674 50.2239L356.662 50.2273L357.065 51.672ZM336.257 47.64L335.344 48.8305L335.353 48.8368L336.257 47.64ZM327.617 34.68L327.233 33.23L325.775 33.6158L326.169 35.0714L327.617 34.68ZM339.857 31.44L340.241 32.8901L341.71 32.5011L341.302 31.0368L339.857 31.44ZM343.889 10.632L342.698 9.71938L342.692 9.7278L343.889 10.632ZM356.849 1.99205L357.24 3.44009L357.251 3.43729L357.261 3.43433L356.849 1.99205ZM377.585 6.09605L376.672 7.28645L376.68 7.29209L376.687 7.29763L377.585 6.09605ZM365.705 42.456L366.824 43.4548L367.825 42.3335L366.701 41.3349L365.705 42.456ZM364.409 41.304L365.405 40.1829L364.286 39.1879L363.289 40.3058L364.409 41.304ZM341.729 45.048L341.015 46.3674L341.022 46.3709L341.729 45.048ZM334.673 38.208L334.293 36.757L332.362 37.2627L333.385 38.9767L334.673 38.208ZM340.721 36.624L341.101 38.0751L342.536 37.6993L342.176 36.2602L340.721 36.624ZM340.289 34.896L341.744 34.5322L341.376 33.059L339.907 33.4454L340.289 34.896ZM332.081 37.056L331.699 35.6054L329.866 36.0879L330.757 37.761L332.081 37.056ZM340.217 45.912L339.409 47.1761L339.419 47.1826L339.43 47.1889L340.217 45.912ZM385.839 17.5346L373.671 20.7746L374.443 23.6735L386.611 20.4335L385.839 17.5346ZM372.604 22.5958C373.101 24.5394 373.349 26.5025 373.349 28.488H376.349C376.349 26.2496 376.069 24.0367 375.51 21.8523L372.604 22.5958ZM373.349 28.488C373.349 33.5405 371.846 38.0474 368.827 42.0579L371.223 43.8622C374.636 39.3287 376.349 34.1876 376.349 28.488H373.349ZM368.825 42.06C365.716 46.2055 361.685 48.9147 356.686 50.2208L357.444 53.1233C363.101 51.6454 367.71 48.5466 371.225 43.86L368.825 42.06ZM356.662 50.2273C354.727 50.7672 352.775 51.036 350.801 51.036V54.036C353.051 54.036 355.275 53.7289 357.468 53.1168L356.662 50.2273ZM350.801 51.036C345.754 51.036 341.223 49.512 337.161 46.4432L335.353 48.8368C339.931 52.2961 345.096 54.036 350.801 54.036V51.036ZM337.17 46.4496C333.115 43.341 330.42 39.3036 329.065 34.2887L326.169 35.0714C327.693 40.7125 330.759 45.3151 335.344 48.8305L337.17 46.4496ZM328.001 36.1301L340.241 32.8901L339.473 29.99L327.233 33.23L328.001 36.1301ZM341.302 31.0368C340.762 29.1022 340.493 27.1498 340.493 25.176H337.493C337.493 27.4263 337.8 29.6499 338.412 31.8432L341.302 31.0368ZM340.493 25.176C340.493 20.1289 342.017 15.5979 345.086 11.5363L342.692 9.7278C339.233 14.3062 337.493 19.4712 337.493 25.176H340.493ZM345.079 11.5447C348.188 7.48993 352.225 4.79546 357.24 3.44009L356.458 0.544001C350.816 2.06863 346.214 5.13416 342.698 9.7194L345.079 11.5447ZM357.261 3.43433C359.142 2.8969 361.067 2.62804 363.041 2.62804V-0.371955C360.791 -0.371955 358.588 -0.0648124 356.437 0.549761L357.261 3.43433ZM363.041 2.62804C368.082 2.62804 372.611 4.1725 376.672 7.28645L378.498 4.90564C373.919 1.39559 368.751 -0.371955 363.041 -0.371955V2.62804ZM376.687 7.29763C380.78 10.3559 383.467 14.3606 384.774 19.3632L387.676 18.6049C386.199 12.9515 383.126 8.36415 378.483 4.89446L376.687 7.29763ZM366.701 41.3349L365.405 40.1829L363.412 42.4252L364.708 43.5772L366.701 41.3349ZM363.289 40.3058C360.036 43.9553 355.89 45.78 350.729 45.78V48.78C356.704 48.78 361.678 46.6208 365.529 42.3023L363.289 40.3058ZM350.729 45.78C347.755 45.78 344.998 45.0946 342.436 43.7252L341.022 46.3709C344.028 47.9775 347.271 48.78 350.729 48.78V45.78ZM342.443 43.7287C339.762 42.2786 337.604 40.1934 335.961 37.4394L333.385 38.9767C335.293 42.1747 337.84 44.6495 341.015 46.3674L342.443 43.7287ZM335.053 39.6591L341.101 38.0751L340.341 35.173L334.293 36.757L335.053 39.6591ZM342.176 36.2602L341.744 34.5322L338.834 35.2598L339.266 36.9879L342.176 36.2602ZM339.907 33.4454L331.699 35.6054L332.463 38.5067L340.671 36.3467L339.907 33.4454ZM330.757 37.761C332.843 41.6797 335.731 44.8262 339.409 47.1761L341.024 44.648C337.791 42.5819 335.254 39.8244 333.405 36.3511L330.757 37.761ZM339.43 47.1889C343.156 49.4859 347.122 50.6521 351.305 50.6521V47.6521C347.711 47.6521 344.286 46.6582 341.004 44.6352L339.43 47.1889ZM351.305 50.6521C357.379 50.6521 362.576 48.2142 366.824 43.4548L364.586 41.4573C360.865 45.6259 356.463 47.6521 351.305 47.6521V50.6521ZM434.395 44.904L435.455 45.9647L434.395 44.904ZM398.035 44.904L396.969 45.9596L396.974 45.9647L396.979 45.9698L398.035 44.904ZM398.035 8.54405L399.095 9.60471L398.035 8.54405ZM434.395 8.54405L433.329 9.59962L433.334 9.60472L433.339 9.60977L434.395 8.54405ZM418.123 24.816L419.183 23.7554V23.7554L418.123 24.816ZM414.379 28.56L415.439 27.4994V27.4994L414.379 28.56ZM416.251 48.936V50.436H417.751V48.936H416.251ZM416.251 47.208H417.751V45.708H416.251V47.208ZM401.707 41.232L400.64 42.2863L400.646 42.2927L400.652 42.299L401.707 41.232ZM395.731 26.688H397.231V25.188H395.731V26.688ZM394.003 26.688V25.188H392.503V26.688H394.003ZM400.483 42.456L399.416 43.5108L399.422 43.5167L399.428 43.5226L400.483 42.456ZM440.455 26.688C440.455 33.3927 438.094 39.0836 433.334 43.8434L435.455 45.9647C440.775 40.6445 443.455 34.1914 443.455 26.688H440.455ZM433.334 43.8434C428.625 48.5521 422.96 50.892 416.251 50.892V53.892C423.75 53.892 430.18 51.24 435.455 45.9647L433.334 43.8434ZM416.251 50.892C409.541 50.892 403.849 48.5517 399.09 43.8383L396.979 45.9698C402.3 51.2404 408.752 53.892 416.251 53.892V50.892ZM399.1 43.8485C394.387 39.0898 392.047 33.3974 392.047 26.688H389.047C389.047 34.1867 391.698 40.6383 396.969 45.9596L399.1 43.8485ZM392.047 26.688C392.047 19.9791 394.387 14.3134 399.095 9.60471L396.974 7.48339C391.699 12.7587 389.047 19.189 389.047 26.688H392.047ZM399.095 9.60471C403.855 4.84496 409.546 2.48405 416.251 2.48405V-0.515954C408.747 -0.515954 402.294 2.16314 396.974 7.48339L399.095 9.60471ZM416.251 2.48405C422.955 2.48405 428.619 4.8445 433.329 9.59962L435.46 7.48847C430.186 2.1636 423.754 -0.515954 416.251 -0.515954V2.48405ZM433.339 9.60977C438.094 14.3196 440.455 19.9837 440.455 26.688H443.455C443.455 19.1844 440.775 12.7525 435.45 7.47832L433.339 9.60977ZM420.415 26.688C420.415 25.554 419.981 24.553 419.183 23.7554L417.062 25.8767C417.32 26.1351 417.415 26.382 417.415 26.688H420.415ZM419.183 23.7554C418.386 22.9577 417.385 22.524 416.251 22.524V25.524C416.557 25.524 416.804 25.6184 417.062 25.8767L419.183 23.7554ZM416.251 22.524C415.117 22.524 414.116 22.9577 413.318 23.7554L415.439 25.8767C415.698 25.6184 415.945 25.524 416.251 25.524V22.524ZM413.318 23.7554C412.52 24.553 412.087 25.554 412.087 26.688H415.087C415.087 26.382 415.181 26.1351 415.439 25.8767L413.318 23.7554ZM412.087 26.688C412.087 27.8221 412.52 28.8231 413.318 29.6207L415.439 27.4994C415.181 27.241 415.087 26.994 415.087 26.688H412.087ZM413.318 29.6207C414.116 30.4184 415.117 30.852 416.251 30.852V27.852C415.945 27.852 415.698 27.7577 415.439 27.4994L413.318 29.6207ZM416.251 30.852C417.385 30.852 418.386 30.4184 419.183 29.6207L417.062 27.4994C416.804 27.7577 416.557 27.852 416.251 27.852V30.852ZM419.183 29.6207C419.981 28.8231 420.415 27.8221 420.415 26.688H417.415C417.415 26.994 417.32 27.241 417.062 27.4994L419.183 29.6207ZM417.751 48.936V47.208H414.751V48.936H417.751ZM416.251 45.708C410.982 45.708 406.512 43.8719 402.761 40.1651L400.652 42.299C404.965 46.5602 410.192 48.708 416.251 48.708V45.708ZM402.774 40.1778C399.067 36.4263 397.231 31.957 397.231 26.688H394.231C394.231 32.7471 396.378 37.9738 400.64 42.2863L402.774 40.1778ZM395.731 25.188H394.003V28.188H395.731V25.188ZM392.503 26.688C392.503 33.227 394.818 38.862 399.416 43.5108L401.549 41.4013C397.507 37.3141 395.503 32.4371 395.503 26.688H392.503ZM399.428 43.5226C404.077 48.1203 409.712 50.436 416.251 50.436V47.436C410.501 47.436 405.625 45.4318 401.537 41.3895L399.428 43.5226ZM490.152 44.904L491.213 45.9647L490.152 44.904ZM453.792 44.904L452.727 45.9596L452.732 45.9647L452.737 45.9698L453.792 44.904ZM453.792 8.54405L454.853 9.60471L453.792 8.54405ZM490.152 8.54405L489.087 9.59962L489.092 9.60472L489.097 9.60977L490.152 8.54405ZM473.88 24.816L474.941 23.7554V23.7554L473.88 24.816ZM470.136 28.56L471.197 27.4994V27.4994L470.136 28.56ZM472.008 48.936V50.436H473.508V48.936H472.008ZM472.008 47.208H473.508V45.708H472.008V47.208ZM457.464 41.232L456.397 42.2863L456.404 42.2927L456.41 42.299L457.464 41.232ZM451.488 26.688H452.988V25.188H451.488V26.688ZM449.76 26.688V25.188H448.26V26.688H449.76ZM456.24 42.456L455.174 43.5108L455.18 43.5167L455.186 43.5226L456.24 42.456ZM496.212 26.688C496.212 33.3927 493.851 39.0836 489.092 43.8434L491.213 45.9647C496.533 40.6445 499.212 34.1914 499.212 26.688H496.212ZM489.092 43.8434C484.383 48.5521 478.717 50.892 472.008 50.892V53.892C479.507 53.892 485.938 51.24 491.213 45.9647L489.092 43.8434ZM472.008 50.892C465.299 50.892 459.607 48.5517 454.848 43.8383L452.737 45.9698C458.058 51.2404 464.51 53.892 472.008 53.892V50.892ZM454.858 43.8485C450.145 39.0898 447.804 33.3974 447.804 26.688H444.804C444.804 34.1867 447.456 40.6383 452.727 45.9596L454.858 43.8485ZM447.804 26.688C447.804 19.9791 450.144 14.3134 454.853 9.60471L452.732 7.48339C447.456 12.7587 444.804 19.189 444.804 26.688H447.804ZM454.853 9.60471C459.613 4.84496 465.304 2.48405 472.008 2.48405V-0.515954C464.505 -0.515954 458.052 2.16314 452.732 7.48339L454.853 9.60471ZM472.008 2.48405C478.713 2.48405 484.377 4.8445 489.087 9.59962L491.218 7.48847C485.944 2.1636 479.512 -0.515954 472.008 -0.515954V2.48405ZM489.097 9.60977C493.852 14.3196 496.212 19.9837 496.212 26.688H499.212C499.212 19.1844 496.533 12.7525 491.208 7.47832L489.097 9.60977ZM476.172 26.688C476.172 25.554 475.739 24.553 474.941 23.7554L472.82 25.8767C473.078 26.1351 473.172 26.382 473.172 26.688H476.172ZM474.941 23.7554C474.143 22.9577 473.142 22.524 472.008 22.524V25.524C472.314 25.524 472.561 25.6184 472.82 25.8767L474.941 23.7554ZM472.008 22.524C470.874 22.524 469.873 22.9577 469.076 23.7554L471.197 25.8767C471.455 25.6184 471.702 25.524 472.008 25.524V22.524ZM469.076 23.7554C468.278 24.553 467.844 25.554 467.844 26.688H470.844C470.844 26.382 470.939 26.1351 471.197 25.8767L469.076 23.7554ZM467.844 26.688C467.844 27.8221 468.278 28.8231 469.076 29.6207L471.197 27.4994C470.939 27.241 470.844 26.994 470.844 26.688H467.844ZM469.076 29.6207C469.873 30.4184 470.874 30.852 472.008 30.852V27.852C471.702 27.852 471.455 27.7577 471.197 27.4994L469.076 29.6207ZM472.008 30.852C473.142 30.852 474.143 30.4184 474.941 29.6207L472.82 27.4994C472.561 27.7577 472.314 27.852 472.008 27.852V30.852ZM474.941 29.6207C475.739 28.8231 476.172 27.8221 476.172 26.688H473.172C473.172 26.994 473.078 27.241 472.82 27.4994L474.941 29.6207ZM473.508 48.936V47.208H470.508V48.936H473.508ZM472.008 45.708C466.739 45.708 462.27 43.8719 458.519 40.1651L456.41 42.299C460.723 46.5602 465.949 48.708 472.008 48.708V45.708ZM458.531 40.1778C454.825 36.4263 452.988 31.957 452.988 26.688H449.988C449.988 32.7471 452.136 37.9738 456.397 42.2863L458.531 40.1778ZM451.488 25.188H449.76V28.188H451.488V25.188ZM448.26 26.688C448.26 33.227 450.576 38.862 455.174 43.5108L457.307 41.4013C453.265 37.3141 451.26 32.4371 451.26 26.688H448.26ZM455.186 43.5226C459.834 48.1203 465.469 50.436 472.008 50.436V47.436C466.259 47.436 461.382 45.4318 457.295 41.3895L455.186 43.5226ZM546.558 52.392V53.892H548.058V52.392H546.558ZM502.062 52.392H500.562V53.892H502.062V52.392ZM502.062 0.984046L503.123 -0.0766137L500.562 -2.63727V0.984046H502.062ZM527.622 26.544L526.562 27.6047L529.122 30.1654V26.544H527.622ZM527.622 0.984046V-0.515954H526.122V0.984046H527.622ZM546.558 0.984046H548.058V-0.515954H546.558V0.984046ZM543.03 48.936V50.436H544.53V48.936H543.03ZM543.03 37.128H544.53V35.628H543.03V37.128ZM541.302 37.128V35.628H539.802V37.128H541.302ZM541.302 47.208V48.708H542.802V47.208H541.302ZM528.774 47.208V45.708H527.274V47.208H528.774ZM528.774 48.936H527.274V50.436H528.774V48.936ZM515.31 19.128L516.371 20.1887L517.432 19.128L516.371 18.0674L515.31 19.128ZM505.518 9.33605L506.579 8.27539L504.018 5.71473V9.33605H505.518ZM505.518 27.624H504.018V29.124H505.518V27.624ZM507.246 27.624V29.124H508.746V27.624H507.246ZM507.246 13.512L508.307 12.4514L505.746 9.89073V13.512H507.246ZM514.086 20.352L513.026 21.4127L514.086 22.4734L515.147 21.4127L514.086 20.352ZM546.558 50.892H502.062V53.892H546.558V50.892ZM503.562 52.392V0.984046H500.562V52.392H503.562ZM501.002 2.04471L526.562 27.6047L528.683 25.4834L503.123 -0.0766137L501.002 2.04471ZM529.122 26.544V0.984046H526.122V26.544H529.122ZM527.622 2.48405H546.558V-0.515954H527.622V2.48405ZM545.058 0.984046V52.392H548.058V0.984046H545.058ZM544.53 48.936V37.128H541.53V48.936H544.53ZM543.03 35.628H541.302V38.628H543.03V35.628ZM539.802 37.128V47.208H542.802V37.128H539.802ZM541.302 45.708H528.774V48.708H541.302V45.708ZM527.274 47.208V48.936H530.274V47.208H527.274ZM528.774 50.436H543.03V47.436H528.774V50.436ZM516.371 18.0674L506.579 8.27539L504.458 10.3967L514.25 20.1887L516.371 18.0674ZM504.018 9.33605V27.624H507.018V9.33605H504.018ZM505.518 29.124H507.246V26.124H505.518V29.124ZM508.746 27.624V13.512H505.746V27.624H508.746ZM506.186 14.5727L513.026 21.4127L515.147 19.2914L508.307 12.4514L506.186 14.5727ZM515.147 21.4127L516.371 20.1887L514.25 18.0674L513.026 19.2914L515.147 21.4127Z" fill="url(#paint1_linear_303_1462)" mask="url(#path-1-outside-1_303_1462)"/>
<mask id="path-3-outside-2_303_1462" maskUnits="userSpaceOnUse" x="18" y="9.80005" width="545" height="56" fill="black">
<rect fill="white" x="18" y="9.80005" width="545" height="56"/>
<path d="M68.928 48.048C67.008 52.896 63.888 56.832 59.568 59.856C55.248 62.88 50.4 64.392 45.024 64.392C37.92 64.392 31.848 61.896 26.808 56.904C21.816 51.864 19.32 45.792 19.32 38.688C19.32 31.584 21.816 25.536 26.808 20.544C31.848 15.504 37.92 12.984 45.024 12.984C49.776 12.984 54.192 14.208 58.272 16.656C62.208 19.056 65.28 22.272 67.488 26.304L47.112 38.688C47.256 38.688 54.528 41.808 68.928 48.048ZM64.248 49.848L63.312 49.488C61.296 48.672 56.904 46.992 50.136 44.448L49.56 46.032L61.656 50.712C60.6 52.152 59.4 53.424 58.056 54.528L59.136 55.896C60.912 54.408 62.616 52.392 64.248 49.848ZM124.658 38.688C124.658 45.792 122.138 51.864 117.098 56.904C112.106 61.896 106.058 64.392 98.9537 64.392C91.8497 64.392 85.7777 61.896 80.7377 56.904C75.7457 51.864 73.2497 45.792 73.2497 38.688C73.2497 31.584 75.7457 25.536 80.7377 20.544C85.7777 15.504 91.8497 12.984 98.9537 12.984C106.058 12.984 112.106 15.504 117.098 20.544C122.138 25.536 124.658 31.584 124.658 38.688ZM101.618 38.688C101.618 37.968 101.354 37.344 100.826 36.816C100.298 36.288 99.6737 36.024 98.9537 36.024C98.2337 36.024 97.6097 36.288 97.0817 36.816C96.5537 37.344 96.2897 37.968 96.2897 38.688C96.2897 39.408 96.5537 40.032 97.0817 40.56C97.6097 41.088 98.2337 41.352 98.9537 41.352C99.6737 41.352 100.298 41.088 100.826 40.56C101.354 40.032 101.618 39.408 101.618 38.688ZM98.9537 60.936V59.208C93.2897 59.208 88.4417 57.216 84.4097 53.232C80.4257 49.2 78.4337 44.352 78.4337 38.688H76.7057C76.7057 44.832 78.8657 50.088 83.1857 54.456C87.5537 58.776 92.8097 60.936 98.9537 60.936ZM180.416 64.392H129.008V12.984L154.712 38.688L180.416 12.984V64.392ZM176.96 60.936V49.128H175.232V59.208H162.632V60.936H176.96ZM142.256 31.128L132.464 21.336V39.624H134.191V25.512L141.032 32.352L142.256 31.128ZM203.629 64.392H184.765V12.984H203.629V64.392ZM193.549 60.936V59.208H189.949V24.144H188.221V60.936H193.549ZM252.464 64.392H207.968V12.984L233.528 38.544V12.984H252.464V64.392ZM248.936 60.936V49.128H247.208V59.208H234.68V60.936H248.936ZM221.216 31.128L211.424 21.336V39.624H213.152V25.512L219.992 32.352L221.216 31.128ZM306.373 38.616V64.392H282.469C275.365 64.392 269.293 61.896 264.253 56.904C259.261 51.864 256.765 45.792 256.765 38.688C256.765 31.584 259.261 25.536 264.253 20.544C269.293 15.504 275.365 12.984 282.469 12.984C287.221 12.984 291.637 14.208 295.717 16.656C299.653 19.056 302.725 22.272 304.933 26.304L284.557 38.688L306.373 38.616ZM300.181 25.152C295.525 19.68 289.957 16.8 283.477 16.512L283.405 18.24C289.021 18.48 293.725 20.664 297.517 24.792L288.301 30.336L289.237 31.776L300.181 25.152ZM302.917 43.512H301.189V59.208H288.517V60.936H302.917V43.512ZM401.225 30.984L389.057 34.224C389.585 36.288 389.849 38.376 389.849 40.488C389.849 45.864 388.241 50.688 385.025 54.96C381.713 59.376 377.393 62.28 372.065 63.672C370.001 64.248 367.913 64.536 365.801 64.536C360.425 64.536 355.577 62.904 351.257 59.64C346.937 56.328 344.057 52.008 342.617 46.68L354.857 43.44C354.281 41.376 353.993 39.288 353.993 37.176C353.993 31.8 355.625 26.952 358.889 22.632C362.201 18.312 366.521 15.432 371.849 13.992C373.865 13.416 375.929 13.128 378.041 13.128C383.417 13.128 388.265 14.784 392.585 18.096C396.953 21.36 399.833 25.656 401.225 30.984ZM380.705 54.456L379.409 53.304C375.857 57.288 371.297 59.28 365.729 59.28C362.513 59.28 359.513 58.536 356.729 57.048C353.801 55.464 351.449 53.184 349.673 50.208L355.721 48.624L355.289 46.896L347.081 49.056C349.049 52.752 351.761 55.704 355.217 57.912C358.721 60.072 362.417 61.152 366.305 61.152C371.921 61.152 376.721 58.92 380.705 54.456ZM456.955 38.688C456.955 45.792 454.435 51.864 449.395 56.904C444.403 61.896 438.355 64.392 431.251 64.392C424.147 64.392 418.075 61.896 413.035 56.904C408.043 51.864 405.547 45.792 405.547 38.688C405.547 31.584 408.043 25.536 413.035 20.544C418.075 15.504 424.147 12.984 431.251 12.984C438.355 12.984 444.403 15.504 449.395 20.544C454.435 25.536 456.955 31.584 456.955 38.688ZM433.915 38.688C433.915 37.968 433.651 37.344 433.123 36.816C432.595 36.288 431.971 36.024 431.251 36.024C430.531 36.024 429.907 36.288 429.379 36.816C428.851 37.344 428.587 37.968 428.587 38.688C428.587 39.408 428.851 40.032 429.379 40.56C429.907 41.088 430.531 41.352 431.251 41.352C431.971 41.352 432.595 41.088 433.123 40.56C433.651 40.032 433.915 39.408 433.915 38.688ZM431.251 60.936V59.208C425.587 59.208 420.739 57.216 416.707 53.232C412.723 49.2 410.731 44.352 410.731 38.688H409.003C409.003 44.832 411.163 50.088 415.483 54.456C419.851 58.776 425.107 60.936 431.251 60.936ZM512.712 38.688C512.712 45.792 510.192 51.864 505.152 56.904C500.16 61.896 494.112 64.392 487.008 64.392C479.904 64.392 473.832 61.896 468.792 56.904C463.8 51.864 461.304 45.792 461.304 38.688C461.304 31.584 463.8 25.536 468.792 20.544C473.832 15.504 479.904 12.984 487.008 12.984C494.112 12.984 500.16 15.504 505.152 20.544C510.192 25.536 512.712 31.584 512.712 38.688ZM489.672 38.688C489.672 37.968 489.408 37.344 488.88 36.816C488.352 36.288 487.728 36.024 487.008 36.024C486.288 36.024 485.664 36.288 485.136 36.816C484.608 37.344 484.344 37.968 484.344 38.688C484.344 39.408 484.608 40.032 485.136 40.56C485.664 41.088 486.288 41.352 487.008 41.352C487.728 41.352 488.352 41.088 488.88 40.56C489.408 40.032 489.672 39.408 489.672 38.688ZM487.008 60.936V59.208C481.344 59.208 476.496 57.216 472.464 53.232C468.48 49.2 466.488 44.352 466.488 38.688H464.76C464.76 44.832 466.92 50.088 471.24 54.456C475.608 58.776 480.864 60.936 487.008 60.936ZM561.558 64.392H517.062V12.984L542.622 38.544V12.984H561.558V64.392ZM558.03 60.936V49.128H556.302V59.208H543.774V60.936H558.03ZM530.31 31.128L520.518 21.336V39.624H522.246V25.512L529.086 32.352L530.31 31.128Z"/>
</mask>
<path d="M68.928 48.048C67.008 52.896 63.888 56.832 59.568 59.856C55.248 62.88 50.4 64.392 45.024 64.392C37.92 64.392 31.848 61.896 26.808 56.904C21.816 51.864 19.32 45.792 19.32 38.688C19.32 31.584 21.816 25.536 26.808 20.544C31.848 15.504 37.92 12.984 45.024 12.984C49.776 12.984 54.192 14.208 58.272 16.656C62.208 19.056 65.28 22.272 67.488 26.304L47.112 38.688C47.256 38.688 54.528 41.808 68.928 48.048ZM64.248 49.848L63.312 49.488C61.296 48.672 56.904 46.992 50.136 44.448L49.56 46.032L61.656 50.712C60.6 52.152 59.4 53.424 58.056 54.528L59.136 55.896C60.912 54.408 62.616 52.392 64.248 49.848ZM124.658 38.688C124.658 45.792 122.138 51.864 117.098 56.904C112.106 61.896 106.058 64.392 98.9537 64.392C91.8497 64.392 85.7777 61.896 80.7377 56.904C75.7457 51.864 73.2497 45.792 73.2497 38.688C73.2497 31.584 75.7457 25.536 80.7377 20.544C85.7777 15.504 91.8497 12.984 98.9537 12.984C106.058 12.984 112.106 15.504 117.098 20.544C122.138 25.536 124.658 31.584 124.658 38.688ZM101.618 38.688C101.618 37.968 101.354 37.344 100.826 36.816C100.298 36.288 99.6737 36.024 98.9537 36.024C98.2337 36.024 97.6097 36.288 97.0817 36.816C96.5537 37.344 96.2897 37.968 96.2897 38.688C96.2897 39.408 96.5537 40.032 97.0817 40.56C97.6097 41.088 98.2337 41.352 98.9537 41.352C99.6737 41.352 100.298 41.088 100.826 40.56C101.354 40.032 101.618 39.408 101.618 38.688ZM98.9537 60.936V59.208C93.2897 59.208 88.4417 57.216 84.4097 53.232C80.4257 49.2 78.4337 44.352 78.4337 38.688H76.7057C76.7057 44.832 78.8657 50.088 83.1857 54.456C87.5537 58.776 92.8097 60.936 98.9537 60.936ZM180.416 64.392H129.008V12.984L154.712 38.688L180.416 12.984V64.392ZM176.96 60.936V49.128H175.232V59.208H162.632V60.936H176.96ZM142.256 31.128L132.464 21.336V39.624H134.191V25.512L141.032 32.352L142.256 31.128ZM203.629 64.392H184.765V12.984H203.629V64.392ZM193.549 60.936V59.208H189.949V24.144H188.221V60.936H193.549ZM252.464 64.392H207.968V12.984L233.528 38.544V12.984H252.464V64.392ZM248.936 60.936V49.128H247.208V59.208H234.68V60.936H248.936ZM221.216 31.128L211.424 21.336V39.624H213.152V25.512L219.992 32.352L221.216 31.128ZM306.373 38.616V64.392H282.469C275.365 64.392 269.293 61.896 264.253 56.904C259.261 51.864 256.765 45.792 256.765 38.688C256.765 31.584 259.261 25.536 264.253 20.544C269.293 15.504 275.365 12.984 282.469 12.984C287.221 12.984 291.637 14.208 295.717 16.656C299.653 19.056 302.725 22.272 304.933 26.304L284.557 38.688L306.373 38.616ZM300.181 25.152C295.525 19.68 289.957 16.8 283.477 16.512L283.405 18.24C289.021 18.48 293.725 20.664 297.517 24.792L288.301 30.336L289.237 31.776L300.181 25.152ZM302.917 43.512H301.189V59.208H288.517V60.936H302.917V43.512ZM401.225 30.984L389.057 34.224C389.585 36.288 389.849 38.376 389.849 40.488C389.849 45.864 388.241 50.688 385.025 54.96C381.713 59.376 377.393 62.28 372.065 63.672C370.001 64.248 367.913 64.536 365.801 64.536C360.425 64.536 355.577 62.904 351.257 59.64C346.937 56.328 344.057 52.008 342.617 46.68L354.857 43.44C354.281 41.376 353.993 39.288 353.993 37.176C353.993 31.8 355.625 26.952 358.889 22.632C362.201 18.312 366.521 15.432 371.849 13.992C373.865 13.416 375.929 13.128 378.041 13.128C383.417 13.128 388.265 14.784 392.585 18.096C396.953 21.36 399.833 25.656 401.225 30.984ZM380.705 54.456L379.409 53.304C375.857 57.288 371.297 59.28 365.729 59.28C362.513 59.28 359.513 58.536 356.729 57.048C353.801 55.464 351.449 53.184 349.673 50.208L355.721 48.624L355.289 46.896L347.081 49.056C349.049 52.752 351.761 55.704 355.217 57.912C358.721 60.072 362.417 61.152 366.305 61.152C371.921 61.152 376.721 58.92 380.705 54.456ZM456.955 38.688C456.955 45.792 454.435 51.864 449.395 56.904C444.403 61.896 438.355 64.392 431.251 64.392C424.147 64.392 418.075 61.896 413.035 56.904C408.043 51.864 405.547 45.792 405.547 38.688C405.547 31.584 408.043 25.536 413.035 20.544C418.075 15.504 424.147 12.984 431.251 12.984C438.355 12.984 444.403 15.504 449.395 20.544C454.435 25.536 456.955 31.584 456.955 38.688ZM433.915 38.688C433.915 37.968 433.651 37.344 433.123 36.816C432.595 36.288 431.971 36.024 431.251 36.024C430.531 36.024 429.907 36.288 429.379 36.816C428.851 37.344 428.587 37.968 428.587 38.688C428.587 39.408 428.851 40.032 429.379 40.56C429.907 41.088 430.531 41.352 431.251 41.352C431.971 41.352 432.595 41.088 433.123 40.56C433.651 40.032 433.915 39.408 433.915 38.688ZM431.251 60.936V59.208C425.587 59.208 420.739 57.216 416.707 53.232C412.723 49.2 410.731 44.352 410.731 38.688H409.003C409.003 44.832 411.163 50.088 415.483 54.456C419.851 58.776 425.107 60.936 431.251 60.936ZM512.712 38.688C512.712 45.792 510.192 51.864 505.152 56.904C500.16 61.896 494.112 64.392 487.008 64.392C479.904 64.392 473.832 61.896 468.792 56.904C463.8 51.864 461.304 45.792 461.304 38.688C461.304 31.584 463.8 25.536 468.792 20.544C473.832 15.504 479.904 12.984 487.008 12.984C494.112 12.984 500.16 15.504 505.152 20.544C510.192 25.536 512.712 31.584 512.712 38.688ZM489.672 38.688C489.672 37.968 489.408 37.344 488.88 36.816C488.352 36.288 487.728 36.024 487.008 36.024C486.288 36.024 485.664 36.288 485.136 36.816C484.608 37.344 484.344 37.968 484.344 38.688C484.344 39.408 484.608 40.032 485.136 40.56C485.664 41.088 486.288 41.352 487.008 41.352C487.728 41.352 488.352 41.088 488.88 40.56C489.408 40.032 489.672 39.408 489.672 38.688ZM487.008 60.936V59.208C481.344 59.208 476.496 57.216 472.464 53.232C468.48 49.2 466.488 44.352 466.488 38.688H464.76C464.76 44.832 466.92 50.088 471.24 54.456C475.608 58.776 480.864 60.936 487.008 60.936ZM561.558 64.392H517.062V12.984L542.622 38.544V12.984H561.558V64.392ZM558.03 60.936V49.128H556.302V59.208H543.774V60.936H558.03ZM530.31 31.128L520.518 21.336V39.624H522.246V25.512L529.086 32.352L530.31 31.128Z" fill="url(#paint2_linear_303_1462)"/>
<path d="M68.928 48.048L69.8577 48.4163L70.2144 47.5156L69.3256 47.1305L68.928 48.048ZM59.568 59.856L58.9945 59.0368L59.568 59.856ZM26.808 56.904L26.0975 57.6078L26.1043 57.6145L26.808 56.904ZM26.808 20.544L27.5151 21.2512L26.808 20.544ZM58.272 16.656L58.7926 15.8022L58.7865 15.7986L58.272 16.656ZM67.488 26.304L68.0074 27.1586L68.8242 26.6621L68.3651 25.8237L67.488 26.304ZM47.112 38.688L46.5926 37.8335L43.5413 39.688H47.112V38.688ZM64.248 49.848L65.0897 50.388L65.7523 49.3552L64.607 48.9147L64.248 49.848ZM63.312 49.488L62.9368 50.415L62.9449 50.4183L62.953 50.4214L63.312 49.488ZM50.136 44.448L50.4879 43.512L49.5417 43.1563L49.1962 44.1063L50.136 44.448ZM49.56 46.032L48.6202 45.6903L48.2854 46.6111L49.1992 46.9647L49.56 46.032ZM61.656 50.712L62.4624 51.3034L63.2345 50.2505L62.0168 49.7794L61.656 50.712ZM58.056 54.528L57.4213 53.7553L56.6634 54.3779L57.2711 55.1477L58.056 54.528ZM59.136 55.896L58.3511 56.5157L58.9891 57.3238L59.7782 56.6626L59.136 55.896ZM67.9983 47.6798C66.1512 52.3437 63.1561 56.1237 58.9945 59.0368L60.1415 60.6753C64.6199 57.5404 67.8648 53.4484 69.8577 48.4163L67.9983 47.6798ZM58.9945 59.0368C54.8461 61.9407 50.1991 63.392 45.024 63.392V65.392C50.6009 65.392 55.6499 63.8194 60.1415 60.6753L58.9945 59.0368ZM45.024 63.392C38.1831 63.392 32.3642 60.9998 27.5117 56.1936L26.1043 57.6145C31.3318 62.7923 37.6569 65.392 45.024 65.392V63.392ZM27.5185 56.2003C22.7123 51.3479 20.32 45.5289 20.32 38.688H18.32C18.32 46.0552 20.9197 52.3802 26.0975 57.6078L27.5185 56.2003ZM20.32 38.688C20.32 31.8474 22.712 26.0543 27.5151 21.2512L26.1009 19.8369C20.92 25.0178 18.32 31.3207 18.32 38.688H20.32ZM27.5151 21.2512C32.3683 16.398 38.1862 13.984 45.024 13.984V11.984C37.6538 11.984 31.3277 14.6101 26.1009 19.8369L27.5151 21.2512ZM45.024 13.984C49.5945 13.984 53.8327 15.1587 57.7575 17.5135L58.7865 15.7986C54.5513 13.2574 49.9575 11.984 45.024 11.984V13.984ZM57.7514 17.5098C61.5384 19.819 64.4872 22.9064 66.6109 26.7844L68.3651 25.8237C66.0728 21.6377 62.8776 18.2931 58.7926 15.8023L57.7514 17.5098ZM66.9686 25.4495L46.5926 37.8335L47.6314 39.5426L68.0074 27.1586L66.9686 25.4495ZM47.112 39.688C47.0191 39.688 46.9481 39.6745 46.9292 39.6709C46.8999 39.6653 46.8777 39.6596 46.867 39.6568C46.8549 39.6535 46.846 39.6509 46.8414 39.6495C46.8364 39.6479 46.8333 39.6469 46.8323 39.6466C46.8316 39.6463 46.8422 39.6499 46.8699 39.6604C46.923 39.6804 47.0066 39.7133 47.1248 39.7612C47.3591 39.8561 47.7063 40.0002 48.1687 40.1948C49.0924 40.5834 50.4622 41.1673 52.2797 41.947C55.914 43.5063 61.3307 45.8457 68.5304 48.9656L69.3256 47.1305C62.1254 44.0104 56.706 41.6698 53.0683 40.1091C51.2498 39.3288 49.8746 38.7427 48.9443 38.3513C48.4797 38.1558 48.1226 38.0075 47.8755 37.9074C47.7529 37.8578 47.6514 37.8176 47.5751 37.7888C47.5382 37.7749 47.4981 37.7602 47.4604 37.7478C47.4426 37.7419 47.414 37.7327 47.3809 37.7239C47.3645 37.7195 47.3374 37.7127 47.3042 37.7064C47.2812 37.702 47.2072 37.688 47.112 37.688V39.688ZM64.607 48.9147L63.671 48.5547L62.953 50.4214L63.889 50.7814L64.607 48.9147ZM63.6872 48.5611C61.6574 47.7395 57.253 46.0549 50.4879 43.512L49.7842 45.3841C56.555 47.9292 60.9346 49.6046 62.9368 50.415L63.6872 48.5611ZM49.1962 44.1063L48.6202 45.6903L50.4998 46.3738L51.0758 44.7898L49.1962 44.1063ZM49.1992 46.9647L61.2952 51.6447L62.0168 49.7794L49.9208 45.0994L49.1992 46.9647ZM60.8496 50.1207C59.8417 51.4951 58.699 52.7058 57.4213 53.7553L58.6907 55.3008C60.101 54.1423 61.3583 52.809 62.4624 51.3034L60.8496 50.1207ZM57.2711 55.1477L58.3511 56.5157L59.9209 55.2764L58.8409 53.9084L57.2711 55.1477ZM59.7782 56.6626C61.6513 55.0933 63.4187 52.9928 65.0897 50.388L63.4063 49.3081C61.8133 51.7913 60.1727 53.7228 58.4938 55.1295L59.7782 56.6626ZM117.098 56.904L117.805 57.6112L117.098 56.904ZM80.7377 56.904L80.0272 57.6078L80.034 57.6145L80.7377 56.904ZM80.7377 20.544L81.4448 21.2512L80.7377 20.544ZM117.098 20.544L116.387 21.2478L116.394 21.2545L117.098 20.544ZM100.826 36.816L101.533 36.1089L101.533 36.1089L100.826 36.816ZM97.0817 40.56L97.7888 39.8529L97.0817 40.56ZM98.9537 60.936V61.936H99.9537V60.936H98.9537ZM98.9537 59.208H99.9537V58.208H98.9537V59.208ZM84.4097 53.232L83.6983 53.935L83.7068 53.9434L84.4097 53.232ZM78.4337 38.688H79.4337V37.688H78.4337V38.688ZM76.7057 38.688V37.688H75.7057V38.688H76.7057ZM83.1857 54.456L82.4746 55.1593L82.4825 55.167L83.1857 54.456ZM123.658 38.688C123.658 45.5258 121.244 51.3438 116.391 56.1969L117.805 57.6112C123.032 52.3843 125.658 46.0583 125.658 38.688H123.658ZM116.391 56.1969C111.587 61.0001 105.794 63.392 98.9537 63.392V65.392C106.321 65.392 112.624 62.792 117.805 57.6112L116.391 56.1969ZM98.9537 63.392C92.1128 63.392 86.2938 60.9998 81.4414 56.1936L80.034 57.6145C85.2615 62.7923 91.5866 65.392 98.9537 65.392V63.392ZM81.4482 56.2003C76.6419 51.3479 74.2497 45.5289 74.2497 38.688H72.2497C72.2497 46.0552 74.8494 52.3802 80.0272 57.6078L81.4482 56.2003ZM74.2497 38.688C74.2497 31.8474 76.6417 26.0543 81.4448 21.2512L80.0306 19.8369C74.8497 25.0178 72.2497 31.3207 72.2497 38.688H74.2497ZM81.4448 21.2512C86.298 16.398 92.1159 13.984 98.9537 13.984V11.984C91.5835 11.984 85.2574 14.6101 80.0306 19.8369L81.4448 21.2512ZM98.9537 13.984C105.791 13.984 111.583 16.3977 116.387 21.2478L117.808 19.8403C112.628 14.6104 106.324 11.984 98.9537 11.984V13.984ZM116.394 21.2545C121.244 26.0584 123.658 31.8505 123.658 38.688H125.658C125.658 31.3176 123.031 25.0137 117.801 19.8336L116.394 21.2545ZM102.618 38.688C102.618 37.692 102.241 36.8167 101.533 36.1089L100.119 37.5232C100.467 37.8714 100.618 38.244 100.618 38.688H102.618ZM101.533 36.1089C100.825 35.4012 99.9497 35.024 98.9537 35.024V37.024C99.3977 37.024 99.7704 37.1749 100.119 37.5232L101.533 36.1089ZM98.9537 35.024C97.9577 35.024 97.0824 35.4012 96.3746 36.1089L97.7888 37.5232C98.137 37.1749 98.5097 37.024 98.9537 37.024V35.024ZM96.3746 36.1089C95.6668 36.8167 95.2897 37.692 95.2897 38.688H97.2897C97.2897 38.244 97.4406 37.8714 97.7888 37.5232L96.3746 36.1089ZM95.2897 38.688C95.2897 39.684 95.6668 40.5594 96.3746 41.2672L97.7888 39.8529C97.4406 39.5047 97.2897 39.132 97.2897 38.688H95.2897ZM96.3746 41.2672C97.0824 41.9749 97.9577 42.352 98.9537 42.352V40.352C98.5097 40.352 98.137 40.2012 97.7888 39.8529L96.3746 41.2672ZM98.9537 42.352C99.9497 42.352 100.825 41.9749 101.533 41.2672L100.119 39.8529C99.7704 40.2012 99.3977 40.352 98.9537 40.352V42.352ZM101.533 41.2672C102.241 40.5594 102.618 39.684 102.618 38.688H100.618C100.618 39.132 100.467 39.5047 100.119 39.8529L101.533 41.2672ZM99.9537 60.936V59.208H97.9537V60.936H99.9537ZM98.9537 58.208C93.5531 58.208 88.9575 56.3199 85.1125 52.5207L83.7068 53.9434C87.9258 58.1122 93.0263 60.208 98.9537 60.208V58.208ZM85.121 52.5292C81.3218 48.6842 79.4337 44.0887 79.4337 38.688H77.4337C77.4337 44.6154 79.5296 49.7159 83.6984 53.9349L85.121 52.5292ZM78.4337 37.688H76.7057V39.688H78.4337V37.688ZM75.7057 38.688C75.7057 45.0953 77.9695 50.604 82.4747 55.1592L83.8967 53.7529C79.7619 49.5721 77.7057 44.5688 77.7057 38.688H75.7057ZM82.4825 55.167C87.0377 59.6722 92.5464 61.936 98.9537 61.936V59.936C93.073 59.936 88.0696 57.8799 83.8889 53.745L82.4825 55.167ZM180.415 64.392V65.392H181.415V64.392H180.415ZM129.007 64.392H128.007V65.392H129.007V64.392ZM129.007 12.984L129.715 12.2769L128.007 10.5698V12.984H129.007ZM154.712 38.688L154.004 39.3952L154.712 40.1023L155.419 39.3952L154.712 38.688ZM180.415 12.984H181.415V10.5698L179.708 12.2769L180.415 12.984ZM176.96 60.936V61.936H177.96V60.936H176.96ZM176.96 49.128H177.96V48.128H176.96V49.128ZM175.232 49.128V48.128H174.232V49.128H175.232ZM175.232 59.208V60.208H176.232V59.208H175.232ZM162.632 59.208V58.208H161.632V59.208H162.632ZM162.632 60.936H161.632V61.936H162.632V60.936ZM142.256 31.128L142.963 31.8352L143.67 31.128L142.963 30.4209L142.256 31.128ZM132.464 21.336L133.171 20.6289L131.464 18.9218V21.336H132.464ZM132.464 39.624H131.464V40.624H132.464V39.624ZM134.191 39.624V40.624H135.191V39.624H134.191ZM134.191 25.512L134.899 24.8049L133.191 23.0978V25.512H134.191ZM141.032 32.352L140.324 33.0592L141.032 33.7663L141.739 33.0592L141.032 32.352ZM180.415 63.392H129.007V65.392H180.415V63.392ZM130.007 64.392V12.984H128.007V64.392H130.007ZM128.3 13.6912L154.004 39.3952L155.419 37.9809L129.715 12.2769L128.3 13.6912ZM155.419 39.3952L181.123 13.6912L179.708 12.2769L154.004 37.9809L155.419 39.3952ZM179.415 12.984V64.392H181.415V12.984H179.415ZM177.96 60.936V49.128H175.96V60.936H177.96ZM176.96 48.128H175.232V50.128H176.96V48.128ZM174.232 49.128V59.208H176.232V49.128H174.232ZM175.232 58.208H162.632V60.208H175.232V58.208ZM161.632 59.208V60.936H163.632V59.208H161.632ZM162.632 61.936H176.96V59.936H162.632V61.936ZM142.963 30.4209L133.171 20.6289L131.756 22.0432L141.548 31.8352L142.963 30.4209ZM131.464 21.336V39.624H133.464V21.336H131.464ZM132.464 40.624H134.191V38.624H132.464V40.624ZM135.191 39.624V25.512H133.191V39.624H135.191ZM133.484 26.2192L140.324 33.0592L141.739 31.6449L134.899 24.8049L133.484 26.2192ZM141.739 33.0592L142.963 31.8352L141.548 30.4209L140.324 31.6449L141.739 33.0592ZM203.629 64.392V65.392H204.629V64.392H203.629ZM184.765 64.392H183.765V65.392H184.765V64.392ZM184.765 12.984V11.984H183.765V12.984H184.765ZM203.629 12.984H204.629V11.984H203.629V12.984ZM193.549 60.936V61.936H194.549V60.936H193.549ZM193.549 59.208H194.549V58.208H193.549V59.208ZM189.949 59.208H188.949V60.208H189.949V59.208ZM189.949 24.144H190.949V23.144H189.949V24.144ZM188.221 24.144V23.144H187.221V24.144H188.221ZM188.221 60.936H187.221V61.936H188.221V60.936ZM203.629 63.392H184.765V65.392H203.629V63.392ZM185.765 64.392V12.984H183.765V64.392H185.765ZM184.765 13.984H203.629V11.984H184.765V13.984ZM202.629 12.984V64.392H204.629V12.984H202.629ZM194.549 60.936V59.208H192.549V60.936H194.549ZM193.549 58.208H189.949V60.208H193.549V58.208ZM190.949 59.208V24.144H188.949V59.208H190.949ZM189.949 23.144H188.221V25.144H189.949V23.144ZM187.221 24.144V60.936H189.221V24.144H187.221ZM188.221 61.936H193.549V59.936H188.221V61.936ZM252.464 64.392V65.392H253.464V64.392H252.464ZM207.968 64.392H206.968V65.392H207.968V64.392ZM207.968 12.984L208.676 12.2769L206.968 10.5698V12.984H207.968ZM233.528 38.544L232.821 39.2512L234.528 40.9583V38.544H233.528ZM233.528 12.984V11.984H232.528V12.984H233.528ZM252.464 12.984H253.464V11.984H252.464V12.984ZM248.936 60.936V61.936H249.936V60.936H248.936ZM248.936 49.128H249.936V48.128H248.936V49.128ZM247.208 49.128V48.128H246.208V49.128H247.208ZM247.208 59.208V60.208H248.208V59.208H247.208ZM234.68 59.208V58.208H233.68V59.208H234.68ZM234.68 60.936H233.68V61.936H234.68V60.936ZM221.216 31.128L221.924 31.8352L222.631 31.128L221.924 30.4209L221.216 31.128ZM211.424 21.336L212.132 20.6289L210.424 18.9218V21.336H211.424ZM211.424 39.624H210.424V40.624H211.424V39.624ZM213.152 39.624V40.624H214.152V39.624H213.152ZM213.152 25.512L213.86 24.8049L212.152 23.0978V25.512H213.152ZM219.992 32.352L219.285 33.0592L219.992 33.7663L220.7 33.0592L219.992 32.352ZM252.464 63.392H207.968V65.392H252.464V63.392ZM208.968 64.392V12.984H206.968V64.392H208.968ZM207.261 13.6912L232.821 39.2512L234.236 37.8369L208.676 12.2769L207.261 13.6912ZM234.528 38.544V12.984H232.528V38.544H234.528ZM233.528 13.984H252.464V11.984H233.528V13.984ZM251.464 12.984V64.392H253.464V12.984H251.464ZM249.936 60.936V49.128H247.936V60.936H249.936ZM248.936 48.128H247.208V50.128H248.936V48.128ZM246.208 49.128V59.208H248.208V49.128H246.208ZM247.208 58.208H234.68V60.208H247.208V58.208ZM233.68 59.208V60.936H235.68V59.208H233.68ZM234.68 61.936H248.936V59.936H234.68V61.936ZM221.924 30.4209L212.132 20.6289L210.717 22.0432L220.509 31.8352L221.924 30.4209ZM210.424 21.336V39.624H212.424V21.336H210.424ZM211.424 40.624H213.152V38.624H211.424V40.624ZM214.152 39.624V25.512H212.152V39.624H214.152ZM212.445 26.2192L219.285 33.0592L220.7 31.6449L213.86 24.8049L212.445 26.2192ZM220.7 33.0592L221.924 31.8352L220.509 30.4209L219.285 31.6449L220.7 33.0592ZM306.373 38.616H307.373V37.6127L306.37 37.6161L306.373 38.616ZM306.373 64.392V65.392H307.373V64.392H306.373ZM264.253 56.904L263.543 57.6078L263.55 57.6145L264.253 56.904ZM264.253 20.544L264.96 21.2512L264.253 20.544ZM295.717 16.656L296.238 15.8022L296.232 15.7986L295.717 16.656ZM304.933 26.304L305.453 27.1586L306.27 26.6621L305.81 25.8237L304.933 26.304ZM284.557 38.688L284.038 37.8335L280.967 39.6999L284.561 39.688L284.557 38.688ZM300.181 25.152L300.699 26.0075L301.704 25.399L300.943 24.504L300.181 25.152ZM283.477 16.512L283.522 15.513L282.52 15.4685L282.478 16.4704L283.477 16.512ZM283.405 18.24L282.406 18.1984L282.365 19.1965L283.363 19.2391L283.405 18.24ZM297.517 24.792L298.033 25.6489L299.082 25.0176L298.254 24.1155L297.517 24.792ZM288.301 30.336L287.786 29.4791L286.899 30.0129L287.463 30.881L288.301 30.336ZM289.237 31.776L288.399 32.321L288.927 33.133L289.755 32.6315L289.237 31.776ZM302.917 43.512H303.917V42.512H302.917V43.512ZM301.189 43.512V42.512H300.189V43.512H301.189ZM301.189 59.208V60.208H302.189V59.208H301.189ZM288.517 59.208V58.208H287.517V59.208H288.517ZM288.517 60.936H287.517V61.936H288.517V60.936ZM302.917 60.936V61.936H303.917V60.936H302.917ZM305.373 38.616V64.392H307.373V38.616H305.373ZM306.373 63.392H282.469V65.392H306.373V63.392ZM282.469 63.392C275.628 63.392 269.809 60.9998 264.957 56.1936L263.55 57.6145C268.777 62.7923 275.102 65.392 282.469 65.392V63.392ZM264.964 56.2003C260.158 51.3479 257.765 45.5289 257.765 38.688H255.765C255.765 46.0552 258.365 52.3802 263.543 57.6078L264.964 56.2003ZM257.765 38.688C257.765 31.8474 260.157 26.0543 264.96 21.2512L263.546 19.8369C258.365 25.0178 255.765 31.3207 255.765 38.688H257.765ZM264.96 21.2512C269.814 16.398 275.632 13.984 282.469 13.984V11.984C275.099 11.984 268.773 14.6101 263.546 19.8369L264.96 21.2512ZM282.469 13.984C287.04 13.984 291.278 15.1587 295.203 17.5135L296.232 15.7986C291.997 13.2574 287.403 11.984 282.469 11.984V13.984ZM295.197 17.5098C298.984 19.819 301.933 22.9064 304.056 26.7844L305.81 25.8237C303.518 21.6377 300.323 18.2931 296.238 15.8023L295.197 17.5098ZM304.414 25.4495L284.038 37.8335L285.077 39.5426L305.453 27.1586L304.414 25.4495ZM284.561 39.688L306.377 39.616L306.37 37.6161L284.554 37.6881L284.561 39.688ZM300.943 24.504C296.128 18.8458 290.311 15.8148 283.522 15.513L283.433 17.5111C289.604 17.7853 294.922 20.5143 299.42 25.8001L300.943 24.504ZM282.478 16.4704L282.406 18.1984L284.404 18.2817L284.476 16.5537L282.478 16.4704ZM283.363 19.2391C288.715 19.4679 293.169 21.5364 296.781 25.4685L298.254 24.1155C294.282 19.7917 289.328 17.4922 283.448 17.241L283.363 19.2391ZM297.002 23.9351L287.786 29.4791L288.817 31.1929L298.033 25.6489L297.002 23.9351ZM287.463 30.881L288.399 32.321L290.076 31.2311L289.14 29.7911L287.463 30.881ZM289.755 32.6315L300.699 26.0075L299.664 24.2965L288.72 30.9205L289.755 32.6315ZM302.917 42.512H301.189V44.512H302.917V42.512ZM300.189 43.512V59.208H302.189V43.512H300.189ZM301.189 58.208H288.517V60.208H301.189V58.208ZM287.517 59.208V60.936H289.517V59.208H287.517ZM288.517 61.936H302.917V59.936H288.517V61.936ZM303.917 60.936V43.512H301.917V60.936H303.917ZM401.225 30.984L401.482 31.9504L402.444 31.6943L402.192 30.7313L401.225 30.984ZM389.057 34.224L388.8 33.2577L387.843 33.5125L388.088 34.4719L389.057 34.224ZM385.025 54.96L384.226 54.3586L384.225 54.36L385.025 54.96ZM372.065 63.672L371.812 62.7045L371.804 62.7066L371.796 62.7089L372.065 63.672ZM351.257 59.64L350.648 60.4337L350.654 60.4379L351.257 59.64ZM342.617 46.68L342.361 45.7133L341.389 45.9706L341.652 46.941L342.617 46.68ZM354.857 43.44L355.113 44.4068L356.092 44.1474L355.82 43.1712L354.857 43.44ZM358.889 22.632L358.095 22.0236L358.091 22.0292L358.889 22.632ZM371.849 13.992L372.11 14.9574L372.117 14.9555L372.124 14.9536L371.849 13.992ZM392.585 18.096L391.976 18.8897L391.986 18.8971L392.585 18.096ZM380.705 54.456L381.451 55.1219L382.118 54.3743L381.369 53.7086L380.705 54.456ZM379.409 53.304L380.073 52.5566L379.327 51.8933L378.662 52.6386L379.409 53.304ZM356.729 57.048L356.253 57.9276L356.258 57.93L356.729 57.048ZM349.673 50.208L349.42 49.2407L348.132 49.5778L348.814 50.7205L349.673 50.208ZM355.721 48.624L355.974 49.5914L356.931 49.3409L356.691 48.3815L355.721 48.624ZM355.289 46.896L356.259 46.6535L356.013 45.6713L355.034 45.929L355.289 46.896ZM347.081 49.056L346.826 48.089L345.604 48.4106L346.198 49.526L347.081 49.056ZM355.217 57.912L354.678 58.7547L354.685 58.7591L354.692 58.7633L355.217 57.912ZM400.968 30.0177L388.8 33.2577L389.314 35.1904L401.482 31.9504L400.968 30.0177ZM388.088 34.4719C388.596 36.4556 388.849 38.4604 388.849 40.488H390.849C390.849 38.2917 390.574 36.1205 390.026 33.9762L388.088 34.4719ZM388.849 40.488C388.849 45.6483 387.311 50.261 384.226 54.3586L385.824 55.5615C389.171 51.1151 390.849 46.0798 390.849 40.488H388.849ZM384.225 54.36C381.048 58.5957 376.921 61.3698 371.812 62.7045L372.318 64.6396C377.865 63.1903 382.378 60.1564 385.825 55.56L384.225 54.36ZM371.796 62.7089C369.818 63.2608 367.821 63.536 365.801 63.536V65.536C368.005 65.536 370.183 65.2353 372.334 64.6352L371.796 62.7089ZM365.801 63.536C360.644 63.536 356.007 61.976 351.86 58.8422L350.654 60.4379C355.146 63.8321 360.206 65.536 365.801 65.536V63.536ZM351.865 58.8464C347.722 55.67 344.966 51.5384 343.582 46.4191L341.652 46.941C343.148 52.4777 346.152 56.9861 350.648 60.4337L351.865 58.8464ZM342.873 47.6468L355.113 44.4068L354.601 42.4733L342.361 45.7133L342.873 47.6468ZM355.82 43.1712C355.268 41.1935 354.993 39.1959 354.993 37.176H352.993C352.993 39.3802 353.294 41.5586 353.894 43.7088L355.82 43.1712ZM354.993 37.176C354.993 32.0193 356.553 27.3826 359.687 23.2349L358.091 22.0292C354.697 26.5215 352.993 31.5808 352.993 37.176H354.993ZM359.682 23.2405C362.859 19.0973 366.991 16.341 372.11 14.9574L371.588 13.0267C366.051 14.5231 361.543 17.5268 358.095 22.0236L359.682 23.2405ZM372.124 14.9536C374.05 14.4033 376.021 14.128 378.041 14.128V12.128C375.837 12.128 373.68 12.4288 371.574 13.0305L372.124 14.9536ZM378.041 14.128C383.194 14.128 387.829 15.7097 391.976 18.8897L393.193 17.3024C388.701 13.8584 383.64 12.128 378.041 12.128V14.128ZM391.986 18.8971C396.171 22.024 398.922 26.1257 400.257 31.2368L402.192 30.7313C400.744 25.1863 397.735 20.6961 393.183 17.295L391.986 18.8971ZM381.369 53.7086L380.073 52.5566L378.745 54.0515L380.041 55.2035L381.369 53.7086ZM378.662 52.6386C375.309 56.3995 371.026 58.28 365.729 58.28V60.28C371.568 60.28 376.404 58.1766 380.155 53.9695L378.662 52.6386ZM365.729 58.28C362.674 58.28 359.836 57.5751 357.2 56.1661L356.258 57.93C359.189 59.497 362.352 60.28 365.729 60.28V58.28ZM357.205 56.1685C354.442 54.6738 352.219 52.5236 350.532 49.6956L348.814 50.7205C350.678 53.8445 353.16 56.2543 356.253 57.9276L357.205 56.1685ZM349.926 51.1754L355.974 49.5914L355.468 47.6567L349.42 49.2407L349.926 51.1754ZM356.691 48.3815L356.259 46.6535L354.319 47.1386L354.751 48.8666L356.691 48.3815ZM355.034 45.929L346.826 48.089L347.335 50.0231L355.543 47.8631L355.034 45.929ZM346.198 49.526C348.245 53.3705 351.074 56.4522 354.678 58.7547L355.755 57.0694C352.447 54.9559 349.853 52.1336 347.964 48.5861L346.198 49.526ZM354.692 58.7633C358.344 61.0146 362.221 62.1521 366.305 62.1521V60.1521C362.613 60.1521 359.098 59.1295 355.742 57.0608L354.692 58.7633ZM366.305 62.1521C372.226 62.1521 377.291 59.7828 381.451 55.1219L379.959 53.7902C376.151 58.0573 371.616 60.1521 366.305 60.1521V62.1521ZM449.395 56.904L450.102 57.6112L449.395 56.904ZM413.035 56.904L412.324 57.6078L412.331 57.6145L413.035 56.904ZM413.035 20.544L413.742 21.2512L413.035 20.544ZM449.395 20.544L448.684 21.2478L448.691 21.2545L449.395 20.544ZM433.123 36.816L433.83 36.1089V36.1089L433.123 36.816ZM429.379 40.56L430.086 39.8529L429.379 40.56ZM431.251 60.936V61.936H432.251V60.936H431.251ZM431.251 59.208H432.251V58.208H431.251V59.208ZM416.707 53.232L415.995 53.935L416.004 53.9434L416.707 53.232ZM410.731 38.688H411.731V37.688H410.731V38.688ZM409.003 38.688V37.688H408.003V38.688H409.003ZM415.483 54.456L414.772 55.1593L414.779 55.167L415.483 54.456ZM455.955 38.688C455.955 45.5258 453.541 51.3438 448.687 56.1969L450.102 57.6112C455.328 52.3843 457.955 46.0583 457.955 38.688H455.955ZM448.687 56.1969C443.884 61.0001 438.091 63.392 431.251 63.392V65.392C438.618 65.392 444.921 62.792 450.102 57.6112L448.687 56.1969ZM431.251 63.392C424.41 63.392 418.591 60.9998 413.738 56.1936L412.331 57.6145C417.558 62.7923 423.883 65.392 431.251 65.392V63.392ZM413.745 56.2003C408.939 51.3479 406.547 45.5289 406.547 38.688H404.547C404.547 46.0552 407.146 52.3802 412.324 57.6078L413.745 56.2003ZM406.547 38.688C406.547 31.8474 408.939 26.0543 413.742 21.2512L412.327 19.8369C407.147 25.0178 404.547 31.3207 404.547 38.688H406.547ZM413.742 21.2512C418.595 16.398 424.413 13.984 431.251 13.984V11.984C423.88 11.984 417.554 14.6101 412.327 19.8369L413.742 21.2512ZM431.251 13.984C438.088 13.984 443.88 16.3977 448.684 21.2478L450.105 19.8403C444.925 14.6104 438.621 11.984 431.251 11.984V13.984ZM448.691 21.2545C453.541 26.0584 455.955 31.8505 455.955 38.688H457.955C457.955 31.3176 455.328 25.0137 450.098 19.8336L448.691 21.2545ZM434.915 38.688C434.915 37.692 434.537 36.8167 433.83 36.1089L432.415 37.5232C432.764 37.8714 432.915 38.244 432.915 38.688H434.915ZM433.83 36.1089C433.122 35.4012 432.247 35.024 431.251 35.024V37.024C431.695 37.024 432.067 37.1749 432.415 37.5232L433.83 36.1089ZM431.251 35.024C430.255 35.024 429.379 35.4012 428.671 36.1089L430.086 37.5232C430.434 37.1749 430.807 37.024 431.251 37.024V35.024ZM428.671 36.1089C427.964 36.8167 427.587 37.692 427.587 38.688H429.587C429.587 38.244 429.737 37.8714 430.086 37.5232L428.671 36.1089ZM427.587 38.688C427.587 39.684 427.964 40.5594 428.671 41.2672L430.086 39.8529C429.737 39.5047 429.587 39.132 429.587 38.688H427.587ZM428.671 41.2672C429.379 41.9749 430.255 42.352 431.251 42.352V40.352C430.807 40.352 430.434 40.2012 430.086 39.8529L428.671 41.2672ZM431.251 42.352C432.247 42.352 433.122 41.9749 433.83 41.2672L432.415 39.8529C432.067 40.2012 431.695 40.352 431.251 40.352V42.352ZM433.83 41.2672C434.537 40.5594 434.915 39.684 434.915 38.688H432.915C432.915 39.132 432.764 39.5047 432.415 39.8529L433.83 41.2672ZM432.251 60.936V59.208H430.251V60.936H432.251ZM431.251 58.208C425.85 58.208 421.254 56.3199 417.409 52.5207L416.004 53.9434C420.223 58.1122 425.323 60.208 431.251 60.208V58.208ZM417.418 52.5292C413.619 48.6842 411.731 44.0887 411.731 38.688H409.731C409.731 44.6154 411.826 49.7159 415.995 53.9349L417.418 52.5292ZM410.731 37.688H409.003V39.688H410.731V37.688ZM408.003 38.688C408.003 45.0953 410.266 50.604 414.772 55.1592L416.194 53.7529C412.059 49.5721 410.003 44.5688 410.003 38.688H408.003ZM414.779 55.167C419.335 59.6722 424.843 61.936 431.251 61.936V59.936C425.37 59.936 420.367 57.8799 416.186 53.745L414.779 55.167ZM505.152 56.904L505.859 57.6112L505.152 56.904ZM468.792 56.904L468.082 57.6078L468.089 57.6145L468.792 56.904ZM468.792 20.544L469.499 21.2512L468.792 20.544ZM505.152 20.544L504.442 21.2478L504.449 21.2545L505.152 20.544ZM488.88 36.816L489.587 36.1089V36.1089L488.88 36.816ZM485.136 40.56L485.843 39.8529L485.136 40.56ZM487.008 60.936V61.936H488.008V60.936H487.008ZM487.008 59.208H488.008V58.208H487.008V59.208ZM472.464 53.232L471.753 53.935L471.762 53.9434L472.464 53.232ZM466.488 38.688H467.488V37.688H466.488V38.688ZM464.76 38.688V37.688H463.76V38.688H464.76ZM471.24 54.456L470.529 55.1593L470.537 55.167L471.24 54.456ZM511.712 38.688C511.712 45.5258 509.298 51.3438 504.445 56.1969L505.859 57.6112C511.086 52.3843 513.712 46.0583 513.712 38.688H511.712ZM504.445 56.1969C499.642 61.0001 493.849 63.392 487.008 63.392V65.392C494.376 65.392 500.679 62.792 505.859 57.6112L504.445 56.1969ZM487.008 63.392C480.168 63.392 474.349 60.9998 469.496 56.1936L468.089 57.6145C473.316 62.7923 479.641 65.392 487.008 65.392V63.392ZM469.503 56.2003C464.697 51.3479 462.304 45.5289 462.304 38.688H460.304C460.304 46.0552 462.904 52.3802 468.082 57.6078L469.503 56.2003ZM462.304 38.688C462.304 31.8474 464.696 26.0543 469.499 21.2512L468.085 19.8369C462.904 25.0178 460.304 31.3207 460.304 38.688H462.304ZM469.499 21.2512C474.353 16.398 480.171 13.984 487.008 13.984V11.984C479.638 11.984 473.312 14.6101 468.085 19.8369L469.499 21.2512ZM487.008 13.984C493.846 13.984 499.638 16.3977 504.442 21.2478L505.863 19.8403C500.683 14.6104 494.379 11.984 487.008 11.984V13.984ZM504.449 21.2545C509.299 26.0584 511.712 31.8505 511.712 38.688H513.712C513.712 31.3176 511.086 25.0137 505.856 19.8336L504.449 21.2545ZM490.672 38.688C490.672 37.692 490.295 36.8167 489.587 36.1089L488.173 37.5232C488.521 37.8714 488.672 38.244 488.672 38.688H490.672ZM489.587 36.1089C488.88 35.4012 488.004 35.024 487.008 35.024V37.024C487.452 37.024 487.825 37.1749 488.173 37.5232L489.587 36.1089ZM487.008 35.024C486.012 35.024 485.137 35.4012 484.429 36.1089L485.843 37.5232C486.192 37.1749 486.564 37.024 487.008 37.024V35.024ZM484.429 36.1089C483.721 36.8167 483.344 37.692 483.344 38.688H485.344C485.344 38.244 485.495 37.8714 485.843 37.5232L484.429 36.1089ZM483.344 38.688C483.344 39.684 483.721 40.5594 484.429 41.2672L485.843 39.8529C485.495 39.5047 485.344 39.132 485.344 38.688H483.344ZM484.429 41.2672C485.137 41.9749 486.012 42.352 487.008 42.352V40.352C486.564 40.352 486.192 40.2012 485.843 39.8529L484.429 41.2672ZM487.008 42.352C488.004 42.352 488.88 41.9749 489.587 41.2672L488.173 39.8529C487.825 40.2012 487.452 40.352 487.008 40.352V42.352ZM489.587 41.2672C490.295 40.5594 490.672 39.684 490.672 38.688H488.672C488.672 39.132 488.522 39.5047 488.173 39.8529L489.587 41.2672ZM488.008 60.936V59.208H486.008V60.936H488.008ZM487.008 58.208C481.608 58.208 477.012 56.3199 473.167 52.5207L471.762 53.9434C475.981 58.1122 481.081 60.208 487.008 60.208V58.208ZM473.176 52.5292C469.376 48.6842 467.488 44.0887 467.488 38.688H465.488C465.488 44.6154 467.584 49.7159 471.753 53.9349L473.176 52.5292ZM466.488 37.688H464.76V39.688H466.488V37.688ZM463.76 38.688C463.76 45.0953 466.024 50.604 470.529 55.1592L471.951 53.7529C467.817 49.5721 465.76 44.5688 465.76 38.688H463.76ZM470.537 55.167C475.092 59.6722 480.601 61.936 487.008 61.936V59.936C481.128 59.936 476.124 57.8799 471.944 53.745L470.537 55.167ZM561.558 64.392V65.392H562.558V64.392H561.558ZM517.062 64.392H516.062V65.392H517.062V64.392ZM517.062 12.984L517.769 12.2769L516.062 10.5698V12.984H517.062ZM542.622 38.544L541.915 39.2512L543.622 40.9583V38.544H542.622ZM542.622 12.984V11.984H541.622V12.984H542.622ZM561.558 12.984H562.558V11.984H561.558V12.984ZM558.03 60.936V61.936H559.03V60.936H558.03ZM558.03 49.128H559.03V48.128H558.03V49.128ZM556.302 49.128V48.128H555.302V49.128H556.302ZM556.302 59.208V60.208H557.302V59.208H556.302ZM543.774 59.208V58.208H542.774V59.208H543.774ZM543.774 60.936H542.774V61.936H543.774V60.936ZM530.31 31.128L531.017 31.8352L531.724 31.128L531.017 30.4209L530.31 31.128ZM520.518 21.336L521.225 20.6289L519.518 18.9218V21.336H520.518ZM520.518 39.624H519.518V40.624H520.518V39.624ZM522.246 39.624V40.624H523.246V39.624H522.246ZM522.246 25.512L522.953 24.8049L521.246 23.0978V25.512H522.246ZM529.086 32.352L528.379 33.0592L529.086 33.7663L529.793 33.0592L529.086 32.352ZM561.558 63.392H517.062V65.392H561.558V63.392ZM518.062 64.392V12.984H516.062V64.392H518.062ZM516.355 13.6912L541.915 39.2512L543.329 37.8369L517.769 12.2769L516.355 13.6912ZM543.622 38.544V12.984H541.622V38.544H543.622ZM542.622 13.984H561.558V11.984H542.622V13.984ZM560.558 12.984V64.392H562.558V12.984H560.558ZM559.03 60.936V49.128H557.03V60.936H559.03ZM558.03 48.128H556.302V50.128H558.03V48.128ZM555.302 49.128V59.208H557.302V49.128H555.302ZM556.302 58.208H543.774V60.208H556.302V58.208ZM542.774 59.208V60.936H544.774V59.208H542.774ZM543.774 61.936H558.03V59.936H543.774V61.936ZM531.017 30.4209L521.225 20.6289L519.811 22.0432L529.603 31.8352L531.017 30.4209ZM519.518 21.336V39.624H521.518V21.336H519.518ZM520.518 40.624H522.246V38.624H520.518V40.624ZM523.246 39.624V25.512H521.246V39.624H523.246ZM521.539 26.2192L528.379 33.0592L529.793 31.6449L522.953 24.8049L521.539 26.2192ZM529.793 33.0592L531.017 31.8352L529.603 30.4209L528.379 31.6449L529.793 33.0592Z" fill="black" mask="url(#path-3-outside-2_303_1462)"/>
<defs>
<linearGradient id="paint0_linear_303_1462" x1="42.8373" y1="17.225" x2="229.683" y2="290.644" gradientUnits="userSpaceOnUse">
<stop stop-color="#002358"/>
<stop offset="1" stop-color="#1D0B21"/>
</linearGradient>
<linearGradient id="paint1_linear_303_1462" x1="1.93652e-05" y1="-15.625" x2="145.018" y2="305.789" gradientUnits="userSpaceOnUse">
<stop offset="0.0108105" stop-color="#E3E2A9"/>
<stop offset="0.484375" stop-color="#EFBBB6"/>
<stop offset="1" stop-color="#A52E62"/>
</linearGradient>
<linearGradient id="paint2_linear_303_1462" x1="288.5" y1="12.8" x2="288.5" y2="85.8" gradientUnits="userSpaceOnUse">
<stop stop-color="#4CC9F0"/>
<stop offset="1" stop-color="#3A0CA3"/>
</linearGradient>
</defs>
</svg>
