<svg width="247" height="196" viewBox="0 0 247 196" fill="none" xmlns="http://www.w3.org/2000/svg">
<path d="M244.758 55.9648V90.4563H261.554L288.166 55.9648H244.758Z" fill="#FF0000"/>
<path d="M0.29599 194.08L-14.8672 213.733H20.3257L35.4888 194.08H0.29599Z" fill="#FF0000"/>
<path d="M224.762 108.154C224.762 109.263 224.069 110.162 223.213 110.162C222.357 110.162 221.664 109.263 221.664 108.154C221.664 107.045 222.357 106.146 223.213 106.146C224.069 106.146 224.762 107.046 224.762 108.154Z" fill="#FF0000"/>
<path d="M232.051 108.154C232.051 109.263 231.358 110.162 230.502 110.162C229.646 110.162 228.953 109.263 228.953 108.154C228.953 107.045 229.646 106.146 230.502 106.146C231.358 106.146 232.051 107.046 232.051 108.154Z" fill="#FF0000"/>
<path d="M239.34 108.154C239.34 109.263 238.647 110.162 237.791 110.162C236.936 110.162 236.242 109.263 236.242 108.154C236.242 107.045 236.936 106.146 237.791 106.146C238.647 106.146 239.34 107.046 239.34 108.154Z" fill="#FF0000"/>
<path d="M246.629 108.154C246.629 109.263 245.936 110.162 245.08 110.162C244.225 110.162 243.531 109.263 243.531 108.154C243.531 107.045 244.225 106.146 245.08 106.146C245.935 106.146 246.629 107.046 246.629 108.154Z" fill="#FF0000"/>
<path d="M223.213 119.019C224.069 119.019 224.762 118.12 224.762 117.012C224.762 115.903 224.069 115.004 223.213 115.004C222.358 115.004 221.664 115.903 221.664 117.012C221.664 118.12 222.358 119.019 223.213 119.019Z" fill="#FF0000"/>
<path d="M232.051 117.012C232.051 118.121 231.358 119.019 230.502 119.019C229.646 119.019 228.953 118.121 228.953 117.012C228.953 115.903 229.646 115.004 230.502 115.004C231.358 115.004 232.051 115.903 232.051 117.012Z" fill="#FF0000"/>
<path d="M239.34 117.012C239.34 118.121 238.647 119.019 237.791 119.019C236.936 119.019 236.242 118.121 236.242 117.012C236.242 115.903 236.936 115.004 237.791 115.004C238.647 115.004 239.34 115.903 239.34 117.012Z" fill="#FF0000"/>
<path d="M246.629 117.012C246.629 118.121 245.936 119.019 245.08 119.019C244.225 119.019 243.531 118.121 243.531 117.012C243.531 115.903 244.225 115.004 245.08 115.004C245.935 115.004 246.629 115.903 246.629 117.012Z" fill="#FF0000"/>
<path d="M90.9414 189.652C90.9414 188.543 91.6348 187.645 92.4904 187.645C93.3461 187.645 94.0394 188.543 94.0394 189.652C94.0394 190.761 93.3461 191.66 92.4904 191.66C91.6354 191.66 90.9414 190.76 90.9414 189.652Z" fill="#FF0000"/>
<path d="M85.2014 191.66C86.0569 191.66 86.7504 190.761 86.7504 189.652C86.7504 188.543 86.0569 187.645 85.2014 187.645C84.3459 187.645 83.6523 188.543 83.6523 189.652C83.6523 190.761 84.3459 191.66 85.2014 191.66Z" fill="#FF0000"/>
<path d="M77.9123 191.66C78.7678 191.66 79.4613 190.761 79.4613 189.652C79.4613 188.543 78.7678 187.645 77.9123 187.645C77.0568 187.645 76.3633 188.543 76.3633 189.652C76.3633 190.761 77.0568 191.66 77.9123 191.66Z" fill="#FF0000"/>
<path d="M70.6193 191.66C71.4748 191.66 72.1684 190.761 72.1684 189.652C72.1684 188.543 71.4748 187.645 70.6193 187.645C69.7638 187.645 69.0703 188.543 69.0703 189.652C69.0703 190.761 69.7638 191.66 70.6193 191.66Z" fill="#FF0000"/>
<path d="M63.3303 191.66C64.1858 191.66 64.8793 190.761 64.8793 189.652C64.8793 188.543 64.1858 187.645 63.3303 187.645C62.4748 187.645 61.7812 188.543 61.7812 189.652C61.7812 190.761 62.4748 191.66 63.3303 191.66Z" fill="#FF0000"/>
<path d="M56.0412 191.66C56.8967 191.66 57.5902 190.761 57.5902 189.652C57.5902 188.543 56.8967 187.645 56.0412 187.645C55.1857 187.645 54.4922 188.543 54.4922 189.652C54.4922 190.761 55.1857 191.66 56.0412 191.66Z" fill="#FF0000"/>
<path d="M48.7521 191.66C49.6076 191.66 50.3012 190.761 50.3012 189.652C50.3012 188.543 49.6076 187.645 48.7521 187.645C47.8966 187.645 47.2031 188.543 47.2031 189.652C47.2031 190.761 47.8966 191.66 48.7521 191.66Z" fill="#FF0000"/>
<path d="M244.755 1.68262H-0.234375V194.08H244.755V1.68262Z" stroke="white" stroke-width="3" stroke-miterlimit="10" stroke-linejoin="round"/>
<path d="M38.0916 -9.60254H20.915L-11.5586 32.4857H5.61802L38.0916 -9.60254Z" fill="#FF0000"/>
<path d="M261.069 158.428H243.892L211.418 200.516H228.595L261.069 158.428Z" fill="white"/>
<path d="M250.716 18.6862L237.878 8.5918L225.035 18.6862L212.189 8.5918L199.346 18.6862L186.495 8.5918L173.645 18.6862" stroke="#FF0000" stroke-width="2" stroke-miterlimit="10" stroke-linecap="round"/>
<path d="M250.716 4.20575L237.878 -5.88867L225.035 4.20575L212.189 -5.88867L199.346 4.20575L186.495 -5.88867L173.645 4.20575" stroke="#FF0000" stroke-width="2" stroke-miterlimit="10" stroke-linecap="round"/>
<path d="M147.645 181.699L160.483 191.794L173.325 181.699L186.171 191.794L199.014 181.699L211.865 191.794L224.716 181.699" stroke="white" stroke-width="2" stroke-miterlimit="10" stroke-linecap="round" stroke-linejoin="round"/>
<path d="M147.645 196.18L160.483 206.274L173.325 196.18L186.171 206.274L199.014 196.18L211.865 206.274L224.716 196.18" stroke="white" stroke-width="2" stroke-miterlimit="10" stroke-linecap="round" stroke-linejoin="round"/>
<path d="M13.0908 117.103C11.7546 117.103 10.6719 116.123 10.6719 114.912C10.6719 113.702 11.7546 112.721 13.0908 112.721C14.427 112.721 15.5097 113.702 15.5097 114.912C15.5097 116.123 14.427 117.103 13.0908 117.103Z" fill="white"/>
<path d="M13.0908 127.416C11.7546 127.416 10.6719 126.435 10.6719 125.225C10.6719 124.014 11.7546 123.033 13.0908 123.033C14.427 123.033 15.5097 124.014 15.5097 125.225C15.5097 126.435 14.427 127.416 13.0908 127.416Z" fill="white"/>
<path d="M13.0908 137.728C11.7546 137.728 10.6719 136.748 10.6719 135.537C10.6719 134.327 11.7546 133.346 13.0908 133.346C14.427 133.346 15.5097 134.327 15.5097 135.537C15.5097 136.748 14.427 137.728 13.0908 137.728Z" fill="white"/>
<path d="M13.0908 148.041C11.7546 148.041 10.6719 147.06 10.6719 145.85C10.6719 144.639 11.7546 143.658 13.0908 143.658C14.427 143.658 15.5097 144.639 15.5097 145.85C15.5097 147.059 14.427 148.041 13.0908 148.041Z" fill="white"/>
<path d="M13.0908 158.351C11.7546 158.351 10.6719 157.371 10.6719 156.16C10.6719 154.95 11.7546 153.969 13.0908 153.969C14.427 153.969 15.5097 154.95 15.5097 156.16C15.5097 157.371 14.427 158.351 13.0908 158.351Z" fill="white"/>
<path d="M13.0908 168.664C11.7546 168.664 10.6719 167.683 10.6719 166.473C10.6719 165.262 11.7546 164.281 13.0908 164.281C14.427 164.281 15.5097 165.262 15.5097 166.473C15.5097 167.683 14.427 168.664 13.0908 168.664Z" fill="white"/>
<path d="M13.0908 178.976C11.7546 178.976 10.6719 177.996 10.6719 176.785C10.6719 175.575 11.7546 174.594 13.0908 174.594C14.427 174.594 15.5097 175.575 15.5097 176.785C15.5097 177.996 14.427 178.976 13.0908 178.976Z" fill="white"/>
<path d="M13.0908 189.289C11.7546 189.289 10.6719 188.308 10.6719 187.098C10.6719 185.887 11.7546 184.906 13.0908 184.906C14.427 184.906 15.5097 185.887 15.5097 187.098C15.5097 188.308 14.427 189.289 13.0908 189.289Z" fill="white"/>
<path d="M2.41893 117.103C1.08272 117.103 0 116.123 0 114.912C0 113.702 1.08272 112.721 2.41893 112.721C3.75515 112.721 4.83786 113.702 4.83786 114.912C4.83786 116.123 3.75515 117.103 2.41893 117.103Z" fill="white"/>
<path d="M2.41893 127.416C3.75487 127.416 4.83786 126.435 4.83786 125.225C4.83786 124.014 3.75487 123.033 2.41893 123.033C1.08299 123.033 0 124.014 0 125.225C0 126.435 1.08299 127.416 2.41893 127.416Z" fill="white"/>
<path d="M2.41893 137.728C3.75487 137.728 4.83786 136.747 4.83786 135.537C4.83786 134.327 3.75487 133.346 2.41893 133.346C1.08299 133.346 0 134.327 0 135.537C0 136.747 1.08299 137.728 2.41893 137.728Z" fill="white"/>
<path d="M2.41893 148.041C3.75487 148.041 4.83786 147.06 4.83786 145.85C4.83786 144.639 3.75487 143.658 2.41893 143.658C1.08299 143.658 0 144.639 0 145.85C0 147.06 1.08299 148.041 2.41893 148.041Z" fill="white"/>
<path d="M2.41893 158.351C3.75487 158.351 4.83786 157.37 4.83786 156.16C4.83786 154.95 3.75487 153.969 2.41893 153.969C1.08299 153.969 0 154.95 0 156.16C0 157.37 1.08299 158.351 2.41893 158.351Z" fill="white"/>
<path d="M2.41893 168.664C3.75487 168.664 4.83786 167.683 4.83786 166.473C4.83786 165.262 3.75487 164.281 2.41893 164.281C1.08299 164.281 0 165.262 0 166.473C0 167.683 1.08299 168.664 2.41893 168.664Z" fill="white"/>
<path d="M2.41893 178.976C3.75487 178.976 4.83786 177.995 4.83786 176.785C4.83786 175.575 3.75487 174.594 2.41893 174.594C1.08299 174.594 0 175.575 0 176.785C0 177.995 1.08299 178.976 2.41893 178.976Z" fill="white"/>
</svg>
