<svg width="316" height="960" viewBox="0 0 316 960" fill="none" xmlns="http://www.w3.org/2000/svg">
<path d="M33.1872 960H264.353C282.681 960 297.54 934.031 297.54 902V58C297.54 25.9662 282.681 0 264.353 0H33.1872C14.8577 0 0 25.9662 0 58V902C0 934.034 14.8577 960 33.1872 960Z" fill="black"/>
<path d="M51.1871 965H282.353C300.681 965 315.54 939.031 315.54 907V63C315.54 30.9662 300.681 5 282.353 5H51.1871C32.8589 5 18 30.9662 18 63V907C18 939.034 32.8589 965 51.1871 965Z" fill="url(#paint0_linear_1136_6041)"/>
<path d="M308.245 102.742H288.438V108.788H308.245V102.742Z" fill="black"/>
<path d="M308.245 117.854H288.438V123.899H308.245V117.854Z" fill="black"/>
<path d="M308.245 132.967H288.438V139.012H308.245V132.967Z" fill="black"/>
<path d="M308.245 148.078H288.438V154.123H308.245V148.078Z" fill="black"/>
<path d="M308.245 163.191H288.438V169.237H308.245V163.191Z" fill="black"/>
<path d="M308.245 178.305H288.438V184.35H308.245V178.305Z" fill="black"/>
<path d="M308.245 193.416H288.438V199.461H308.245V193.416Z" fill="black"/>
<path d="M308.245 208.527H288.438V214.573H308.245V208.527Z" fill="black"/>
<path d="M308.245 223.641H288.438V229.686H308.245V223.641Z" fill="black"/>
<path d="M308.245 238.752H288.438V244.797H308.245V238.752Z" fill="black"/>
<path d="M308.245 253.863H288.438V259.909H308.245V253.863Z" fill="black"/>
<path d="M308.245 268.977H288.438V275.02H308.245V268.977Z" fill="black"/>
<path d="M308.245 284.088H288.438V290.133H308.245V284.088Z" fill="black"/>
<path d="M308.245 299.199H288.438V305.245H308.245V299.199Z" fill="black"/>
<path d="M308.245 314.312H288.438V320.358H308.245V314.312Z" fill="black"/>
<path d="M308.245 329.424H288.438V335.469H308.245V329.424Z" fill="black"/>
<path d="M308.245 344.535H288.438V350.581H308.245V344.535Z" fill="black"/>
<path d="M308.245 359.65H288.438V365.696H308.245V359.65Z" fill="black"/>
<path d="M308.245 374.762H288.438V380.807H308.245V374.762Z" fill="black"/>
<path d="M308.245 389.873H288.438V395.918H308.245V389.873Z" fill="black"/>
<path d="M45.007 102.742H25.1992V108.788H45.007V102.742Z" fill="black"/>
<path d="M45.007 117.854H25.1992V123.899H45.007V117.854Z" fill="black"/>
<path d="M45.007 132.967H25.1992V139.012H45.007V132.967Z" fill="black"/>
<path d="M45.007 148.078H25.1992V154.123H45.007V148.078Z" fill="black"/>
<path d="M45.007 163.191H25.1992V169.237H45.007V163.191Z" fill="black"/>
<path d="M45.007 178.305H25.1992V184.35H45.007V178.305Z" fill="black"/>
<path d="M45.007 193.416H25.1992V199.461H45.007V193.416Z" fill="black"/>
<path d="M45.007 208.527H25.1992V214.573H45.007V208.527Z" fill="black"/>
<path d="M45.007 223.641H25.1992V229.686H45.007V223.641Z" fill="black"/>
<path d="M45.007 238.752H25.1992V244.797H45.007V238.752Z" fill="black"/>
<path d="M45.007 253.863H25.1992V259.909H45.007V253.863Z" fill="black"/>
<path d="M45.007 268.977H25.1992V275.02H45.007V268.977Z" fill="black"/>
<path d="M45.007 284.088H25.1992V290.133H45.007V284.088Z" fill="black"/>
<path d="M45.007 299.199H25.1992V305.245H45.007V299.199Z" fill="black"/>
<path d="M45.007 314.312H25.1992V320.358H45.007V314.312Z" fill="black"/>
<path d="M45.007 329.424H25.1992V335.469H45.007V329.424Z" fill="black"/>
<path d="M45.007 344.535H25.1992V350.581H45.007V344.535Z" fill="black"/>
<path d="M45.007 359.65H25.1992V365.696H45.007V359.65Z" fill="black"/>
<path d="M45.007 374.762H25.1992V380.807H45.007V374.762Z" fill="black"/>
<path d="M45.007 389.873H25.1992V395.918H45.007V389.873Z" fill="black"/>
<path d="M269.5 57H64.4983C58.6993 57 54 70.5713 54 87.3139V836.686C54 853.429 58.7006 867 64.4983 867H269.5C275.299 867 280 853.429 280 836.686V87.3102C280 70.5713 275.299 57 269.5 57Z" fill="black"/>
<path d="M272 65H62V858H272V65Z" fill="black"/>
<defs>
<linearGradient id="paint0_linear_1136_6041" x1="166.77" y1="5" x2="166.77" y2="965" gradientUnits="userSpaceOnUse">
<stop stop-color="#FF0505"/>
<stop offset="1"/>
</linearGradient>
</defs>
</svg>
