<svg width="223" height="230" viewBox="0 0 223 230" fill="none" xmlns="http://www.w3.org/2000/svg">
<g id="Vector" opacity="0.16">
<path d="M119.422 142.521L137.456 161.121L140.366 158.12L122.332 139.52L119.422 142.521Z" fill="#1F0151"/>
<path d="M138.591 122.757L156.626 141.357L159.536 138.355L141.502 119.755L138.591 122.757Z" fill="#1F0151"/>
<path d="M67.3601 88.8071L85.3943 107.407L88.3024 104.408L70.2682 85.8078L67.3601 88.8071Z" fill="#1F0151"/>
<path d="M86.5082 69.0561L104.542 87.6562L107.45 84.6568L89.4163 66.0568L86.5082 69.0561Z" fill="#1F0151"/>
<path d="M138.423 89.6095L115.453 65.9186C113.461 63.8637 110.068 64.6662 109.145 67.4147L105.997 76.8068L128.417 99.9301L138.423 89.6095Z" fill="#5B00FF"/>
<path d="M74.5807 123.62L103.697 153.65L113.704 143.328L84.5881 113.298L74.5807 123.62Z" fill="#1F0151"/>
<path d="M136.647 87.7779L159.617 111.469C161.609 113.524 160.829 117.023 158.166 117.975L149.06 121.222L126.64 98.0986L136.647 87.7779Z" fill="#1F0151"/>
<path d="M53.5374 172.806C53.3957 172.476 53.3623 172.123 53.3957 171.777L53.379 171.774L58.1948 124.292L62.0907 124.713L57.8502 166.523L82.6737 140.921L85.4442 143.778L60.3067 169.704L102.818 167.523L103.012 171.559L55.4242 174.001C54.6156 174.047 53.8653 173.568 53.5374 172.806Z" fill="#5B00FF"/>
<path d="M78.9342 147.639L93.9233 132.179C94.1706 132.426 94.418 132.669 94.6625 132.921C108.593 147.289 113.172 165.864 104.889 174.408L78.9342 147.639Z" fill="#1F0151"/>
<path d="M54.4373 122.374C62.5766 113.98 80.0973 118.396 93.9221 132.179L78.933 147.639L54.4373 122.374Z" fill="#5B00FF"/>
<path d="M56.5526 176.953C53.0373 176.953 50.1863 174.012 50.1863 170.387C50.1863 166.761 53.0373 163.82 56.5526 163.82C60.0679 163.82 62.919 166.761 62.919 170.387C62.919 174.012 60.0679 176.953 56.5526 176.953Z" fill="#9F03FF"/>
<path d="M106.005 76.8154L149.06 121.222L120.824 150.344C119.58 151.628 117.565 151.628 116.32 150.344L77.7689 110.583C76.5239 109.299 76.5239 107.221 77.7689 105.937L106.005 76.8154Z" fill="#3A36FF"/>
<path d="M126.676 98.139L149.057 121.225L120.821 150.347C119.576 151.631 117.562 151.631 116.317 150.347L96.1868 129.585L126.676 98.139Z" fill="#1D008F"/>
<path d="M127.886 114.507C129.795 116.476 129.795 119.68 127.886 121.646L120.847 128.906C118.938 130.875 115.831 130.875 113.922 128.906L98.3879 112.885C96.4789 110.916 96.4789 107.712 98.3879 105.743L105.427 98.4829C107.336 96.514 110.443 96.514 112.352 98.4829L127.886 114.507Z" fill="#1D008F"/>
<path d="M110.957 99.9244L126.49 115.946C127.63 117.121 127.63 119.03 126.49 120.205L119.452 127.467C118.312 128.642 116.462 128.642 115.322 127.467L99.7883 111.446C98.6462 110.271 98.6462 108.362 99.7883 107.184L106.827 99.9244C107.967 98.7493 109.814 98.7493 110.957 99.9244Z" fill="#3A36FF"/>
<path d="M134.302 143.007C130.787 143.007 127.936 140.067 127.936 136.441C127.936 132.815 130.787 129.875 134.302 129.875C137.818 129.875 140.669 132.815 140.669 136.441C140.672 140.069 137.82 143.007 134.302 143.007Z" fill="#9F03FF"/>
<path d="M91.2491 98.6032C87.7338 98.6032 84.8827 95.6626 84.8827 92.0371C84.8827 88.4115 87.7338 85.4709 91.2491 85.4709C94.7643 85.4709 97.6155 88.4115 97.6155 92.0371C97.6155 95.6626 94.7643 98.6032 91.2491 98.6032Z" fill="#EC007C"/>
<path d="M117.451 127.522C116.74 127.522 116.029 127.241 115.487 126.682L100.648 111.38C99.5611 110.26 99.5611 108.448 100.648 107.328C101.734 106.207 103.49 106.207 104.577 107.328L119.416 122.629C120.503 123.75 120.503 125.561 119.416 126.682C118.874 127.244 118.163 127.522 117.451 127.522Z" fill="#1D008F"/>
<path d="M120.58 124.292C119.869 124.292 119.157 124.011 118.616 123.452L103.779 108.15C102.693 107.029 102.693 105.218 103.779 104.097C104.866 102.977 106.622 102.977 107.709 104.097L122.545 119.399C123.631 120.52 123.631 122.331 122.545 123.452C122.003 124.014 121.292 124.292 120.58 124.292Z" fill="#1D008F"/>
<path d="M123.712 121.062C123 121.062 122.289 120.781 121.747 120.222L106.911 104.92C105.824 103.799 105.824 101.988 106.911 100.867C107.997 99.7467 109.754 99.7467 110.84 100.867L125.676 116.169C126.763 117.29 126.763 119.101 125.676 120.222C125.135 120.784 124.423 121.062 123.712 121.062Z" fill="#1D008F"/>
<path d="M202.017 145.423C202.856 145.882 203.015 146.793 202.373 147.452L161.407 189.704C160.765 190.366 159.564 190.529 158.728 190.071L121.927 169.894C121.088 169.435 120.93 168.524 121.572 167.861L162.535 125.613C163.177 124.951 164.377 124.788 165.214 125.246L202.017 145.423Z" fill="#5B00FF"/>
<path d="M164.055 126.447L200.856 146.624L159.893 188.873L123.092 168.698L164.055 126.447Z" fill="#1F0151"/>
<path d="M188.567 139.146L189.729 140.344L148.182 183.195L147.021 181.997L188.567 139.146ZM175.762 132.124L176.924 133.323L135.38 176.173L134.218 174.975L175.762 132.124Z" fill="#5B00FF"/>
<path d="M154.035 135.469L153.263 136.964L191.41 157.897L192.182 156.402L154.035 135.469Z" fill="#5B00FF"/>
<path d="M132.423 157.442L131.651 158.937L169.798 179.871L170.57 178.375L132.423 157.442Z" fill="#5B00FF"/>
<path d="M143.236 146.447L142.464 147.942L180.611 168.875L181.382 167.38L143.236 146.447Z" fill="#5B00FF"/>
<path d="M203.182 146.624C202.737 145.761 201.856 145.595 201.215 146.257L160.251 188.508C159.609 189.171 159.451 190.409 159.896 191.271L179.459 229.227C179.903 230.092 180.787 230.255 181.426 229.593L222.392 187.342C223.034 186.68 223.192 185.442 222.748 184.579L203.182 146.624Z" fill="#9F03FF"/>
<path d="M221.581 185.777L202.018 147.822L161.055 190.071L180.618 228.026L221.581 185.777Z" fill="#5B00FF"/>
<path d="M208.106 159.297L209.268 160.495L167.721 203.346L166.559 202.148L208.106 159.297ZM214.914 172.501L216.076 173.699L174.529 216.55L173.368 215.352L214.914 172.501Z" fill="#9F03FF"/>
<path d="M192.625 156.772L191.175 157.567L211.458 196.92L212.908 196.125L192.625 156.772Z" fill="#9F03FF"/>
<path d="M171.248 178.97L169.798 179.765L190.082 219.118L191.532 218.323L171.248 178.97Z" fill="#9F03FF"/>
<path d="M181.914 167.825L180.463 168.62L200.747 207.973L202.197 207.178L181.914 167.825Z" fill="#9F03FF"/>
<path d="M80.8366 20.4372C81.6759 20.8957 81.8342 21.8071 81.1923 22.4663L40.2292 64.7178C39.5872 65.3798 38.3868 65.5432 37.5504 65.0846L0.749906 44.9076C-0.089309 44.449 -0.247678 43.5376 0.394238 42.8755L41.3602 0.626979C42.0021 -0.03508 43.2025 -0.198441 44.039 0.260129L80.8366 20.4372Z" fill="#5B00FF"/>
<path d="M42.8723 1.46098L79.6727 21.638L38.7096 63.8866L1.90911 43.7124L42.8723 1.46098Z" fill="#1F0151"/>
<path d="M67.3844 14.1604L68.5459 15.3584L26.9992 58.2088L25.8376 57.0108L67.3844 14.1604ZM54.5822 7.13852L55.7437 8.33653L14.197 51.187L13.0354 49.989L54.5822 7.13852Z" fill="#5B00FF"/>
<path d="M32.7703 10.4135L31.9989 11.9089L70.1459 32.8421L70.9172 31.3468L32.7703 10.4135Z" fill="#5B00FF"/>
<path d="M11.3292 32.5198L10.5578 34.0152L48.7047 54.9484L49.4761 53.453L11.3292 32.5198Z" fill="#5B00FF"/>
<path d="M22.0429 21.4552L21.2716 22.9505L59.4185 43.8837L60.1898 42.3884L22.0429 21.4552Z" fill="#5B00FF"/>
<path d="M81.9976 21.6379C81.5529 20.7752 80.6692 20.609 80.0301 21.271L39.0641 63.5196C38.4222 64.1817 38.2639 65.4198 38.7085 66.2825L58.2717 104.238C58.7163 105.103 59.5999 105.267 60.239 104.605L101.205 62.3531C101.847 61.691 102.005 60.4529 101.561 59.5902L81.9976 21.6379Z" fill="#9F03FF"/>
<path d="M100.396 60.7912L80.836 22.836L39.8701 65.0846L59.4333 103.04L100.396 60.7912Z" fill="#5B00FF"/>
<path d="M86.9216 34.3115L88.0831 35.5095L46.5392 78.3599L45.3776 77.1619L86.9216 34.3115ZM93.7297 47.5183L94.8913 48.7163L53.3446 91.5667L52.183 90.3687L93.7297 47.5183Z" fill="#9F03FF"/>
<path d="M71.4372 31.7884L69.9871 32.5835L90.2704 71.9363L91.7206 71.1413L71.4372 31.7884Z" fill="#9F03FF"/>
<path d="M50.061 53.9863L48.6109 54.7814L68.8942 94.1343L70.3444 93.3392L50.061 53.9863Z" fill="#9F03FF"/>
<path d="M60.7261 42.8405L59.276 43.6356L79.5593 82.9884L81.0095 82.1934L60.7261 42.8405Z" fill="#9F03FF"/>
</g>
</svg>
