<svg width="407" height="589" viewBox="0 0 407 589" fill="none" xmlns="http://www.w3.org/2000/svg">
<g clip-path="url(#clip0_3350_4917)">
<g filter="url(#filter0_d_3350_4917)">
<path d="M119.071 2.00781L1.48471 100.612V187.581L43.7457 218.925V513.076L1.35742 547.299V588.409H300.685L406.974 489.271V321.952L370.568 287.996V2.00781H244.82H119.071Z" fill="url(#paint0_linear_3350_4917)" shape-rendering="crispEdges"/>
<path d="M119.071 2.00781L1.48471 100.612V187.581L43.7457 218.925V513.076L1.35742 547.299V588.409H300.685L406.974 489.271V321.952L370.568 287.996V2.00781H244.82H119.071Z" stroke="url(#paint1_linear_3350_4917)" stroke-width="4.2751" shape-rendering="crispEdges"/>
</g>
<path d="M-0.00311296 -0.000471436L105.417 -0.000473022L-0.00312042 89.1289L-0.00311296 -0.000471436Z" fill="#9E0214"/>
<path d="M405.289 290.84L374.133 261.105V284.836L405.289 312.212V290.84Z" fill="url(#paint2_linear_3350_4917)" stroke="black" stroke-width="2.46142" stroke-linejoin="round"/>
<path d="M11.3574 512.329L4.69076 512.329L4.69076 514.551L3.57964 514.551L3.57964 507.884L4.69076 507.884L4.69076 510.106L11.3574 510.106L11.3574 512.329ZM11.3574 491.777L3.57964 491.777L3.57964 485.111L4.69075 485.111L4.69075 489.555L6.91298 489.555L6.91298 486.222L8.02409 486.222L8.02409 489.555L10.2463 489.555L10.2463 485.111L11.3574 485.111L11.3574 491.777ZM10.2463 467.893L10.2463 469.004L4.69075 469.004L4.69075 467.893L3.57964 467.893L3.57964 463.448L4.69075 463.448L4.69075 462.337L5.80186 462.337L5.80186 464.559L4.69075 464.559L4.69075 466.782L10.2463 466.782L10.2463 464.559L9.1352 464.559L9.1352 462.337L10.2463 462.337L10.2463 463.448L11.3574 463.448L11.3574 467.893L10.2463 467.893ZM3.57964 442.897L4.69075 442.897L4.69075 441.786L6.91297 441.786L6.91297 440.675L3.57964 440.675L3.57964 438.453L11.3574 438.453L11.3574 440.675L10.2463 440.675L10.2463 441.786L9.1352 441.786L9.1352 442.897L6.91297 442.897L6.91297 444.008L11.3574 444.008L11.3574 446.23L3.57964 446.23L3.57964 442.897ZM10.2463 421.233L10.2463 422.344L4.69075 422.344L4.69075 421.233L3.57964 421.233L3.57964 416.788L4.69075 416.788L4.69075 415.677L10.2463 415.677L10.2463 416.788L11.3574 416.788L11.3574 421.233L10.2463 421.233ZM10.2463 417.899L4.69075 417.899L4.69075 420.122L10.2463 420.122L10.2463 417.899ZM11.3574 399.57L3.57964 399.57L3.57964 392.904L4.69075 392.904L4.69075 397.348L6.91297 397.348L6.91297 394.015L8.02408 394.015L8.02408 397.348L10.2463 397.348L10.2463 392.904L11.3574 392.904L11.3574 399.57ZM10.2463 375.686L10.2463 376.797L9.13519 376.797L9.13519 374.575L10.2463 374.575L10.2463 372.352L8.02408 372.352L8.02408 375.686L6.91297 375.686L6.91297 376.797L4.69075 376.797L4.69075 375.686L3.57964 375.686L3.57964 371.241L4.69075 371.241L4.69075 370.13L5.80186 370.13L5.80186 372.352L4.69075 372.352L4.69075 374.575L6.91297 374.575L6.91297 371.241L8.02408 371.241L8.02408 370.13L10.2463 370.13L10.2463 371.241L11.3574 371.241L11.3574 375.686L10.2463 375.686ZM4.69075 352.912L4.69075 354.023L3.57964 354.023L3.57964 349.579L4.69075 349.579L4.69075 350.69L10.2463 350.69L10.2463 349.579L11.3574 349.579L11.3574 354.023L10.2463 354.023L10.2463 352.912L4.69075 352.912ZM10.2463 332.356L10.2463 333.467L9.13519 333.467L9.13519 331.245L10.2463 331.245L10.2463 329.022L8.02408 329.022L8.02408 332.356L6.91297 332.356L6.91297 333.467L4.69075 333.467L4.69075 332.356L3.57964 332.356L3.57964 327.911L4.69075 327.911L4.69075 326.8L5.80186 326.8L5.80186 329.022L4.69075 329.022L4.69075 331.245L6.91297 331.245L6.91297 327.911L8.02408 327.911L8.02408 326.8L10.2463 326.8L10.2463 327.911L11.3574 327.911L11.3574 332.356L10.2463 332.356ZM5.80186 291.25L4.69075 291.25L4.69075 290.139L3.57963 290.139L3.57963 285.694L4.69075 285.694L4.69075 284.583L6.91297 284.583L6.91297 285.694L8.02408 285.694L8.02408 286.806L9.13519 286.806L9.13519 287.917L10.2463 287.917L10.2463 284.583L11.3574 284.583L11.3574 291.25L10.2463 291.25L10.2463 290.139L9.13519 290.139L9.13519 289.028L8.02408 289.028L8.02408 287.917L6.91297 287.917L6.91297 286.806L4.69075 286.806L4.69075 289.028L5.80186 289.028L5.80186 291.25ZM10.2463 267.365L10.2463 268.477L4.69074 268.477L4.69074 267.365L3.57963 267.365L3.57963 262.921L4.69074 262.921L4.69074 261.81L10.2463 261.81L10.2463 262.921L11.3574 262.921L11.3574 267.365L10.2463 267.365ZM10.2463 264.032L4.69074 264.032L4.69074 266.254L10.2463 266.254L10.2463 264.032ZM5.80185 245.703L4.69074 245.703L4.69074 244.592L3.57963 244.592L3.57963 240.148L4.69074 240.148L4.69074 239.036L6.91297 239.036L6.91297 240.148L8.02408 240.148L8.02408 241.259L9.13519 241.259L9.13519 242.37L10.2463 242.37L10.2463 239.036L11.3574 239.036L11.3574 245.703L10.2463 245.703L10.2463 244.592L9.13519 244.592L9.13519 243.481L8.02408 243.481L8.02408 242.37L6.91297 242.37L6.91297 241.259L4.69074 241.259L4.69074 243.481L5.80185 243.481L5.80185 245.703ZM8.02408 218.485L5.80185 218.485L5.80185 219.596L6.91296 219.596L6.91296 220.707L8.02408 220.707L8.02408 218.485ZM8.02408 217.374L8.02408 216.263L9.13519 216.263L9.13519 217.374L11.3574 217.374L11.3574 219.596L9.13519 219.596L9.13519 222.93L6.91296 222.93L6.91296 221.819L5.80185 221.819L5.80185 220.707L4.69074 220.707L4.69074 219.596L3.57963 219.596L3.57963 217.374L8.02408 217.374Z" fill="white" fill-opacity="0.6"/>
<path d="M20.1592 518.842V210.258L37.0005 225.58V503.521L20.1592 518.842Z" fill="url(#paint3_linear_3350_4917)" stroke="url(#paint4_linear_3350_4917)" stroke-width="0.0647743"/>
<path d="M401.662 328.617L365.453 295.24V306.24L401.662 339.805V328.617Z" fill="black"/>
</g>
<defs>
<filter id="filter0_d_3350_4917" x="-0.780273" y="-0.128906" width="410.41" height="592.166" filterUnits="userSpaceOnUse" color-interpolation-filters="sRGB">
<feFlood flood-opacity="0" result="BackgroundImageFix"/>
<feColorMatrix in="SourceAlpha" type="matrix" values="0 0 0 0 0 0 0 0 0 0 0 0 0 0 0 0 0 0 127 0" result="hardAlpha"/>
<feOffset dx="0.259097" dy="1.23071"/>
<feGaussianBlur stdDeviation="0.129549"/>
<feComposite in2="hardAlpha" operator="out"/>
<feColorMatrix type="matrix" values="0 0 0 0 0 0 0 0 0 0 0 0 0 0 0 0 0 0 0.25 0"/>
<feBlend mode="normal" in2="BackgroundImageFix" result="effect1_dropShadow_3350_4917"/>
<feBlend mode="normal" in="SourceGraphic" in2="effect1_dropShadow_3350_4917" result="shape"/>
</filter>
<linearGradient id="paint0_linear_3350_4917" x1="204.166" y1="295.241" x2="204.166" y2="588.409" gradientUnits="userSpaceOnUse">
<stop stop-opacity="0"/>
<stop offset="1"/>
</linearGradient>
<linearGradient id="paint1_linear_3350_4917" x1="204.166" y1="2.00781" x2="204.166" y2="588.409" gradientUnits="userSpaceOnUse">
<stop stop-color="#AE0015"/>
<stop offset="1" stop-color="#2D0005" stop-opacity="0.65"/>
</linearGradient>
<linearGradient id="paint2_linear_3350_4917" x1="389.99" y1="262.398" x2="389.99" y2="315.761" gradientUnits="userSpaceOnUse">
<stop stop-color="#FF0000"/>
<stop offset="1" stop-color="#230000" stop-opacity="0"/>
<stop offset="1" stop-opacity="0"/>
</linearGradient>
<linearGradient id="paint3_linear_3350_4917" x1="28.5798" y1="210.258" x2="28.5798" y2="518.842" gradientUnits="userSpaceOnUse">
<stop stop-color="#DE0731"/>
<stop offset="1" stop-opacity="0.65"/>
</linearGradient>
<linearGradient id="paint4_linear_3350_4917" x1="28.5798" y1="218.387" x2="28.5798" y2="518.842" gradientUnits="userSpaceOnUse">
<stop stop-color="#FAB7B7"/>
<stop offset="0.0001" stop-color="#F9B1B1" stop-opacity="0.775"/>
<stop offset="1" stop-color="#F89E9E" stop-opacity="0"/>
</linearGradient>
<clipPath id="clip0_3350_4917">
<rect width="406.977" height="588.409" fill="white"/>
</clipPath>
</defs>
</svg>
