<svg width="183" height="177" viewBox="0 0 183 177" fill="none" xmlns="http://www.w3.org/2000/svg">
<g opacity="0.3">
<path d="M132.761 17.1108C132.761 17.1108 134.771 23.3103 137.813 32.6973C137.869 32.8711 137.926 33.0458 137.985 33.2214C139.62 38.2733 148.323 32.2988 147.651 38.4336C147.828 41.7155 143.115 43.5887 142.818 48.1363C142.887 48.3546 142.958 48.5732 143.029 48.7917C144.093 52.0753 145.199 55.4889 146.326 58.9675C146.393 59.1734 146.46 59.3801 146.532 59.5847C153.781 62.8189 154.984 66.532 151.209 74.019C151.273 74.23 151.341 74.4392 151.408 74.6485C152.696 78.6231 153.972 82.5598 155.206 86.3657C155.276 86.5817 155.345 86.7969 155.414 87.0136C157.972 92.167 149.333 95.6008 151.081 98.2585C152.588 100.174 158.871 97.6763 160.292 102.059C160.351 102.242 160.41 102.424 160.468 102.604C164.221 114.185 166.813 122.181 166.813 122.181L55.677 166.352C55.677 166.352 53.3227 159.088 49.8527 148.381C49.7958 148.205 49.7386 148.029 49.681 147.851C47.5835 142.747 40.996 147.041 39.2482 144.383C37.019 140.24 46.3804 139.034 44.8957 133.11C44.8348 132.894 44.7659 132.682 44.6967 132.468C43.4846 128.728 42.2254 124.843 40.9488 120.904C40.8815 120.696 40.8143 120.489 40.7399 120.284C36.8689 115.153 29.1923 121.557 27.2037 118.157C25.7597 113.701 35.1211 112.495 36.0835 105.901C36.0192 105.693 35.9522 105.486 35.8852 105.279C34.7606 101.809 33.6526 98.3906 32.5814 95.085C32.5118 94.8641 32.4413 94.6435 32.3767 94.4225C35.5149 86.3543 32.9818 84.0087 27.6298 79.797C27.5696 79.6142 27.5102 79.4311 27.4505 79.2501C23.9805 68.5427 21.6268 61.2802 21.6268 61.2802L132.761 17.1091L132.761 17.1108ZM44.1995 70.7512C44.1995 70.7512 44.4751 71.6017 44.967 73.1195C45.0285 73.3093 45.0951 73.5086 45.1819 73.7112C48.1448 78.8221 57.3932 71.7939 58.8369 76.2486C60.2806 80.7034 49.8935 81.4794 49.827 88.1001C49.8914 88.3145 49.9609 88.5288 50.0306 88.7439C50.8681 91.3282 51.7595 94.0786 52.6801 96.9193C52.7425 97.1117 52.8039 97.3044 52.8654 97.4971C52.8308 98.7518 53.312 100.237 53.5526 100.979C48.7132 107.932 53.3625 108.599 57.6592 112.298C57.7265 112.494 57.7911 112.69 57.8548 112.886C59.3192 117.405 60.7427 121.797 62.0303 125.77C62.094 125.967 62.1574 126.163 62.2168 126.358C62.6972 129.196 60.8228 131.618 59.7325 133.727C59.3652 138.065 66.9151 136.74 67.0042 141.121C67.1109 141.447 67.2046 141.737 67.2861 141.988C67.5303 142.741 67.6624 143.149 67.6624 143.149L144.24 112.713C144.24 112.713 143.943 111.796 143.416 110.17C143.357 109.989 143.296 109.799 143.226 109.603C140.807 104.856 131.56 111.884 131.991 105.008C131.814 101.726 138.338 99.9709 138.416 94.7418C138.351 94.5427 138.287 94.3436 138.222 94.1428C137.121 90.746 135.932 87.0759 134.709 83.3038C134.645 83.1055 134.58 82.9064 134.516 82.7073C134.259 76.4455 133.601 71.6778 129.649 67.6837C129.584 67.4887 129.52 67.2921 129.457 67.0972C128.206 63.2381 127.006 59.5335 125.917 56.1738C125.849 55.9638 125.781 55.7554 125.714 55.5478C125.735 55.2032 125.758 54.8628 125.781 54.5261C125.803 54.1894 125.826 53.8567 125.848 53.5279C126.382 49.4025 132.184 45.4193 131.462 43.192C128.751 37.5636 117.274 40.4492 111.649 43.9418C111.35 44.0606 111.046 44.1816 110.736 44.3047C89.9653 52.5613 44.1995 70.7512 44.1995 70.7512Z" fill="url(#paint0_linear_189_5152)"/>
<path d="M22.6556 61.7201C22.6556 61.7201 24.8193 68.3963 28.0482 78.3592C28.107 78.5406 28.1661 78.7228 28.2254 78.9059C28.4514 79.1246 28.6674 79.3435 28.8828 79.5607C35.8851 82.0246 34.972 87.4154 33.2305 94.3306C33.2985 94.556 33.3712 94.7804 33.4424 95.0063C34.463 98.1555 35.5178 101.41 36.5885 104.714C36.6546 104.918 36.7208 105.122 36.787 105.326C36.6934 111.875 27.8774 112.026 27.5093 116.363C27.1421 120.7 34.7545 116.835 38.6175 117.815C39.6434 118.245 40.6692 118.676 41.5955 120.166C41.662 120.371 41.7284 120.576 41.7948 120.781C43.0569 124.675 44.3006 128.513 45.4967 132.203C45.5659 132.417 45.6339 132.63 45.6908 132.849C46.6849 137.237 38.591 139.616 39.7943 143.329C40.9975 147.041 49.1546 142.123 50.471 147.552C50.5282 147.728 50.585 147.904 50.6414 148.077C53.9736 158.359 56.2213 165.294 56.2213 165.294L165.778 121.751C165.778 121.751 163.296 114.092 159.682 102.94C159.624 102.76 159.565 102.58 159.504 102.399C156.267 97.8741 150.77 100.059 146.361 100.135C149.326 95.6048 156.635 93.538 154.637 87.3739C154.567 87.1579 154.497 86.9428 154.427 86.726C153.209 82.9694 151.949 79.0804 150.676 75.1518C150.609 74.9451 150.542 74.7384 150.475 74.5309C154.976 66.5386 152.203 63.4501 145.65 59.6431C145.583 59.4389 145.518 59.2356 145.451 59.0315C144.377 55.717 143.323 52.4657 142.309 49.3343C142.236 49.1107 142.164 48.8872 142.092 48.6653C140.93 47.8158 142.26 46.4492 142.019 45.7069C143.653 42.5435 149.151 40.3585 147.162 36.9579C145.174 33.5582 138.587 37.8521 137.178 33.5025C137.12 33.3253 137.063 33.149 137.006 32.9735C134.11 24.0381 132.211 18.1768 132.211 18.1768L22.6556 61.7201ZM121.386 39.2378C123.97 41.9857 130.012 38.7462 131.761 41.4041C134.775 45.235 127.707 48.0442 127.551 52.2973C127.489 52.4816 127.431 52.6657 127.371 52.8542C127.134 53.6058 126.849 54.4237 126.518 55.3187C126.583 55.5178 126.648 55.7177 126.713 55.9193C127.758 59.1427 128.899 62.6648 130.086 66.326C130.15 66.5242 130.214 66.7225 130.278 66.9207C134.38 71.3725 135.824 75.8267 135.217 82.15C135.28 82.3535 135.346 82.556 135.411 82.7576C136.653 86.5901 137.863 90.3247 138.987 93.7902C139.052 93.991 139.116 94.1909 139.181 94.39C139.357 100.403 127.095 103.6 132.948 107.979C136.025 109.27 141.827 105.288 144.082 109.512C144.15 109.722 144.215 109.923 144.278 110.116C144.903 112.045 145.259 113.143 145.259 113.143L67.1175 144.2C67.1175 144.2 66.8898 143.497 66.4783 142.228C66.4269 142.069 66.3728 141.902 66.3157 141.726C60.4551 135.953 57.8587 136.147 61.4166 126.631C61.3588 126.434 61.2962 126.238 61.2323 126.041C59.9746 122.16 58.5947 117.903 57.1758 113.524C57.1112 113.325 57.0467 113.126 56.9777 112.929C48.1704 108.988 50.2864 107.309 52.1175 97.9169C52.0541 97.7212 51.9907 97.5255 51.9275 97.3307C50.9648 94.3603 50.032 91.482 49.1568 88.7816C49.0896 88.5741 49.0235 88.3671 48.9737 88.1545C48.3235 82.108 58.71 81.3328 58.292 77.3081C57.1522 71.0562 47.3611 79.1385 44.2497 73.6436C44.1813 73.4327 44.116 73.2311 44.0537 73.0387C43.4921 71.306 43.1747 70.3266 43.1747 70.3266C43.1747 70.3266 90.7754 51.4078 111.674 43.1019C112 42.9721 112.32 42.8448 112.634 42.7203C115.699 41.083 118.055 40.1468 121.248 39.2928C121.339 39.2566 121.386 39.2378 121.386 39.2378Z" fill="url(#paint1_linear_189_5152)"/>
<path d="M131.115 20.3074C131.115 20.3074 132.811 25.5392 135.429 33.6164C135.485 33.7884 135.541 33.9613 135.598 34.1355C136.047 35.5222 137.858 35.6403 139.328 36.3372C139.626 36.3443 139.929 36.3344 140.234 36.3142C142.673 36.1551 145.231 35.3431 146.367 37.2856C149.862 42.5993 139.478 43.3742 140.298 48.5514C140.346 48.7827 140.417 49.0057 140.49 49.2292C141.575 52.5788 142.711 56.0835 143.872 59.6659C143.939 59.87 144.005 60.074 144.071 60.279C151.647 64.5106 153.939 66.1137 148.913 75.2188C148.981 75.4263 149.048 75.6338 149.115 75.8412C150.393 79.7828 151.656 83.6814 152.874 87.4383C152.944 87.655 153.014 87.8717 153.084 88.0876C153.178 96.577 143.819 97.7823 139.286 102.935C145.744 103.72 153.418 97.3191 157.92 103.063C157.992 103.236 158.053 103.413 158.111 103.591C161.447 113.885 163.713 120.876 163.713 120.876L57.3269 163.155C57.3269 163.155 55.2148 156.638 52.0661 146.924C52.0098 146.75 51.9532 146.575 51.8886 146.404C48.6286 143.153 43.1325 145.337 41.6259 143.423C39.3974 139.282 48.5147 137.334 47.1174 131.656C47.048 131.441 46.9786 131.227 46.9091 131.013C45.7797 127.529 44.6066 123.909 43.4162 120.237C43.3501 120.032 43.284 119.828 43.2178 119.624C39.0063 113.466 28.6725 122.6 27.533 116.35C28.141 112.757 37.2582 110.81 38.4252 104.841C38.359 104.637 38.2931 104.433 38.2273 104.23C37.1443 100.889 36.0786 97.6011 35.0495 94.4261C34.9769 94.1989 34.9036 93.9729 34.8324 93.747C38.918 85.853 35.1194 82.3355 30.0047 78.8584C29.9443 78.6749 29.8852 78.4928 29.8262 78.3106C26.7684 68.8766 24.7299 62.5873 24.7299 62.5873L131.115 20.3074ZM122.402 37.1751L41.141 69.4694C41.141 69.4694 41.6794 71.1307 42.5981 73.965C42.6746 74.2011 42.7557 74.445 42.8624 74.6872C47.6174 79.8817 56.8624 72.8569 57.2803 76.8802C58.4832 80.5916 46.7692 82.7329 47.515 89.1351C47.5826 89.3434 47.6503 89.5526 47.7187 89.7634C48.6048 92.4974 49.5426 95.3907 50.5069 98.3659C50.5701 98.5607 50.6332 98.7555 50.6921 98.9529C51.9348 104.138 44.8686 106.946 45.831 109.916C46.7934 112.885 54.4038 109.022 55.525 113.86C55.5925 114.056 55.6567 114.254 55.7207 114.452C57.0644 118.597 58.3742 122.639 59.5845 126.373C59.6504 126.576 59.716 126.778 59.7741 126.983C60.5952 130.858 55.3397 133.785 55.2765 136.324C54.9094 140.659 63.3051 136.485 64.6605 142.034C64.7332 142.258 64.8032 142.474 64.8707 142.682C65.6128 144.972 66.0397 146.289 66.0397 146.289L147.301 113.995C147.301 113.995 146.705 112.155 145.697 109.044C145.619 108.805 145.539 108.559 145.447 108.309C141.578 104.54 134.449 109.887 132.461 106.488C129.992 101.605 141.161 100.518 140.829 94.0881C140.779 93.8776 140.715 93.6725 140.649 93.4676C139.459 89.7975 138.179 85.8467 136.868 81.8013C136.802 81.599 136.736 81.3966 136.674 81.1919C137.389 75.2077 135.945 70.7543 131.732 65.9558C131.667 65.7567 131.603 65.5586 131.539 65.3604C130.38 61.7856 129.263 58.3391 128.231 55.1556C128.162 54.9431 128.094 54.7323 128.026 54.5223C127.981 54.1888 127.968 53.8676 127.981 53.5586C127.995 53.2495 128.036 52.9505 128.1 52.6624C128.488 47.7457 138.39 45.4857 134.351 41.227C131.819 38.8825 124.994 42.4328 122.55 37.6285C122.452 37.3295 122.402 37.1751 122.402 37.1751Z" fill="url(#paint2_linear_189_5152)"/>
<path d="M128.904 24.5909C128.904 24.5909 130.021 28.034 131.827 33.6056C131.896 33.8196 131.967 34.037 132.041 34.2576C133.897 37.2577 136.732 37.8052 140.16 37.3231C140.461 37.2822 140.76 37.2378 141.053 37.1917C141.933 37.0541 142.766 36.9022 143.489 36.7943C144.514 37.2241 147.109 37.0304 146.805 38.8261C145.581 41.1959 142.907 42.5532 140.677 44.3531C140.429 44.5535 140.188 44.7588 139.953 44.9719C139.376 45.9632 137.807 46.5867 137.698 48.0148C137.57 48.3195 137.461 48.6398 137.373 48.9772C137.284 49.315 137.217 49.6698 137.174 50.0444C137.229 50.2661 137.298 50.4805 137.367 50.6946C138.41 53.911 139.506 57.2925 140.63 60.7584C140.695 60.9589 140.759 61.1586 140.824 61.3592C149.487 66.2229 150.512 66.6527 145.6 76.0438C145.654 76.2544 145.719 76.4586 145.786 76.6634C147.176 80.9525 148.55 85.1893 149.859 89.229C149.928 89.4422 149.997 89.6545 150.063 89.8729C148.662 99.1994 137.019 98.8032 133.994 105.866C140.208 105.908 150.232 98.5768 154.928 104.882C154.987 105.05 155.041 105.217 155.095 105.383C157.786 113.684 159.558 119.148 159.558 119.148L59.5092 158.9C59.5092 158.9 57.8767 153.864 55.3651 146.117C55.313 145.956 55.2582 145.793 55.1979 145.629C52.3216 140.827 46.2844 144.063 44.7787 142.15C42.5514 138.011 52.4482 135.753 50.4085 130.893C50.3569 130.674 50.2906 130.464 50.2223 130.253C49.0641 126.68 47.8512 122.939 46.6164 119.13C46.5514 118.93 46.4864 118.729 46.4213 118.529C41.1353 111.785 30.8073 120.912 29.3647 116.461C27.922 112.011 41.3757 112.526 41.5115 103.384C41.4468 103.184 41.3821 102.984 41.3173 102.784C40.2675 99.5461 39.2363 96.3651 38.2443 93.3055C38.1736 93.0872 38.1028 92.869 38.0365 92.6489C38.0983 92.4637 38.1587 92.2808 38.22 92.1004C43.0982 85.0534 40.1488 78.6908 33.0905 77.4109C33.037 77.2457 32.984 77.0822 32.9315 76.9205C30.4576 69.2894 28.8538 64.3422 28.8538 64.3422L128.904 24.5892L128.904 24.5909ZM124.551 33.0179L37.0581 67.7816C37.0581 67.7816 37.879 70.3138 39.2334 74.4917C39.3238 74.7706 39.4164 75.0563 39.5112 75.3487C41.2402 76.584 42.9866 79.2393 45.939 78.2878C46.2584 78.258 46.5807 78.2184 46.9049 78.1752C49.8212 77.7802 52.8845 76.9816 55.1749 78.5827C52.9413 79.8887 50.3146 81.3509 48.2131 83.2351C47.9801 83.4446 47.7526 83.6587 47.5332 83.879C45.1513 85.9136 44.8467 87.7087 44.4954 89.4472C44.446 89.7636 44.4132 90.0877 44.3981 90.42C44.4686 90.6374 44.5396 90.8565 44.6107 91.0756C45.4643 93.7088 46.3574 96.4635 47.2717 99.2838C47.3362 99.4827 47.4009 99.6824 47.4656 99.8821C50.0737 106.561 40.4173 109.561 36.4301 113.656C41.3158 115.064 49.2257 109.409 52.3932 115.116C52.4694 115.317 52.535 115.519 52.6003 115.721C53.9096 119.759 55.1911 123.712 56.3931 127.42C56.4592 127.624 56.525 127.827 56.5879 128.03C57.704 132.83 50.6418 135.636 50.5787 138.173C51.2367 142.935 59.9312 136.968 61.4591 143.047C61.5468 143.317 61.6326 143.582 61.7164 143.841C63.0561 147.973 63.8669 150.474 63.8669 150.474L151.36 115.71C151.36 115.71 150.445 112.887 148.952 108.283C148.865 108.013 148.775 107.735 148.682 107.453C145.223 102.243 137.552 108.639 132.668 107.232C130.377 105.63 133.275 103.641 134.605 102.276C138.048 99.2336 144.565 97.4812 143.688 92.0424C143.622 91.8368 143.555 91.6312 143.488 91.4239C142.349 87.9126 141.146 84.2016 139.921 80.4214C139.856 80.2226 139.792 80.0237 139.727 79.824C140.251 73.243 140.618 68.9107 134.682 64.2619C134.619 64.0664 134.555 63.8709 134.492 63.6763C133.374 60.2273 132.29 56.8845 131.275 53.7532C131.208 53.5442 131.14 53.3369 131.086 53.1226C131.099 52.7569 131.135 52.4058 131.192 52.0693C131.249 51.7327 131.327 51.4099 131.424 51.0991C133.646 47.4028 137.088 44.3611 140.722 42.5463C140.996 42.344 141.265 42.1372 141.528 41.9246C142.577 41.0747 143.513 40.1343 144.213 39.0179C143.363 38.8535 142.48 38.8343 141.576 38.9044C141.275 38.928 140.971 38.961 140.666 39.0025C135.645 39.911 128.646 40.1799 125.484 35.8882C125.384 35.5814 125.292 35.2974 125.208 35.0371C124.784 33.7367 124.551 33.0179 124.551 33.0179Z" fill="url(#paint3_linear_189_5152)"/>
<path d="M151.67 111.477L154.033 110.535L153.312 108.305L150.949 109.247L151.67 111.477Z" fill="url(#paint4_linear_189_5152)"/>
<path d="M145.161 106.229C147.447 105.454 149.786 104.528 151.822 105.372C149.416 108.798 147.209 104.723 145.455 106.203C145.271 106.219 145.161 106.229 145.161 106.229Z" fill="url(#paint5_linear_189_5152)"/>
<path d="M132.483 106.783C133.253 107.447 135.298 108.299 136.626 106.939C134.754 109.348 133.492 108.184 132.445 107.175C132.437 106.953 132.483 106.783 132.483 106.783Z" fill="url(#paint6_linear_189_5152)"/>
<path d="M144.534 96.474C145.191 96.0044 145.969 95.6979 146.748 95.3914C144.888 97.7629 142.013 99.7152 138.9 100.941C140.457 100.328 142.553 98.6827 143.98 97.0964C144.33 96.7161 144.534 96.474 144.534 96.474Z" fill="url(#paint7_linear_189_5152)"/>
<path d="M144.806 90.9145L147.17 89.9727C147.17 89.9727 147.35 90.5304 147.531 91.0882C147.621 91.3671 147.71 91.6472 147.771 91.8683C148.499 92.9063 146.442 92.0468 145.894 93.1045C145.894 93.1045 145.654 92.3608 145.4 92.811C145.346 92.5894 145.257 92.309 145.167 92.0301C144.986 91.4723 144.806 90.9145 144.806 90.9145Z" fill="url(#paint8_linear_189_5152)"/>
<path d="M143.991 88.5601L146.354 87.6187L145.633 85.3888L143.27 86.3301L143.991 88.5601Z" fill="url(#paint9_linear_189_5152)"/>
<path d="M142.455 83.9769L144.818 83.0355L144.097 80.8056L141.734 81.7469L142.455 83.9769Z" fill="url(#paint10_linear_189_5152)"/>
<path d="M140.596 76.8835C141.369 76.8839 142.158 76.5696 142.946 76.2554C143.187 76.9998 143.428 77.7442 143.668 78.4886C142.88 78.8029 142.091 79.1172 141.302 79.4314C141.062 78.687 140.821 77.9426 140.568 77.31C140.578 77.0567 140.596 76.8835 140.596 76.8835Z" fill="url(#paint11_linear_189_5152)"/>
<path d="M142.983 70.5953C144.251 69.7872 145.031 69.4782 146.591 68.8602C145.745 71.6742 144.422 73.0246 141.062 73.5286C141.843 73.2196 142.147 71.4466 142.855 71.0328C142.946 70.764 142.983 70.5953 142.983 70.5953Z" fill="url(#paint12_linear_189_5152)"/>
<path d="M138.596 67.3867C141.176 65.8502 143.215 66.6978 145.253 67.5454C143.215 66.6978 140.805 70.1367 139.024 67.5832C138.763 67.4663 138.596 67.3867 138.596 67.3867Z" fill="url(#paint13_linear_189_5152)"/>
<path d="M135.591 63.4197L137.953 62.4788C137.953 62.4788 137.998 62.6181 138.065 62.8266C138.604 63.3199 138.844 64.0628 139.085 64.8057C138.297 65.1193 137.51 65.433 136.723 65.7466C136.483 65.0037 136.243 64.2607 135.703 63.7675C135.636 63.559 135.591 63.4197 135.591 63.4197Z" fill="url(#paint14_linear_189_5152)"/>
<path d="M134.776 61.0601L137.138 60.1188L136.417 57.8888L134.055 58.8302L134.776 61.0601Z" fill="url(#paint15_linear_189_5152)"/>
<path d="M133.24 56.4769L135.603 55.5356L134.882 53.3056L132.519 54.247L133.24 56.4769Z" fill="url(#paint16_linear_189_5152)"/>
<path d="M133.328 48.548C134.305 47.8622 134.305 47.8622 135.092 47.549C133.76 48.9158 134.719 51.881 132.122 52.0788C131.882 51.3377 131.402 49.8555 132.845 49.1795C133.112 48.8098 133.328 48.548 133.328 48.548Z" fill="url(#paint17_linear_189_5152)"/>
<path d="M144.071 38.6838C144.314 41.3287 141.189 42.5684 139.626 43.1886C141.97 42.2588 143.295 40.9045 144.119 39.0574C144.14 38.8091 144.071 38.6838 144.071 38.6838Z" fill="url(#paint18_linear_189_5152)"/>
<path d="M130.038 39.5546C132.527 37.482 136.589 39.1604 139.701 37.9346C136.827 39.8863 133.78 38.6282 130.855 39.5717C130.346 39.5691 130.038 39.5546 130.038 39.5546Z" fill="url(#paint19_linear_189_5152)"/>
<path d="M126.375 35.9114L128.732 34.9729C128.732 34.9729 128.777 35.1119 128.845 35.3207C128.912 35.5296 129.002 35.8074 129.092 36.0853C129.907 37.4337 127.856 36.5773 127 37.7805C126.916 37.5792 126.824 37.302 126.734 37.0241C126.555 36.4672 126.375 35.9114 126.375 35.9114Z" fill="url(#paint20_linear_189_5152)"/>
<path d="M58.686 144.696C59.2499 144.488 60.0374 144.174 61.1987 144.104C61.2682 144.313 61.3583 144.592 61.4485 144.871C61.6288 145.428 61.8091 145.986 61.8091 145.986L59.4467 146.926C59.4467 146.926 59.4017 146.787 59.3342 146.578C59.2664 146.369 59.1763 146.09 59.0862 145.811C58.9951 145.533 58.8955 145.253 58.8178 145.044C58.7402 144.836 58.686 144.696 58.686 144.696Z" fill="url(#paint21_linear_189_5152)"/>
<path d="M53.2203 141.659C55.1714 140.09 57.2113 140.94 59.0126 141.054C58.1654 143.878 55.6476 141.56 53.9651 141.728C53.5258 141.683 53.2203 141.659 53.2203 141.659Z" fill="url(#paint22_linear_189_5152)"/>
<path d="M48.2288 138.593C49.2534 138.035 50.0366 137.723 50.8199 137.412C49.4925 138.773 50.2101 140.987 47.62 141.183C48.1642 140.133 46.3585 140.018 47.7159 139.184C47.9992 138.84 48.2288 138.593 48.2288 138.593Z" fill="url(#paint23_linear_189_5152)"/>
<path d="M53.8703 131.126C54.6885 130.796 55.4708 130.486 56.2522 130.176C56.1864 132.69 54.6236 133.309 52.2786 134.24C52.8215 133.195 53.3643 132.151 53.7581 131.573C53.8388 131.3 53.8703 131.126 53.8703 131.126Z" fill="url(#paint24_linear_189_5152)"/>
<path d="M53.3029 128.594L55.6655 127.653L54.9443 125.422L52.5817 126.363L53.3029 128.594Z" fill="url(#paint25_linear_189_5152)"/>
<path d="M51.767 124.01L54.1296 123.069L53.4084 120.839L51.0458 121.78L51.767 124.01Z" fill="url(#paint26_linear_189_5152)"/>
<path d="M50.2311 119.427L52.5938 118.486L51.8725 116.256L49.5099 117.197L50.2311 119.427Z" fill="url(#paint27_linear_189_5152)"/>
<path d="M43.8118 114.38C46.0011 112.74 48.5824 112.546 50.8585 114.126C48.755 115.787 46.478 114.207 44.7745 114.369C44.2188 114.369 43.8118 114.38 43.8118 114.38Z" fill="url(#paint28_linear_189_5152)"/>
<path d="M30.732 114.367C31.5572 113.998 33.1152 113.383 33.8938 113.076C34.1315 113.804 33.3529 114.111 32.5743 114.418C34.3692 114.532 36.1649 114.645 38.5007 113.724C35.9272 113.918 33.5251 117.33 30.1881 114.962C30.4357 114.637 30.732 114.367 30.732 114.367Z" fill="url(#paint29_linear_189_5152)"/>
<path d="M44.0992 103.932C44.7555 103.729 45.5345 103.422 46.3136 103.114C45.469 105.917 42.3519 107.148 40.0147 108.071C41.5728 107.456 42.8931 106.111 43.7898 104.47C43.9906 104.142 44.0992 103.932 44.0992 103.932Z" fill="url(#paint30_linear_189_5152)"/>
<path d="M43.3703 98.8636L45.7327 97.9227C45.7327 97.9227 45.913 98.4802 46.0933 99.0377C46.1835 99.3165 46.273 99.5964 46.337 99.8131C46.5075 101.234 44.4515 100.373 43.9045 101.43C43.9045 101.43 43.6641 100.687 43.9781 100.746C43.911 100.535 43.8208 100.257 43.7306 99.9778C43.5506 99.4212 43.3703 98.8636 43.3703 98.8636Z" fill="url(#paint31_linear_189_5152)"/>
<path d="M42.5519 96.5105L44.9146 95.5695L44.1933 93.3392L41.8307 94.2803L42.5519 96.5105Z" fill="url(#paint32_linear_189_5152)"/>
<path d="M40.3656 89.666C40.91 89.7658 41.6975 89.4521 42.387 89.3348C42.6105 89.3574 42.824 89.5022 43.0178 89.8703C43.1079 90.1491 43.1981 90.4279 43.2659 90.6374C43.3333 90.8461 43.3784 90.9855 43.3784 90.9855L41.0158 91.9265C41.0158 91.9265 40.8355 91.3689 40.6551 90.8114C40.565 90.5326 40.4775 90.2527 40.4292 90.0345C40.3823 89.8177 40.3656 89.666 40.3656 89.666Z" fill="url(#paint33_linear_189_5152)"/>
<path d="M43.3675 83.4287C44.8245 83.1178 45.6042 82.8094 47.1636 82.1926C43.8068 82.6953 44.2175 86.6589 40.8595 87.1611C41.4012 86.1218 42.9606 85.505 42.9635 83.9663C43.2055 83.6437 43.3675 83.4287 43.3675 83.4287Z" fill="url(#paint34_linear_189_5152)"/>
<path d="M41.4277 79.054C43.2711 78.6092 44.5927 77.263 46.378 77.8515C46.6358 77.8235 46.8928 77.8053 47.1503 77.7981C48.1783 77.7683 49.2031 77.9129 50.2203 78.3348C49.5969 78.5812 48.9829 78.8566 48.3788 79.1225C48.0773 79.2557 47.777 79.3865 47.4802 79.5094C45.0021 81.221 43.7469 80.0691 42.0228 79.2112C41.6653 79.1174 41.4277 79.054 41.4277 79.054Z" fill="url(#paint35_linear_189_5152)"/>
<path d="M35.7704 75.9351C37.6524 74.7399 38.9178 75.9098 40.1835 77.0805C38.852 78.4474 36.8008 77.5903 35.996 76.2399C35.8522 76.0604 35.7704 75.9351 35.7704 75.9351Z" fill="url(#paint36_linear_189_5152)"/>
<path d="M34.8725 73.5937L37.2351 72.6527L36.5138 70.4224L34.1512 71.3635L34.8725 73.5937Z" fill="url(#paint37_linear_189_5152)"/>
<path d="M114.909 32.7621L114.177 30.5191L116.529 29.5908L117.261 31.8338L114.909 32.7621Z" fill="url(#paint38_linear_189_5152)"/>
<path d="M110.244 34.5551L109.512 32.3121L111.864 31.3838L112.596 33.6268L110.244 34.5551Z" fill="url(#paint39_linear_189_5152)"/>
<path d="M105.58 36.3481L104.848 34.1051L107.199 33.1768L107.931 35.4199L105.58 36.3481Z" fill="url(#paint40_linear_189_5152)"/>
<path d="M100.915 38.1412L100.183 35.8982L102.535 34.9699L103.267 37.213L100.915 38.1412Z" fill="url(#paint41_linear_189_5152)"/>
<path d="M96.2493 39.9346L95.5173 37.6916L97.8701 36.763L98.6021 39.006L96.2493 39.9346Z" fill="url(#paint42_linear_189_5152)"/>
<path d="M91.5847 41.7277L90.8527 39.4847L93.2055 38.5561L93.9375 40.7991L91.5847 41.7277Z" fill="url(#paint43_linear_189_5152)"/>
<path d="M86.9201 43.5208L86.1881 41.2777L88.54 40.3495L89.272 42.5925L86.9201 43.5208Z" fill="url(#paint44_linear_189_5152)"/>
<path d="M82.2556 45.3138L81.5236 43.0708L83.8754 42.1425L84.6074 44.3855L82.2556 45.3138Z" fill="url(#paint45_linear_189_5152)"/>
<path d="M77.5899 47.1072L76.8579 44.8642L79.2106 43.9356L79.9426 46.1786L77.5899 47.1072Z" fill="url(#paint46_linear_189_5152)"/>
<path d="M72.9253 48.9003L72.1933 46.6572L74.5461 45.7286L75.2781 47.9716L72.9253 48.9003Z" fill="url(#paint47_linear_189_5152)"/>
<path d="M68.2605 50.6933L67.5285 48.4503L69.8813 47.5217L70.6133 49.7647L68.2605 50.6933Z" fill="url(#paint48_linear_189_5152)"/>
<path d="M63.5961 52.4864L62.8641 50.2434L65.216 49.3151L65.948 51.5581L63.5961 52.4864Z" fill="url(#paint49_linear_189_5152)"/>
<path d="M58.9313 54.2795L58.1993 52.0365L60.5512 51.1082L61.2832 53.3513L58.9313 54.2795Z" fill="url(#paint50_linear_189_5152)"/>
<path d="M54.2668 56.0725L53.5348 53.8295L55.8867 52.9012L56.6187 55.1442L54.2668 56.0725Z" fill="url(#paint51_linear_189_5152)"/>
<path d="M49.6011 57.8659L48.8691 55.6229L51.2219 54.6943L51.9539 56.9373L49.6011 57.8659Z" fill="url(#paint52_linear_189_5152)"/>
<path d="M44.9368 59.6589L44.2048 57.4159L46.5576 56.4873L47.2896 58.7303L44.9368 59.6589Z" fill="url(#paint53_linear_189_5152)"/>
<path d="M40.2722 61.452L39.5402 59.209L41.892 58.2807L42.624 60.5237L40.2722 61.452Z" fill="url(#paint54_linear_189_5152)"/>
<path d="M145.273 123.376L144.541 121.133L146.893 120.204L147.625 122.447L145.273 123.376Z" fill="url(#paint55_linear_189_5152)"/>
<path d="M140.609 125.169L139.877 122.926L142.228 121.997L142.96 124.24L140.609 125.169Z" fill="url(#paint56_linear_189_5152)"/>
<path d="M135.944 126.962L135.212 124.719L137.564 123.79L138.296 126.033L135.944 126.962Z" fill="url(#paint57_linear_189_5152)"/>
<path d="M131.279 128.755L130.547 126.512L132.899 125.583L133.631 127.826L131.279 128.755Z" fill="url(#paint58_linear_189_5152)"/>
<path d="M126.614 130.548L125.882 128.305L128.234 127.377L128.966 129.62L126.614 130.548Z" fill="url(#paint59_linear_189_5152)"/>
<path d="M121.949 132.341L121.217 130.098L123.57 129.17L124.302 131.413L121.949 132.341Z" fill="url(#paint60_linear_189_5152)"/>
<path d="M117.284 134.134L116.552 131.891L118.904 130.963L119.636 133.206L117.284 134.134Z" fill="url(#paint61_linear_189_5152)"/>
<path d="M112.62 135.927L111.888 133.684L114.24 132.756L114.972 134.999L112.62 135.927Z" fill="url(#paint62_linear_189_5152)"/>
<path d="M107.954 137.721L107.222 135.478L109.575 134.549L110.307 136.792L107.954 137.721Z" fill="url(#paint63_linear_189_5152)"/>
<path d="M103.29 139.514L102.558 137.271L104.91 136.342L105.642 138.585L103.29 139.514Z" fill="url(#paint64_linear_189_5152)"/>
<path d="M98.6248 141.307L97.8928 139.064L100.246 138.135L100.978 140.378L98.6248 141.307Z" fill="url(#paint65_linear_189_5152)"/>
<path d="M93.9604 143.1L93.2284 140.857L95.5803 139.929L96.3123 142.172L93.9604 143.1Z" fill="url(#paint66_linear_189_5152)"/>
<path d="M89.2956 144.893L88.5636 142.65L90.9155 141.722L91.6475 143.965L89.2956 144.893Z" fill="url(#paint67_linear_189_5152)"/>
<path d="M84.631 146.686L83.899 144.443L86.2509 143.515L86.9829 145.758L84.631 146.686Z" fill="url(#paint68_linear_189_5152)"/>
<path d="M79.9654 148.479L79.2334 146.236L81.5861 145.308L82.3181 147.551L79.9654 148.479Z" fill="url(#paint69_linear_189_5152)"/>
<path d="M75.3011 150.272L74.5691 148.029L76.9218 147.101L77.6538 149.344L75.3011 150.272Z" fill="url(#paint70_linear_189_5152)"/>
<path d="M70.6364 152.066L69.9044 149.823L72.2563 148.894L72.9883 151.137L70.6364 152.066Z" fill="url(#paint71_linear_189_5152)"/>
<path d="M39.4065 150.631L93.3562 129.717L91.7791 124.971L37.8294 145.885L39.4065 150.631Z" fill="url(#paint72_linear_189_5152)"/>
<path d="M40.9663 44.2071L94.916 23.293L93.3389 18.5467L39.3892 39.4608L40.9663 44.2071Z" fill="url(#paint73_linear_189_5152)"/>
<path d="M122.947 94.0631L156.127 81.1619L154.667 76.7549L121.487 89.656L122.947 94.0631Z" fill="url(#paint74_linear_189_5152)"/>
<path d="M35.7422 99.1369L58.6111 90.3013L58.2485 89.2139L35.3796 98.0494L35.7422 99.1369Z" fill="url(#paint75_linear_189_5152)"/>
<path d="M23.5462 90.2199L79.6013 68.4044L76.8396 60.0603L20.7846 81.8758L23.5462 90.2199Z" fill="url(#paint76_linear_189_5152)"/>
<path d="M81.1164 42.0758L105.025 32.7415L103.329 27.5986L79.4195 36.933L81.1164 42.0758Z" fill="url(#paint77_linear_189_5152)"/>
<path d="M134.419 34.9333L147.917 29.6947L147.456 28.3049L133.957 33.5434L134.419 34.9333Z" fill="url(#paint78_linear_189_5152)"/>
<path d="M154.124 62.7135L161.567 59.7966L160.748 57.3069L153.306 60.2237L154.124 62.7135Z" fill="url(#paint79_linear_189_5152)"/>
<path d="M114.299 68.2726L134.61 60.3336L132.966 55.3436L112.655 63.2826L114.299 68.2726Z" fill="url(#paint80_radial_189_5152)"/>
<path d="M116.476 147.695L173.251 125.636L170.982 118.792L114.207 140.851L116.476 147.695Z" fill="url(#paint81_linear_189_5152)"/>
<path d="M22.5774 122.15L60.053 107.526L57.5373 99.9053L20.0617 114.529L22.5774 122.15Z" fill="url(#paint82_radial_189_5152)"/>
<path d="M108.335 144.44L144.998 130.289L144.54 128.919L107.878 143.07L108.335 144.44Z" fill="white"/>
<path d="M47.0971 142.11L74.3533 131.612L74.2001 131.154L46.9439 141.652L47.0971 142.11Z" fill="white"/>
<path d="M45.4834 113.889L55.9612 109.815L55.506 108.441L45.0282 112.515L45.4834 113.889Z" fill="white"/>
<path d="M42.1424 100.702L66.5479 91.2957L66.3609 90.7363L41.9555 100.142L42.1424 100.702Z" fill="white"/>
<path d="M120.648 69.8594L149.294 58.8198L149.081 58.1816L120.435 69.2212L120.648 69.8594Z" fill="white"/>
<path d="M67.2522 63.3536L111.573 46.2737L111.248 45.3005L66.9269 62.3804L67.2522 63.3536Z" fill="white"/>
<path d="M129.253 114.828L167.444 100.122L167.251 99.5449L129.06 114.252L129.253 114.828Z" fill="white"/>
</g>
<defs>
<linearGradient id="paint0_linear_189_5152" x1="157.234" y1="66.6868" x2="24.4662" y2="109.715" gradientUnits="userSpaceOnUse">
<stop stop-color="#85C48D"/>
<stop offset="0.3072" stop-color="#6DC09C"/>
<stop offset="0.9535" stop-color="#30B7C4"/>
<stop offset="1" stop-color="#2BB6C7"/>
</linearGradient>
<linearGradient id="paint1_linear_189_5152" x1="156.924" y1="66.8126" x2="25.0695" y2="109.546" gradientUnits="userSpaceOnUse">
<stop stop-color="#039BCA"/>
<stop offset="0.2065" stop-color="#3A7AC4"/>
<stop offset="0.598" stop-color="#9C3FB9"/>
<stop offset="0.871" stop-color="#DA1AB2"/>
<stop offset="1" stop-color="#F20BAF"/>
</linearGradient>
<linearGradient id="paint2_linear_189_5152" x1="88.1162" y1="150.602" x2="88.2604" y2="27.6709" gradientUnits="userSpaceOnUse">
<stop stop-color="#039BCA"/>
<stop offset="0.2065" stop-color="#3A7AC4"/>
<stop offset="0.598" stop-color="#9C3FB9"/>
<stop offset="0.871" stop-color="#DA1AB2"/>
<stop offset="1" stop-color="#F20BAF"/>
</linearGradient>
<linearGradient id="paint3_linear_189_5152" x1="114.492" y1="158.821" x2="65.5082" y2="35.5386" gradientUnits="userSpaceOnUse">
<stop stop-color="#039BCA"/>
<stop offset="0.2065" stop-color="#3A7AC4"/>
<stop offset="0.598" stop-color="#9C3FB9"/>
<stop offset="0.871" stop-color="#DA1AB2"/>
<stop offset="1" stop-color="#F20BAF"/>
</linearGradient>
<linearGradient id="paint4_linear_189_5152" x1="153.673" y1="109.42" x2="151.258" y2="110.201" gradientUnits="userSpaceOnUse">
<stop stop-color="#85C48D"/>
<stop offset="0.3072" stop-color="#6DC09C"/>
<stop offset="0.9535" stop-color="#30B7C4"/>
<stop offset="1" stop-color="#2BB6C7"/>
</linearGradient>
<linearGradient id="paint5_linear_189_5152" x1="151.666" y1="104.895" x2="145.392" y2="106.938" gradientUnits="userSpaceOnUse">
<stop stop-color="#85C48D"/>
<stop offset="0.3072" stop-color="#6DC09C"/>
<stop offset="0.9535" stop-color="#30B7C4"/>
<stop offset="1" stop-color="#2BB6C7"/>
</linearGradient>
<linearGradient id="paint6_linear_189_5152" x1="136.467" y1="106.449" x2="132.614" y2="107.697" gradientUnits="userSpaceOnUse">
<stop stop-color="#85C48D"/>
<stop offset="0.3072" stop-color="#6DC09C"/>
<stop offset="0.9535" stop-color="#30B7C4"/>
<stop offset="1" stop-color="#2BB6C7"/>
</linearGradient>
<linearGradient id="paint7_linear_189_5152" x1="147.103" y1="96.4804" x2="138.375" y2="99.3346" gradientUnits="userSpaceOnUse">
<stop stop-color="#85C48D"/>
<stop offset="0.3072" stop-color="#6DC09C"/>
<stop offset="0.9535" stop-color="#30B7C4"/>
<stop offset="1" stop-color="#2BB6C7"/>
</linearGradient>
<linearGradient id="paint8_linear_189_5152" x1="147.591" y1="91.1391" x2="145.118" y2="91.9386" gradientUnits="userSpaceOnUse">
<stop stop-color="#85C48D"/>
<stop offset="0.3072" stop-color="#6DC09C"/>
<stop offset="0.9535" stop-color="#30B7C4"/>
<stop offset="1" stop-color="#2BB6C7"/>
</linearGradient>
<linearGradient id="paint9_linear_189_5152" x1="145.993" y1="86.5036" x2="143.578" y2="87.2845" gradientUnits="userSpaceOnUse">
<stop stop-color="#85C48D"/>
<stop offset="0.3072" stop-color="#6DC09C"/>
<stop offset="0.9535" stop-color="#30B7C4"/>
<stop offset="1" stop-color="#2BB6C7"/>
</linearGradient>
<linearGradient id="paint10_linear_189_5152" x1="144.458" y1="81.9203" x2="142.042" y2="82.7012" gradientUnits="userSpaceOnUse">
<stop stop-color="#85C48D"/>
<stop offset="0.3072" stop-color="#6DC09C"/>
<stop offset="0.9535" stop-color="#30B7C4"/>
<stop offset="1" stop-color="#2BB6C7"/>
</linearGradient>
<linearGradient id="paint11_linear_189_5152" x1="143.264" y1="77.2354" x2="140.801" y2="78.0314" gradientUnits="userSpaceOnUse">
<stop stop-color="#85C48D"/>
<stop offset="0.3072" stop-color="#6DC09C"/>
<stop offset="0.9535" stop-color="#30B7C4"/>
<stop offset="1" stop-color="#2BB6C7"/>
</linearGradient>
<linearGradient id="paint12_linear_189_5152" x1="146.993" y1="70.0958" x2="140.62" y2="72.1688" gradientUnits="userSpaceOnUse">
<stop stop-color="#85C48D"/>
<stop offset="0.3072" stop-color="#6DC09C"/>
<stop offset="0.9535" stop-color="#30B7C4"/>
<stop offset="1" stop-color="#2BB6C7"/>
</linearGradient>
<linearGradient id="paint13_linear_189_5152" x1="144.837" y1="66.2638" x2="138.862" y2="68.2051" gradientUnits="userSpaceOnUse">
<stop stop-color="#85C48D"/>
<stop offset="0.3072" stop-color="#6DC09C"/>
<stop offset="0.9535" stop-color="#30B7C4"/>
<stop offset="1" stop-color="#2BB6C7"/>
</linearGradient>
<linearGradient id="paint14_linear_189_5152" x1="138.687" y1="63.5753" x2="135.929" y2="64.467" gradientUnits="userSpaceOnUse">
<stop stop-color="#85C48D"/>
<stop offset="0.3072" stop-color="#6DC09C"/>
<stop offset="0.9535" stop-color="#30B7C4"/>
<stop offset="1" stop-color="#2BB6C7"/>
</linearGradient>
<linearGradient id="paint15_linear_189_5152" x1="136.778" y1="59.0036" x2="134.363" y2="59.7845" gradientUnits="userSpaceOnUse">
<stop stop-color="#85C48D"/>
<stop offset="0.3072" stop-color="#6DC09C"/>
<stop offset="0.9535" stop-color="#30B7C4"/>
<stop offset="1" stop-color="#2BB6C7"/>
</linearGradient>
<linearGradient id="paint16_linear_189_5152" x1="135.242" y1="54.4203" x2="132.827" y2="55.2011" gradientUnits="userSpaceOnUse">
<stop stop-color="#85C48D"/>
<stop offset="0.3072" stop-color="#6DC09C"/>
<stop offset="0.9535" stop-color="#30B7C4"/>
<stop offset="1" stop-color="#2BB6C7"/>
</linearGradient>
<linearGradient id="paint17_linear_189_5152" x1="135.59" y1="49.0903" x2="131.575" y2="50.3892" gradientUnits="userSpaceOnUse">
<stop stop-color="#85C48D"/>
<stop offset="0.3072" stop-color="#6DC09C"/>
<stop offset="0.9535" stop-color="#30B7C4"/>
<stop offset="1" stop-color="#2BB6C7"/>
</linearGradient>
<linearGradient id="paint18_linear_189_5152" x1="144.468" y1="39.8966" x2="139.121" y2="41.6331" gradientUnits="userSpaceOnUse">
<stop stop-color="#85C48D"/>
<stop offset="0.3072" stop-color="#6DC09C"/>
<stop offset="0.9535" stop-color="#30B7C4"/>
<stop offset="1" stop-color="#2BB6C7"/>
</linearGradient>
<linearGradient id="paint19_linear_189_5152" x1="139.377" y1="36.941" x2="130.168" y2="39.9525" gradientUnits="userSpaceOnUse">
<stop stop-color="#85C48D"/>
<stop offset="0.3072" stop-color="#6DC09C"/>
<stop offset="0.9535" stop-color="#30B7C4"/>
<stop offset="1" stop-color="#2BB6C7"/>
</linearGradient>
<linearGradient id="paint20_linear_189_5152" x1="129.082" y1="35.8921" x2="126.626" y2="36.6867" gradientUnits="userSpaceOnUse">
<stop stop-color="#85C48D"/>
<stop offset="0.3072" stop-color="#6DC09C"/>
<stop offset="0.9535" stop-color="#30B7C4"/>
<stop offset="1" stop-color="#2BB6C7"/>
</linearGradient>
<linearGradient id="paint21_linear_189_5152" x1="61.446" y1="144.863" x2="58.9963" y2="145.656" gradientUnits="userSpaceOnUse">
<stop stop-color="#85C48D"/>
<stop offset="0.3072" stop-color="#6DC09C"/>
<stop offset="0.9535" stop-color="#30B7C4"/>
<stop offset="1" stop-color="#2BB6C7"/>
</linearGradient>
<linearGradient id="paint22_linear_189_5152" x1="58.8709" y1="140.617" x2="53.4533" y2="142.376" gradientUnits="userSpaceOnUse">
<stop stop-color="#85C48D"/>
<stop offset="0.3072" stop-color="#6DC09C"/>
<stop offset="0.9535" stop-color="#30B7C4"/>
<stop offset="1" stop-color="#2BB6C7"/>
</linearGradient>
<linearGradient id="paint23_linear_189_5152" x1="51.2029" y1="138.593" x2="47.2017" y2="139.889" gradientUnits="userSpaceOnUse">
<stop stop-color="#85C48D"/>
<stop offset="0.3072" stop-color="#6DC09C"/>
<stop offset="0.9535" stop-color="#30B7C4"/>
<stop offset="1" stop-color="#2BB6C7"/>
</linearGradient>
<linearGradient id="paint24_linear_189_5152" x1="56.6094" y1="131.278" x2="51.8215" y2="132.833" gradientUnits="userSpaceOnUse">
<stop stop-color="#85C48D"/>
<stop offset="0.3072" stop-color="#6DC09C"/>
<stop offset="0.9535" stop-color="#30B7C4"/>
<stop offset="1" stop-color="#2BB6C7"/>
</linearGradient>
<linearGradient id="paint25_linear_189_5152" x1="55.3048" y1="126.538" x2="52.89" y2="127.319" gradientUnits="userSpaceOnUse">
<stop stop-color="#85C48D"/>
<stop offset="0.3072" stop-color="#6DC09C"/>
<stop offset="0.9535" stop-color="#30B7C4"/>
<stop offset="1" stop-color="#2BB6C7"/>
</linearGradient>
<linearGradient id="paint26_linear_189_5152" x1="53.7688" y1="121.954" x2="51.354" y2="122.735" gradientUnits="userSpaceOnUse">
<stop stop-color="#85C48D"/>
<stop offset="0.3072" stop-color="#6DC09C"/>
<stop offset="0.9535" stop-color="#30B7C4"/>
<stop offset="1" stop-color="#2BB6C7"/>
</linearGradient>
<linearGradient id="paint27_linear_189_5152" x1="52.2329" y1="117.371" x2="49.8181" y2="118.152" gradientUnits="userSpaceOnUse">
<stop stop-color="#85C48D"/>
<stop offset="0.3072" stop-color="#6DC09C"/>
<stop offset="0.9535" stop-color="#30B7C4"/>
<stop offset="1" stop-color="#2BB6C7"/>
</linearGradient>
<linearGradient id="paint28_linear_189_5152" x1="50.4775" y1="112.953" x2="44.0296" y2="115.049" gradientUnits="userSpaceOnUse">
<stop stop-color="#85C48D"/>
<stop offset="0.3072" stop-color="#6DC09C"/>
<stop offset="0.9535" stop-color="#30B7C4"/>
<stop offset="1" stop-color="#2BB6C7"/>
</linearGradient>
<linearGradient id="paint29_linear_189_5152" x1="38.1525" y1="112.658" x2="30.276" y2="115.23" gradientUnits="userSpaceOnUse">
<stop stop-color="#85C48D"/>
<stop offset="0.3072" stop-color="#6DC09C"/>
<stop offset="0.9535" stop-color="#30B7C4"/>
<stop offset="1" stop-color="#2BB6C7"/>
</linearGradient>
<linearGradient id="paint30_linear_189_5152" x1="46.6616" y1="104.183" x2="39.5069" y2="106.516" gradientUnits="userSpaceOnUse">
<stop stop-color="#85C48D"/>
<stop offset="0.3072" stop-color="#6DC09C"/>
<stop offset="0.9535" stop-color="#30B7C4"/>
<stop offset="1" stop-color="#2BB6C7"/>
</linearGradient>
<linearGradient id="paint31_linear_189_5152" x1="46.1316" y1="99.1537" x2="43.4488" y2="100.021" gradientUnits="userSpaceOnUse">
<stop stop-color="#85C48D"/>
<stop offset="0.3072" stop-color="#6DC09C"/>
<stop offset="0.9535" stop-color="#30B7C4"/>
<stop offset="1" stop-color="#2BB6C7"/>
</linearGradient>
<linearGradient id="paint32_linear_189_5152" x1="44.5537" y1="94.4544" x2="42.1389" y2="95.2353" gradientUnits="userSpaceOnUse">
<stop stop-color="#85C48D"/>
<stop offset="0.3072" stop-color="#6DC09C"/>
<stop offset="0.9535" stop-color="#30B7C4"/>
<stop offset="1" stop-color="#2BB6C7"/>
</linearGradient>
<linearGradient id="paint33_linear_189_5152" x1="43.0174" y1="89.8699" x2="40.6026" y2="90.6508" gradientUnits="userSpaceOnUse">
<stop stop-color="#85C48D"/>
<stop offset="0.3072" stop-color="#6DC09C"/>
<stop offset="0.9535" stop-color="#30B7C4"/>
<stop offset="1" stop-color="#2BB6C7"/>
</linearGradient>
<linearGradient id="paint34_linear_189_5152" x1="47.4985" y1="83.2199" x2="40.3359" y2="85.5526" gradientUnits="userSpaceOnUse">
<stop stop-color="#85C48D"/>
<stop offset="0.3072" stop-color="#6DC09C"/>
<stop offset="0.9535" stop-color="#30B7C4"/>
<stop offset="1" stop-color="#2BB6C7"/>
</linearGradient>
<linearGradient id="paint35_linear_189_5152" x1="49.8613" y1="77.2336" x2="41.7009" y2="79.8934" gradientUnits="userSpaceOnUse">
<stop stop-color="#85C48D"/>
<stop offset="0.3072" stop-color="#6DC09C"/>
<stop offset="0.9535" stop-color="#30B7C4"/>
<stop offset="1" stop-color="#2BB6C7"/>
</linearGradient>
<linearGradient id="paint36_linear_189_5152" x1="39.7887" y1="75.8614" x2="36.1292" y2="77.0455" gradientUnits="userSpaceOnUse">
<stop stop-color="#85C48D"/>
<stop offset="0.3072" stop-color="#6DC09C"/>
<stop offset="0.9535" stop-color="#30B7C4"/>
<stop offset="1" stop-color="#2BB6C7"/>
</linearGradient>
<linearGradient id="paint37_linear_189_5152" x1="36.8743" y1="71.5376" x2="34.4595" y2="72.3185" gradientUnits="userSpaceOnUse">
<stop stop-color="#85C48D"/>
<stop offset="0.3072" stop-color="#6DC09C"/>
<stop offset="0.9535" stop-color="#30B7C4"/>
<stop offset="1" stop-color="#2BB6C7"/>
</linearGradient>
<linearGradient id="paint38_linear_189_5152" x1="116.895" y1="30.712" x2="114.495" y2="31.4951" gradientUnits="userSpaceOnUse">
<stop stop-color="#039BCA"/>
<stop offset="0.2065" stop-color="#3A7AC4"/>
<stop offset="0.598" stop-color="#9C3FB9"/>
<stop offset="0.871" stop-color="#DA1AB2"/>
<stop offset="1" stop-color="#F20BAF"/>
</linearGradient>
<linearGradient id="paint39_linear_189_5152" x1="112.23" y1="32.5051" x2="109.831" y2="33.2882" gradientUnits="userSpaceOnUse">
<stop stop-color="#039BCA"/>
<stop offset="0.2065" stop-color="#3A7AC4"/>
<stop offset="0.598" stop-color="#9C3FB9"/>
<stop offset="0.871" stop-color="#DA1AB2"/>
<stop offset="1" stop-color="#F20BAF"/>
</linearGradient>
<linearGradient id="paint40_linear_189_5152" x1="107.565" y1="34.2982" x2="105.166" y2="35.0813" gradientUnits="userSpaceOnUse">
<stop stop-color="#039BCA"/>
<stop offset="0.2065" stop-color="#3A7AC4"/>
<stop offset="0.598" stop-color="#9C3FB9"/>
<stop offset="0.871" stop-color="#DA1AB2"/>
<stop offset="1" stop-color="#F20BAF"/>
</linearGradient>
<linearGradient id="paint41_linear_189_5152" x1="102.901" y1="36.0913" x2="100.501" y2="36.8744" gradientUnits="userSpaceOnUse">
<stop stop-color="#039BCA"/>
<stop offset="0.2065" stop-color="#3A7AC4"/>
<stop offset="0.598" stop-color="#9C3FB9"/>
<stop offset="0.871" stop-color="#DA1AB2"/>
<stop offset="1" stop-color="#F20BAF"/>
</linearGradient>
<linearGradient id="paint42_linear_189_5152" x1="98.2357" y1="37.8844" x2="95.8361" y2="38.6675" gradientUnits="userSpaceOnUse">
<stop stop-color="#039BCA"/>
<stop offset="0.2065" stop-color="#3A7AC4"/>
<stop offset="0.598" stop-color="#9C3FB9"/>
<stop offset="0.871" stop-color="#DA1AB2"/>
<stop offset="1" stop-color="#F20BAF"/>
</linearGradient>
<linearGradient id="paint43_linear_189_5152" x1="93.571" y1="39.6776" x2="91.1714" y2="40.4607" gradientUnits="userSpaceOnUse">
<stop stop-color="#039BCA"/>
<stop offset="0.2065" stop-color="#3A7AC4"/>
<stop offset="0.598" stop-color="#9C3FB9"/>
<stop offset="0.871" stop-color="#DA1AB2"/>
<stop offset="1" stop-color="#F20BAF"/>
</linearGradient>
<linearGradient id="paint44_linear_189_5152" x1="88.9062" y1="41.4707" x2="86.5065" y2="42.2538" gradientUnits="userSpaceOnUse">
<stop stop-color="#039BCA"/>
<stop offset="0.2065" stop-color="#3A7AC4"/>
<stop offset="0.598" stop-color="#9C3FB9"/>
<stop offset="0.871" stop-color="#DA1AB2"/>
<stop offset="1" stop-color="#F20BAF"/>
</linearGradient>
<linearGradient id="paint45_linear_189_5152" x1="84.2415" y1="43.2638" x2="81.8418" y2="44.0469" gradientUnits="userSpaceOnUse">
<stop stop-color="#039BCA"/>
<stop offset="0.2065" stop-color="#3A7AC4"/>
<stop offset="0.598" stop-color="#9C3FB9"/>
<stop offset="0.871" stop-color="#DA1AB2"/>
<stop offset="1" stop-color="#F20BAF"/>
</linearGradient>
<linearGradient id="paint46_linear_189_5152" x1="79.5765" y1="45.057" x2="77.1768" y2="45.8401" gradientUnits="userSpaceOnUse">
<stop stop-color="#039BCA"/>
<stop offset="0.2065" stop-color="#3A7AC4"/>
<stop offset="0.598" stop-color="#9C3FB9"/>
<stop offset="0.871" stop-color="#DA1AB2"/>
<stop offset="1" stop-color="#F20BAF"/>
</linearGradient>
<linearGradient id="paint47_linear_189_5152" x1="74.9118" y1="46.8501" x2="72.5122" y2="47.6331" gradientUnits="userSpaceOnUse">
<stop stop-color="#039BCA"/>
<stop offset="0.2065" stop-color="#3A7AC4"/>
<stop offset="0.598" stop-color="#9C3FB9"/>
<stop offset="0.871" stop-color="#DA1AB2"/>
<stop offset="1" stop-color="#F20BAF"/>
</linearGradient>
<linearGradient id="paint48_linear_189_5152" x1="70.2468" y1="48.6432" x2="67.8472" y2="49.4263" gradientUnits="userSpaceOnUse">
<stop stop-color="#039BCA"/>
<stop offset="0.2065" stop-color="#3A7AC4"/>
<stop offset="0.598" stop-color="#9C3FB9"/>
<stop offset="0.871" stop-color="#DA1AB2"/>
<stop offset="1" stop-color="#F20BAF"/>
</linearGradient>
<linearGradient id="paint49_linear_189_5152" x1="65.5822" y1="50.4363" x2="63.1827" y2="51.2194" gradientUnits="userSpaceOnUse">
<stop stop-color="#039BCA"/>
<stop offset="0.2065" stop-color="#3A7AC4"/>
<stop offset="0.598" stop-color="#9C3FB9"/>
<stop offset="0.871" stop-color="#DA1AB2"/>
<stop offset="1" stop-color="#F20BAF"/>
</linearGradient>
<linearGradient id="paint50_linear_189_5152" x1="60.9172" y1="52.2295" x2="58.5177" y2="53.0126" gradientUnits="userSpaceOnUse">
<stop stop-color="#039BCA"/>
<stop offset="0.2065" stop-color="#3A7AC4"/>
<stop offset="0.598" stop-color="#9C3FB9"/>
<stop offset="0.871" stop-color="#DA1AB2"/>
<stop offset="1" stop-color="#F20BAF"/>
</linearGradient>
<linearGradient id="paint51_linear_189_5152" x1="56.2525" y1="54.0226" x2="53.853" y2="54.8057" gradientUnits="userSpaceOnUse">
<stop stop-color="#039BCA"/>
<stop offset="0.2065" stop-color="#3A7AC4"/>
<stop offset="0.598" stop-color="#9C3FB9"/>
<stop offset="0.871" stop-color="#DA1AB2"/>
<stop offset="1" stop-color="#F20BAF"/>
</linearGradient>
<linearGradient id="paint52_linear_189_5152" x1="51.5875" y1="55.8157" x2="49.188" y2="56.5988" gradientUnits="userSpaceOnUse">
<stop stop-color="#039BCA"/>
<stop offset="0.2065" stop-color="#3A7AC4"/>
<stop offset="0.598" stop-color="#9C3FB9"/>
<stop offset="0.871" stop-color="#DA1AB2"/>
<stop offset="1" stop-color="#F20BAF"/>
</linearGradient>
<linearGradient id="paint53_linear_189_5152" x1="46.9231" y1="57.6088" x2="44.5235" y2="58.3919" gradientUnits="userSpaceOnUse">
<stop stop-color="#039BCA"/>
<stop offset="0.2065" stop-color="#3A7AC4"/>
<stop offset="0.598" stop-color="#9C3FB9"/>
<stop offset="0.871" stop-color="#DA1AB2"/>
<stop offset="1" stop-color="#F20BAF"/>
</linearGradient>
<linearGradient id="paint54_linear_189_5152" x1="42.2583" y1="59.4019" x2="39.8587" y2="60.185" gradientUnits="userSpaceOnUse">
<stop stop-color="#039BCA"/>
<stop offset="0.2065" stop-color="#3A7AC4"/>
<stop offset="0.598" stop-color="#9C3FB9"/>
<stop offset="0.871" stop-color="#DA1AB2"/>
<stop offset="1" stop-color="#F20BAF"/>
</linearGradient>
<linearGradient id="paint55_linear_189_5152" x1="147.259" y1="121.326" x2="144.86" y2="122.109" gradientUnits="userSpaceOnUse">
<stop stop-color="#039BCA"/>
<stop offset="0.2065" stop-color="#3A7AC4"/>
<stop offset="0.598" stop-color="#9C3FB9"/>
<stop offset="0.871" stop-color="#DA1AB2"/>
<stop offset="1" stop-color="#F20BAF"/>
</linearGradient>
<linearGradient id="paint56_linear_189_5152" x1="142.595" y1="123.119" x2="140.195" y2="123.902" gradientUnits="userSpaceOnUse">
<stop stop-color="#039BCA"/>
<stop offset="0.2065" stop-color="#3A7AC4"/>
<stop offset="0.598" stop-color="#9C3FB9"/>
<stop offset="0.871" stop-color="#DA1AB2"/>
<stop offset="1" stop-color="#F20BAF"/>
</linearGradient>
<linearGradient id="paint57_linear_189_5152" x1="137.93" y1="124.912" x2="135.53" y2="125.695" gradientUnits="userSpaceOnUse">
<stop stop-color="#039BCA"/>
<stop offset="0.2065" stop-color="#3A7AC4"/>
<stop offset="0.598" stop-color="#9C3FB9"/>
<stop offset="0.871" stop-color="#DA1AB2"/>
<stop offset="1" stop-color="#F20BAF"/>
</linearGradient>
<linearGradient id="paint58_linear_189_5152" x1="133.265" y1="126.705" x2="130.865" y2="127.488" gradientUnits="userSpaceOnUse">
<stop stop-color="#039BCA"/>
<stop offset="0.2065" stop-color="#3A7AC4"/>
<stop offset="0.598" stop-color="#9C3FB9"/>
<stop offset="0.871" stop-color="#DA1AB2"/>
<stop offset="1" stop-color="#F20BAF"/>
</linearGradient>
<linearGradient id="paint59_linear_189_5152" x1="128.6" y1="128.498" x2="126.2" y2="129.281" gradientUnits="userSpaceOnUse">
<stop stop-color="#039BCA"/>
<stop offset="0.2065" stop-color="#3A7AC4"/>
<stop offset="0.598" stop-color="#9C3FB9"/>
<stop offset="0.871" stop-color="#DA1AB2"/>
<stop offset="1" stop-color="#F20BAF"/>
</linearGradient>
<linearGradient id="paint60_linear_189_5152" x1="123.935" y1="130.292" x2="121.536" y2="131.075" gradientUnits="userSpaceOnUse">
<stop stop-color="#039BCA"/>
<stop offset="0.2065" stop-color="#3A7AC4"/>
<stop offset="0.598" stop-color="#9C3FB9"/>
<stop offset="0.871" stop-color="#DA1AB2"/>
<stop offset="1" stop-color="#F20BAF"/>
</linearGradient>
<linearGradient id="paint61_linear_189_5152" x1="119.271" y1="132.085" x2="116.871" y2="132.868" gradientUnits="userSpaceOnUse">
<stop stop-color="#039BCA"/>
<stop offset="0.2065" stop-color="#3A7AC4"/>
<stop offset="0.598" stop-color="#9C3FB9"/>
<stop offset="0.871" stop-color="#DA1AB2"/>
<stop offset="1" stop-color="#F20BAF"/>
</linearGradient>
<linearGradient id="paint62_linear_189_5152" x1="114.606" y1="133.878" x2="112.206" y2="134.661" gradientUnits="userSpaceOnUse">
<stop stop-color="#039BCA"/>
<stop offset="0.2065" stop-color="#3A7AC4"/>
<stop offset="0.598" stop-color="#9C3FB9"/>
<stop offset="0.871" stop-color="#DA1AB2"/>
<stop offset="1" stop-color="#F20BAF"/>
</linearGradient>
<linearGradient id="paint63_linear_189_5152" x1="109.941" y1="135.671" x2="107.541" y2="136.454" gradientUnits="userSpaceOnUse">
<stop stop-color="#039BCA"/>
<stop offset="0.2065" stop-color="#3A7AC4"/>
<stop offset="0.598" stop-color="#9C3FB9"/>
<stop offset="0.871" stop-color="#DA1AB2"/>
<stop offset="1" stop-color="#F20BAF"/>
</linearGradient>
<linearGradient id="paint64_linear_189_5152" x1="105.276" y1="137.464" x2="102.877" y2="138.247" gradientUnits="userSpaceOnUse">
<stop stop-color="#039BCA"/>
<stop offset="0.2065" stop-color="#3A7AC4"/>
<stop offset="0.598" stop-color="#9C3FB9"/>
<stop offset="0.871" stop-color="#DA1AB2"/>
<stop offset="1" stop-color="#F20BAF"/>
</linearGradient>
<linearGradient id="paint65_linear_189_5152" x1="100.611" y1="139.257" x2="98.2116" y2="140.04" gradientUnits="userSpaceOnUse">
<stop stop-color="#039BCA"/>
<stop offset="0.2065" stop-color="#3A7AC4"/>
<stop offset="0.598" stop-color="#9C3FB9"/>
<stop offset="0.871" stop-color="#DA1AB2"/>
<stop offset="1" stop-color="#F20BAF"/>
</linearGradient>
<linearGradient id="paint66_linear_189_5152" x1="95.9466" y1="141.05" x2="93.5471" y2="141.833" gradientUnits="userSpaceOnUse">
<stop stop-color="#039BCA"/>
<stop offset="0.2065" stop-color="#3A7AC4"/>
<stop offset="0.598" stop-color="#9C3FB9"/>
<stop offset="0.871" stop-color="#DA1AB2"/>
<stop offset="1" stop-color="#F20BAF"/>
</linearGradient>
<linearGradient id="paint67_linear_189_5152" x1="91.2816" y1="142.843" x2="88.8821" y2="143.627" gradientUnits="userSpaceOnUse">
<stop stop-color="#039BCA"/>
<stop offset="0.2065" stop-color="#3A7AC4"/>
<stop offset="0.598" stop-color="#9C3FB9"/>
<stop offset="0.871" stop-color="#DA1AB2"/>
<stop offset="1" stop-color="#F20BAF"/>
</linearGradient>
<linearGradient id="paint68_linear_189_5152" x1="86.6169" y1="144.637" x2="84.2173" y2="145.42" gradientUnits="userSpaceOnUse">
<stop stop-color="#039BCA"/>
<stop offset="0.2065" stop-color="#3A7AC4"/>
<stop offset="0.598" stop-color="#9C3FB9"/>
<stop offset="0.871" stop-color="#DA1AB2"/>
<stop offset="1" stop-color="#F20BAF"/>
</linearGradient>
<linearGradient id="paint69_linear_189_5152" x1="81.9519" y1="146.43" x2="79.5524" y2="147.213" gradientUnits="userSpaceOnUse">
<stop stop-color="#039BCA"/>
<stop offset="0.2065" stop-color="#3A7AC4"/>
<stop offset="0.598" stop-color="#9C3FB9"/>
<stop offset="0.871" stop-color="#DA1AB2"/>
<stop offset="1" stop-color="#F20BAF"/>
</linearGradient>
<linearGradient id="paint70_linear_189_5152" x1="77.2875" y1="148.223" x2="74.8879" y2="149.006" gradientUnits="userSpaceOnUse">
<stop stop-color="#039BCA"/>
<stop offset="0.2065" stop-color="#3A7AC4"/>
<stop offset="0.598" stop-color="#9C3FB9"/>
<stop offset="0.871" stop-color="#DA1AB2"/>
<stop offset="1" stop-color="#F20BAF"/>
</linearGradient>
<linearGradient id="paint71_linear_189_5152" x1="72.6227" y1="150.016" x2="70.2231" y2="150.799" gradientUnits="userSpaceOnUse">
<stop stop-color="#039BCA"/>
<stop offset="0.2065" stop-color="#3A7AC4"/>
<stop offset="0.598" stop-color="#9C3FB9"/>
<stop offset="0.871" stop-color="#DA1AB2"/>
<stop offset="1" stop-color="#F20BAF"/>
</linearGradient>
<linearGradient id="paint72_linear_189_5152" x1="92.5672" y1="127.344" x2="37.7231" y2="145.567" gradientUnits="userSpaceOnUse">
<stop stop-color="#85C48D"/>
<stop offset="0.3072" stop-color="#6DC09C"/>
<stop offset="0.9535" stop-color="#30B7C4"/>
<stop offset="1" stop-color="#2BB6C7"/>
</linearGradient>
<linearGradient id="paint73_linear_189_5152" x1="94.1271" y1="20.9195" x2="39.283" y2="39.1428" gradientUnits="userSpaceOnUse">
<stop stop-color="#85C48D"/>
<stop offset="0.3072" stop-color="#6DC09C"/>
<stop offset="0.9535" stop-color="#30B7C4"/>
<stop offset="1" stop-color="#2BB6C7"/>
</linearGradient>
<linearGradient id="paint74_linear_189_5152" x1="155.398" y1="78.958" x2="121.648" y2="90.1386" gradientUnits="userSpaceOnUse">
<stop stop-color="#FEC183"/>
<stop offset="0.1727" stop-color="#FEA981"/>
<stop offset="0.5381" stop-color="#FE6B7B"/>
<stop offset="1" stop-color="#FF1572"/>
</linearGradient>
<linearGradient id="paint75_linear_189_5152" x1="58.4299" y1="89.7575" x2="35.1976" y2="97.5031" gradientUnits="userSpaceOnUse">
<stop stop-color="#039BCA"/>
<stop offset="0.2065" stop-color="#3A7AC4"/>
<stop offset="0.598" stop-color="#9C3FB9"/>
<stop offset="0.871" stop-color="#DA1AB2"/>
<stop offset="1" stop-color="#F20BAF"/>
</linearGradient>
<linearGradient id="paint76_linear_189_5152" x1="78.2207" y1="64.2318" x2="21.1927" y2="83.1067" gradientUnits="userSpaceOnUse">
<stop stop-color="#FEC183"/>
<stop offset="0.1727" stop-color="#FEA981"/>
<stop offset="0.5381" stop-color="#FE6B7B"/>
<stop offset="1" stop-color="#FF1572"/>
</linearGradient>
<linearGradient id="paint77_linear_189_5152" x1="104.177" y1="30.1703" x2="79.8375" y2="38.2008" gradientUnits="userSpaceOnUse">
<stop stop-color="#073E98"/>
<stop offset="0.2452" stop-color="#0E56A2"/>
<stop offset="0.7602" stop-color="#2193BB"/>
<stop offset="1" stop-color="#2AB2C8"/>
</linearGradient>
<linearGradient id="paint78_linear_189_5152" x1="147.687" y1="29.0001" x2="133.961" y2="33.5558" gradientUnits="userSpaceOnUse">
<stop stop-color="#039BCA"/>
<stop offset="0.2065" stop-color="#3A7AC4"/>
<stop offset="0.598" stop-color="#9C3FB9"/>
<stop offset="0.871" stop-color="#DA1AB2"/>
<stop offset="1" stop-color="#F20BAF"/>
</linearGradient>
<linearGradient id="paint79_linear_189_5152" x1="161.158" y1="58.5516" x2="153.575" y2="61.0437" gradientUnits="userSpaceOnUse">
<stop stop-color="#85C48D"/>
<stop offset="0.3072" stop-color="#6DC09C"/>
<stop offset="0.9535" stop-color="#30B7C4"/>
<stop offset="1" stop-color="#2BB6C7"/>
</linearGradient>
<radialGradient id="paint80_radial_189_5152" cx="0" cy="0" r="1" gradientUnits="userSpaceOnUse" gradientTransform="translate(123.632 61.808) rotate(158.651) scale(7.96519 7.3907)">
<stop stop-color="#0E0E0E"/>
<stop offset="1" stop-color="#191919"/>
</radialGradient>
<linearGradient id="paint81_linear_189_5152" x1="172.117" y1="122.213" x2="114.375" y2="141.357" gradientUnits="userSpaceOnUse">
<stop stop-color="#039BCA"/>
<stop offset="0.2065" stop-color="#3A7AC4"/>
<stop offset="0.598" stop-color="#9C3FB9"/>
<stop offset="0.871" stop-color="#DA1AB2"/>
<stop offset="1" stop-color="#F20BAF"/>
</linearGradient>
<radialGradient id="paint82_radial_189_5152" cx="0" cy="0" r="1" gradientUnits="userSpaceOnUse" gradientTransform="translate(40.0571 111.028) rotate(158.683) scale(14.5476 13.4819)">
<stop stop-color="#0E0E0E"/>
<stop offset="1" stop-color="#191919"/>
</radialGradient>
</defs>
</svg>
