<svg width="245" height="241" viewBox="0 0 245 241" fill="none" xmlns="http://www.w3.org/2000/svg">
<g opacity="0.2">
<path d="M132.735 57.852L112.554 51.8729L112.061 53.8861L132.243 59.8652L132.735 57.852Z" fill="#FCFCFC"/>
<path d="M49.6621 134.858L47.4282 134.173C48.2396 138.229 49.3523 142.207 50.7481 146.067L52.982 146.751C51.5861 142.892 50.4735 138.914 49.6621 134.858Z" fill="#E31010"/>
<path d="M49.2017 147.762L46.9756 147.081C48.3468 150.553 49.9492 153.922 51.7694 157.158L53.9955 157.84C52.1759 154.601 50.5736 151.232 49.2017 147.762Z" fill="#E31010"/>
<path d="M48.4058 115.78L46.157 115.092C45.99 119.717 46.2192 124.31 46.8239 128.831L49.0727 129.519C48.4674 125 48.2388 120.404 48.4058 115.78Z" fill="#E31010"/>
<path d="M59.4218 161.362L57.2014 160.685C60.6068 166.309 64.6853 171.501 69.3484 176.097L71.5688 176.775C66.9056 172.179 62.8271 166.986 59.4218 161.362Z" fill="#E31010"/>
<path d="M110.351 180.965C110.706 181.129 111.062 181.289 111.421 181.446C118.617 182.69 125.749 182.467 132.503 180.963L130.291 180.296C123.896 181.721 117.162 181.996 110.351 180.965Z" fill="#E31010"/>
<path d="M80.7634 185.547C86.3419 189.101 92.4525 191.934 99.0051 193.884C99.3745 193.994 99.7427 194.099 100.111 194.203C93.9752 192.269 88.2334 189.559 82.9696 186.206L80.7634 185.547Z" fill="#E31010"/>
<path d="M92.9157 48.4957L90.6883 47.8138C83.6842 50.6944 77.1769 54.7581 71.4312 59.8448L73.6586 60.5267C79.4043 55.44 85.911 51.3788 92.9157 48.4957Z" fill="#E31010"/>
<path d="M105.769 44.074L103.555 43.4037C101.863 43.7234 100.187 44.108 98.5334 44.5568L100.747 45.227C102.401 44.7783 104.076 44.3936 105.769 44.074Z" fill="#E31010"/>
<path d="M136.922 45.0631C136.557 44.9461 136.19 44.8338 135.821 44.7232C127.065 42.1043 118.273 41.2929 109.81 42.0733L112.018 42.7338C120.127 41.9864 128.534 42.6982 136.922 45.0631Z" fill="#E31010"/>
<path d="M67.0426 67.8017L64.8032 67.1156C62.5054 69.7721 60.386 72.6246 58.4638 75.6574L60.7032 76.3435C62.6231 73.3099 64.7448 70.4582 67.0426 67.8017Z" fill="#E31010"/>
<path d="M59.6719 78.13L57.4332 77.4441C56.4213 79.1365 55.4671 80.8838 54.5823 82.6791L56.8211 83.365C57.7058 81.5697 58.6571 79.8241 59.6719 78.13Z" fill="#E31010"/>
<path d="M50.864 99.8274C51.6616 96.5145 52.6561 93.3148 53.8324 90.2373L51.5516 89.5474C50.3778 92.6256 49.3809 95.8246 48.5833 99.1376C48.2267 100.619 47.9151 102.105 47.6449 103.591L49.9257 104.281C50.1958 102.795 50.5068 101.311 50.864 99.8274Z" fill="#E31010"/>
<path d="M141.915 175.508L144.14 176.189C147.531 174.552 150.758 172.561 153.767 170.243L151.542 169.563C148.533 171.88 145.309 173.872 141.915 175.508Z" fill="#E31010"/>
<path d="M169.497 151.164L167.253 150.477C163.898 156.78 159.533 162.262 154.438 166.756L156.681 167.443C161.776 162.948 166.141 157.467 169.497 151.164Z" fill="#E31010"/>
<path d="M172.94 135.341C172.584 136.823 172.178 138.278 171.727 139.705L173.998 140.394C174.449 138.968 174.854 137.515 175.211 136.03C175.631 134.283 175.974 132.532 176.244 130.779L173.973 130.09C173.7 131.844 173.359 133.596 172.94 135.341Z" fill="#E31010"/>
<path d="M170.357 94.5209L172.582 95.2015C170.363 89.8592 167.46 84.834 163.96 80.2874L161.735 79.6068C165.235 84.1534 168.138 89.1786 170.357 94.5209Z" fill="#E31010"/>
<path d="M159.268 76.2293L161.481 76.8985C156.277 71.0739 149.987 66.2235 142.847 62.762L140.635 62.0928C147.774 65.5543 154.064 70.4047 159.268 76.2293Z" fill="#E31010"/>
<path d="M174.236 109.429L176.46 110.109C176.283 109.032 176.084 107.959 175.854 106.894L173.63 106.214C173.857 107.278 174.06 108.35 174.236 109.429Z" fill="#E31010"/>
<path d="M174.515 127.393L176.769 128.081C177.37 122.723 177.294 117.375 176.603 112.156L174.349 111.468C175.039 116.687 175.116 122.032 174.515 127.393Z" fill="#E31010"/>
<path d="M100.067 194.198C100.432 194.313 100.797 194.422 101.166 194.53C101.903 194.746 102.642 194.947 103.378 195.137C103.012 195.017 102.649 194.896 102.288 194.77C101.548 194.594 100.807 194.402 100.067 194.198Z" fill="#E75CEE"/>
<path d="M140.219 45.8228C139.494 45.5856 138.763 45.3565 138.025 45.1408C137.657 45.0329 137.289 44.9304 136.922 44.828C137.656 45.0554 138.385 45.294 139.107 45.543C139.478 45.6337 139.85 45.7274 140.219 45.8228Z" fill="#E75CEE"/>
<path d="M55.2937 101.123C56.085 97.8212 57.0711 94.6322 58.2372 91.5651L53.7213 90.1875C52.5576 93.2553 51.5691 96.4436 50.7778 99.7456C50.424 101.222 50.1148 102.704 49.8467 104.184L54.3626 105.562C54.6308 104.081 54.9394 102.602 55.2937 101.123Z" fill="#E75CEE"/>
<path d="M52.8247 117.105L48.3467 115.733C48.1798 120.343 48.4074 124.922 49.0089 129.429L53.4869 130.801C52.8848 126.297 52.6578 121.715 52.8247 117.105Z" fill="#E75CEE"/>
<path d="M53.6173 149.08L49.1731 147.722C50.542 151.182 52.1416 154.539 53.9585 157.764L58.4028 159.122C56.5864 155.894 54.9868 152.538 53.6173 149.08Z" fill="#E75CEE"/>
<path d="M176.535 112.105C177.224 117.311 177.296 122.643 176.697 127.986L181.185 129.36C181.784 124.017 181.708 118.684 181.022 113.479L176.535 112.105Z" fill="#E75CEE"/>
<path d="M116.429 44.0325C123.821 43.3514 131.461 43.8853 139.11 45.7739C138.387 45.519 137.656 45.2746 136.92 45.0415C128.53 42.6791 120.121 41.9642 112.013 42.7116L116.429 44.0325Z" fill="#E75CEE"/>
<path d="M54.0806 136.18L49.6243 134.815C50.4335 138.857 51.5433 142.822 52.9356 146.669L57.392 148.034C55.9997 144.187 54.8899 140.222 54.0806 136.18Z" fill="#E75CEE"/>
<path d="M176.434 110.042L180.867 111.39C180.691 110.322 180.492 109.258 180.262 108.202L175.829 106.855C176.056 107.909 176.258 108.972 176.434 110.042Z" fill="#E75CEE"/>
<path d="M63.8372 162.677L59.4001 161.325C62.803 166.937 66.8784 172.118 71.5378 176.704L75.9749 178.056C71.3154 173.47 67.24 168.289 63.8372 162.677Z" fill="#E75CEE"/>
<path d="M87.3794 187.502L82.9661 186.188C88.2299 189.541 93.9716 192.251 100.107 194.185C100.849 194.393 101.591 194.588 102.331 194.77C97.0152 192.909 92.0133 190.454 87.3794 187.502Z" fill="#E75CEE"/>
<path d="M156.64 167.357L161.115 168.728C166.2 164.244 170.552 158.774 173.9 152.484L169.425 151.112C166.077 157.402 161.722 162.872 156.64 167.357Z" fill="#E75CEE"/>
<path d="M132.485 180.935C125.733 182.439 118.606 182.66 111.413 181.419C112.124 181.73 112.843 182.029 113.569 182.313C121.529 184.025 129.445 183.928 136.907 182.267L132.485 180.935Z" fill="#E75CEE"/>
<path d="M175.13 135.958C174.777 137.433 174.375 138.882 173.928 140.301L178.423 141.677C178.869 140.257 179.271 138.81 179.625 137.333C180.041 135.594 180.382 133.851 180.65 132.106L176.155 130.731C175.885 132.477 175.546 134.221 175.13 135.958Z" fill="#E75CEE"/>
<path d="M158.171 171.554L153.729 170.198C150.723 172.504 147.503 174.49 144.117 176.124L148.56 177.481C151.946 175.846 155.166 173.861 158.171 171.554Z" fill="#E75CEE"/>
<path d="M97.3199 49.8067L92.8698 48.4453C85.8756 51.3216 79.373 55.3774 73.6335 60.455L78.0836 61.8163C83.823 56.7387 90.3228 52.6847 97.3199 49.8067Z" fill="#E75CEE"/>
<path d="M172.546 95.1247L176.991 96.4824C174.775 91.1531 171.875 86.1402 168.379 81.6047L163.934 80.2469C167.431 84.7824 170.33 89.7954 172.546 95.1247Z" fill="#E75CEE"/>
<path d="M110.172 45.3694L105.75 44.0371C104.06 44.3554 102.387 44.7385 100.735 45.1852L105.157 46.5175C106.809 46.0708 108.482 45.6877 110.172 45.3694Z" fill="#E75CEE"/>
<path d="M71.4461 69.1189L66.9831 67.7515C64.6957 70.3987 62.5811 73.2397 60.6655 76.2613L65.1285 77.6287C67.0418 74.6064 69.1563 71.7654 71.4461 69.1189Z" fill="#E75CEE"/>
<path d="M165.885 78.1794C160.683 72.3652 154.395 67.5237 147.258 64.0687L142.834 62.733C149.971 66.1903 156.258 71.0319 161.461 76.8436L165.885 78.1794Z" fill="#E75CEE"/>
<path d="M64.0759 79.4468L59.6212 78.083C58.6143 79.7651 57.6649 81.5018 56.7845 83.2862L61.2392 84.65C62.1196 82.8656 63.0661 81.1306 64.0759 79.4468Z" fill="#E75CEE"/>
<path d="M143.529 46.7592C143.164 46.6449 142.799 46.5353 142.43 46.4275C141.693 46.2117 140.954 46.0108 140.218 45.8206C140.584 45.9403 140.946 46.0616 141.308 46.1876C142.05 46.3643 142.789 46.5552 143.529 46.7592Z" fill="#FCFC53"/>
<path d="M103.377 195.131C104.102 195.368 104.833 195.597 105.571 195.813C105.939 195.921 106.307 196.023 106.674 196.126C105.94 195.898 105.211 195.659 104.489 195.41C104.118 195.32 103.749 195.227 103.377 195.131Z" fill="#FCFC53"/>
<path d="M140.192 45.9301C140.565 46.0142 140.936 46.1031 141.31 46.1926C140.948 46.0659 140.585 45.9439 140.218 45.8236C139.846 45.727 139.476 45.6334 139.105 45.5446C139.47 45.6696 139.831 45.7987 140.192 45.9301Z" fill="#FCFC53"/>
<path d="M103.405 195.026C103.032 194.942 102.661 194.853 102.287 194.764C102.65 194.888 103.012 195.012 103.379 195.133C103.751 195.229 104.121 195.323 104.492 195.412C104.13 195.285 103.766 195.158 103.405 195.026Z" fill="#FCFC53"/>
<path d="M148.519 177.43L150.744 178.111C154.135 176.474 157.363 174.483 160.371 172.165L158.147 171.485C155.138 173.802 151.913 175.794 148.519 177.43Z" fill="#FCFC53"/>
<path d="M140.191 46.1486C139.83 46.0144 139.467 45.8851 139.102 45.755C131.45 43.8592 123.807 43.3257 116.413 44.0073L118.622 44.6694C125.657 44.0194 132.916 44.4712 140.191 46.1486Z" fill="#FCFC53"/>
<path d="M63.8071 162.607C67.2125 168.231 71.291 173.423 75.9541 178.019L78.1745 178.697C73.5119 174.098 69.4329 168.908 66.0275 163.284L63.8071 162.607Z" fill="#FCFC53"/>
<path d="M181.121 129.315L183.375 130.003C183.976 124.645 183.9 119.297 183.209 114.078L180.955 113.39C181.646 118.609 181.723 123.954 181.121 129.315Z" fill="#FCFC53"/>
<path d="M180.842 111.351L183.066 112.031C182.89 110.954 182.69 109.881 182.46 108.816L180.236 108.136C180.464 109.2 180.666 110.272 180.842 111.351Z" fill="#FCFC53"/>
<path d="M55.8065 149.684L53.5803 149.003C54.9516 152.475 56.554 155.844 58.3741 159.08L60.6002 159.762C58.7807 156.523 57.1783 153.154 55.8065 149.684Z" fill="#FCFC53"/>
<path d="M176.963 96.4429L179.188 97.1235C176.97 91.7812 174.067 86.7559 170.566 82.2093L168.341 81.5287C171.842 86.0753 174.745 91.1006 176.963 96.4429Z" fill="#FCFC53"/>
<path d="M165.873 78.1512L168.086 78.8204C162.881 72.9958 156.592 68.1454 149.452 64.6839L147.24 64.0148C154.379 67.4762 160.669 72.3266 165.873 78.1512Z" fill="#FCFC53"/>
<path d="M179.545 137.263C179.189 138.745 178.783 140.201 178.333 141.627L180.604 142.317C181.057 140.891 181.462 139.438 181.819 137.954C182.239 136.206 182.582 134.455 182.852 132.703L180.581 132.013C180.306 133.766 179.965 135.519 179.545 137.263Z" fill="#FCFC53"/>
<path d="M112.374 45.996L110.16 45.3257C108.468 45.6453 106.792 46.03 105.139 46.4787L107.352 47.149C109.006 46.7003 110.681 46.3156 112.374 45.996Z" fill="#FCFC53"/>
<path d="M99.5221 50.4177L97.2947 49.7358C90.293 52.6171 83.7834 56.6801 78.0377 61.7668L80.2651 62.4487C86.0108 57.362 92.5175 53.3008 99.5221 50.4177Z" fill="#FCFC53"/>
<path d="M73.6491 69.7237L71.4096 69.0376C69.1142 71.6948 66.9925 74.5465 65.0702 77.5794L67.3096 78.2655C69.2295 75.2319 71.3513 72.3802 73.6491 69.7237Z" fill="#FCFC53"/>
<path d="M87.3711 187.47C92.0069 190.428 97.0103 192.889 102.328 194.757C102.702 194.849 103.073 194.939 103.446 195.024C98.5324 193.209 93.8972 190.884 89.5784 188.129L87.3711 187.47Z" fill="#FCFC53"/>
<path d="M113.558 182.288C113.919 182.428 114.28 182.566 114.645 182.701C122.982 184.673 131.296 184.649 139.108 182.909L136.897 182.243C129.438 183.905 121.519 184.002 113.558 182.288Z" fill="#FCFC53"/>
<path d="M56.2678 136.78L54.0339 136.095C54.8453 140.151 55.958 144.129 57.3538 147.989L59.5877 148.673C58.1919 144.814 57.0792 140.836 56.2678 136.78Z" fill="#FCFC53"/>
<path d="M57.4702 101.75C58.2678 98.4365 59.2623 95.2368 60.4385 92.1593L58.1578 91.4695C56.984 94.5477 55.9871 97.7467 55.1895 101.06C54.8329 102.541 54.5213 104.027 54.2511 105.513L56.5319 106.203C56.802 104.717 57.113 103.233 57.4702 101.75Z" fill="#FCFC53"/>
<path d="M66.2781 80.0534L64.0394 79.3675C63.0275 81.0598 62.0733 82.8072 61.1885 84.6025L63.4273 85.2884C64.312 83.4931 65.2633 81.7475 66.2781 80.0534Z" fill="#FCFC53"/>
<path d="M55.012 117.703L52.7632 117.015C52.5962 121.64 52.8254 126.233 53.4278 130.754L55.6766 131.441C55.0736 126.924 54.845 122.328 55.012 117.703Z" fill="#FCFC53"/>
<path d="M163.286 169.365C168.383 164.871 172.746 159.389 176.102 153.086L173.858 152.399C170.503 158.702 166.138 164.184 161.043 168.678L163.286 169.365Z" fill="#FCFC53"/>
<path d="M174.855 61.2074C167.891 55.8128 159.923 51.6117 151.167 48.9928C150.798 48.8823 150.429 48.7772 150.061 48.6722C158.384 51.3083 165.976 55.3793 172.646 60.5469L174.855 61.2074Z" fill="#195FF5"/>
<path d="M86.927 86.0684L84.691 85.3832C83.5326 87.015 82.4484 88.7174 81.4481 90.4908L83.684 91.176C84.6861 89.4058 85.7687 87.7002 86.927 86.0684Z" fill="#195FF5"/>
<path d="M113.279 197.903C113.644 198.019 114.011 198.131 114.38 198.241C120.933 200.191 127.505 201.132 133.944 201.154L131.738 200.497C125.662 200.475 119.466 199.636 113.279 197.903Z" fill="#195FF5"/>
<path d="M74.6184 136.917L76.8622 137.604C75.8149 133.039 75.2418 128.336 75.1845 123.575L72.9407 122.888C72.9979 127.649 73.5718 132.35 74.6184 136.917Z" fill="#195FF5"/>
<path d="M201.611 119.396C201.919 124.583 201.732 129.843 201.015 135.104L203.274 135.792C203.991 130.532 204.178 125.272 203.87 120.084L201.611 119.396Z" fill="#195FF5"/>
<path d="M81.296 154.955L83.5244 155.637C81.2844 151.681 79.4427 147.481 78.0455 143.118L75.8171 142.436C77.2143 146.799 79.056 150.999 81.296 154.955Z" fill="#195FF5"/>
<path d="M181.29 68.6897L183.504 69.3599C182.275 68.0384 181.003 66.7613 179.683 65.5294L177.469 64.8591C178.789 66.091 180.064 67.3689 181.29 68.6897Z" fill="#195FF5"/>
<path d="M199.48 102.996L201.711 103.679C200.441 98.8956 198.745 94.2471 196.663 89.8016L194.431 89.118C196.515 93.5666 198.209 98.212 199.48 102.996Z" fill="#195FF5"/>
<path d="M87.0846 167.436L89.3041 168.113C85.8946 164.708 82.878 160.909 80.3113 156.814L78.0918 156.137C80.6585 160.233 83.6751 164.031 87.0846 167.436Z" fill="#195FF5"/>
<path d="M199.361 143.029C199.006 144.508 198.609 145.967 198.177 147.402L200.449 148.091C200.881 146.657 201.277 145.2 201.633 143.718C202.052 141.976 202.408 140.228 202.707 138.479L200.436 137.789C200.136 139.538 199.78 141.286 199.361 143.029Z" fill="#195FF5"/>
<path d="M201.643 117.403L203.869 118.084C203.783 117.036 203.676 115.992 203.55 114.953L201.325 114.272C201.45 115.311 201.557 116.355 201.643 117.403Z" fill="#195FF5"/>
<path d="M88.1077 84.2968C90.3801 81.3097 92.9127 78.5859 95.6595 76.1487L93.4249 75.4639C90.6787 77.8987 88.1455 80.6249 85.8731 83.6121L88.1077 84.2968Z" fill="#195FF5"/>
<path d="M193.231 86.1079L195.454 86.7871C193.521 83.0678 191.304 79.5072 188.83 76.1456L186.607 75.4663C189.081 78.828 191.296 82.3879 193.231 86.1079Z" fill="#195FF5"/>
<path d="M94.1201 171.406C98.6196 175.323 103.705 178.591 109.28 181.029C109.661 181.095 110.04 181.157 110.421 181.215C105.265 178.833 100.54 175.735 96.3309 172.072L94.1201 171.406Z" fill="#195FF5"/>
<path d="M146.108 198.192L148.329 198.87C155.198 197.38 161.761 194.815 167.807 191.299L165.586 190.621C159.538 194.136 152.975 196.701 146.108 198.192Z" fill="#195FF5"/>
<path d="M101.788 68.5011L104.005 69.1753C114.268 63.0645 126.429 60.3704 138.876 62.0449L136.659 61.3708C124.212 59.6962 112.054 62.3911 101.788 68.5011Z" fill="#195FF5"/>
<path d="M173.367 184.692L175.597 185.375C178.19 183.344 180.649 181.115 182.954 178.704L180.724 178.021C178.418 180.432 175.96 182.661 173.367 184.692Z" fill="#195FF5"/>
<path d="M80.3955 97.9722L78.1168 97.2824C76.8497 100.313 75.805 103.499 75.0043 106.826C74.6474 108.309 74.3456 109.799 74.0954 111.287L76.3742 111.977C76.6244 110.488 76.9254 109.002 77.283 107.516C78.0837 104.189 79.1309 101.003 80.3955 97.9722Z" fill="#195FF5"/>
<path d="M183.076 175.124L185.326 175.812C189.648 170.833 193.356 165.174 196.288 158.925L194.038 158.237C191.104 164.486 187.398 170.148 183.076 175.124Z" fill="#195FF5"/>
<path d="M110.35 181.217C109.971 181.16 109.592 181.099 109.212 181.034C109.568 181.189 109.925 181.338 110.285 181.486C110.663 181.558 111.04 181.626 111.418 181.69C111.062 181.535 110.705 181.378 110.35 181.217Z" fill="#195FF5"/>
<path d="M110.28 181.487C110.993 181.777 111.714 182.054 112.442 182.317C112.816 182.405 113.189 182.488 113.563 182.565C112.84 182.287 112.123 181.994 111.413 181.689C111.035 181.626 110.658 181.558 110.28 181.487Z" fill="#195FF5"/>
<path d="M113.56 182.565C113.186 182.486 112.813 182.404 112.438 182.319C112.8 182.448 113.162 182.575 113.527 182.7C113.899 182.795 114.271 182.884 114.644 182.968C114.283 182.836 113.919 182.704 113.56 182.565Z" fill="#195FF5"/>
<path d="M109.982 197.053C110.707 197.29 111.438 197.519 112.176 197.735C112.545 197.843 112.912 197.945 113.279 198.047C112.545 197.82 111.816 197.581 111.094 197.332C110.724 197.242 110.354 197.149 109.982 197.053Z" fill="#19F5EE"/>
<path d="M150.134 48.6797C149.769 48.5654 149.404 48.4559 149.035 48.348C148.298 48.1323 147.561 47.932 146.823 47.7412C147.189 47.8608 147.551 47.9821 147.913 48.1082C148.655 48.2849 149.394 48.4757 150.134 48.6797Z" fill="#19F5EE"/>
<path d="M168.963 183.379L173.413 184.74C175.999 182.717 178.452 180.496 180.752 178.094L176.302 176.733C174.002 179.135 171.549 181.355 168.963 183.379Z" fill="#19F5EE"/>
<path d="M178.672 173.801L183.157 175.174C187.466 170.207 191.162 164.561 194.085 158.325L189.601 156.952C186.676 163.187 182.981 168.836 178.672 173.801Z" fill="#19F5EE"/>
<path d="M141.704 196.886L146.143 198.239C153.007 196.752 159.565 194.192 165.605 190.682L161.167 189.329C155.123 192.838 148.566 195.398 141.704 196.886Z" fill="#19F5EE"/>
<path d="M84.7245 85.4607L80.2723 84.0982C79.1191 85.7204 78.0395 87.4129 77.0436 89.1759L81.4958 90.5384C82.4934 88.7786 83.5712 87.0829 84.7245 85.4607Z" fill="#19F5EE"/>
<path d="M168.236 59.2454L172.652 60.5663C165.982 55.3989 158.39 51.3281 150.067 48.692C149.324 48.4829 148.582 48.2866 147.841 48.1036C155.309 50.7364 162.155 54.5374 168.236 59.2454Z" fill="#19F5EE"/>
<path d="M136.675 61.4246L132.243 60.078C119.801 58.406 107.645 61.0975 97.3856 67.2015L101.818 68.548C112.077 62.444 124.231 59.7519 136.675 61.4246Z" fill="#19F5EE"/>
<path d="M197.236 116.094L201.671 117.443C201.585 116.404 201.478 115.37 201.353 114.34L196.918 112.991C197.044 114.021 197.15 115.055 197.236 116.094Z" fill="#19F5EE"/>
<path d="M188.815 84.7935L193.255 86.1474C191.324 82.4399 189.11 78.8907 186.64 75.5397L182.2 74.1859C184.671 77.5368 186.883 81.0853 188.815 84.7935Z" fill="#19F5EE"/>
<path d="M78.1182 156.205L73.6836 154.856C76.2503 158.94 79.2618 162.727 82.6681 166.122L87.1028 167.471C83.6988 164.077 80.6849 160.289 78.1182 156.205Z" fill="#19F5EE"/>
<path d="M127.33 199.2C121.982 199.179 116.54 198.526 111.097 197.188C111.819 197.442 112.55 197.685 113.286 197.916C119.47 199.649 125.668 200.491 131.744 200.513L127.33 199.2Z" fill="#19F5EE"/>
<path d="M94.132 171.454L89.7124 170.126C94.7832 174.531 100.602 178.113 107.021 180.615C107.775 180.777 108.531 180.922 109.285 181.053C103.717 178.619 98.6304 175.358 94.132 171.454Z" fill="#19F5EE"/>
<path d="M176.881 67.3879L181.303 68.7202C180.075 67.4061 178.805 66.136 177.486 64.911L173.064 63.5787C174.383 64.8037 175.656 66.0745 176.881 67.3879Z" fill="#19F5EE"/>
<path d="M75.1074 106.887C75.9021 103.571 76.9406 100.396 78.1947 97.3751L73.6808 95.9976C72.4244 99.0176 71.3882 102.193 70.5935 105.51C70.2393 106.988 69.9397 108.472 69.6913 109.956L74.2052 111.334C74.4536 109.85 74.7526 108.368 75.1074 106.887Z" fill="#19F5EE"/>
<path d="M194.947 141.724C194.595 143.196 194.202 144.648 193.773 146.076L198.269 147.452C198.697 146.024 199.089 144.574 199.442 143.099C199.857 141.365 200.21 139.625 200.508 137.884L196.012 136.509C195.715 138.25 195.362 139.99 194.947 141.724Z" fill="#19F5EE"/>
<path d="M75.8574 142.516L71.4087 141.155C72.8053 145.509 74.6414 149.695 76.8781 153.637L81.3269 154.997C79.0908 151.053 77.2522 146.866 75.8574 142.516Z" fill="#19F5EE"/>
<path d="M93.4581 75.5416L89.0011 74.1767C86.2624 76.6029 83.7361 79.3197 81.4699 82.2964L85.9268 83.6612C88.1931 80.6845 90.7194 77.9678 93.4581 75.5416Z" fill="#19F5EE"/>
<path d="M74.6688 136.963C73.6257 132.412 73.0549 127.723 72.9983 122.976L68.5266 121.606C68.5815 126.35 69.1545 131.039 70.1971 135.593L74.6688 136.963Z" fill="#19F5EE"/>
<path d="M196.594 133.78L201.088 135.155C201.802 129.91 201.989 124.665 201.683 119.493L197.19 118.118C197.495 123.29 197.309 128.535 196.594 133.78Z" fill="#19F5EE"/>
<path d="M195.061 101.676L199.515 103.04C198.247 98.2694 196.555 93.6339 194.476 89.2009L190.022 87.8375C192.102 92.2736 193.793 96.9059 195.061 101.676Z" fill="#19F5EE"/>
<path d="M106.953 180.625C107.313 180.762 107.673 180.897 108.037 181.03C108.786 181.203 109.536 181.361 110.285 181.504C109.926 181.357 109.569 181.208 109.213 181.054C108.46 180.928 107.708 180.784 106.953 180.625Z" fill="#19F5EE"/>
<path d="M110.28 181.502C109.531 181.36 108.781 181.203 108.032 181.031C108.752 181.291 109.481 181.536 110.215 181.767C110.956 181.97 111.699 182.156 112.441 182.329C111.714 182.067 110.993 181.791 110.28 181.502Z" fill="#19F5EE"/>
<path d="M110.213 181.769C110.578 181.883 110.943 181.995 111.312 182.103C112.049 182.319 112.788 182.52 113.526 182.704C113.161 182.581 112.799 182.455 112.438 182.324C111.697 182.155 110.957 181.971 110.213 181.769Z" fill="#19F5EE"/>
<path d="M146.825 47.7449C146.1 47.5077 145.369 47.2785 144.631 47.0628C144.263 46.9549 143.895 46.8525 143.528 46.75C144.262 46.9775 144.991 47.216 145.713 47.465C146.084 47.5557 146.456 47.6495 146.825 47.7449Z" fill="#FCFCFC"/>
<path d="M106.673 196.12C107.037 196.234 107.403 196.344 107.772 196.452C108.509 196.668 109.248 196.869 109.984 197.059C109.618 196.939 109.255 196.818 108.893 196.692C108.154 196.516 107.413 196.324 106.673 196.12Z" fill="#FCFCFC"/>
<path d="M143.474 46.9726C144.219 47.1282 144.966 47.2971 145.712 47.4784C144.99 47.2282 144.261 46.9885 143.526 46.7599C142.785 46.5549 142.044 46.3624 141.305 46.1831C142.034 46.4354 142.757 46.6987 143.474 46.9726Z" fill="#FCFCFC"/>
<path d="M106.727 195.903C105.982 195.748 105.235 195.579 104.488 195.397C105.21 195.648 105.94 195.887 106.675 196.116C107.415 196.321 108.156 196.513 108.896 196.693C108.167 196.44 107.445 196.178 106.727 195.903Z" fill="#FCFCFC"/>
<path d="M103.405 195.012C103.765 195.144 104.127 195.271 104.492 195.399C105.238 195.581 105.986 195.751 106.731 195.907C106.37 195.767 106.011 195.626 105.653 195.482C104.905 195.337 104.156 195.183 103.405 195.012Z" fill="#FCFCFC"/>
<path d="M143.475 46.9868C142.759 46.7118 142.035 46.4472 141.305 46.1939C140.932 46.1016 140.56 46.0147 140.188 45.9302C140.914 46.1954 141.635 46.4742 142.348 46.7611C142.724 46.8337 143.101 46.9094 143.475 46.9868Z" fill="#FCFCFC"/>
<path d="M183.038 111.964L187.472 113.312C187.296 112.244 187.096 111.18 186.867 110.124L182.434 108.776C182.661 109.831 182.863 110.894 183.038 111.964Z" fill="#FCFCFC"/>
<path d="M70.4424 164.599L66.0054 163.247C69.4082 168.859 73.4836 174.04 78.1431 178.626L82.5801 179.978C77.9206 175.392 73.8452 170.211 70.4424 164.599Z" fill="#FCFCFC"/>
<path d="M111.763 48.4395C113.414 47.9927 115.088 47.6097 116.778 47.2914L112.356 45.9591C110.666 46.2774 108.992 46.6604 107.341 47.1072L111.763 48.4395Z" fill="#FCFCFC"/>
<path d="M93.9876 189.427L89.573 188.11C93.8909 190.867 98.5265 193.189 103.44 195.003C104.191 195.176 104.943 195.333 105.692 195.48C101.576 193.808 97.6674 191.775 93.9876 189.427Z" fill="#FCFCFC"/>
<path d="M174.984 83.5294L170.539 82.1716C174.036 86.7071 176.936 91.7176 179.151 97.0494L183.596 98.4071C181.38 93.0753 178.481 88.0624 174.984 83.5294Z" fill="#FCFCFC"/>
<path d="M183.141 114.027C183.829 119.233 183.902 124.565 183.303 129.908L187.79 131.282C188.389 125.939 188.314 120.606 187.628 115.401L183.141 114.027Z" fill="#FCFCFC"/>
<path d="M123.036 45.9718C129.344 45.3902 135.83 45.6955 142.351 46.9737C141.636 46.6821 140.914 46.3987 140.187 46.1291C132.911 44.4546 125.652 44.0029 118.62 44.6511L123.036 45.9718Z" fill="#FCFCFC"/>
<path d="M172.491 80.1013C167.289 74.2872 161.002 69.4456 153.864 65.9907L149.44 64.655C156.577 68.1123 162.864 72.9539 168.067 78.7656L172.491 80.1013Z" fill="#FCFCFC"/>
<path d="M103.924 51.7287L99.4742 50.3674C92.4777 53.243 85.9775 57.2994 80.238 62.377L84.6881 63.7383C90.4275 58.6608 96.9273 54.6068 103.924 51.7287Z" fill="#FCFCFC"/>
<path d="M182.761 132.656C182.493 134.4 182.152 136.143 181.736 137.883C181.383 139.357 180.981 140.807 180.532 142.225L185.026 143.601C185.473 142.181 185.875 140.734 186.228 139.257C186.645 137.518 186.986 135.775 187.253 134.03L182.761 132.656Z" fill="#FCFCFC"/>
<path d="M139.092 182.88C131.283 184.617 122.972 184.643 114.639 182.676C115.36 182.942 116.091 183.192 116.827 183.429C125.905 185.962 135.006 186.102 143.512 184.209L139.092 182.88Z" fill="#FCFCFC"/>
<path d="M70.6821 81.3688L66.2274 80.005C65.2205 81.6871 64.2711 83.4238 63.3907 85.2082L67.8454 86.572C68.7258 84.7876 69.6723 83.0526 70.6821 81.3688Z" fill="#FCFCFC"/>
<path d="M78.0519 71.041L73.5889 69.6736C71.2991 72.3201 69.1869 75.1618 67.2712 78.1834L71.7342 79.5507C73.6475 76.5285 75.7621 73.6875 78.0519 71.041Z" fill="#FCFCFC"/>
<path d="M61.8974 103.045C62.6887 99.7432 63.6749 96.5542 64.841 93.4871L60.325 92.1094C59.1613 95.1773 58.1728 98.3656 57.3815 101.668C57.0278 103.144 56.7186 104.626 56.4504 106.106L60.9663 107.484C61.2345 106.003 61.5431 104.524 61.8974 103.045Z" fill="#FCFCFC"/>
<path d="M60.223 151.002L55.7788 149.644C57.1477 153.105 58.7473 156.461 60.5643 159.686L65.0085 161.044C63.1921 157.816 61.5925 154.46 60.223 151.002Z" fill="#FCFCFC"/>
<path d="M164.777 173.476L160.335 172.12C157.329 174.426 154.11 176.412 150.723 178.046L155.166 179.403C158.552 177.768 161.772 175.783 164.777 173.476Z" fill="#FCFCFC"/>
<path d="M60.6864 138.101L56.23 136.737C57.0392 140.779 58.1491 144.744 59.5413 148.591L63.9977 149.956C62.6054 146.109 61.4956 142.144 60.6864 138.101Z" fill="#FCFCFC"/>
<path d="M59.4312 119.027L54.9531 117.655C54.7862 122.265 55.0138 126.844 55.6153 131.351L60.0933 132.723C59.4912 128.219 59.2643 123.637 59.4312 119.027Z" fill="#FCFCFC"/>
<path d="M163.245 169.279L167.72 170.65C172.805 166.166 177.157 160.696 180.505 154.406L176.03 153.034C172.682 159.324 168.327 164.794 163.245 169.279Z" fill="#FCFCFC"/>
<path d="M113.524 182.698C114.248 182.94 114.979 183.172 115.716 183.388C116.085 183.496 116.452 183.598 116.82 183.698C116.086 183.468 115.359 183.222 114.639 182.966C114.267 182.88 113.896 182.791 113.524 182.698Z" fill="#FCFCFC"/>
<path d="M110.011 196.948C109.638 196.864 109.267 196.775 108.893 196.686C109.256 196.81 109.618 196.935 109.985 197.055C110.356 197.151 110.727 197.245 111.098 197.334C110.736 197.207 110.372 197.08 110.011 196.948Z" fill="#FCFCFC"/>
<path d="M146.798 47.8521C147.171 47.9362 147.542 48.025 147.916 48.1145C147.554 47.9878 147.19 47.8659 146.824 47.7456C146.452 47.649 146.082 47.5554 145.711 47.4665C146.076 47.5916 146.437 47.7206 146.798 47.8521Z" fill="#FCFCFC"/>
<path d="M106.727 195.89C107.444 196.165 108.168 196.43 108.897 196.683C109.271 196.773 109.642 196.862 110.014 196.947C109.288 196.681 108.568 196.403 107.854 196.116C107.478 196.045 107.103 195.97 106.727 195.89Z" fill="#FCFCFC"/>
<path d="M146.797 47.8664C146.437 47.7345 146.075 47.6073 145.71 47.4794C144.963 47.2972 144.216 47.1276 143.471 46.9711C143.832 47.1108 144.191 47.2522 144.549 47.396C145.299 47.5413 146.048 47.6961 146.797 47.8664Z" fill="#FCFCFC"/>
<path d="M106.784 195.673C106.407 195.607 106.03 195.537 105.653 195.463C106.011 195.607 106.369 195.749 106.731 195.89C107.108 195.968 107.483 196.043 107.858 196.116C107.5 195.972 107.14 195.825 106.784 195.673Z" fill="#FCFCFC"/>
<path d="M72.8833 81.9671L71.4907 81.5406C70.3291 83.1766 69.2442 84.8842 68.2388 86.6615L70.0281 87.2094C70.9142 85.4116 71.8669 83.6636 72.8833 81.9671Z" fill="#FCFCFC"/>
<path d="M80.2546 71.6277L80.2475 71.6256C77.4894 74.0702 74.9453 76.8074 72.6632 79.8065L73.9012 80.1855C75.8277 77.147 77.9518 74.2892 80.2546 71.6277Z" fill="#FCFCFC"/>
<path d="M188.436 113.575L189.668 113.953C189.491 112.869 189.29 111.789 189.059 110.717L188.116 110.428C188.243 111.473 188.35 112.522 188.436 113.575Z" fill="#FCFCFC"/>
<path d="M143.417 47.202C143.795 47.2679 144.171 47.3384 144.549 47.412C144.191 47.2677 143.832 47.1258 143.47 46.9855C143.094 46.9071 142.719 46.8317 142.343 46.7588C142.704 46.9038 143.061 47.0506 143.417 47.202Z" fill="#FCFCFC"/>
<path d="M187.804 131.264L189.971 131.925C190.573 126.561 190.496 121.207 189.804 115.982L188.4 115.554C188.708 120.742 188.522 126.002 187.804 131.264Z" fill="#FCFCFC"/>
<path d="M187.224 133.948C186.927 135.698 186.569 137.445 186.15 139.187C185.795 140.667 185.398 142.126 184.966 143.56L187.209 144.241C187.662 142.816 188.068 141.362 188.424 139.878C188.844 138.13 189.188 136.379 189.458 134.626L187.224 133.948Z" fill="#FCFCFC"/>
<path d="M61.6137 119.617L59.7371 119.044C59.7933 123.812 60.3712 128.525 61.4217 133.101L62.2794 133.364C61.6757 128.843 61.4467 124.245 61.6137 119.617Z" fill="#FCFCFC"/>
<path d="M63.1376 108.124C63.4077 106.639 63.7188 105.154 64.076 103.671C64.8736 100.358 65.8681 97.1582 67.0443 94.0807L64.9124 93.4359C63.6444 96.4668 62.5989 99.6537 61.7976 102.982C61.4404 104.465 61.1384 105.955 60.8881 107.444L63.1376 108.124Z" fill="#FCFCFC"/>
<path d="M62.7083 138.592C62.8976 139.186 63.0957 139.775 63.3016 140.364C63.1759 139.8 63.0562 139.232 62.9441 138.664L62.7083 138.592Z" fill="#FCFCFC"/>
<path d="M169.924 171.216C175.005 166.723 179.356 161.252 182.707 154.967L180.83 154.394C177.912 160.613 174.225 166.252 169.924 171.216Z" fill="#FCFCFC"/>
<path d="M80.2471 71.6435L78.0147 70.9596C75.7193 73.6168 73.5974 76.4686 71.6752 79.5015L72.6794 79.8092C74.9566 76.8156 77.4951 74.0835 80.2471 71.6435Z" fill="#FCFCFC"/>
<path d="M71.5139 81.5507L70.66 81.2899C69.6419 82.99 68.6819 84.7453 67.7918 86.5487L68.2472 86.6879C69.2565 84.9074 70.347 83.192 71.5139 81.5507Z" fill="#FCFCFC"/>
<path d="M64.8344 93.394C63.644 96.481 62.6336 99.6889 61.8257 103.011C62.6373 99.6738 63.6995 96.4787 64.9832 93.4383L64.8344 93.394Z" fill="#FCFCFC"/>
<path d="M184.964 143.607C185.407 142.165 185.813 140.701 186.177 139.212C185.813 140.701 185.396 142.165 184.935 143.598L184.964 143.607Z" fill="#FCFCFC"/>
<path d="M106.128 52.3397L103.9 51.6577C96.8985 54.5391 90.3888 58.6021 84.6432 63.6887L86.8706 64.3707C92.6163 59.284 99.1229 55.2228 106.128 52.3397Z" fill="#FCFCFC"/>
<path d="M155.125 179.352L157.35 180.033C160.742 178.396 163.969 176.405 166.978 174.087L164.753 173.407C161.744 175.724 158.519 177.716 155.125 179.352Z" fill="#FCFCFC"/>
<path d="M186.192 139.209C186.62 137.459 186.983 135.703 187.289 133.946L187.247 133.934C186.969 135.696 186.621 137.456 186.192 139.209Z" fill="#FCFCFC"/>
<path d="M180.498 154.324C177.134 160.64 172.757 166.131 167.649 170.634L169.899 171.322C169.924 171.301 169.95 171.279 169.976 171.255C174.273 166.295 177.958 160.659 180.875 154.44L180.498 154.324Z" fill="#FCFCFC"/>
<path d="M70.4126 164.529C73.818 170.153 77.8965 175.345 82.5596 179.941L84.7799 180.619C80.1174 176.02 76.0382 170.83 72.6329 165.206L70.4126 164.529Z" fill="#FCFCFC"/>
<path d="M62.4122 151.606L60.186 150.925C61.5573 154.397 63.1597 157.766 64.9798 161.002L67.206 161.684C65.3864 158.445 63.7841 155.076 62.4122 151.606Z" fill="#FCFCFC"/>
<path d="M118.979 47.918L116.766 47.2478C115.073 47.5674 113.398 47.9521 111.744 48.4008L113.958 49.071C115.611 48.6223 117.287 48.2376 118.979 47.918Z" fill="#FCFCFC"/>
<path d="M93.9817 189.392C97.6603 191.745 101.573 193.782 105.69 195.461C106.068 195.535 106.445 195.607 106.822 195.673C103.098 194.084 99.547 192.199 96.1897 190.052L93.9817 189.392Z" fill="#FCFCFC"/>
<path d="M172.479 80.0732L174.691 80.7424C169.487 74.9178 163.198 70.0674 156.058 66.6059L153.845 65.9367C160.985 69.3982 167.274 74.2486 172.479 80.0732Z" fill="#FCFCFC"/>
<path d="M116.819 183.405C117.185 183.523 117.551 183.638 117.921 183.75C127.366 186.589 136.863 186.817 145.714 184.85L143.504 184.185C135.001 186.076 125.899 185.939 116.819 183.405Z" fill="#FCFCFC"/>
<path d="M63.2323 140.398C63.027 139.811 62.8294 139.224 62.6406 138.631L60.6418 138.019C61.4532 142.074 62.5659 146.052 63.9618 149.912L66.1957 150.597C64.994 147.275 64.0025 143.867 63.2323 140.398Z" fill="#FCFCFC"/>
<path d="M187.754 131.283L187.845 131.311C188.565 126.04 188.751 120.77 188.44 115.573L187.579 115.312C188.279 120.547 188.358 125.907 187.754 131.283Z" fill="#FCFCFC"/>
<path d="M183.569 98.3648L185.794 99.0454C183.575 93.7031 180.672 88.6779 177.172 84.1313L174.947 83.4507C178.447 87.9973 181.35 93.0225 183.569 98.3648Z" fill="#FCFCFC"/>
<path d="M143.418 47.4025C143.061 47.2488 142.703 47.0998 142.342 46.9526C135.82 45.6718 129.329 45.3669 123.02 45.9466L125.229 46.61C131.174 46.063 137.279 46.3037 143.418 47.4025Z" fill="#FCFCFC"/>
<path d="M188.455 113.6C188.369 112.547 188.261 111.498 188.135 110.454L186.844 110.058C187.073 111.128 187.277 112.207 187.453 113.293L188.455 113.6Z" fill="#FCFCFC"/>
<path d="M59.7509 119.052L59.376 118.937C59.209 123.568 59.4392 128.167 60.0434 132.693L61.4386 133.119C60.3841 128.539 59.8069 123.825 59.7509 119.052Z" fill="#FCFCFC"/>
<path d="M61.8167 103.025C61.4527 104.511 61.135 106.003 60.8597 107.494L60.8893 107.503C61.1443 106.009 61.4515 104.516 61.8167 103.025Z" fill="#FCFCFC"/>
<path d="M71.4368 141.196L69.2085 140.514C70.6074 144.88 72.4467 149.079 74.6873 153.033L76.9156 153.715C74.678 149.76 72.8363 145.56 71.4368 141.196Z" fill="#FCFCFC"/>
<path d="M166.76 182.77L168.991 183.453C171.583 181.422 174.042 179.193 176.348 176.782L174.118 176.099C171.812 178.51 169.353 180.739 166.76 182.77Z" fill="#FCFCFC"/>
<path d="M68.5807 121.653L66.3369 120.966C66.3924 125.724 66.968 130.428 68.0147 134.995L70.2584 135.682C69.2094 131.114 68.6356 126.414 68.5807 121.653Z" fill="#FCFCFC"/>
<path d="M176.47 173.202L178.719 173.89C183.042 168.911 186.75 163.252 189.681 157.003L187.432 156.315C184.498 162.564 180.792 168.226 176.47 173.202Z" fill="#FCFCFC"/>
<path d="M176.897 67.4379C175.669 66.1164 174.397 64.8393 173.076 63.6074L170.863 62.9372C172.181 64.1683 173.455 65.4462 174.684 66.7677L176.897 67.4379Z" fill="#FCFCFC"/>
<path d="M194.718 112.35C194.846 113.39 194.95 114.433 195.036 115.481L197.262 116.162C197.176 115.114 197.069 114.07 196.944 113.031L194.718 112.35Z" fill="#FCFCFC"/>
<path d="M95.1816 66.5793L97.3985 67.2535C107.662 61.1427 119.823 58.4485 132.269 60.123L130.053 59.4489C117.606 57.7744 105.447 60.4692 95.1816 66.5793Z" fill="#FCFCFC"/>
<path d="M194.408 133.184L196.667 133.873C197.384 128.612 197.571 123.353 197.263 118.165L195.004 117.476C195.312 122.664 195.125 127.923 194.408 133.184Z" fill="#FCFCFC"/>
<path d="M192.755 141.107C192.4 142.586 192.003 144.045 191.571 145.48L193.843 146.169C194.275 144.735 194.671 143.278 195.027 141.796C195.446 140.054 195.801 138.306 196.101 136.557L193.829 135.868C193.53 137.616 193.174 139.364 192.755 141.107Z" fill="#FCFCFC"/>
<path d="M70.6774 105.591C71.4781 102.264 72.5251 99.0785 73.7898 96.0475L71.5111 95.3577C70.244 98.3879 69.1993 101.574 68.3986 104.901C68.0417 106.385 67.7399 107.874 67.4897 109.363L69.7685 110.052C70.0186 108.564 70.3198 107.077 70.6774 105.591Z" fill="#FCFCFC"/>
<path d="M87.509 169.484C92.8648 174.137 99.0536 177.875 105.904 180.389C106.279 180.478 106.653 180.562 107.028 180.641C100.61 178.138 94.7905 174.552 89.719 170.149L87.509 169.484Z" fill="#FCFCFC"/>
<path d="M89.0552 74.2267L86.8207 73.5419C84.0745 75.9767 81.5413 78.7029 79.2688 81.69L81.5035 82.3748C83.7759 79.3877 86.3091 76.6614 89.0552 74.2267Z" fill="#FCFCFC"/>
<path d="M139.503 196.27L141.724 196.948C148.594 195.457 155.157 192.893 161.202 189.377L158.981 188.699C152.933 192.214 146.37 194.779 139.503 196.27Z" fill="#FCFCFC"/>
<path d="M110.009 196.813C110.37 196.947 110.733 197.075 111.098 197.205C116.543 198.547 121.986 199.202 127.337 199.224L125.13 198.565C120.147 198.546 115.082 197.975 110.009 196.813Z" fill="#FCFCFC"/>
<path d="M192.873 101.074L195.105 101.757C193.835 96.9736 192.139 92.325 190.056 87.8796L187.825 87.1959C189.909 91.6445 191.603 96.2899 192.873 101.074Z" fill="#FCFCFC"/>
<path d="M186.625 84.186L188.847 84.8652C186.914 81.1459 184.697 77.5853 182.224 74.2236L180.001 73.5444C182.475 76.906 184.689 80.4659 186.625 84.186Z" fill="#FCFCFC"/>
<path d="M71.4832 154.214C74.0521 158.31 77.0664 162.107 80.476 165.512L82.6954 166.189C79.2859 162.784 76.2693 158.986 73.7027 154.891L71.4832 154.214Z" fill="#FCFCFC"/>
<path d="M78.0853 83.4612C76.9269 85.093 75.8426 86.7954 74.8424 88.5689L77.0783 89.254C78.0809 87.4813 79.1635 85.7757 80.3213 84.1464L78.0853 83.4612Z" fill="#FCFCFC"/>
<path d="M168.246 59.2847C162.164 54.5639 155.316 50.7567 147.845 48.1176C147.472 48.0236 147.099 47.9351 146.726 47.8491C153.773 50.4669 160.251 54.1324 166.038 58.6226L168.246 59.2847Z" fill="#FCFCFC"/>
<path d="M106.954 180.643C106.58 180.564 106.207 180.482 105.832 180.397C106.193 180.526 106.556 180.653 106.921 180.778C107.293 180.873 107.665 180.962 108.037 181.046C107.676 180.914 107.313 180.782 106.954 180.643Z" fill="#FCFCFC"/>
<path d="M106.919 180.776C107.643 181.018 108.374 181.25 109.111 181.466C109.48 181.574 109.847 181.676 110.216 181.776C109.482 181.546 108.754 181.3 108.034 181.044C107.662 180.958 107.291 180.869 106.919 180.776Z" fill="#FCFCFC"/>
<path d="M182.21 82.8703L186.649 84.2241C184.719 80.5167 182.504 76.9674 180.034 73.6165L175.595 72.2626C178.065 75.6135 180.277 79.1621 182.21 82.8703Z" fill="#FCFCFC"/>
<path d="M188.455 99.7529L192.909 101.116C191.641 96.346 189.948 91.7105 187.87 87.2776L183.416 85.9141C185.496 90.3502 187.187 94.9825 188.455 99.7529Z" fill="#FCFCFC"/>
<path d="M87.5206 169.527L83.1025 168.203C89.0211 173.333 95.9564 177.348 103.678 179.831C104.421 180.038 105.166 180.228 105.909 180.404C99.064 177.895 92.8745 174.168 87.5206 169.527Z" fill="#FCFCFC"/>
<path d="M188.341 139.801C187.989 141.273 187.595 142.725 187.167 144.153L191.663 145.528C192.091 144.1 192.483 142.651 192.836 141.176C193.251 139.442 193.604 137.702 193.901 135.961L189.406 134.586C189.109 136.327 188.756 138.066 188.341 139.801Z" fill="#FCFCFC"/>
<path d="M78.1199 83.5386L73.6678 82.1761C72.5145 83.7984 71.435 85.4908 70.4391 87.2539L74.8912 88.6164C75.8889 86.8565 76.9666 85.1608 78.1199 83.5386Z" fill="#FCFCFC"/>
<path d="M68.0639 135.041C67.0207 130.49 66.45 125.801 66.3934 121.054L61.9216 119.684C61.9765 124.428 62.5496 129.117 63.5922 133.671L68.0639 135.041Z" fill="#FCFCFC"/>
<path d="M69.2517 140.592L64.803 139.232C66.1995 143.585 68.0357 147.772 70.2724 151.713L74.7212 153.074C72.485 149.13 70.6465 144.943 69.2517 140.592Z" fill="#FCFCFC"/>
<path d="M154.561 187.407C148.519 190.919 141.962 193.479 135.099 194.964L139.537 196.317C146.401 194.829 152.959 192.27 159 188.76L154.561 187.407Z" fill="#FCFCFC"/>
<path d="M130.07 59.5027L125.638 58.1561C113.196 56.4841 101.04 59.1756 90.7807 65.2796L95.2127 66.6262C105.472 60.5222 117.626 57.83 130.07 59.5027Z" fill="#FCFCFC"/>
<path d="M79.3206 81.7392C81.5869 78.7625 84.1126 76.0482 86.852 73.6196L82.3949 72.2547C79.6562 74.6809 77.1299 77.3976 74.8637 80.3743L79.3206 81.7392Z" fill="#FCFCFC"/>
<path d="M162.357 181.457L166.807 182.818C169.394 180.795 171.846 178.574 174.147 176.172L169.697 174.811C167.396 177.213 164.944 179.433 162.357 181.457Z" fill="#FCFCFC"/>
<path d="M120.724 197.263C116.476 197.247 112.174 196.83 107.855 195.989C108.57 196.279 109.291 196.561 110.018 196.829C115.091 197.992 120.154 198.56 125.138 198.58L120.724 197.263Z" fill="#FCFCFC"/>
<path d="M67.599 109.412C67.845 107.927 68.1464 106.446 68.5012 104.965C69.2959 101.649 70.3344 98.4738 71.5885 95.453L67.0746 94.0756C65.8182 97.0956 64.782 100.271 63.9873 103.588C63.6331 105.066 63.3335 106.55 63.0851 108.034L67.599 109.412Z" fill="#FCFCFC"/>
<path d="M161.627 57.3212L166.044 58.6449C160.26 54.1565 153.782 50.492 146.733 47.8741C145.982 47.7007 145.23 47.5423 144.48 47.395C150.695 49.9358 156.438 53.2976 161.627 57.3212Z" fill="#FCFCFC"/>
<path d="M71.5118 154.283L67.0771 152.934C69.6439 157.018 72.6554 160.805 76.0617 164.2L80.4964 165.549C77.0924 162.155 74.0785 158.367 71.5118 154.283Z" fill="#FCFCFC"/>
<path d="M190.63 114.172L195.064 115.521C194.979 114.482 194.872 113.448 194.747 112.418L190.312 111.069C190.437 112.099 190.544 113.133 190.63 114.172Z" fill="#FCFCFC"/>
<path d="M189.988 131.857L194.482 133.232C195.196 127.986 195.383 122.742 195.077 117.569L190.584 116.194C190.889 121.367 190.703 126.611 189.988 131.857Z" fill="#FCFCFC"/>
<path d="M170.275 65.4659L174.697 66.7982C173.47 65.484 172.199 64.214 170.88 62.989L166.458 61.6567C167.777 62.8817 169.05 64.1525 170.275 65.4659Z" fill="#FCFCFC"/>
<path d="M172.066 171.879L176.551 173.252C180.86 168.285 184.557 162.639 187.48 156.403L182.995 155.03C180.07 161.264 176.375 166.914 172.066 171.879Z" fill="#FCFCFC"/>
<path d="M103.607 179.847C103.972 179.961 104.337 180.073 104.706 180.181C105.443 180.397 106.182 180.598 106.92 180.782C106.555 180.66 106.193 180.533 105.832 180.402C105.091 180.233 104.35 180.049 103.607 179.847Z" fill="#FCFCFC"/>
<path d="M125.666 58.201L123.449 57.5268C111.003 55.8523 98.8418 58.5464 88.5783 64.6572L90.7952 65.3314C101.059 59.2206 113.217 56.5258 125.666 58.201Z" fill="#FCFCFC"/>
<path d="M68.0836 151.11L70.3125 151.793C68.072 147.836 66.2298 143.634 64.8324 139.27L62.8381 138.659C62.952 139.224 63.0695 139.786 63.194 140.349C64.5058 144.083 66.1455 147.689 68.0836 151.11Z" fill="#FCFCFC"/>
<path d="M180.02 82.264L182.242 82.9432C180.309 79.2239 178.092 75.6633 175.619 72.3016L173.396 71.6224C175.87 74.9841 178.084 78.544 180.02 82.264Z" fill="#FCFCFC"/>
<path d="M82.4487 72.2836L80.2163 71.5997C77.9209 74.257 75.7991 77.1087 73.8768 80.1417L74.881 80.4493C77.1582 77.4558 79.6967 74.7237 82.4487 72.2836Z" fill="#FCFCFC"/>
<path d="M67.0352 94.0343C65.8449 97.1213 64.8346 100.329 64.0266 103.651C64.8382 100.314 65.9004 97.1189 67.184 94.0785L67.0352 94.0343Z" fill="#FCFCFC"/>
<path d="M64.0183 103.665C63.6544 105.152 63.3366 106.644 63.0614 108.135L63.0909 108.143C63.3459 106.649 63.6532 105.157 64.0183 103.665Z" fill="#FCFCFC"/>
<path d="M80.9009 167.562C87.0995 172.937 94.4139 177.087 102.578 179.534C102.948 179.645 103.316 179.751 103.685 179.854C95.9639 177.371 89.0286 173.355 83.11 168.225L80.9009 167.562Z" fill="#FCFCFC"/>
<path d="M72.8638 81.9313C71.8457 83.6314 70.8858 85.3867 69.9957 87.1901L70.4511 87.3292C71.461 85.5463 72.5515 83.8309 73.7177 82.1921L72.8638 81.9313Z" fill="#FCFCFC"/>
<path d="M61.953 119.693L61.5781 119.579C61.4112 124.209 61.6414 128.809 62.2456 133.335L63.6407 133.761C62.5861 129.18 62.009 124.467 61.953 119.693Z" fill="#FCFCFC"/>
<path d="M64.8787 152.292C67.4477 156.388 70.462 160.186 73.8715 163.59L76.0909 164.267C72.6814 160.862 69.6648 157.064 67.0982 152.969L64.8787 152.292Z" fill="#FCFCFC"/>
<path d="M188.394 139.85C188.822 138.1 189.185 136.344 189.491 134.587L189.449 134.575C189.171 136.337 188.822 138.098 188.394 139.85Z" fill="#FCFCFC"/>
<path d="M181.22 85.2766C183.302 89.722 184.999 94.3681 186.268 99.1544L188.5 99.838C187.23 95.0542 185.534 90.4057 183.451 85.9602L181.22 85.2766Z" fill="#FCFCFC"/>
<path d="M187.165 144.247C187.608 142.806 188.014 141.342 188.378 139.853C188.014 141.342 187.597 142.805 187.133 144.238L187.165 144.247Z" fill="#FCFCFC"/>
<path d="M106.784 195.555C107.141 195.708 107.499 195.856 107.86 196.003C112.18 196.846 116.486 197.266 120.733 197.282L118.525 196.622C114.649 196.609 110.725 196.259 106.784 195.555Z" fill="#FCFCFC"/>
<path d="M189.957 131.924L190.05 131.952C190.77 126.681 190.956 121.412 190.645 116.215L189.784 115.953C190.481 121.187 190.561 126.548 189.957 131.924Z" fill="#FCFCFC"/>
<path d="M132.897 194.348L135.118 195.026C141.988 193.535 148.55 190.971 154.596 187.455L152.375 186.777C146.327 190.292 139.766 192.857 132.897 194.348Z" fill="#FCFCFC"/>
<path d="M189.654 113.933L190.656 114.24C190.569 113.187 190.462 112.138 190.336 111.094L189.045 110.699C189.274 111.769 189.478 112.847 189.654 113.933Z" fill="#FCFCFC"/>
<path d="M161.637 57.3635C156.447 53.3286 150.701 49.9616 144.484 47.4174C144.105 47.3425 143.729 47.2708 143.35 47.2038C149.155 49.6913 154.537 52.8999 159.427 56.7L161.637 57.3635Z" fill="#FCFCFC"/>
<path d="M170.291 65.516C169.062 64.1945 167.79 62.9173 166.47 61.6854L164.256 61.0152C165.574 62.2464 166.849 63.5242 168.077 64.8457L170.291 65.516Z" fill="#FCFCFC"/>
<path d="M169.925 171.21C169.905 171.233 169.884 171.256 169.862 171.282L172.112 171.969C176.434 166.991 180.142 161.332 183.074 155.082L182.7 154.968C179.354 161.248 175.003 166.719 169.925 171.21Z" fill="#FCFCFC"/>
<path d="M160.157 180.848L162.388 181.531C164.98 179.5 167.439 177.271 169.745 174.86L167.515 174.177C165.206 176.587 162.748 178.816 160.157 180.848Z" fill="#FCFCFC"/>
<path d="M174.67 80.6784L180.055 82.3032C178.13 78.6434 175.922 75.14 173.46 71.8326L156.046 66.5782C163.182 70.0305 169.468 74.8685 174.67 80.6784Z" fill="#FCFCFC"/>
<path d="M185.784 99.0354L186.302 99.1941C185.034 94.4217 183.341 89.7843 181.262 85.3495L177.152 84.091C180.656 88.6468 183.563 93.6823 185.784 99.0354Z" fill="#FCFCFC"/>
<path d="M168.097 64.8756C166.872 63.5943 165.605 62.356 164.289 61.1618L118.941 47.8432C117.258 48.1565 115.591 48.533 113.946 48.9716L168.097 64.8756Z" fill="#FCFCFC"/>
<path d="M86.8442 64.157L88.5875 64.6873C98.8519 58.575 111.014 55.8803 123.461 57.5553L106.005 52.2455C99.0367 55.1011 92.5617 59.1217 86.8442 64.157Z" fill="#FCFCFC"/>
<path d="M169.864 171.464C169.885 171.44 169.906 171.416 169.928 171.39C169.902 171.412 169.876 171.435 169.85 171.46L169.864 171.464Z" fill="#FCFCFC"/>
<path d="M159.437 56.7229C154.556 52.9626 149.179 49.7846 143.382 47.3267C137.25 46.2412 131.157 46.0069 125.224 46.5527L159.437 56.7229Z" fill="#FCFCFC"/>
<path d="M96.1826 190.032C99.5367 192.16 103.084 194.027 106.805 195.602C110.741 196.296 114.66 196.641 118.531 196.655L96.1826 190.032Z" fill="#FCFCFC"/>
<path d="M145.698 185.136C136.86 187.091 127.376 186.87 117.943 184.056C117.573 183.946 117.207 183.832 116.842 183.715C116.473 183.613 116.105 183.508 115.735 183.398C114.997 183.178 114.264 182.944 113.539 182.694C112.8 182.505 112.06 182.302 111.321 182.082C110.951 181.971 110.586 181.857 110.22 181.74C109.851 181.638 109.483 181.533 109.114 181.423C108.375 181.203 107.642 180.969 106.917 180.72C106.178 180.53 105.438 180.327 104.699 180.107C104.33 179.997 103.964 179.882 103.598 179.766C103.229 179.663 102.861 179.559 102.492 179.449C94.3341 177.016 87.0251 172.89 80.8304 167.545L72.5868 165.086C75.9767 170.568 80.0353 175.628 84.6742 180.105L133.048 194.532C139.872 193.071 146.389 190.565 152.392 187.132L145.698 185.136Z" fill="#FCFCFC"/>
<path d="M63.1897 140.364C63.9591 143.834 64.9509 147.239 66.1499 150.559L68.0893 151.153C66.1472 147.722 64.5043 144.107 63.1897 140.364Z" fill="#FCFCFC"/>
<path d="M166.973 174.058C163.958 176.378 160.727 178.375 157.33 180.019L160.192 180.896C162.782 178.867 165.239 176.641 167.543 174.232L166.973 174.058Z" fill="#FCFCFC"/>
<path d="M64.8976 152.332L62.3794 151.565C63.7467 155.014 65.3444 158.36 67.1592 161.575L73.8891 163.626C70.4824 160.223 67.4662 156.427 64.8976 152.332Z" fill="#FCFCFC"/>
<path d="M91.9279 42.8599L89.7104 42.185C87.0519 42.906 84.4462 43.7927 81.9062 44.8332L84.1237 45.508C86.6637 44.4675 89.2694 43.5809 91.9279 42.8599Z" fill="#E31010"/>
<path d="M142.954 62.7309C142.305 62.4217 141.649 62.1253 140.984 61.8394C140.604 61.7754 140.226 61.7144 139.846 61.6582C140.148 61.7961 140.45 61.9364 140.749 62.0783L142.954 62.7309Z" fill="#E31010"/>
<path d="M96.3309 44.161L91.9012 42.8174C89.2462 43.5358 86.6439 44.4193 84.1072 45.4559L88.5368 46.7996C91.0735 45.7629 93.6758 44.8795 96.3309 44.161Z" fill="#E75CEE"/>
<path d="M142.953 62.7109L147.364 64.0139C146.019 63.3771 144.647 62.7884 143.243 62.2489C142.49 62.0903 141.736 61.9465 140.983 61.8208C141.647 62.1062 142.304 62.4045 142.953 62.7109Z" fill="#E75CEE"/>
<path d="M149.567 64.6543C147.878 63.851 146.143 63.1259 144.361 62.4811C143.987 62.3933 143.613 62.3109 143.239 62.2332C144.641 62.7731 146.015 63.3636 147.361 64.0015L149.567 64.6543Z" fill="#FCFC53"/>
<path d="M98.5334 44.7832L96.316 44.1083C93.6574 44.8293 91.0517 45.7159 88.5117 46.7564L90.7292 47.4313C93.2692 46.3908 95.8749 45.5042 98.5334 44.7832Z" fill="#FCFC53"/>
<path d="M177.949 72.8672L180.167 73.542C178.44 71.2029 176.586 68.9618 174.614 66.829L172.397 66.1541C174.369 68.287 176.222 70.5305 177.949 72.8672Z" fill="#195FF5"/>
<path d="M139.851 61.6754C139.497 61.5145 139.142 61.3585 138.784 61.2041C138.079 61.0847 137.375 60.9785 136.673 60.888L138.878 61.5405C139.204 61.5833 139.527 61.6278 139.851 61.6754Z" fill="#195FF5"/>
<path d="M139.851 61.6586C140.231 61.7151 140.609 61.7764 140.989 61.8408C140.634 61.6865 140.277 61.5369 139.917 61.389C139.538 61.3175 139.161 61.249 138.783 61.1853C139.141 61.3404 139.499 61.4978 139.851 61.6586Z" fill="#195FF5"/>
<path d="M143.249 62.2503C142.889 62.1133 142.529 61.9786 142.165 61.8456C141.416 61.6723 140.666 61.514 139.917 61.3713C140.276 61.5186 140.633 61.6675 140.989 61.8212C141.742 61.9497 142.496 62.0937 143.249 62.2503Z" fill="#195FF5"/>
<path d="M143.25 62.234C143.624 62.3136 143.997 62.3955 144.372 62.4806C144.01 62.3512 143.648 62.2242 143.283 62.0989C142.911 62.0044 142.539 61.9153 142.166 61.8309C142.53 61.9634 142.893 62.0982 143.25 62.234Z" fill="#195FF5"/>
<path d="M136.682 60.8963C137.385 60.9866 138.088 61.0925 138.793 61.2117C138.084 60.9054 137.366 60.6143 136.643 60.3369C135.184 60.0309 133.726 59.7836 132.271 59.5933L136.682 60.8963Z" fill="#19F5EE"/>
<path d="M173.536 71.5574L177.966 72.901C176.241 70.5716 174.39 68.3399 172.42 66.216L167.99 64.8723C169.96 66.9963 171.811 69.2304 173.536 71.5574Z" fill="#19F5EE"/>
<path d="M139.922 61.3925C139.209 61.1025 138.487 60.8253 137.76 60.5617C137.386 60.4738 137.013 60.3915 136.639 60.3138C137.362 60.5917 138.08 60.8832 138.789 61.1899C139.167 61.2532 139.546 61.3197 139.922 61.3925Z" fill="#19F5EE"/>
<path d="M139.92 61.3762C140.669 61.518 141.419 61.6755 142.168 61.8478C141.448 61.5875 140.719 61.3425 139.985 61.1111C139.244 60.908 138.501 60.7222 137.759 60.5495C138.488 60.8125 139.207 61.0876 139.92 61.3762Z" fill="#19F5EE"/>
<path d="M143.283 62.1002C142.56 61.858 141.829 61.6262 141.091 61.4102C140.722 61.3023 140.355 61.1997 139.987 61.0994C140.721 61.3296 141.448 61.5755 142.168 61.8318C142.539 61.9203 142.913 62.0071 143.283 62.1002Z" fill="#19F5EE"/>
<path d="M149.562 64.6339L153.971 65.9344C151.601 64.8109 149.134 63.8392 146.585 63.0314C145.843 62.828 145.1 62.6419 144.359 62.4689C146.139 63.1136 147.873 63.836 149.562 64.6339Z" fill="#FCFCFC"/>
<path d="M102.936 46.083L98.5067 44.7394C95.8516 45.4578 93.2494 46.3413 90.7127 47.3779L95.1423 48.7215C97.6789 47.6849 100.281 46.8014 102.936 46.083Z" fill="#FCFCFC"/>
<path d="M146.593 63.0317C146.229 62.9173 145.863 62.8053 145.495 62.6973C144.757 62.4813 144.019 62.28 143.28 62.0967C143.646 62.2189 144.008 62.345 144.368 62.4759C145.11 62.6428 145.852 62.8298 146.593 63.0317Z" fill="#FCFCFC"/>
<path d="M156.173 66.5756C153.465 65.2908 150.63 64.203 147.688 63.3349C147.319 63.226 146.951 63.1226 146.582 63.0216C149.132 63.8296 151.599 64.8014 153.969 65.9252L156.173 66.5756Z" fill="#FCFCFC"/>
<path d="M97.3349 49.3507C99.8749 48.3102 102.48 47.426 105.139 46.7026L102.922 46.0277C100.263 46.7486 97.6574 47.6353 95.1174 48.6758L97.3349 49.3507Z" fill="#FCFCFC"/>
<path d="M171.343 70.9452L173.561 71.6201C171.834 69.281 169.981 67.0399 168.009 64.907L165.791 64.2321C167.763 66.365 169.616 68.6085 171.343 70.9452Z" fill="#FCFCFC"/>
<path d="M136.645 60.3462C136.285 60.2091 135.924 60.0744 135.561 59.9414C133.728 59.5162 131.894 59.1853 130.067 58.9482L132.272 59.601C133.727 59.7917 135.186 60.0395 136.645 60.3462Z" fill="#FCFCFC"/>
<path d="M136.644 60.312C137.018 60.3916 137.391 60.4735 137.766 60.5586C137.404 60.4292 137.042 60.3022 136.677 60.1769C136.304 60.0824 135.933 59.9933 135.56 59.909C135.924 60.0414 136.284 60.1755 136.644 60.312Z" fill="#FCFCFC"/>
<path d="M139.988 61.1098C139.624 60.9954 139.258 60.8834 138.89 60.7754C138.152 60.5594 137.414 60.3581 136.676 60.1748C137.041 60.2969 137.403 60.4231 137.763 60.554C138.505 60.7209 139.247 60.9079 139.988 61.1098Z" fill="#FCFCFC"/>
<path d="M171.362 70.9803C169.637 68.6509 167.785 66.4192 165.816 64.2953L161.386 62.9517C163.356 65.0731 165.207 67.3073 166.932 69.6367L171.362 70.9803Z" fill="#FCFCFC"/>
<path d="M130.075 58.9605C131.901 59.1965 133.731 59.5253 135.566 59.9495C134.846 59.6888 134.117 59.4434 133.383 59.2115C130.808 58.508 128.229 57.9916 125.665 57.6599L130.075 58.9605Z" fill="#FCFCFC"/>
<path d="M136.678 60.1783C135.954 59.9361 135.223 59.7043 134.486 59.4884C134.117 59.3804 133.749 59.2778 133.381 59.1775C134.115 59.4076 134.843 59.6536 135.563 59.9099C135.934 59.9984 136.308 60.0852 136.678 60.1783Z" fill="#FCFCFC"/>
<path d="M164.737 69.0232L166.955 69.6981C165.228 67.359 163.375 65.1179 161.403 62.9851L159.185 62.3102C161.157 64.443 163.01 66.6866 164.737 69.0232Z" fill="#FCFCFC"/>
<path d="M133.384 59.2234C133.019 59.1081 132.654 58.9952 132.285 58.8864C129.342 58.0183 126.395 57.4007 123.462 57.0211L125.667 57.6715C128.233 58.0039 130.81 58.5174 133.384 59.2234Z" fill="#FCFCFC"/>
<path d="M123.495 56.1543C123.864 56.2631 124.229 56.3759 124.594 56.4911C124.962 56.5921 125.33 56.6955 125.699 56.8043C126.437 57.0218 127.169 57.2529 127.892 57.4992C128.63 57.6863 129.37 57.8866 130.108 58.1041C130.477 58.2129 130.842 58.3257 131.207 58.4409C131.575 58.5419 131.943 58.6453 132.312 58.7541C133.05 58.9717 133.782 59.2028 134.506 59.4491C135.244 59.6361 135.983 59.8364 136.721 60.054C137.09 60.1628 137.455 60.2756 137.82 60.3908C138.189 60.4918 138.556 60.5951 138.925 60.7039C141.868 61.5714 144.699 62.6578 147.41 63.9423L164.767 69.0597C163.047 66.797 161.202 64.6294 159.24 62.5669L105.069 46.5954C102.429 47.2983 99.8411 48.1615 97.3189 49.1736L114.676 54.291C117.606 54.6696 120.552 55.2868 123.495 56.1543Z" fill="#FCFCFC"/>
<path d="M47.4549 72.6262L45.2343 71.9488C44.9035 72.4696 44.5761 72.9969 44.2576 73.5294L46.4782 74.2068C46.7967 73.6743 47.1218 73.1463 47.4549 72.6262Z" fill="#E31010"/>
<path d="M158.787 104.983C158.893 105.636 158.992 106.29 159.077 106.948L161.297 107.624C161.209 106.966 161.113 106.313 161.004 105.658L158.787 104.983Z" fill="#E31010"/>
<path d="M51.8588 73.9256L47.4322 72.5871C47.1027 73.1025 46.7766 73.6241 46.4593 74.1511L50.886 75.4897C51.2033 74.9627 51.5269 74.4403 51.8588 73.9256Z" fill="#E75CEE"/>
<path d="M161.277 107.566L165.703 108.903C165.616 108.252 165.519 107.605 165.411 106.958L160.985 105.62C161.093 106.268 161.191 106.917 161.277 107.566Z" fill="#E75CEE"/>
<path d="M165.684 108.868L167.904 109.544C167.816 108.886 167.72 108.233 167.611 107.579L165.391 106.902C165.5 107.556 165.596 108.212 165.684 108.868Z" fill="#FCFC53"/>
<path d="M54.0613 74.5482L51.8407 73.8708C51.5099 74.3917 51.1826 74.9189 50.864 75.4515L53.0846 76.1288C53.4032 75.5963 53.7282 75.0684 54.0613 74.5482Z" fill="#FCFC53"/>
<path d="M186.334 114.876L188.555 115.554C188.516 114.912 188.471 114.272 188.419 113.634L186.198 112.956C186.25 113.597 186.295 114.237 186.334 114.876Z" fill="#195FF5"/>
<path d="M74.8648 80.6034L72.6451 79.9268C72.2607 80.4308 71.8826 80.9394 71.5122 81.4582L73.732 82.1348C74.1024 81.616 74.481 81.105 74.8648 80.6034Z" fill="#195FF5"/>
<path d="M181.791 111.677C181.843 112.308 181.89 112.943 181.927 113.577L186.353 114.915C186.314 114.28 186.27 113.647 186.217 113.016L181.791 111.677Z" fill="#19F5EE"/>
<path d="M68.2371 78.6425C67.8541 79.1414 67.4774 79.6449 67.1084 80.1584L71.5344 81.4961C71.9034 80.9826 72.2778 80.4784 72.6632 79.9802L68.2371 78.6425Z" fill="#19F5EE"/>
<path d="M172.309 110.825C172.221 110.174 172.125 109.527 172.017 108.88L167.591 107.542C167.697 108.189 167.795 108.836 167.883 109.488L172.309 110.825Z" fill="#FCFCFC"/>
<path d="M58.4645 75.8476L54.0379 74.509C53.7084 75.0244 53.3823 75.5461 53.0651 76.073L57.4916 77.4116C57.8089 76.8847 58.1327 76.3623 58.4645 75.8476Z" fill="#FCFCFC"/>
<path d="M60.6661 76.4602L59.4381 76.0843C59.0526 76.5913 58.6734 77.1029 58.3019 77.6248L59.6846 78.0479C60.0063 77.5135 60.3321 76.9829 60.6661 76.4602Z" fill="#FCFCFC"/>
<path d="M173.124 111.041L174.507 111.464C174.419 110.802 174.322 110.145 174.213 109.486L172.988 109.111C173.04 109.755 173.084 110.399 173.124 111.041Z" fill="#FCFCFC"/>
<path d="M59.451 76.1008L58.4506 75.7943C58.1182 76.3194 57.7893 76.851 57.4692 77.3878L58.3147 77.6469C58.6847 77.1226 59.0652 76.6069 59.451 76.1008Z" fill="#FCFCFC"/>
<path d="M172.294 110.807L173.139 111.066C173.1 110.42 173.055 109.774 173.002 109.13L172.002 108.824C172.109 109.484 172.207 110.146 172.294 110.807Z" fill="#FCFCFC"/>
<path d="M179.729 112.954L181.949 113.632C181.91 112.99 181.866 112.35 181.813 111.712L179.593 111.034C179.645 111.675 179.689 112.315 179.729 112.954Z" fill="#FCFCFC"/>
<path d="M68.2594 78.6814L66.0396 78.0047C65.6552 78.5087 65.2771 79.0173 64.9067 79.5361L67.1265 80.2128C67.4969 79.694 67.8755 79.1829 68.2594 78.6814Z" fill="#FCFCFC"/>
<path d="M175.323 111.652L179.75 112.991C179.71 112.356 179.666 111.722 179.613 111.091L175.187 109.753C175.239 110.386 175.283 111.02 175.323 111.652Z" fill="#FCFCFC"/>
<path d="M61.6315 76.7197C61.2485 77.2186 60.8718 77.7221 60.5051 78.2364L64.9311 79.5741C65.3002 79.0605 65.6745 78.5563 66.0598 78.0581L61.6315 76.7197Z" fill="#FCFCFC"/>
<path d="M174.495 111.449L175.341 111.708C175.301 111.061 175.257 110.415 175.204 109.772L174.204 109.465C174.31 110.125 174.407 110.787 174.495 111.449Z" fill="#FCFCFC"/>
<path d="M61.6534 76.7411L60.653 76.4346C60.3206 76.9597 59.9917 77.4912 59.6716 78.0281L60.5171 78.2871C60.8871 77.7629 61.2676 77.2472 61.6534 76.7411Z" fill="#FCFCFC"/>
<path d="M43.201 102.418L40.9399 101.729C40.2535 105.529 39.8493 109.334 39.7124 113.122L41.9734 113.811C42.1103 110.024 42.5146 106.218 43.201 102.418Z" fill="#E31010"/>
<path d="M167.32 138.561L165.062 137.872C163.9 141.551 162.43 145.034 160.689 148.298L162.947 148.987C164.688 145.723 166.157 142.24 167.32 138.561Z" fill="#E31010"/>
<path d="M47.6139 103.743L43.125 102.369C42.4425 106.154 42.04 109.945 41.903 113.718L46.392 115.092C46.529 111.319 46.9314 107.528 47.6139 103.743Z" fill="#E75CEE"/>
<path d="M162.891 148.896L167.376 150.27C169.107 147.019 170.568 143.549 171.723 139.884L167.238 138.51C166.082 142.175 164.621 145.645 162.891 148.896Z" fill="#E75CEE"/>
<path d="M167.294 150.22L169.552 150.909C171.293 147.645 172.765 144.163 173.925 140.483L171.667 139.794C170.505 143.473 169.035 146.956 167.294 150.22Z" fill="#FCFC53"/>
<path d="M49.8064 104.34L47.5454 103.651C46.859 107.451 46.4548 111.257 46.3179 115.044L48.5788 115.734C48.7158 111.946 49.12 108.14 49.8064 104.34Z" fill="#FCFC53"/>
<path d="M187.478 156.1L189.739 156.789C191.313 153.439 192.664 149.922 193.77 146.25L191.509 145.561C190.406 149.234 189.054 152.751 187.478 156.1Z" fill="#195FF5"/>
<path d="M67.3875 109.425C66.7481 113.263 66.4619 117.108 66.508 120.917L68.7656 121.606C68.7195 117.797 69.0058 113.952 69.6451 110.113L67.3875 109.425Z" fill="#195FF5"/>
<path d="M183.074 154.775L187.563 156.149C189.127 152.813 190.47 149.31 191.568 145.652L187.079 144.278C185.983 147.936 184.638 151.439 183.074 154.775Z" fill="#19F5EE"/>
<path d="M67.4535 109.516L62.968 108.143C62.3319 111.967 62.0465 115.796 62.0913 119.591L66.5769 120.965C66.5344 117.171 66.8174 113.34 67.4535 109.516Z" fill="#19F5EE"/>
<path d="M54.2202 105.665L49.7312 104.291C49.0487 108.076 48.6463 111.867 48.5092 115.64L52.9982 117.014C53.1352 113.241 53.5377 109.45 54.2202 105.665Z" fill="#FCFCFC"/>
<path d="M173.982 152.192C175.713 148.941 177.174 145.471 178.329 141.806L173.844 140.432C172.688 144.097 171.227 147.567 169.497 150.818L173.982 152.192Z" fill="#FCFCFC"/>
<path d="M176.151 152.831C177.895 149.565 179.367 146.079 180.53 142.397L178.297 141.717C177.192 145.39 175.84 148.907 174.266 152.257L176.151 152.831Z" fill="#FCFCFC"/>
<path d="M56.4115 106.261L54.1787 105.581C53.5386 109.422 53.2522 113.269 53.2986 117.081L55.1838 117.655C55.3207 113.867 55.725 110.061 56.4115 106.261Z" fill="#FCFCFC"/>
<path d="M173.9 152.189L174.281 152.304C175.873 148.941 177.24 145.411 178.357 141.725L178.328 141.717C177.152 145.412 175.664 148.911 173.9 152.189Z" fill="#FCFCFC"/>
<path d="M54.2059 105.581L54.177 105.573C53.4842 109.386 53.0771 113.206 52.9407 117.007L53.3216 117.121C53.2748 113.297 53.5601 109.436 54.2059 105.581Z" fill="#FCFCFC"/>
<path d="M180.871 154.178L183.132 154.867C184.707 151.517 186.058 148 187.164 144.328L184.903 143.639C183.8 147.312 182.446 150.828 180.871 154.178Z" fill="#FCFCFC"/>
<path d="M62.1613 119.685C62.1152 115.876 62.3991 112.031 63.0408 108.193L60.7832 107.504C60.1439 111.343 59.8576 115.187 59.9037 118.996L62.1613 119.685Z" fill="#FCFCFC"/>
<path d="M60.849 107.594L56.3635 106.221C55.7274 110.045 55.4421 113.875 55.4869 117.669L59.9724 119.043C59.9299 115.249 60.2129 111.418 60.849 107.594Z" fill="#FCFCFC"/>
<path d="M176.468 152.853L180.957 154.227C182.521 150.891 183.864 147.388 184.962 143.73L180.473 142.356C179.377 146.014 178.034 149.517 176.468 152.853Z" fill="#FCFCFC"/>
<path d="M176.102 152.829L176.483 152.944C178.075 149.582 179.441 146.051 180.558 142.366L180.529 142.357C179.353 146.052 177.865 149.551 176.102 152.829Z" fill="#FCFCFC"/>
<path d="M55.5265 117.763C55.4772 113.938 55.7626 110.077 56.4108 106.223L56.3818 106.214C55.6891 110.028 55.282 113.847 55.1456 117.648L55.5265 117.763Z" fill="#FCFCFC"/>
<path d="M185.061 133.254L187.29 133.937C187.425 133.068 187.54 132.196 187.637 131.327L185.409 130.644C185.311 131.514 185.194 132.382 185.061 133.254Z" fill="#E31010"/>
<path d="M187.261 133.867L191.696 135.218C191.828 134.357 191.945 133.495 192.042 132.635L187.606 131.284C187.507 132.144 187.393 133.005 187.261 133.867Z" fill="#E75CEE"/>
<path d="M192.014 132.566C191.917 133.436 191.801 134.308 191.666 135.176L193.895 135.859C194.03 134.99 194.146 134.118 194.243 133.249L192.014 132.566Z" fill="#FCFC53"/>
<path d="M211.522 140.954L213.751 141.637C213.898 140.772 214.032 139.908 214.148 139.041L211.919 138.359C211.801 139.222 211.669 140.089 211.522 140.954Z" fill="#195FF5"/>
<path d="M207.117 139.645L211.553 140.996C211.699 140.139 211.832 139.284 211.948 138.427L207.512 137.077C207.397 137.932 207.263 138.789 207.117 139.645Z" fill="#19F5EE"/>
<path d="M193.867 135.789L198.302 137.14C198.436 136.28 198.551 135.417 198.648 134.557L194.212 133.206C194.113 134.066 193.999 134.927 193.867 135.789Z" fill="#FCFCFC"/>
<path d="M198.31 137.11L200.5 137.781C200.633 136.911 200.751 136.039 200.848 135.169L198.71 134.515C198.589 135.377 198.457 136.245 198.31 137.11Z" fill="#FCFCFC"/>
<path d="M198.636 134.488C198.536 135.371 198.418 136.257 198.28 137.139L198.321 137.151C198.471 136.273 198.608 135.396 198.728 134.516L198.636 134.488Z" fill="#FCFCFC"/>
<path d="M204.916 139.032L207.145 139.715C207.292 138.85 207.426 137.986 207.543 137.119L205.313 136.437C205.195 137.3 205.063 138.167 204.916 139.032Z" fill="#FCFCFC"/>
<path d="M200.512 137.723L204.947 139.074C205.093 138.218 205.226 137.363 205.342 136.505L200.906 135.155C200.789 136.009 200.657 136.867 200.512 137.723Z" fill="#FCFCFC"/>
<path d="M200.482 137.78L200.523 137.792C200.674 136.914 200.811 136.036 200.93 135.157L200.835 135.128C200.736 136.011 200.618 136.894 200.482 137.78Z" fill="#FCFCFC"/>
<path d="M64.7551 174.882L62.542 174.212C66.1194 177.71 70.0399 180.864 74.267 183.597L76.4801 184.266C72.253 181.533 68.3319 178.382 64.7551 174.882Z" fill="#E31010"/>
<path d="M64.7427 174.853C68.3183 178.341 72.2368 181.486 76.4617 184.212L80.8854 185.547C76.6606 182.822 72.742 179.677 69.1664 176.188L64.7427 174.853Z" fill="#E75CEE"/>
<path d="M71.3606 176.804L69.1475 176.134C72.7248 179.632 76.6454 182.786 80.8725 185.519L83.0857 186.188C78.8586 183.455 74.9374 180.304 71.3606 176.804Z" fill="#FCFC53"/>
<path d="M125.139 198.249L127.352 198.918C132.234 198.941 137.04 198.428 141.705 197.423L139.492 196.754C134.826 197.761 130.021 198.272 125.139 198.249Z" fill="#195FF5"/>
<path d="M120.736 196.954L125.159 198.289C130.038 198.311 134.841 197.798 139.503 196.796L135.08 195.461C130.417 196.465 125.614 196.976 120.736 196.954Z" fill="#19F5EE"/>
<path d="M71.3484 176.775C74.924 180.263 78.8425 183.408 83.0674 186.134L87.4911 187.469C83.2663 184.744 79.3477 181.599 75.7721 178.11L71.3484 176.775Z" fill="#FCFCFC"/>
<path d="M77.9668 178.726L75.7537 178.056C79.331 181.554 83.2516 184.708 87.4787 187.441L89.6918 188.11C85.4647 185.377 81.5436 182.226 77.9668 178.726Z" fill="#FCFCFC"/>
<path d="M132.885 194.832C128.221 195.836 123.415 196.35 118.533 196.327L120.746 196.996C125.628 197.019 130.434 196.506 135.099 195.501L132.885 194.832Z" fill="#FCFCFC"/>
<path d="M114.129 195.032L118.553 196.367C123.432 196.389 128.235 195.876 132.897 194.874L128.473 193.539C123.811 194.543 119.008 195.054 114.129 195.032Z" fill="#FCFCFC"/>
<path d="M126.28 192.91C121.615 193.914 116.809 194.428 111.927 194.405L114.14 195.075C119.022 195.097 123.828 194.584 128.493 193.579L126.28 192.91Z" fill="#FCFCFC"/>
<path d="M89.6381 187.89L111.989 194.521C116.854 194.538 121.642 194.029 126.289 193.039L77.946 178.697C81.5134 182.126 85.4235 185.213 89.6381 187.89Z" fill="#FCFCFC"/>
<path d="M137.494 174.561C133.803 176.336 129.917 177.694 125.898 178.596L128.116 179.273C132.136 178.37 136.024 177.015 139.713 175.237L137.494 174.561Z" fill="#E31010"/>
<path d="M128.099 179.217L132.532 180.565C136.547 179.665 140.431 178.314 144.116 176.54L139.682 175.192C135.998 176.963 132.114 178.317 128.099 179.217Z" fill="#E75CEE"/>
<path d="M144.099 176.484C140.409 178.259 136.523 179.618 132.503 180.52L134.722 181.196C138.742 180.294 142.63 178.939 146.318 177.16L144.099 176.484Z" fill="#FCFC53"/>
<path d="M161.201 188.915L163.427 189.596C166.115 188.032 168.7 186.277 171.166 184.346L168.941 183.665C166.475 185.596 163.888 187.348 161.201 188.915Z" fill="#195FF5"/>
<path d="M156.798 187.606L161.24 188.962C163.923 187.404 166.503 185.656 168.965 183.732L164.523 182.376C162.061 184.3 159.479 186.045 156.798 187.606Z" fill="#19F5EE"/>
<path d="M134.704 181.139L139.137 182.487C143.153 181.587 147.036 180.236 150.721 178.462L146.288 177.114C142.604 178.885 138.719 180.239 134.704 181.139Z" fill="#FCFCFC"/>
<path d="M150.704 178.406C147.014 180.181 143.128 181.54 139.108 182.442L141.327 183.118C145.347 182.216 149.235 180.861 152.923 179.082L150.704 178.406Z" fill="#FCFCFC"/>
<path d="M154.596 186.993L156.821 187.674C159.509 186.11 162.094 184.355 164.561 182.424L162.336 181.743C159.869 183.674 157.282 185.426 154.596 186.993Z" fill="#FCFCFC"/>
<path d="M150.192 185.684L154.634 187.04C157.317 185.482 159.897 183.734 162.359 181.81L157.917 180.454C155.455 182.378 152.873 184.123 150.192 185.684Z" fill="#FCFCFC"/>
<path d="M157.953 180.5L155.728 179.82C153.261 181.751 150.676 183.503 147.988 185.07L150.213 185.751C152.902 184.184 155.489 182.432 157.953 180.5Z" fill="#FCFCFC"/>
<path d="M141.311 183.076L148.038 185.124C150.717 183.571 153.293 181.828 155.751 179.911L152.903 179.043C149.216 180.818 145.329 182.174 141.311 183.076Z" fill="#FCFCFC"/>
<path d="M62.1348 133.406L59.9043 132.723C60.1398 134.487 60.4336 136.239 60.7813 137.976L63.0118 138.659C62.6616 136.922 62.3703 135.17 62.1348 133.406Z" fill="#E31010"/>
<path d="M66.5465 134.721L62.1023 133.363C62.337 135.116 62.6274 136.856 62.974 138.582L67.4182 139.94C67.0717 138.214 66.7813 136.473 66.5465 134.721Z" fill="#E75CEE"/>
<path d="M68.7405 135.328L66.51 134.645C66.7455 136.409 67.0393 138.161 67.3847 139.897L69.6151 140.581C69.2674 138.844 68.9761 137.092 68.7405 135.328Z" fill="#FCFC53"/>
<path d="M89.1772 146.239L91.4048 146.921C90.8329 145.137 90.3356 143.325 89.9146 141.489L87.687 140.807C88.1086 142.641 88.6054 144.455 89.1772 146.239Z" fill="#195FF5"/>
<path d="M84.7641 144.924L89.2054 146.28C88.6352 144.506 88.1392 142.706 87.7194 140.881L83.2781 139.526C83.6985 141.348 84.1939 143.151 84.7641 144.924Z" fill="#19F5EE"/>
<path d="M73.152 136.644L68.7078 135.287C68.9425 137.039 69.2328 138.779 69.5794 140.505L74.0237 141.863C73.6771 140.137 73.3868 138.397 73.152 136.644Z" fill="#FCFCFC"/>
<path d="M75.337 137.225L74.4832 136.964C74.9074 138.809 75.4072 140.635 75.9825 142.431L76.2184 142.503C75.8666 140.757 75.5737 138.997 75.337 137.225Z" fill="#FCFCFC"/>
<path d="M74.4959 136.99L73.1145 136.567C73.3502 138.332 73.6417 140.085 73.9897 141.823L75.9866 142.435C75.4183 140.648 74.9183 138.828 74.4959 136.99Z" fill="#FCFCFC"/>
<path d="M83.3084 139.567L81.0808 138.885C81.5024 140.719 81.9992 142.533 82.571 144.317L84.7986 144.999C84.2267 143.215 83.73 141.401 83.3084 139.567Z" fill="#FCFCFC"/>
<path d="M81.1149 138.959L76.6736 137.604C77.094 139.426 77.5894 141.229 78.1596 143.002L82.6009 144.358C82.0307 142.584 81.5353 140.781 81.1149 138.959Z" fill="#FCFCFC"/>
<path d="M75.3179 137.207C75.5536 138.972 75.8451 140.725 76.1931 142.464L78.19 143.075C77.617 141.287 77.1187 139.47 76.6969 137.63L75.3179 137.207Z" fill="#FCFCFC"/>
<path d="M167.63 170.854C166.704 171.668 165.751 172.45 164.779 173.197L167 173.875C167.972 173.128 168.926 172.346 169.851 171.532L167.63 170.854Z" fill="#E31010"/>
<path d="M166.979 173.818L171.41 175.164C172.38 174.422 173.331 173.646 174.254 172.837L169.822 171.491C168.897 172.299 167.949 173.074 166.979 173.818Z" fill="#E75CEE"/>
<path d="M174.236 172.776C173.31 173.59 172.357 174.372 171.384 175.119L173.606 175.797C174.578 175.05 175.531 174.268 176.457 173.454L174.236 172.776Z" fill="#FCFC53"/>
<path d="M193.962 181.698L196.186 182.378C196.971 181.558 197.739 180.72 198.486 179.86L196.262 179.18C195.516 180.038 194.749 180.879 193.962 181.698Z" fill="#195FF5"/>
<path d="M189.559 180.394L193.993 181.742C194.774 180.929 195.541 180.097 196.284 179.243L191.851 177.895C191.108 178.747 190.343 179.581 189.559 180.394Z" fill="#19F5EE"/>
<path d="M173.585 175.74L178.017 177.086C178.986 176.344 179.937 175.567 180.86 174.759L176.429 173.413C175.503 174.221 174.556 174.996 173.585 175.74Z" fill="#FCFCFC"/>
<path d="M180.841 174.698C179.915 175.512 178.964 176.295 177.989 177.041L180.211 177.719C181.183 176.972 182.136 176.19 183.062 175.376L180.841 174.698Z" fill="#FCFCFC"/>
<path d="M187.361 179.777L189.584 180.457C190.369 179.637 191.138 178.799 191.884 177.939L189.66 177.259C188.912 178.116 188.145 178.957 187.361 179.777Z" fill="#FCFCFC"/>
<path d="M182.953 178.472L187.386 179.82C188.168 179.007 188.934 178.175 189.678 177.321L185.245 175.973C184.501 176.825 183.737 177.659 182.953 178.472Z" fill="#FCFCFC"/>
<path d="M180.752 177.854L182.975 178.534C183.76 177.714 184.529 176.876 185.275 176.016L183.051 175.336C182.306 176.194 181.539 177.035 180.752 177.854Z" fill="#FCFCFC"/>
<path d="M180.19 177.715L180.762 177.89C181.551 177.063 182.324 176.219 183.075 175.352L183.061 175.347C182.127 176.169 181.17 176.957 180.19 177.715Z" fill="#FCFCFC"/>
<path d="M52.3772 82.188L50.1298 81.5004C49.0654 83.6561 48.0957 85.8837 47.2258 88.1819L49.4732 88.8695C50.3431 86.5713 51.3129 84.3438 52.3772 82.188Z" fill="#E31010"/>
<path d="M56.7821 83.5087L52.3157 82.1401C51.2577 84.284 50.2936 86.4993 49.4288 88.7848L53.8952 90.1535C54.76 87.8679 55.7241 85.6526 56.7821 83.5087Z" fill="#E75CEE"/>
<path d="M58.9835 84.1107L56.7361 83.423C55.6718 85.5788 54.702 87.8063 53.8298 90.1038L56.0772 90.7914C56.9494 88.4939 57.9192 86.2664 58.9835 84.1107Z" fill="#FCFC53"/>
<path d="M79.2448 90.0121L77.0001 89.3249C75.8129 91.425 74.7397 93.6213 73.7897 95.9062L76.0345 96.5934C76.9844 94.3085 78.0576 92.1121 79.2448 90.0121Z" fill="#195FF5"/>
<path d="M77.0431 89.4086L72.5793 88.0409C71.3986 90.1297 70.3311 92.3142 69.3862 94.5869L73.8501 95.9546C74.7949 93.6819 75.8624 91.4974 77.0431 89.4086Z" fill="#19F5EE"/>
<path d="M63.3876 85.4306L58.9212 84.062C57.8631 86.2059 56.8991 88.4212 56.0343 90.7068L60.5006 92.0754C61.3655 89.7898 62.3296 87.5746 63.3876 85.4306Z" fill="#FCFCFC"/>
<path d="M63.7954 85.4813C62.6062 87.5839 61.5311 89.7829 60.5796 92.0706L62.6817 92.7135C63.552 90.4144 64.5247 88.1868 65.5897 86.0301L63.7954 85.4813Z" fill="#FCFCFC"/>
<path d="M63.8323 85.4861L63.3726 85.3467C62.2968 87.5138 61.3167 89.7529 60.4377 92.063L60.5862 92.108C61.5448 89.8086 62.6308 87.599 63.8323 85.4861Z" fill="#FCFCFC"/>
<path d="M72.6391 88.0901L70.3944 87.4029C69.2073 89.5029 68.1339 91.6993 67.184 93.9842L69.4288 94.6713C70.3787 92.3865 71.4519 90.1901 72.6391 88.0901Z" fill="#FCFCFC"/>
<path d="M65.9731 86.1189C64.7924 88.2077 63.7249 90.3922 62.78 92.6649L67.2439 94.0326C68.1864 91.7592 69.2563 89.5754 70.437 87.4867L65.9731 86.1189Z" fill="#FCFCFC"/>
<path d="M66.0338 86.1271L65.5742 85.9877C64.4984 88.1548 63.5184 90.3939 62.637 92.7032L62.7854 92.7482C63.7464 90.4496 64.8324 88.2399 66.0338 86.1271Z" fill="#FCFCFC"/>
<path d="M153.1 77.0467C152.216 75.9083 151.295 74.8004 150.338 73.7261L148.124 73.0544C149.083 74.1293 150.004 75.2372 150.886 76.3749L153.1 77.0467Z" fill="#E31010"/>
<path d="M153.082 76.9936L157.505 78.3276C156.622 77.1965 155.702 76.0958 154.746 75.0284L150.323 73.6945C151.281 74.7625 152.201 75.8633 153.082 76.9936Z" fill="#E75CEE"/>
<path d="M154.73 74.9763C155.689 76.0513 156.61 77.1592 157.492 78.2969L159.706 78.9686C158.823 77.8302 157.901 76.7224 156.945 75.6481L154.73 74.9763Z" fill="#FCFC53"/>
<path d="M183.569 85.8827L185.787 86.5582C185.321 85.5679 184.835 84.5874 184.329 83.619L182.111 82.9435C182.617 83.9119 183.103 84.8925 183.569 85.8827Z" fill="#195FF5"/>
<path d="M179.161 84.5779L183.587 85.9171C183.122 84.9346 182.637 83.9618 182.132 83.001L177.705 81.6618C178.211 82.6226 178.696 83.5954 179.161 84.5779Z" fill="#19F5EE"/>
<path d="M159.688 78.9156L164.111 80.2495C163.228 79.1185 162.308 78.0177 161.352 76.9504L156.929 75.6165C157.887 76.6845 158.807 77.7852 159.688 78.9156Z" fill="#FCFCFC"/>
<path d="M164.097 80.2189L166.311 80.8906C165.428 79.7522 164.506 78.6443 163.549 77.57L161.335 76.8983C162.294 77.9733 163.215 79.0812 164.097 80.2189Z" fill="#FCFCFC"/>
<path d="M176.963 83.9607L179.181 84.6361C178.715 83.6459 178.229 82.6653 177.723 81.6969L175.505 81.0215C176.011 81.9899 176.497 82.9704 176.963 83.9607Z" fill="#FCFCFC"/>
<path d="M172.555 82.6559L176.982 83.9951C176.517 83.0126 176.032 82.0398 175.526 81.079L171.1 79.7398C171.605 80.7006 172.09 81.6734 172.555 82.6559Z" fill="#FCFCFC"/>
<path d="M170.357 82.0388L172.575 82.7142C172.109 81.724 171.623 80.7435 171.117 79.7751L168.899 79.0996C169.405 80.068 169.891 81.0485 170.357 82.0388Z" fill="#FCFCFC"/>
<path d="M163.535 77.5386C164.494 78.6075 165.414 79.7092 166.294 80.8405L170.376 82.0724C169.911 81.0925 169.426 80.1223 168.921 79.164L163.535 77.5386Z" fill="#FCFCFC"/>
<path d="M82.4411 63.5039L80.2091 62.82C77.8924 64.8717 75.6999 67.089 73.6488 69.4639L75.8807 70.1478C77.9319 67.7729 80.1244 65.5555 82.4411 63.5039Z" fill="#E31010"/>
<path d="M86.8441 64.8182L82.3923 63.4559C80.0819 65.4995 77.8954 67.708 75.8499 70.0735L80.3017 71.4358C82.3472 69.0703 84.5337 66.8618 86.8441 64.8182Z" fill="#E75CEE"/>
<path d="M89.0468 65.4259L86.8149 64.742C84.4981 66.7937 82.3056 69.0111 80.2545 71.386L82.4865 72.0699C84.5376 69.6949 86.7301 67.4776 89.0468 65.4259Z" fill="#FCFC53"/>
<path d="M112.796 72.3623L110.569 71.6806C107.635 73.4371 104.856 75.4715 102.266 77.7652L104.493 78.4469C107.082 76.1556 109.862 74.1188 112.796 72.3623Z" fill="#195FF5"/>
<path d="M102.307 77.8144C104.891 75.5312 107.666 73.5015 110.594 71.7512L106.149 70.3928C103.221 72.1432 100.447 74.1705 97.8618 76.4561L102.307 77.8144Z" fill="#19F5EE"/>
<path d="M93.4498 66.7403L88.998 65.378C86.6876 67.4215 84.5011 69.6301 82.4556 71.9956L86.9074 73.3579C88.9529 70.9923 91.1394 68.7838 93.4498 66.7403Z" fill="#FCFCFC"/>
<path d="M80.2797 71.4862C80.2692 71.4972 80.2563 71.5075 80.2465 71.5158L80.2538 71.5181C80.2612 71.509 80.2716 71.498 80.2797 71.4862Z" fill="#FCFCFC"/>
<path d="M89.1168 73.9598C91.162 71.599 93.345 69.3894 95.6518 67.348L93.4198 66.6641C91.1031 68.7158 88.9106 70.9331 86.8594 73.3081L89.0844 73.9898C89.0967 73.9803 89.1068 73.9701 89.1168 73.9598Z" fill="#FCFCFC"/>
<path d="M106.191 70.4416L103.964 69.7599C101.03 71.5164 98.2507 73.5508 95.6607 75.8446L97.8877 76.5263C100.477 74.235 103.257 72.1981 106.191 70.4416Z" fill="#FCFCFC"/>
<path d="M103.989 69.8292L99.5434 68.4709C96.6149 70.2212 93.8409 72.2485 91.2561 74.5342L95.7014 75.8925C98.2856 73.6093 101.06 71.5796 103.989 69.8292Z" fill="#FCFCFC"/>
<path d="M91.2816 74.6028C93.871 72.3115 96.6511 70.2747 99.5854 68.5182L97.3584 67.8365C94.4358 69.586 91.6664 71.6102 89.087 73.8913C89.077 73.9015 89.0693 73.9124 89.0599 73.9201L91.2816 74.6028Z" fill="#FCFCFC"/>
<path d="M95.6266 67.3056C93.3181 69.3489 91.1335 71.5605 89.0867 73.9235C91.6738 71.633 94.4522 69.598 97.383 67.8438L95.6266 67.3056Z" fill="#FCFCFC"/>
<path d="M178.149 107.451L180.382 108.135C179.528 104.146 178.312 100.259 176.764 96.5255L174.531 95.8415C176.079 99.5751 177.295 103.462 178.149 107.451Z" fill="#E31010"/>
<path d="M180.338 108.054L184.792 109.417C183.94 105.442 182.727 101.568 181.183 97.8466L176.729 96.4831C178.273 100.204 179.486 104.078 180.338 108.054Z" fill="#E75CEE"/>
<path d="M184.755 109.374L186.988 110.058C186.134 106.07 184.918 102.183 183.37 98.4489L181.137 97.7649C182.685 101.498 183.902 105.386 184.755 109.374Z" fill="#FCFC53"/>
<path d="M205.833 115.509L208.071 116.195C207.607 112.404 206.884 108.665 205.911 105.007L203.674 104.321C204.647 107.98 205.372 111.72 205.833 115.509Z" fill="#195FF5"/>
<path d="M201.415 114.187L205.876 115.553C205.416 111.778 204.693 108.051 203.724 104.406L199.263 103.039C200.233 106.685 200.956 110.411 201.415 114.187Z" fill="#19F5EE"/>
<path d="M186.944 109.976L191.398 111.339C190.546 107.364 189.333 103.49 187.788 99.7686L183.334 98.4051C184.879 102.126 186.092 106 186.944 109.976Z" fill="#FCFCFC"/>
<path d="M193.555 111.98C192.958 109.199 192.188 106.467 191.251 103.804C191.829 106.4 192.283 109.033 192.608 111.69L193.555 111.98Z" fill="#FCFCFC"/>
<path d="M187.746 99.6869C189.296 103.426 190.514 107.319 191.369 111.314L192.661 111.71C192.338 109.06 191.885 106.435 191.31 103.846C190.898 102.674 190.455 101.518 189.983 100.375L187.746 99.6869Z" fill="#FCFCFC"/>
<path d="M199.23 113.587L201.467 114.273C201.006 110.483 200.28 106.743 199.308 103.085L197.07 102.399C198.041 106.057 198.766 109.797 199.23 113.587Z" fill="#FCFCFC"/>
<path d="M192.657 101.117C193.627 104.763 194.35 108.489 194.809 112.265L199.27 113.631C198.808 109.855 198.087 106.129 197.118 102.484L192.657 101.117Z" fill="#FCFCFC"/>
<path d="M191.272 103.792C192.205 106.452 192.976 109.177 193.569 111.952L194.862 112.348C194.401 108.559 193.675 104.819 192.703 101.16L190.465 100.475C190.755 101.576 191.025 102.679 191.272 103.792Z" fill="#FCFCFC"/>
<path d="M191.356 103.802C191.109 102.69 190.84 101.584 190.549 100.488L190.028 100.328C190.5 101.472 190.943 102.631 191.356 103.802Z" fill="#FCFCFC"/>
<path d="M52.8588 146.786L50.6409 146.111C50.9104 146.855 51.1934 147.595 51.4852 148.33L53.7031 149.004C53.4113 148.27 53.1283 147.53 52.8588 146.786Z" fill="#E31010"/>
<path d="M57.2662 148.087L52.8413 146.751C53.1104 147.488 53.393 148.221 53.6842 148.949L58.1092 150.285C57.8179 149.557 57.5353 148.824 57.2662 148.087Z" fill="#E75CEE"/>
<path d="M59.4645 148.708L57.2466 148.033C57.5161 148.777 57.7992 149.517 58.091 150.251L60.3088 150.926C60.0171 150.192 59.7341 149.452 59.4645 148.708Z" fill="#FCFC53"/>
<path d="M82.6095 157.388L84.8254 158.06C84.3315 157.274 83.8527 156.477 83.3915 155.669L81.1755 154.996C81.6391 155.805 82.1155 156.601 82.6095 157.388Z" fill="#195FF5"/>
<path d="M76.7727 153.716C77.2332 154.517 77.7089 155.307 78.2044 156.087L82.6277 157.421C82.1345 156.641 81.6564 155.85 81.1959 155.049L76.7727 153.716Z" fill="#19F5EE"/>
<path d="M63.8719 150.009L59.447 148.673C59.7161 149.41 59.9986 150.143 60.2899 150.871L64.7149 152.207C64.4236 151.479 64.141 150.746 63.8719 150.009Z" fill="#FCFCFC"/>
<path d="M66.0707 150.63L63.8528 149.955C64.1223 150.699 64.4054 151.439 64.6972 152.174L66.915 152.848C66.6233 152.114 66.3403 151.374 66.0707 150.63Z" fill="#FCFCFC"/>
<path d="M76.7878 153.747L74.5718 153.074C75.033 153.882 75.5094 154.679 76.0057 155.466L78.2216 156.138C77.7253 155.352 77.249 154.555 76.7878 153.747Z" fill="#FCFCFC"/>
<path d="M70.1663 151.793C70.6268 152.594 71.1025 153.384 71.598 154.164L76.0212 155.497C75.528 154.718 75.05 153.927 74.5895 153.126L70.1663 151.793Z" fill="#FCFCFC"/>
<path d="M70.182 151.825L67.9661 151.152C68.4273 151.96 68.9037 152.757 69.4 153.544L71.616 154.216C71.1197 153.43 70.6433 152.633 70.182 151.825Z" fill="#FCFCFC"/>
<path d="M66.0547 150.597C66.3241 151.339 66.607 152.078 66.8987 152.812L69.4142 153.576C68.9201 152.789 68.4412 151.99 67.9798 151.182L66.0547 150.597Z" fill="#FCFCFC"/>
<path d="M73.7057 163.637L71.4902 162.965C71.9043 163.698 72.3306 164.421 72.7679 165.14L74.9834 165.812C74.546 165.093 74.1203 164.367 73.7057 163.637Z" fill="#E31010"/>
<path d="M78.1127 164.938L73.6904 163.607C74.1039 164.333 74.5295 165.05 74.9663 165.762L79.3885 167.094C78.9518 166.381 78.5267 165.662 78.1127 164.938Z" fill="#E75CEE"/>
<path d="M80.3107 165.559L78.0952 164.887C78.5092 165.62 78.9355 166.343 79.3729 167.062L81.5884 167.734C81.151 167.015 80.7253 166.289 80.3107 165.559Z" fill="#FCFC53"/>
<path d="M109.003 173.905L106.791 173.238C107.707 174.143 108.649 175.02 109.621 175.867L111.833 176.534C110.861 175.687 109.916 174.81 109.003 173.905Z" fill="#195FF5"/>
<path d="M102.385 171.956C103.3 172.855 104.241 173.726 105.212 174.568L109.631 175.893C108.662 175.052 107.719 174.18 106.805 173.281L102.385 171.956Z" fill="#19F5EE"/>
<path d="M80.2961 165.529C80.7096 166.255 81.1352 166.972 81.572 167.684L85.9942 169.016C85.5575 168.303 85.1318 167.586 84.7184 166.86L80.2961 165.529Z" fill="#FCFCFC"/>
<path d="M86.9164 167.482L84.7009 166.81C85.115 167.543 85.5412 168.266 85.9786 168.985L88.1941 169.657C87.7567 168.938 87.331 168.213 86.9164 167.482Z" fill="#FCFCFC"/>
<path d="M102.398 171.983L100.186 171.316C101.101 172.221 102.043 173.098 103.015 173.945L105.227 174.612C104.255 173.765 103.313 172.888 102.398 171.983Z" fill="#FCFCFC"/>
<path d="M95.7812 170.035C96.6957 170.935 97.6368 171.806 98.6077 172.647L103.027 173.972C102.058 173.132 101.115 172.26 100.2 171.36L95.7812 170.035Z" fill="#FCFCFC"/>
<path d="M95.7915 170.061L93.5793 169.394C94.4946 170.299 95.4368 171.176 96.4086 172.023L98.6208 172.69C97.6489 171.843 96.7068 170.966 95.7915 170.061Z" fill="#FCFCFC"/>
<path d="M86.9004 167.451C87.3135 168.17 87.7387 168.881 88.1751 169.587L96.4199 172.048C95.452 171.212 94.5091 170.344 93.5953 169.449L86.9004 167.451Z" fill="#FCFCFC"/>
<path d="M123.023 46.2446L120.81 45.5762C118.712 45.7697 116.632 46.0624 114.577 46.4484L116.79 47.1168C118.845 46.7307 120.922 46.4398 123.023 46.2446Z" fill="#E31010"/>
<path d="M127.426 47.5371L123.005 46.2074C120.909 46.4005 118.831 46.6923 116.778 47.0771L121.199 48.4067C123.252 48.0219 125.329 47.7325 127.426 47.5371Z" fill="#E75CEE"/>
<path d="M123.393 49.0414C125.446 48.6546 127.526 48.3619 129.626 48.1691L127.414 47.5008C125.316 47.6942 123.236 47.987 121.181 48.373L123.393 49.0414Z" fill="#FCFC53"/>
<path d="M188.541 68.0358L190.754 68.7041C189.155 67.2142 187.49 65.7902 185.762 64.4408L183.55 63.7724C185.275 65.1211 186.941 66.5427 188.541 68.0358Z" fill="#195FF5"/>
<path d="M188.554 68.0644C186.956 66.5816 185.292 65.1644 183.566 63.8216L179.146 62.4919C180.87 63.8341 182.533 65.2512 184.133 66.7347L188.554 68.0644Z" fill="#19F5EE"/>
<path d="M134.031 49.459L129.611 48.1293C127.515 48.3224 125.437 48.6142 123.384 48.999L127.805 50.3286C129.857 49.9438 131.932 49.6537 134.031 49.459Z" fill="#FCFCFC"/>
<path d="M129.999 50.9635C132.052 50.5767 134.131 50.2839 136.232 50.0912L134.02 49.4228C131.922 49.6163 129.842 49.909 127.787 50.2951L129.999 50.9635Z" fill="#FCFCFC"/>
<path d="M181.936 66.1137L184.148 66.782C182.549 65.2921 180.885 63.8681 179.157 62.5187L176.944 61.8503C178.67 63.199 180.335 64.6206 181.936 66.1137Z" fill="#FCFCFC"/>
<path d="M181.947 66.1424C180.35 64.6596 178.686 63.2424 176.96 61.8996L172.539 60.57C174.263 61.9121 175.927 63.3293 177.527 64.8128L181.947 66.1424Z" fill="#FCFCFC"/>
<path d="M175.331 64.1917L177.543 64.8601C175.944 63.3701 174.28 61.9461 172.552 60.5967L170.339 59.9284C172.065 61.277 173.73 62.6986 175.331 64.1917Z" fill="#FCFCFC"/>
<path d="M170.372 60.0662L136.196 50.0101C134.107 50.2019 132.036 50.4904 129.99 50.87L175.346 64.2158C173.752 62.7651 172.091 61.3813 170.372 60.0662Z" fill="#FCFCFC"/>
<path d="M34.5396 124.211L14.5664 118.286L14.0326 120.471L34.0058 126.396L34.5396 124.211Z" fill="#E31010"/>
<path d="M204.464 194.77L182.671 188.32L182.173 190.353L203.966 196.803L204.464 194.77Z" fill="#195FF5"/>
<path d="M214.135 156.906L200.757 152.914L200.229 155.082L213.607 159.074L214.135 156.906Z" fill="#19F5EE"/>
<path d="M143.9 162.018L130.522 158.025L129.994 160.193L143.372 164.186L143.9 162.018Z" fill="#195FF5"/>
<path d="M224.301 86.7214L210.924 82.7288L210.396 84.8969L223.773 88.8895L224.301 86.7214Z" fill="#195FF5"/>
<path d="M165.43 120.317L156.577 117.654L156.031 119.906L164.884 122.569L165.43 120.317Z" fill="#19F5EE"/>
<path d="M35.0532 136.561L26.2004 133.898L25.6546 136.15L34.5073 138.813L35.0532 136.561Z" fill="#19F5EE"/>
<path d="M208.089 71.1696L199.236 68.5069L198.69 70.7589L207.543 73.4215L208.089 71.1696Z" fill="#19F5EE"/>
<path d="M135.633 211.841L110.146 204.339L109.784 205.818L135.27 213.321L135.633 211.841Z" fill="#19F5EE"/>
<path d="M90.3782 119.226L81.5254 116.563L80.9795 118.815L89.8323 121.478L90.3782 119.226Z" fill="#FCFC53"/>
<path d="M99.413 203.84L90.5603 201.177L90.0144 203.429L98.8672 206.092L99.413 203.84Z" fill="#FCFC53"/>
<path d="M156.341 32.8483L147.488 30.1856L146.942 32.4376L155.795 35.1003L156.341 32.8483Z" fill="#FCFC53"/>
<path d="M70.0331 45.645L61.1804 42.9823L60.6346 45.2343L69.4873 47.897L70.0331 45.645Z" fill="#FCFC53"/>
<path d="M156.845 153.851L154.848 153.239L154.344 155.343L156.342 155.955L156.845 153.851Z" fill="#195FF5"/>
<path d="M42.0521 163.088L40.0549 162.476L39.5512 164.58L41.5483 165.192L42.0521 163.088Z" fill="#195FF5"/>
<path d="M151.837 80.7889L149.84 80.1772L149.336 82.279L151.334 82.8907L151.837 80.7889Z" fill="#195FF5"/>
<path d="M244.653 131.917L242.656 131.305L242.152 133.41L244.149 134.021L244.653 131.917Z" fill="#195FF5"/>
<path d="M236.96 129.679L234.963 129.067L234.459 131.172L236.456 131.783L236.96 129.679Z" fill="#195FF5"/>
<path d="M143.385 39.2397L124.291 33.579L123.802 35.5768L142.897 41.2375L143.385 39.2397Z" fill="#E31010"/>
<path d="M176.326 202.819L173.451 201.938L172.726 204.967L175.601 205.848L176.326 202.819Z" fill="#E31010"/>
<path d="M134.005 69.1869L116.684 64.0438L116.191 66.0658L133.512 71.2089L134.005 69.1869Z" fill="#E75CEE"/>
<path d="M158.621 210.059L141.3 204.916L140.806 206.938L158.127 212.081L158.621 210.059Z" fill="#E75CEE"/>
<path d="M66.931 59.9958L49.6099 54.8527L49.1161 56.8747L66.4372 62.0178L66.931 59.9958Z" fill="#E75CEE"/>
<path d="M88.9709 194.508L71.6497 189.365L71.1559 191.387L88.4771 196.53L88.9709 194.508Z" fill="#E75CEE"/>
<path d="M229.875 122.685L212.554 117.542L212.06 119.564L229.381 124.707L229.875 122.685Z" fill="#E75CEE"/>
<path d="M31.0981 89.59L28.2021 88.7029L27.4716 91.7542L30.3676 92.6412L31.0981 89.59Z" fill="#E75CEE"/>
</g>
</svg>
