<svg width="1440" height="797" viewBox="0 0 1440 797" fill="none" xmlns="http://www.w3.org/2000/svg">
<g clip-path="url(#clip0_395_5127)">
<rect width="1440" height="797" fill="url(#paint0_linear_395_5127)"/>
<g filter="url(#filter0_f_395_5127)">
<path d="M438.04 3.38281C438.129 3.31706 438.245 3.27381 438.372 3.25959C438.498 3.24536 438.627 3.26091 438.74 3.30391C439.133 3.4617 439.283 3.69123 439.19 3.99248C439.117 4.25548 438.893 4.39415 438.52 4.40849C438.227 4.41806 438.01 4.29851 437.87 4.04986C437.723 3.80121 437.78 3.57886 438.04 3.38281Z" fill="#86779A"/>
<path d="M679.59 4.9505C679.585 5.90518 680.146 6.68051 680.842 6.68225C681.537 6.68399 682.105 5.91148 682.11 4.95681C682.115 4.00213 681.554 3.2268 680.858 3.22506C680.163 3.22331 679.595 3.99582 679.59 4.9505Z" fill="#86779A"/>
<path d="M452.18 5.71392L451.92 6.55312C451.893 6.62485 451.83 6.67028 451.73 6.6894C451.57 6.71809 451.47 6.72765 451.43 6.71809C451.248 6.67166 451.088 6.59047 450.966 6.48341C450.844 6.37636 450.765 6.24759 450.738 6.11124C450.711 5.97488 450.737 5.83621 450.813 5.71045C450.89 5.58469 451.013 5.47669 451.17 5.39832C451.497 5.22618 451.823 5.29791 452.15 5.61351C452.166 5.62677 452.177 5.64281 452.182 5.66029C452.187 5.67777 452.186 5.69617 452.18 5.71392Z" fill="#86779A"/>
<path d="M60.51 7.7366C60.35 7.53576 60.2666 7.3158 60.26 7.07671C60.2533 6.82327 60.42 6.66069 60.76 6.58897C61.0933 6.52202 61.3833 6.55789 61.63 6.69656C61.89 6.84479 61.9833 7.04085 61.91 7.28472C61.7966 7.63857 61.62 7.93982 61.38 8.18847C61.3354 8.23209 61.2756 8.26654 61.2066 8.28837C61.1376 8.31019 61.0619 8.31862 60.9869 8.31281C60.9119 8.30699 60.8404 8.28714 60.7795 8.25525C60.7186 8.22335 60.6705 8.18054 60.64 8.13109C60.6066 8.06414 60.5866 7.9972 60.58 7.93025C60.5733 7.85853 60.55 7.79398 60.51 7.7366Z" fill="#86779A"/>
<path d="M336.72 13.9338C338.147 15.5213 338.263 17.1614 337.07 18.8542C336.697 19.3897 336.19 19.6934 335.55 19.7651C335.104 19.8135 334.649 19.7607 334.247 19.614C333.845 19.4674 333.518 19.2343 333.31 18.9474C332.243 17.4699 332.17 15.9564 333.09 14.4071C333.55 13.862 333.923 13.5082 334.21 13.3456C334.943 12.9391 335.78 13.1352 336.72 13.9338Z" fill="#86779A"/>
<path d="M1216.86 14.8662C1216.78 15.0336 1216.69 15.1651 1216.59 15.2607C1216.49 15.3565 1216.36 15.4297 1216.21 15.4708C1216.05 15.5119 1215.89 15.519 1215.73 15.4912C1215.57 15.4634 1215.42 15.402 1215.31 15.3149C1215.2 15.2277 1215.13 15.1189 1215.11 15.0025L1214.98 14.3354C1215.09 14.1155 1215.19 13.9505 1215.28 13.8405C1215.36 13.75 1215.48 13.6771 1215.61 13.6293C1215.75 13.5814 1215.9 13.5605 1216.05 13.5685C1216.2 13.5766 1216.35 13.6133 1216.47 13.675C1216.6 13.7367 1216.7 13.821 1216.76 13.9194C1216.91 14.1442 1216.94 14.4597 1216.86 14.8662Z" fill="#86779A"/>
<path d="M697.71 14.2781C698.517 15.2727 698.56 16.2458 697.84 17.1974C697.754 17.3108 697.627 17.4052 697.471 17.4706C697.316 17.5359 697.139 17.5696 696.959 17.5682C696.779 17.5667 696.603 17.53 696.45 17.4622C696.297 17.3943 696.172 17.2978 696.09 17.183C695.45 16.2936 695.5 15.3779 696.24 14.4359C696.707 14.1585 697.197 14.1059 697.71 14.2781Z" fill="#86779A"/>
<path d="M424.293 17.0554C424.211 17.8971 424.707 18.6077 425.401 18.6425C426.096 18.6773 426.725 18.0232 426.807 17.1815C426.889 16.3398 426.393 15.6292 425.699 15.5944C425.004 15.5595 424.375 16.2137 424.293 17.0554Z" fill="#170336"/>
<path d="M1097.32 17.6014C1097.37 18.1193 1097.86 18.5188 1098.41 18.4937C1098.97 18.4686 1099.38 18.0284 1099.34 17.5105C1099.29 16.9925 1098.8 16.5931 1098.25 16.6182C1097.69 16.6433 1097.28 17.0835 1097.32 17.6014Z" fill="#86779A"/>
<path d="M1128.94 17.6651C1128.94 18.2513 1129.48 18.7259 1130.13 18.7251C1130.79 18.7243 1131.32 18.2484 1131.32 17.6621C1131.32 17.0758 1130.78 16.6012 1130.13 16.602C1129.47 16.6028 1128.94 17.0788 1128.94 17.6651Z" fill="#170336"/>
<path d="M1435.87 20.99C1435.94 21.4226 1436.32 21.7451 1436.72 21.7104C1437.12 21.6756 1437.39 21.2968 1437.31 20.8642C1437.24 20.4316 1436.86 20.1091 1436.46 20.1438C1436.06 20.1786 1435.79 20.5574 1435.87 20.99Z" fill="#170336"/>
<path d="M112.73 22.4764C112.977 21.807 113.26 21.4507 113.58 21.4077C114.067 21.3455 114.367 21.4866 114.48 21.8309C114.8 22.7633 114.553 23.2582 113.74 23.3156C113.588 23.3256 113.435 23.3096 113.294 23.2689C113.153 23.2282 113.028 23.164 112.929 23.0817C112.83 22.9994 112.76 22.9015 112.725 22.7961C112.691 22.6908 112.692 22.5811 112.73 22.4764Z" fill="#170336"/>
<path d="M128.164 23.3378C127.664 24.0929 127.776 24.8813 128.415 25.0988C129.054 25.3163 129.976 24.8805 130.476 24.1254C130.976 23.3704 130.864 22.582 130.225 22.3645C129.586 22.147 128.664 22.5828 128.164 23.3378Z" fill="#170336"/>
<path d="M447.161 23.9254C447.326 24.3939 447.903 24.6934 448.449 24.5943C448.995 24.4951 449.304 24.035 449.139 23.5665C448.974 23.0979 448.397 22.7985 447.851 22.8976C447.305 22.9967 446.996 23.4569 447.161 23.9254Z" fill="#170336"/>
<path d="M1176.09 33.7589C1175.82 33.2138 1175.71 32.7213 1175.74 32.2814C1175.76 32.0279 1175.94 31.8606 1176.27 31.7793C1176.4 31.7458 1176.52 31.7339 1176.65 31.7434C1177.01 31.7769 1177.21 31.9227 1177.24 32.181C1177.33 32.8074 1177.18 33.3501 1176.8 33.8091C1176.76 33.8563 1176.71 33.8948 1176.64 33.9198C1176.57 33.9448 1176.5 33.9552 1176.42 33.9499C1176.35 33.9446 1176.28 33.9237 1176.22 33.8898C1176.16 33.8559 1176.11 33.8104 1176.09 33.7589Z" fill="#86779A"/>
<path d="M549.98 33.4166C549.991 33.9316 550.363 34.3449 550.81 34.3398C551.258 34.3348 551.611 33.9133 551.6 33.3984C551.589 32.8835 551.217 32.4702 550.77 32.4752C550.322 32.4802 549.969 32.9017 549.98 33.4166Z" fill="#200C51"/>
<path d="M748.841 34.8595C748.804 35.3103 749.118 35.6904 749.542 35.7085C749.967 35.7266 750.341 35.3758 750.379 34.925C750.416 34.4742 750.102 34.0941 749.678 34.076C749.253 34.0579 748.879 34.4087 748.841 34.8595Z" fill="#170336"/>
<path d="M1398.56 37.7757C1399.33 38.4164 1399.25 38.9137 1398.32 39.2676C1398.18 39.3209 1398.03 39.349 1397.87 39.3496C1397.71 39.3502 1397.55 39.3231 1397.41 39.2708C1397.27 39.2186 1397.15 39.1426 1397.07 39.0495C1396.98 38.9565 1396.92 38.8491 1396.9 38.7368C1396.83 38.3495 1396.97 38.0243 1397.31 37.7613C1397.73 37.4314 1398.15 37.4362 1398.56 37.7757Z" fill="#170336"/>
<path d="M1300.05 50.8299C1299.86 51.4132 1299.51 51.6762 1298.99 51.6189C1298.59 51.571 1298.31 51.4658 1298.14 51.3033C1298.14 50.739 1298.28 50.311 1298.55 50.0194C1298.89 49.6464 1299.23 49.5938 1299.57 49.8616C1299.8 50.0385 1299.96 50.3612 1300.05 50.8299Z" fill="#86779A"/>
<path d="M727.151 53.7544C727.184 54.3442 727.627 54.8103 728.14 54.7955C728.653 54.7807 729.042 54.2906 729.009 53.7009C728.976 53.1111 728.533 52.645 728.02 52.6598C727.507 52.6746 727.118 53.1646 727.151 53.7544Z" fill="#86779A"/>
<path d="M950.033 55.6299C950.111 56.4718 950.795 57.1247 951.561 57.0882C952.327 57.0517 952.885 56.3397 952.807 55.4977C952.729 54.6558 952.045 54.0029 951.279 54.0394C950.513 54.0759 949.955 54.788 950.033 55.6299Z" fill="#86779A"/>
<path d="M1259.33 54.9893C1259.51 55.4399 1260.03 55.7285 1260.51 55.6338C1260.99 55.5392 1261.24 55.0971 1261.07 54.6464C1260.89 54.1958 1260.37 53.9072 1259.89 54.0019C1259.41 54.0965 1259.16 54.5386 1259.33 54.9893Z" fill="#170336"/>
<path d="M1283.15 54.5309C1283.5 54.354 1283.79 54.3899 1284.03 54.6385C1284.45 55.0689 1284.37 55.3916 1283.79 55.6068C1283.68 55.6448 1283.57 55.6674 1283.45 55.6731C1283.33 55.6788 1283.22 55.6676 1283.11 55.6402C1282.99 55.6127 1282.89 55.5696 1282.81 55.5134C1282.72 55.4571 1282.65 55.3889 1282.6 55.3127C1282.44 55.0593 1282.62 54.7987 1283.15 54.5309Z" fill="#170336"/>
<path d="M1235.89 57.1059C1235.76 57.4741 1235.53 57.7299 1235.22 57.8734C1234.88 58.0312 1234.59 57.9929 1234.35 57.7586L1234.04 57.4574C1234.03 57.2709 1234.08 57.094 1234.18 56.9266C1234.29 56.7306 1234.47 56.6182 1234.71 56.5895C1235.12 56.5417 1235.51 56.7138 1235.89 57.1059Z" fill="#86779A"/>
<path d="M1228.33 57.4646V58.5261C1228.33 58.6368 1228.29 58.7455 1228.2 58.8371C1228.11 58.9288 1227.99 58.999 1227.85 59.0383C1227.7 59.0775 1227.54 59.0838 1227.39 59.0563C1227.24 59.0289 1227.11 58.9689 1227.01 58.8847C1226.72 58.6504 1226.53 58.3755 1226.44 58.0599L1226.86 57.2709C1227 57.0127 1227.26 56.9075 1227.64 56.9553C1227.95 56.9888 1228.18 57.1585 1228.33 57.4646Z" fill="#86779A"/>
<path d="M870.46 60.9863C869.26 61.0198 868.683 60.7568 868.73 60.1973C868.77 59.7144 868.797 59.2027 868.81 58.6624C868.983 58.5237 869.247 58.452 869.6 58.4472C869.953 58.4472 870.21 58.5572 870.37 58.7771C870.883 59.4801 870.913 60.2165 870.46 60.9863Z" fill="#86779A"/>
<path d="M647.189 65.7419C647.474 66.1752 648.123 66.3852 648.637 66.2108C649.151 66.0364 649.337 65.5438 649.051 65.1104C648.766 64.6771 648.117 64.4672 647.603 64.6415C647.089 64.8159 646.903 65.3086 647.189 65.7419Z" fill="#170336"/>
<path d="M1303.59 65.3975C1303.56 65.823 1303.41 66.1721 1303.16 66.4447C1303.11 66.5042 1303.03 66.5527 1302.94 66.5853C1302.86 66.6179 1302.76 66.6335 1302.66 66.6306C1302.56 66.6277 1302.46 66.6064 1302.38 66.5688C1302.3 66.5311 1302.23 66.4785 1302.18 66.416C1301.99 66.1769 1301.88 65.8326 1301.83 65.3831C1302.07 65.2062 1302.29 65.0819 1302.49 65.0102C1302.98 64.8284 1303.35 64.9575 1303.59 65.3975Z" fill="#86779A"/>
<path d="M843.33 69.9378C843.203 70.7124 843.31 71.4775 843.65 72.233C843.723 72.4004 843.643 72.5104 843.41 72.563L843.1 72.6347C842.88 72.6873 842.72 72.6371 842.62 72.4841L841.34 70.5546C841.147 70.1482 841.117 69.7752 841.25 69.4357C841.35 69.1918 841.567 69.034 841.9 68.9623C842.233 68.8906 842.56 68.8977 842.88 68.9838C843.22 69.0699 843.38 69.242 843.36 69.5002L843.33 69.9378Z" fill="#86779A"/>
<path d="M1226.69 71.8457L1226.49 73.7536C1225.23 76.1397 1223.69 76.3167 1221.87 74.2844C1221.24 72.5008 1221.49 70.8057 1222.64 69.199C1225.19 68.9599 1226.54 69.8421 1226.69 71.8457Z" fill="#86779A"/>
<path d="M1296.48 75.3952C1296.55 76.0668 1297.15 76.5828 1297.81 76.5477C1298.48 76.5126 1298.97 75.9397 1298.9 75.268C1298.83 74.5964 1298.23 74.0804 1297.57 74.1155C1296.9 74.1506 1296.41 74.7236 1296.48 75.3952Z" fill="#86779A"/>
<path d="M16.83 76.1923C16.31 76.6514 15.75 76.7064 15.15 76.3573C14.8233 75.4057 15.1067 74.9467 16 74.9802C16.7667 75.0089 17.0433 75.4129 16.83 76.1923Z" fill="#86779A"/>
<path d="M703.043 74.8548L702.883 74.85C702.26 74.8313 701.733 75.1787 701.707 75.6259L701.615 77.1882C701.589 77.6354 702.074 78.0132 702.697 78.0319L702.857 78.0367C703.481 78.0555 704.007 77.7081 704.033 77.2609L704.125 75.6986C704.151 75.2513 703.666 74.8736 703.043 74.8548Z" fill="#86779A"/>
<path d="M1408.31 80.9119C1408.18 80.6537 1408.21 80.2114 1408.4 79.585C1408.46 79.3842 1408.63 79.2766 1408.92 79.2622C1409.03 79.2575 1409.13 79.2646 1409.23 79.2838C1409.44 79.3172 1409.55 79.4081 1409.58 79.5563C1409.69 80.1779 1409.73 80.594 1409.69 80.8044C1409.43 82.1624 1408.97 82.1982 1408.31 80.9119Z" fill="#86779A"/>
<path d="M761.973 81.1307C761.927 81.4778 762.198 81.78 762.577 81.8057C762.957 81.8314 763.301 81.5709 763.347 81.2239C763.393 80.8768 763.122 80.5746 762.743 80.5489C762.363 80.5232 762.019 80.7837 761.973 81.1307Z" fill="#170336"/>
<path d="M118.87 81.7546C118.864 82.2418 119.123 82.6385 119.449 82.6405C119.775 82.6425 120.044 82.2492 120.05 81.762C120.056 81.2748 119.797 80.8781 119.471 80.8761C119.145 80.8741 118.876 81.2674 118.87 81.7546Z" fill="#86779A"/>
<path d="M598.87 83.2343C598.878 84.395 599.557 85.3334 600.385 85.3303C601.214 85.3272 601.878 84.3837 601.87 83.2231C601.861 82.0624 601.183 81.124 600.355 81.1272C599.526 81.1303 598.862 82.0737 598.87 83.2343Z" fill="#86779A"/>
<path d="M93.3157 82.5652C93.3841 82.9702 93.7906 83.2681 94.2238 83.2305C94.6569 83.1929 94.9526 82.8341 94.8843 82.429C94.816 82.024 94.4094 81.7261 93.9763 81.7637C93.5431 81.8013 93.2474 82.1601 93.3157 82.5652Z" fill="#170336"/>
<path d="M538.47 83.6672C538.811 83.8295 539.248 83.7871 539.446 83.5726C539.645 83.3582 539.53 83.0528 539.19 82.8906C538.849 82.7284 538.412 82.7707 538.214 82.9852C538.015 83.1997 538.13 83.505 538.47 83.6672Z" fill="#170336"/>
<path d="M328.21 84.7278C328.862 84.7278 329.39 84.3488 329.39 83.8814C329.39 83.414 328.862 83.035 328.21 83.035C327.558 83.035 327.03 83.414 327.03 83.8814C327.03 84.3488 327.558 84.7278 328.21 84.7278Z" fill="#170336"/>
<path d="M540.55 87.6399L540.54 88.3213C540.538 88.4493 540.495 88.5752 540.416 88.6897C540.336 88.8043 540.222 88.9043 540.081 88.9823C539.941 89.0603 539.778 89.1143 539.604 89.1402C539.431 89.1661 539.251 89.1632 539.08 89.1318C538.193 88.9692 537.9 88.4049 538.2 87.439C539.047 86.8174 539.83 86.8843 540.55 87.6399Z" fill="#86779A"/>
<path d="M986.78 91.6637C987.21 93.629 986.54 98.7144 982.04 98.1406C978.68 97.7031 978.45 94.8842 978.49 92.7109C978.37 91.6207 978.82 90.6452 979.84 89.7845C982.75 87.3314 985.81 89.1676 986.78 91.6637Z" fill="#86779A"/>
<path d="M823 93.5358C822.673 93.751 822.32 93.6553 821.94 93.2489L821.82 91.8359C821.8 91.5681 821.977 91.4175 822.35 91.384C822.537 91.3696 822.713 91.3816 822.88 91.4198C823.213 91.5011 823.393 91.6685 823.42 91.9219C823.493 92.491 823.353 93.0289 823 93.5358Z" fill="#86779A"/>
<path d="M65.25 95.042C65.3233 95.1281 65.39 95.25 65.45 95.4078C65.4868 95.5118 65.4816 95.6211 65.4352 95.723C65.3888 95.8249 65.303 95.9154 65.1878 95.9837C65.0726 96.0521 64.9327 96.0956 64.7844 96.1092C64.6361 96.1228 64.4855 96.1059 64.35 96.0605C63.79 95.8693 63.54 95.5322 63.6 95.0492C63.6109 94.9579 63.6658 94.8722 63.7552 94.8067C63.8446 94.7413 63.963 94.7002 64.09 94.6906C64.2233 94.681 64.35 94.6882 64.47 94.7121C64.87 94.7982 65.13 94.9081 65.25 95.042Z" fill="#170336"/>
<path d="M331.752 96.4143C331.809 96.9595 332.172 97.3843 332.563 97.3632C332.955 97.3421 333.225 96.8831 333.168 96.338C333.111 95.7928 332.748 95.368 332.357 95.3891C331.966 95.4102 331.695 95.8692 331.752 96.4143Z" fill="#170336"/>
<path d="M525.01 96.5698C525.223 96.4933 525.41 96.5148 525.57 96.6344C525.857 96.8448 525.88 97.0886 525.64 97.366C525.58 97.4342 525.498 97.4909 525.4 97.5311C525.303 97.5713 525.193 97.5937 525.081 97.5966C524.968 97.5994 524.857 97.5825 524.755 97.5473C524.654 97.5121 524.567 97.4597 524.5 97.3947C524.187 97.0791 524.357 96.8041 525.01 96.5698Z" fill="#86779A"/>
<path d="M440.4 99.1894C440.41 100.6 441.457 101.739 442.739 101.734C444.02 101.729 445.05 100.582 445.04 99.172C445.03 97.7617 443.983 96.6224 442.701 96.6272C441.42 96.6321 440.39 97.7792 440.4 99.1894Z" fill="#86779A"/>
<path d="M300.92 99.2739C300.747 99.5034 300.503 99.5536 300.19 99.4245C300.037 99.3576 299.853 99.25 299.64 99.1018C299.453 98.9727 299.35 98.8268 299.33 98.6642C299.283 98.2817 299.457 98.0211 299.85 97.8824C300.31 97.7294 300.7 97.7772 301.02 98.0259C301.38 98.2984 301.347 98.7145 300.92 99.2739Z" fill="#170336"/>
<path d="M244.56 99.9625C244.607 99.9051 244.627 99.8405 244.62 99.7688C244.616 99.7379 244.625 99.7071 244.648 99.6807C244.67 99.6543 244.703 99.6334 244.743 99.6209C244.784 99.6084 244.829 99.6048 244.873 99.6108C244.917 99.6167 244.958 99.6318 244.99 99.654C246.037 100.443 246.19 101.151 245.45 101.777C245.377 101.839 245.283 101.887 245.178 101.917C245.072 101.947 244.958 101.958 244.845 101.949C244.733 101.94 244.625 101.911 244.531 101.865C244.438 101.818 244.362 101.756 244.31 101.684C243.95 101.167 244.033 100.594 244.56 99.9625Z" fill="#86779A"/>
<path d="M702.94 103.95C703.153 104.271 703.26 104.565 703.26 104.833C703.267 105.258 703.093 105.519 702.74 105.615C702.38 105.705 702.13 105.622 701.99 105.363C701.85 105.096 701.837 104.785 701.95 104.431C702.003 104.092 702.333 103.931 702.94 103.95Z" fill="#86779A"/>
<path d="M594.9 109.38C595.2 110.915 594.68 112.132 593.34 113.031C593.133 113.169 592.885 113.271 592.614 113.331C592.344 113.39 592.058 113.405 591.778 113.375C591.498 113.345 591.231 113.27 590.996 113.156C590.761 113.042 590.564 112.891 590.42 112.715C589.66 111.778 589.32 110.858 589.4 109.954C589.307 108.189 589.963 107.171 591.37 106.898C593.443 106.502 594.62 107.329 594.9 109.38Z" fill="#86779A"/>
<path d="M1166.53 112.039L1166.11 112.043C1165.62 112.047 1165.24 112.33 1165.25 112.675L1165.27 114.31C1165.28 114.655 1165.67 114.931 1166.15 114.926L1166.57 114.923C1167.05 114.918 1167.44 114.636 1167.43 114.291L1167.41 112.656C1167.4 112.311 1167.01 112.035 1166.53 112.039Z" fill="#86779A"/>
<path d="M582.65 115.578C582.652 116.224 583.056 116.747 583.553 116.746C584.05 116.746 584.452 116.222 584.45 115.576C584.448 114.93 584.044 114.408 583.547 114.408C583.05 114.409 582.648 114.933 582.65 115.578Z" fill="#86779A"/>
<path d="M341.92 120.44C341.8 120.665 341.573 120.792 341.24 120.821C341.013 120.84 340.79 120.78 340.57 120.641C340.037 119.967 339.957 119.233 340.33 118.439C340.369 118.359 340.436 118.287 340.525 118.231C340.613 118.174 340.721 118.135 340.836 118.118C340.951 118.101 341.07 118.105 341.182 118.131C341.293 118.157 341.392 118.204 341.47 118.267C342.243 118.879 342.393 119.604 341.92 120.44Z" fill="#86779A"/>
<path d="M135.35 125.361C134.917 125.825 134.397 125.908 133.79 125.612C133.557 125.43 133.407 125.244 133.34 125.052C133.267 124.847 133.327 124.658 133.52 124.486C133.8 124.237 134.177 124.153 134.65 124.235C135.017 124.292 135.217 124.455 135.25 124.722L135.35 125.361Z" fill="#86779A"/>
<path d="M118.98 125.906C119.494 125.906 119.91 125.607 119.91 125.239C119.91 124.87 119.494 124.572 118.98 124.572C118.466 124.572 118.05 124.87 118.05 125.239C118.05 125.607 118.466 125.906 118.98 125.906Z" fill="#170336"/>
<path d="M108.18 129.198C108.126 129.2 108.072 129.194 108.022 129.181C107.971 129.168 107.924 129.148 107.884 129.122C107.844 129.096 107.812 129.065 107.789 129.03C107.766 128.995 107.753 128.957 107.75 128.918L107.74 128.775C107.703 128.292 107.789 127.825 107.98 127.474C108.171 127.123 108.451 126.918 108.76 126.903L108.98 126.896C109.29 126.884 109.602 127.064 109.847 127.398C110.093 127.731 110.252 128.19 110.29 128.675L110.3 128.818C110.306 128.895 110.269 128.97 110.198 129.028C110.127 129.085 110.027 129.121 109.92 129.126L108.18 129.198Z" fill="#86779A"/>
<path d="M627.16 128.431C628.12 129.435 628.37 130.489 626.44 130.948C626.027 130.853 625.87 130.571 625.97 130.102C625.99 129.987 626.02 129.76 626.06 129.421C626.113 128.928 626.48 128.598 627.16 128.431Z" fill="#86779A"/>
<path d="M648.93 134.798C648.937 135.558 649.396 136.173 649.953 136.17C650.511 136.167 650.957 135.548 650.95 134.788C650.943 134.027 650.484 133.413 649.927 133.416C649.369 133.418 648.923 134.037 648.93 134.798Z" fill="#86779A"/>
<path d="M448.39 136.313C448.383 136.39 448.353 136.457 448.3 136.514C448.261 136.559 448.21 136.596 448.149 136.625C448.088 136.654 448.019 136.673 447.947 136.681C447.875 136.69 447.802 136.687 447.731 136.673C447.661 136.659 447.596 136.634 447.54 136.6C447.007 136.28 446.79 135.895 446.89 135.446C446.95 135.173 447.167 135.013 447.54 134.965C448.06 134.898 448.473 135.025 448.78 135.345C448.83 135.399 448.861 135.46 448.871 135.524C448.882 135.587 448.871 135.651 448.84 135.711C448.787 135.811 448.707 135.9 448.6 135.976C448.473 136.072 448.403 136.184 448.39 136.313Z" fill="#170336"/>
<path d="M546.13 135.768C546.01 135.701 545.94 135.594 545.92 135.446C545.911 135.384 545.925 135.322 545.961 135.267C545.997 135.211 546.053 135.162 546.123 135.127C546.194 135.092 546.276 135.071 546.362 135.067C546.447 135.062 546.533 135.074 546.61 135.101C546.923 135.211 547.14 135.35 547.26 135.517C547.302 135.578 547.324 135.644 547.323 135.712C547.322 135.779 547.298 135.846 547.254 135.905C547.21 135.965 547.147 136.016 547.07 136.055C546.992 136.093 546.903 136.118 546.81 136.127C546.357 136.165 546.13 136.046 546.13 135.768Z" fill="#170336"/>
<path d="M343.011 144.043C343.074 145.397 344.163 146.47 345.443 146.44C346.724 146.409 347.711 145.287 347.649 143.933C347.586 142.579 346.497 141.506 345.217 141.536C343.936 141.567 342.949 142.689 343.011 144.043Z" fill="#86779A"/>
<path d="M575.976 143.023C576.197 143.517 576.87 143.804 577.48 143.663C578.09 143.523 578.406 143.009 578.184 142.514C577.963 142.02 577.29 141.734 576.68 141.874C576.07 142.015 575.754 142.529 575.976 143.023Z" fill="#170336"/>
<path d="M175.723 143.802C176.138 144.152 176.823 144.224 177.252 143.962C177.681 143.7 177.692 143.204 177.277 142.854C176.862 142.504 176.177 142.433 175.748 142.695C175.319 142.957 175.308 143.453 175.723 143.802Z" fill="#86779A"/>
<path d="M424.02 144.422C424.042 145.024 424.481 145.504 425 145.494C425.519 145.484 425.922 144.988 425.9 144.386C425.878 143.785 425.439 143.305 424.92 143.314C424.401 143.324 423.998 143.82 424.02 144.422Z" fill="#86779A"/>
<path d="M1045.12 144.49C1045.65 144.079 1046.07 144.065 1046.38 144.447C1046.48 144.572 1046.52 144.72 1046.49 144.863C1046.32 145.537 1045.89 145.676 1045.2 145.279C1045.12 145.232 1045.05 145.174 1045.01 145.109C1044.96 145.043 1044.93 144.971 1044.92 144.897C1044.92 144.823 1044.93 144.749 1044.96 144.679C1045 144.609 1045.05 144.545 1045.12 144.49Z" fill="#86779A"/>
<path d="M307.751 148.499C307.816 149.52 308.45 150.329 309.167 150.305C309.884 150.282 310.413 149.435 310.349 148.414C310.284 147.393 309.65 146.585 308.933 146.608C308.216 146.631 307.687 147.478 307.751 148.499Z" fill="#86779A"/>
<path d="M442.79 147.137C442.824 147.108 442.871 147.088 442.923 147.081C442.975 147.073 443.03 147.078 443.08 147.094C444.3 147.5 444.767 148.129 444.48 148.98C444.393 149.248 444.16 149.406 443.78 149.454C443.04 149.545 442.53 149.365 442.25 148.916C441.89 148.352 442.07 147.759 442.79 147.137Z" fill="#86779A"/>
<path d="M478.04 155.929L477.82 155.941C477.347 155.969 476.995 156.267 477.034 156.607L477.193 157.994C477.232 158.333 477.647 158.586 478.12 158.558L478.34 158.545C478.813 158.517 479.165 158.219 479.126 157.88L478.967 156.493C478.928 156.153 478.513 155.901 478.04 155.929Z" fill="#170336"/>
<path d="M1085.93 156.786C1085.93 157.301 1086.27 157.718 1086.69 157.717C1087.11 157.716 1087.45 157.297 1087.45 156.782C1087.45 156.267 1087.11 155.851 1086.69 155.852C1086.27 155.853 1085.93 156.271 1085.93 156.786Z" fill="#86779A"/>
<path d="M228.47 159.373C228.19 159.904 227.86 159.923 227.48 159.431C226.747 158.489 226.77 157.769 227.55 157.272C228.11 156.923 228.497 157.002 228.71 157.509C228.93 158.025 228.85 158.647 228.47 159.373Z" fill="#170336"/>
<path d="M71.05 160.786C69.2433 160.294 67.97 159.816 67.23 159.352C67.1547 159.304 67.1009 159.241 67.0756 159.171C67.0502 159.101 67.0544 159.027 67.0876 158.958C67.1208 158.89 67.1815 158.83 67.262 158.787C67.3425 158.743 67.4393 158.718 67.54 158.714L70.21 158.599C71.03 158.565 71.52 158.836 71.68 159.409L71.93 160.249C72.09 160.808 71.7967 160.987 71.05 160.786Z" fill="#170336"/>
<path d="M145.92 161.095C145.866 161.151 145.786 161.193 145.693 161.212C145.601 161.232 145.501 161.229 145.41 161.202C145.117 161.116 144.897 160.966 144.75 160.751C144.583 160.507 144.667 160.32 145 160.191C145.413 160.033 145.79 160.122 146.13 160.457C146.263 160.59 146.193 160.803 145.92 161.095Z" fill="#170336"/>
<path d="M783.76 165.777C783.772 166.236 784.185 166.603 784.682 166.596C785.179 166.589 785.572 166.211 785.56 165.752C785.548 165.292 785.135 164.926 784.638 164.932C784.141 164.939 783.748 165.317 783.76 165.777Z" fill="#86779A"/>
<path d="M683.33 165.485C683.29 166.627 682.787 166.931 681.82 166.396C681.62 165.688 681.847 165.262 682.5 165.119C682.84 165.047 683.117 165.169 683.33 165.485Z" fill="#86779A"/>
<path d="M425.98 167.091C426.1 167.464 426.11 167.749 426.01 167.945C425.965 168.04 425.888 168.125 425.787 168.195C425.687 168.264 425.564 168.315 425.43 168.344C425.296 168.373 425.155 168.378 425.017 168.36C424.88 168.342 424.751 168.3 424.64 168.239C424.313 168.062 424.17 167.797 424.21 167.443C424.33 167.108 424.533 166.883 424.82 166.768C425.307 166.572 425.693 166.68 425.98 167.091Z" fill="#86779A"/>
<path d="M1311.46 171.753L1310.67 170.749L1310.75 170.29C1310.76 170.206 1310.81 170.125 1310.87 170.055C1310.94 169.986 1311.04 169.931 1311.14 169.894C1311.25 169.858 1311.37 169.843 1311.49 169.849C1311.61 169.856 1311.72 169.884 1311.82 169.932C1312.53 170.281 1312.88 170.759 1312.85 171.366C1312.82 171.835 1312.36 171.964 1311.46 171.753Z" fill="#86779A"/>
<path d="M690.42 175.49L690.36 176.538C690.327 177.078 690.017 177.181 689.43 176.846C689.083 176.65 689.007 176.382 689.2 176.043C689.793 174.967 690.303 173.939 690.73 172.958C690.903 172.552 691.28 172.401 691.86 172.507L692.12 172.55C692.212 172.567 692.297 172.598 692.372 172.639C692.446 172.681 692.508 172.733 692.553 172.792C692.598 172.852 692.625 172.917 692.633 172.983C692.642 173.05 692.63 173.117 692.6 173.181C692.307 173.831 691.783 174.34 691.03 174.709C690.85 174.798 690.701 174.915 690.595 175.051C690.489 175.186 690.429 175.337 690.42 175.49Z" fill="#170336"/>
<path d="M1160 173.611C1160.13 173.415 1160.34 173.367 1160.61 173.468C1161.05 173.63 1161.31 173.886 1161.39 174.235C1161.47 174.637 1161.23 174.821 1160.66 174.787C1159.72 174.725 1159.5 174.333 1160 173.611Z" fill="#170336"/>
<path d="M987.7 177.758C987.717 178.249 988.115 178.64 988.59 178.632C989.065 178.623 989.436 178.219 989.42 177.728C989.403 177.236 989.004 176.845 988.53 176.853C988.055 176.862 987.683 177.267 987.7 177.758Z" fill="#86779A"/>
<path d="M204.94 178.928C204.933 179.943 205.504 180.767 206.217 180.769C206.929 180.772 207.513 179.952 207.52 178.938C207.527 177.924 206.956 177.1 206.243 177.097C205.531 177.094 204.947 177.914 204.94 178.928Z" fill="#86779A"/>
<path d="M815.52 178.133C815.516 178.557 815.853 178.902 816.273 178.905C816.692 178.907 817.036 178.565 817.04 178.141C817.044 177.717 816.707 177.372 816.287 177.37C815.868 177.368 815.524 177.709 815.52 178.133Z" fill="#86779A"/>
<path d="M1440.3 184.155C1440.47 184.667 1440.29 184.968 1439.76 185.059C1438.71 185.231 1438.23 184.922 1438.32 184.133C1438.5 183.708 1438.72 183.447 1438.99 183.352C1439.7 183.089 1440.13 183.356 1440.3 184.155Z" fill="#86779A"/>
<path d="M357.56 186.931C356.76 185.711 356.62 184.786 357.14 184.155C357.347 183.906 357.653 183.784 358.06 183.789C358.953 183.794 359.403 184.167 359.41 184.908C359.41 185.917 359.14 186.63 358.6 187.046C358.173 187.375 357.827 187.337 357.56 186.931Z" fill="#86779A"/>
<path d="M1130.95 187.971C1130.67 189.066 1130.15 189.831 1129.4 190.266C1128.83 190.591 1128.27 190.591 1127.7 190.266C1127.11 189.931 1126.56 189.26 1126.04 188.251L1127.28 186.17C1127.38 186.004 1127.54 185.859 1127.74 185.752C1127.95 185.645 1128.19 185.58 1128.44 185.564C1128.69 185.547 1128.94 185.581 1129.17 185.66C1129.39 185.739 1129.58 185.861 1129.72 186.013C1130.48 186.849 1130.89 187.502 1130.95 187.971Z" fill="#86779A"/>
<path d="M792.75 188.523C793.23 188.523 793.62 188.244 793.62 187.899C793.62 187.554 793.23 187.275 792.75 187.275C792.27 187.275 791.88 187.554 791.88 187.899C791.88 188.244 792.27 188.523 792.75 188.523Z" fill="#170336"/>
<path d="M1424.31 192.174C1422.95 192.91 1422.44 192.246 1422.78 190.18C1423.48 189.831 1423.95 189.836 1424.2 190.194C1424.44 190.548 1424.48 191.208 1424.31 192.174Z" fill="#86779A"/>
<path d="M668.174 191.32C668.096 191.995 668.529 192.571 669.14 192.607C669.751 192.643 670.309 192.125 670.386 191.45C670.464 190.775 670.031 190.199 669.42 190.163C668.809 190.127 668.251 190.645 668.174 191.32Z" fill="#86779A"/>
<path d="M536.52 192.776C536.153 192.36 536.19 192.004 536.63 191.708C536.897 191.531 537.19 191.502 537.51 191.622C537.97 191.799 538.1 192.136 537.9 192.633C537.858 192.733 537.776 192.823 537.665 192.892C537.554 192.96 537.418 193.004 537.274 193.019C537.129 193.034 536.981 193.02 536.848 192.977C536.714 192.934 536.6 192.864 536.52 192.776Z" fill="#86779A"/>
<path d="M1291.77 195.072C1291.66 195.129 1291.52 195.158 1291.33 195.158C1291.02 195.163 1290.87 195.055 1290.87 194.835V194.103C1290.87 193.888 1291 193.733 1291.27 193.637C1291.4 193.585 1291.52 193.575 1291.61 193.609C1291.79 193.679 1291.94 193.78 1292.05 193.903C1292.17 194.025 1292.23 194.166 1292.25 194.312C1292.26 194.458 1292.23 194.604 1292.15 194.736C1292.06 194.869 1291.93 194.985 1291.77 195.072Z" fill="#86779A"/>
<path d="M577.74 196.668C577.755 197.532 578.353 198.227 579.077 198.22C579.8 198.214 580.375 197.509 580.36 196.645C580.345 195.782 579.747 195.087 579.023 195.093C578.3 195.1 577.725 195.805 577.74 196.668Z" fill="#86779A"/>
<path d="M338.25 196.958C338.437 196.748 338.71 196.619 339.07 196.571C339.37 196.528 339.623 196.59 339.83 196.757C340.043 196.929 340.09 197.118 339.97 197.324C339.877 197.482 339.693 197.587 339.42 197.64C338.853 197.754 338.453 197.649 338.22 197.324C338.178 197.267 338.159 197.204 338.164 197.139C338.169 197.075 338.199 197.012 338.25 196.958Z" fill="#170336"/>
<path d="M1233.23 198.199C1233.3 198.189 1233.37 198.182 1233.44 198.177H1233.92C1234.09 198.178 1234.26 198.213 1234.41 198.279C1234.55 198.346 1234.67 198.441 1234.74 198.553C1234.82 198.665 1234.84 198.789 1234.82 198.912C1234.8 199.035 1234.73 199.151 1234.62 199.246C1234.37 199.461 1234.09 199.579 1233.77 199.598C1233.39 199.622 1233.17 199.497 1233.12 199.225C1233.06 198.919 1233.1 198.577 1233.23 198.199Z" fill="#86779A"/>
<path d="M912.26 204.782C912.292 206.937 913.947 208.672 915.957 208.656C917.967 208.641 919.571 206.882 919.54 204.727C919.508 202.573 917.853 200.838 915.843 200.853C913.833 200.868 912.229 202.627 912.26 204.782Z" fill="#86779A"/>
<path d="M152.48 203.112C152.827 203.002 153.193 202.971 153.58 203.019C154 203.067 154.177 203.239 154.11 203.535C154.043 203.813 153.847 204.023 153.52 204.167C153.38 204.228 153.217 204.254 153.056 204.241C152.894 204.228 152.744 204.177 152.63 204.095L152.28 203.844C152.208 203.791 152.155 203.727 152.126 203.657C152.097 203.587 152.091 203.512 152.111 203.44C152.131 203.368 152.175 203.301 152.239 203.244C152.303 203.186 152.386 203.141 152.48 203.112Z" fill="#170336"/>
<path d="M775.06 203.256C775.807 203.538 775.963 204.006 775.53 204.662C775.297 205.011 774.95 205.085 774.49 204.884C773.99 204.664 773.813 204.25 773.96 203.643C774.08 203.155 774.447 203.026 775.06 203.256Z" fill="#86779A"/>
<path d="M266.7 211.081L266.27 211.289C266.16 211.342 266.033 211.374 265.9 211.383C265.767 211.392 265.633 211.377 265.51 211.339L265.12 211.225C265.1 210.785 265.187 210.447 265.38 210.213C265.607 209.945 265.87 209.924 266.17 210.149C266.397 210.316 266.573 210.627 266.7 211.081Z" fill="#86779A"/>
<path d="M1041.97 213.447C1041.99 215.039 1042.95 216.324 1044.12 216.317C1045.28 216.31 1046.21 215.013 1046.19 213.42C1046.17 211.828 1045.21 210.543 1044.04 210.55C1042.88 210.558 1041.95 211.854 1041.97 213.447Z" fill="#86779A"/>
<path d="M114.03 217.102C114.035 218.049 114.58 218.815 115.248 218.813C115.917 218.811 116.455 218.043 116.45 217.096C116.445 216.149 115.9 215.383 115.232 215.385C114.563 215.386 114.025 216.155 114.03 217.102Z" fill="#86779A"/>
<path d="M572.11 215.385C574.603 216.614 574.817 218.218 572.75 220.197C572.277 220.647 571.737 220.697 571.13 220.348C570.11 219.774 569.543 219.047 569.43 218.168C569.237 216.451 570.13 215.523 572.11 215.385Z" fill="#86779A"/>
<path d="M141.21 217.486L140.77 218.153C140.15 217.967 139.843 217.666 139.85 217.25C139.853 217.154 139.894 217.061 139.969 216.982C140.044 216.903 140.149 216.842 140.271 216.804C140.394 216.767 140.529 216.756 140.66 216.773C140.791 216.79 140.913 216.833 141.01 216.898C141.19 217.022 141.257 217.218 141.21 217.486Z" fill="#86779A"/>
<path d="M256.99 219.272C256.73 218.88 256.767 218.5 257.1 218.132C257.131 218.097 257.175 218.07 257.227 218.052C257.279 218.035 257.336 218.028 257.393 218.032C257.45 218.036 257.505 218.052 257.55 218.077C257.595 218.103 257.63 218.136 257.65 218.175C257.83 218.529 257.823 218.887 257.63 219.251C257.443 219.614 257.23 219.621 256.99 219.272Z" fill="#86779A"/>
<path d="M1076.62 220.702C1076.65 221.339 1077.16 221.845 1077.78 221.832C1078.39 221.819 1078.87 221.292 1078.84 220.654C1078.81 220.017 1078.3 219.511 1077.68 219.524C1077.07 219.537 1076.59 220.064 1076.62 220.702Z" fill="#86779A"/>
<path d="M563.282 222.38C563.329 222.874 563.778 223.254 564.285 223.229C564.792 223.205 565.165 222.784 565.118 222.29C565.071 221.796 564.622 221.416 564.115 221.44C563.608 221.465 563.235 221.886 563.282 222.38Z" fill="#86779A"/>
<path d="M617.56 223.346C617.933 223.217 618.327 223.224 618.74 223.368C618.9 223.421 619.028 223.515 619.098 223.631C619.168 223.748 619.176 223.879 619.12 223.999C618.833 224.597 618.32 224.778 617.58 224.544C617.42 224.493 617.283 224.409 617.187 224.304C617.091 224.199 617.038 224.076 617.036 223.95C617.034 223.824 617.082 223.7 617.175 223.593C617.268 223.486 617.401 223.401 617.56 223.346Z" fill="#170336"/>
<path d="M434.951 225.16C434.917 225.679 435.184 226.109 435.548 226.121C435.912 226.133 436.235 225.723 436.269 225.205C436.303 224.686 436.036 224.256 435.672 224.244C435.308 224.232 434.985 224.642 434.951 225.16Z" fill="#86779A"/>
<path d="M349.632 225.463C349.681 225.989 350.136 226.395 350.648 226.371C351.161 226.347 351.537 225.901 351.488 225.375C351.439 224.849 350.984 224.443 350.472 224.467C349.959 224.492 349.583 224.938 349.632 225.463Z" fill="#86779A"/>
<path d="M167.97 229.077C168.157 228.996 168.34 228.965 168.52 228.984C168.677 229.003 168.821 229.059 168.928 229.144C169.035 229.228 169.099 229.336 169.11 229.45C169.15 229.904 168.947 230.175 168.5 230.261C168.133 230.332 167.87 230.246 167.71 230.003C167.57 229.806 167.55 229.598 167.65 229.378C167.703 229.245 167.81 229.144 167.97 229.077Z" fill="#86779A"/>
<path d="M601.93 232.886C602.041 232.819 602.177 232.777 602.32 232.765C602.464 232.753 602.609 232.77 602.739 232.816C602.869 232.861 602.978 232.932 603.053 233.021C603.127 233.11 603.165 233.213 603.16 233.316C603.147 233.809 602.847 234.105 602.26 234.206C601.9 234.268 601.657 234.175 601.53 233.926C601.31 233.515 601.443 233.168 601.93 232.886Z" fill="#86779A"/>
<path d="M650.87 238.703C651.083 238.803 651.163 238.937 651.11 239.105C651.075 239.228 650.989 239.342 650.865 239.431C650.74 239.52 650.582 239.581 650.41 239.607C650.13 239.65 649.897 239.609 649.71 239.485C649.506 239.348 649.375 239.164 649.342 238.965C649.31 238.767 649.376 238.567 649.53 238.402C649.69 238.234 649.923 238.172 650.23 238.215C650.597 238.273 650.81 238.435 650.87 238.703Z" fill="#170336"/>
<path d="M120.09 240.496C119.97 240.649 119.793 240.695 119.56 240.632C119.42 240.594 119.3 240.482 119.2 240.295C118.993 239.922 119.037 239.631 119.33 239.42C119.61 239.219 119.887 239.222 120.16 239.427C120.493 239.676 120.47 240.032 120.09 240.496Z" fill="#86779A"/>
<path d="M205.08 243.609C205.151 243.573 205.233 243.55 205.32 243.54C205.406 243.53 205.495 243.534 205.58 243.552C206.1 243.671 206.39 243.908 206.45 244.262C206.49 244.525 206.327 244.683 205.96 244.735C205.533 244.792 205.157 244.735 204.83 244.563C204.577 244.429 204.483 244.269 204.55 244.082C204.617 243.91 204.793 243.752 205.08 243.609Z" fill="#86779A"/>
<path d="M29.7916 244.72C30.1922 244.871 30.6819 244.77 30.8854 244.493C31.0889 244.216 30.9291 243.869 30.5285 243.717C30.1279 243.566 29.6381 243.668 29.4347 243.944C29.2312 244.221 29.391 244.568 29.7916 244.72Z" fill="#86779A"/>
<path d="M320.916 248.092C320.829 248.743 321.36 249.312 322.102 249.363C322.844 249.414 323.516 248.929 323.604 248.278C323.691 247.627 323.16 247.058 322.418 247.007C321.676 246.956 321.004 247.442 320.916 248.092Z" fill="#86779A"/>
<path d="M1413.69 248.196C1413.67 248.77 1414.01 249.241 1414.43 249.247C1414.86 249.252 1415.21 248.792 1415.23 248.217C1415.25 247.643 1414.91 247.173 1414.49 247.167C1414.06 247.161 1413.71 247.622 1413.69 248.196Z" fill="#86779A"/>
<path d="M439.576 248.334C439.686 248.782 440.225 249.089 440.78 249.019C441.334 248.949 441.695 248.528 441.585 248.08C441.474 247.631 440.935 247.324 440.38 247.394C439.826 247.465 439.465 247.885 439.576 248.334Z" fill="#86779A"/>
<path d="M470.69 254.483C470.741 254.413 470.816 254.354 470.908 254.311C471 254.268 471.106 254.242 471.216 254.235C471.326 254.229 471.437 254.242 471.539 254.274C471.641 254.306 471.731 254.356 471.8 254.418C472.18 254.767 472.303 255.205 472.17 255.731C472.11 255.975 471.907 256.097 471.56 256.097H471.03C470.643 256.097 470.42 255.96 470.36 255.688C470.28 255.281 470.39 254.88 470.69 254.483Z" fill="#060318"/>
<path d="M251.24 255.387C251.38 255.406 251.507 255.456 251.62 255.537C251.713 255.599 251.773 255.685 251.8 255.795C251.96 256.422 251.63 256.869 250.81 257.137C250.741 257.159 250.667 257.172 250.591 257.174C250.515 257.175 250.44 257.166 250.369 257.147C250.298 257.128 250.234 257.098 250.179 257.061C250.124 257.023 250.08 256.978 250.05 256.929C249.61 256.183 249.813 255.616 250.66 255.229C250.707 255.205 250.757 255.2 250.81 255.214C250.903 255.238 250.98 255.272 251.04 255.315C251.1 255.353 251.167 255.377 251.24 255.387Z" fill="#170336"/>
<path d="M111.271 257.955C112.411 258.191 113.493 257.994 113.686 257.514C113.879 257.034 113.11 256.454 111.969 256.218C110.829 255.982 109.747 256.179 109.554 256.659C109.361 257.138 110.13 257.719 111.271 257.955Z" fill="#170336"/>
<path d="M276.81 257.115C277.277 257.675 277.36 258.217 277.06 258.743C277.002 258.847 276.9 258.935 276.768 258.994C276.637 259.053 276.482 259.08 276.326 259.072C276.17 259.064 276.021 259.021 275.899 258.949C275.778 258.878 275.691 258.78 275.65 258.672C275.457 258.122 275.637 257.593 276.19 257.086C276.228 257.052 276.277 257.025 276.333 257.008C276.389 256.99 276.45 256.983 276.51 256.985C276.571 256.988 276.63 257.001 276.682 257.024C276.734 257.047 276.778 257.078 276.81 257.115Z" fill="#86779A"/>
<path d="M193.04 261.548L193.26 261.992C193.38 262.227 193.303 262.423 193.03 262.581C192.663 262.796 192.227 262.853 191.72 262.753C191.526 262.712 191.35 262.633 191.213 262.526C191.076 262.419 190.982 262.287 190.942 262.145C190.902 262.003 190.917 261.856 190.985 261.721C191.054 261.585 191.173 261.466 191.33 261.376C191.937 261.027 192.507 261.084 193.04 261.548Z" fill="#170336"/>
<path d="M1207.2 267.15L1206.72 267.508C1205.79 267.714 1205.27 267.597 1205.15 267.157C1205.08 266.894 1205.09 266.621 1205.2 266.364C1205.3 266.107 1205.49 265.872 1205.75 265.679C1205.98 265.507 1206.25 265.483 1206.57 265.608C1206.88 265.727 1207.04 265.911 1207.07 266.16L1207.2 267.15Z" fill="#170336"/>
<path d="M1358.75 268.584C1358.78 268.637 1358.76 268.847 1358.68 269.215C1358.63 269.459 1358.44 269.624 1358.11 269.71C1357.96 269.749 1357.81 269.768 1357.64 269.768C1357.29 269.772 1357.08 269.648 1357.03 269.395C1356.96 269.055 1356.95 268.811 1357.02 268.663C1357.51 267.597 1358.08 267.57 1358.75 268.584Z" fill="#86779A"/>
<path d="M921.76 270.994C921.907 271.142 921.973 271.319 921.96 271.525C921.94 271.783 921.753 271.934 921.4 271.977C921.22 272.001 921.04 272.003 920.86 271.984C920.5 271.946 920.287 271.798 920.22 271.539C920.147 271.252 920.267 271.025 920.58 270.858C920.669 270.81 920.771 270.775 920.879 270.756C920.988 270.737 921.1 270.733 921.21 270.746C921.32 270.759 921.426 270.787 921.52 270.83C921.615 270.873 921.696 270.928 921.76 270.994Z" fill="#86779A"/>
<path d="M230.59 272.414C230.6 273.23 231.132 273.889 231.778 273.885C232.424 273.881 232.94 273.216 232.93 272.4C232.92 271.584 232.388 270.926 231.742 270.93C231.096 270.934 230.58 271.598 230.59 272.414Z" fill="#86779A"/>
<path d="M308.49 275.922C308.957 275.458 309.387 275.475 309.78 275.972C309.993 276.23 310.127 276.493 310.18 276.761C310.247 277.053 310.09 277.256 309.71 277.371C309.403 277.466 309.07 277.493 308.71 277.45C308.357 277.411 308.153 277.265 308.1 277.012C308.013 276.639 308.143 276.276 308.49 275.922Z" fill="#86779A"/>
<path d="M365.604 276.287L365.364 276.288C364.845 276.289 364.425 276.592 364.427 276.964L364.433 278.169C364.435 278.542 364.857 278.843 365.376 278.841L365.616 278.841C366.135 278.839 366.555 278.537 366.553 278.164L366.547 276.959C366.545 276.587 366.123 276.286 365.604 276.287Z" fill="#86779A"/>
<path d="M759.97 279.314C760.297 279.114 760.673 279.133 761.1 279.372C761.245 279.454 761.361 279.559 761.438 279.679C761.514 279.799 761.549 279.93 761.54 280.06C761.48 280.878 761.047 281.263 760.24 281.215C759.827 281.191 759.62 281.031 759.62 280.735V279.852C759.62 279.632 759.737 279.453 759.97 279.314Z" fill="#060318"/>
<path d="M1421.91 281.1C1421.82 281.187 1421.71 281.255 1421.57 281.294C1421.43 281.334 1421.28 281.344 1421.14 281.324C1420.99 281.303 1420.86 281.253 1420.75 281.178C1420.65 281.104 1420.58 281.01 1420.55 280.907C1420.54 280.849 1420.57 280.727 1420.65 280.541C1420.72 280.374 1420.87 280.29 1421.12 280.29L1421.69 280.283C1422.04 280.283 1422.19 280.407 1422.15 280.656C1422.12 280.814 1422.04 280.962 1421.91 281.1Z" fill="#86779A"/>
<path d="M1303.41 282.142C1303.4 282.795 1303.81 283.328 1304.32 283.331C1304.82 283.334 1305.24 282.807 1305.25 282.153C1305.26 281.5 1304.85 280.967 1304.34 280.964C1303.84 280.961 1303.42 281.488 1303.41 282.142Z" fill="#86779A"/>
<path d="M522.901 282.767C522.681 283.056 522.763 283.392 523.083 283.517C523.403 283.642 523.84 283.509 524.059 283.221C524.279 282.932 524.197 282.596 523.877 282.471C523.557 282.346 523.12 282.479 522.901 282.767Z" fill="#86779A"/>
<path d="M1138.17 288.445C1137.56 288.799 1137.02 288.852 1136.55 288.603C1136.44 288.543 1136.35 288.462 1136.3 288.369C1136.25 288.277 1136.23 288.176 1136.25 288.077C1136.28 287.979 1136.33 287.886 1136.42 287.81C1136.51 287.733 1136.63 287.675 1136.76 287.642C1137.12 287.551 1137.5 287.541 1137.91 287.613C1138.03 287.633 1138.14 287.678 1138.23 287.741C1138.32 287.804 1138.38 287.884 1138.4 287.971C1138.43 288.058 1138.42 288.148 1138.38 288.232C1138.34 288.316 1138.27 288.39 1138.17 288.445Z" fill="#86779A"/>
<path d="M893.97 289.263C894.51 289.798 894.597 290.229 894.23 290.554C894.104 290.668 893.936 290.754 893.746 290.804C893.555 290.854 893.349 290.864 893.151 290.836C892.952 290.807 892.768 290.739 892.62 290.64C892.472 290.541 892.364 290.414 892.31 290.274C892.11 289.777 892.303 289.392 892.89 289.119C893.061 289.038 893.269 289.008 893.47 289.034C893.672 289.061 893.851 289.143 893.97 289.263Z" fill="#86779A"/>
<path d="M1043.54 289.076C1043.56 289.05 1043.59 289.028 1043.62 289.01C1043.66 288.992 1043.7 288.979 1043.74 288.972C1043.78 288.966 1043.82 288.965 1043.86 288.971C1043.91 288.976 1043.94 288.988 1043.98 289.005C1044.32 289.172 1044.5 289.471 1044.52 289.901C1044.54 290.203 1044.38 290.422 1044.03 290.561C1043.95 290.595 1043.85 290.614 1043.76 290.617C1043.66 290.619 1043.57 290.605 1043.48 290.576C1043.39 290.546 1043.32 290.502 1043.26 290.447C1043.2 290.393 1043.16 290.328 1043.14 290.26C1043.04 289.901 1043.17 289.507 1043.54 289.076Z" fill="#170336"/>
<path d="M739.17 290.812C739.363 290.64 739.593 290.54 739.86 290.511C740.207 290.468 740.38 290.573 740.38 290.827V291.522C740.38 291.583 740.359 291.642 740.319 291.696C740.28 291.749 740.222 291.795 740.152 291.828C740.081 291.861 740 291.882 739.916 291.887C739.832 291.893 739.748 291.883 739.67 291.859C738.843 291.606 738.677 291.257 739.17 290.812Z" fill="#060318"/>
<path d="M1047.01 294.843C1047.16 294.81 1047.31 294.819 1047.44 294.872C1047.57 294.929 1047.63 295.011 1047.64 295.116C1047.66 296.177 1047.83 297.225 1047.31 298.265C1046.66 299.541 1046.11 300.823 1045.66 302.109C1045.65 302.136 1045.63 302.161 1045.61 302.182C1045.58 302.203 1045.55 302.219 1045.51 302.229C1045.48 302.239 1045.44 302.242 1045.4 302.239C1045.36 302.236 1045.32 302.225 1045.29 302.21C1042.39 300.818 1041.13 298.924 1041.52 296.529C1041.66 295.639 1042.11 295.008 1042.88 294.635C1043.9 294.138 1045.08 294.188 1046.43 294.786C1046.61 294.867 1046.8 294.886 1047.01 294.843Z" fill="#86779A"/>
<path d="M968.14 299.691C968.166 300.856 969.019 301.79 970.046 301.779C971.073 301.767 971.885 300.814 971.86 299.649C971.834 298.485 970.981 297.55 969.954 297.562C968.927 297.573 968.115 298.527 968.14 299.691Z" fill="#86779A"/>
<path d="M830.13 299.563C830.136 299.634 830.104 299.703 830.041 299.758C829.978 299.813 829.888 299.848 829.79 299.857C829.637 299.876 829.507 299.886 829.4 299.886C829.229 299.888 829.06 299.853 828.916 299.786C828.773 299.718 828.66 299.622 828.594 299.509C828.527 299.395 828.509 299.27 828.542 299.149C828.576 299.029 828.658 298.918 828.78 298.831C828.947 298.721 829.15 298.647 829.39 298.609C829.75 298.556 829.963 298.659 830.03 298.917C830.09 299.128 830.123 299.343 830.13 299.563Z" fill="#86779A"/>
<path d="M150.51 302.609C150.516 303.275 150.983 303.812 151.552 303.809C152.121 303.806 152.576 303.264 152.57 302.599C152.563 301.933 152.097 301.396 151.528 301.399C150.959 301.402 150.504 301.944 150.51 302.609Z" fill="#86779A"/>
<path d="M1241.35 306.793C1241.36 309.052 1243.21 310.879 1245.47 310.873C1247.74 310.867 1249.56 309.031 1249.55 306.773C1249.54 304.514 1247.7 302.687 1245.43 302.693C1243.17 302.699 1241.34 304.534 1241.35 306.793Z" fill="#86779A"/>
<path d="M434.03 308.679C434.21 308.866 434.2 309.119 434 309.439C433.927 309.554 433.837 309.616 433.73 309.626C433.497 309.655 433.373 309.585 433.36 309.418C433.347 309.126 433.343 308.928 433.35 308.823C433.383 308.292 433.61 308.244 434.03 308.679Z" fill="#86779A"/>
<path d="M376.96 311.089C376.992 311.912 377.484 312.571 378.058 312.559C378.632 312.548 379.072 311.871 379.04 311.047C379.008 310.223 378.516 309.565 377.942 309.576C377.368 309.588 376.928 310.265 376.96 311.089Z" fill="#86779A"/>
<path d="M688.56 314.919C687.74 314.79 687.093 314.587 686.62 314.31C686.22 313.306 686.183 312.306 686.51 311.312C686.59 311.072 686.79 310.905 687.11 310.809C687.543 310.68 687.97 310.659 688.39 310.745C688.723 310.812 688.957 310.96 689.09 311.19C689.917 312.61 689.74 313.853 688.56 314.919Z" fill="#86779A"/>
<path d="M686.62 314.31C687.093 314.587 687.74 314.79 688.56 314.919C688.613 314.967 688.577 315.075 688.45 315.242C688.38 315.336 688.261 315.407 688.119 315.439C687.977 315.472 687.823 315.463 687.69 315.414C686.977 315.156 686.62 314.788 686.62 314.31Z" fill="#170336"/>
<path d="M596.88 315.536C596.827 315.723 596.667 315.816 596.4 315.816C596.08 315.816 595.827 315.694 595.64 315.45C595.519 315.288 595.493 315.099 595.565 314.922C595.638 314.745 595.805 314.595 596.03 314.503C596.13 314.47 596.257 314.47 596.41 314.503C596.67 314.561 596.827 314.683 596.88 314.869C596.94 315.089 596.94 315.312 596.88 315.536Z" fill="#86779A"/>
<path d="M1385.3 316.539C1385.28 317.049 1385.63 317.471 1386.07 317.48C1386.52 317.489 1386.9 317.082 1386.92 316.571C1386.94 316.06 1386.59 315.639 1386.15 315.63C1385.7 315.621 1385.32 316.028 1385.3 316.539Z" fill="#86779A"/>
<path d="M494.68 320.27C494.667 321.162 495.073 321.887 495.586 321.891C496.1 321.895 496.527 321.176 496.54 320.284C496.553 319.393 496.147 318.667 495.634 318.664C495.12 318.66 494.693 319.379 494.68 320.27Z" fill="#86779A"/>
<path d="M156.15 320.564C156.183 320.756 156.113 320.964 155.94 321.188C155.904 321.234 155.855 321.273 155.796 321.303C155.737 321.334 155.669 321.355 155.597 321.365C155.525 321.375 155.451 321.374 155.379 321.363C155.307 321.351 155.239 321.328 155.18 321.296C154.873 321.129 154.683 320.897 154.61 320.6C154.587 320.498 154.618 320.394 154.695 320.306C154.772 320.219 154.891 320.155 155.03 320.127C155.197 320.098 155.363 320.093 155.53 320.112C155.89 320.16 156.097 320.311 156.15 320.564Z" fill="#060318"/>
<path d="M1323.06 324.464C1323.07 325.075 1323.46 325.567 1323.94 325.564C1324.42 325.561 1324.81 325.064 1324.8 324.454C1324.79 323.844 1324.4 323.351 1323.92 323.355C1323.44 323.358 1323.05 323.854 1323.06 324.464Z" fill="#86779A"/>
<path d="M1296.2 327.787C1295.55 327.395 1295.38 327.041 1295.71 326.726C1295.8 326.641 1295.91 326.576 1296.05 326.536C1296.18 326.495 1296.33 326.482 1296.47 326.498C1296.62 326.513 1296.75 326.557 1296.87 326.623C1296.98 326.69 1297.06 326.778 1297.11 326.876C1297.26 327.187 1297.12 327.486 1296.69 327.773C1296.53 327.883 1296.37 327.888 1296.2 327.787Z" fill="#86779A"/>
<path d="M1048.55 330.622C1048.56 331.826 1049.23 332.799 1050.03 332.794C1050.83 332.789 1051.46 331.808 1051.45 330.604C1051.44 329.4 1050.77 328.428 1049.97 328.433C1049.17 328.438 1048.54 329.418 1048.55 330.622Z" fill="#86779A"/>
<path d="M293.23 334.192C293.257 334.158 293.295 334.128 293.342 334.106C293.388 334.085 293.442 334.072 293.497 334.068C293.552 334.065 293.608 334.071 293.659 334.086C293.71 334.102 293.755 334.126 293.79 334.156C294.17 334.501 294.27 334.924 294.09 335.426C293.99 335.699 293.807 335.852 293.54 335.885C293.173 335.933 292.95 335.823 292.87 335.555C292.75 335.12 292.87 334.666 293.23 334.192Z" fill="#86779A"/>
<path d="M19.15 343.495C19.7133 343.495 20.17 343.168 20.17 342.764C20.17 342.36 19.7133 342.032 19.15 342.032C18.5867 342.032 18.13 342.36 18.13 342.764C18.13 343.168 18.5867 343.495 19.15 343.495Z" fill="#86779A"/>
<path d="M467.93 343.883C467.992 343.782 468.1 343.698 468.236 343.646C468.372 343.594 468.528 343.577 468.68 343.596C469.48 343.691 469.803 343.99 469.65 344.492C469.616 344.603 469.544 344.706 469.44 344.792C469.336 344.878 469.204 344.943 469.057 344.982C468.909 345.022 468.75 345.034 468.595 345.017C468.44 345 468.294 344.955 468.17 344.887C467.743 344.657 467.663 344.323 467.93 343.883Z" fill="#86779A"/>
<path d="M104.76 345.483C104.776 346.311 105.161 346.978 105.619 346.974C106.078 346.969 106.436 346.294 106.42 345.467C106.404 344.639 106.019 343.971 105.561 343.976C105.102 343.981 104.744 344.655 104.76 345.483Z" fill="#86779A"/>
<path d="M323.02 350.022C322.894 350.154 322.703 350.245 322.488 350.277C322.273 350.31 322.051 350.28 321.87 350.195C321.477 350.013 321.397 349.745 321.63 349.391C321.671 349.33 321.73 349.275 321.801 349.23C321.873 349.184 321.957 349.15 322.047 349.129C322.138 349.107 322.233 349.099 322.328 349.105C322.423 349.111 322.516 349.13 322.6 349.162C323.207 349.391 323.347 349.678 323.02 350.022Z" fill="#86779A"/>
<path d="M1429.99 351.321C1430.4 351.043 1430.88 350.866 1431.43 350.79C1434.2 350.398 1435.9 350.981 1436.54 352.54C1437.2 354.151 1437.57 355.835 1437.64 357.589C1437.65 357.833 1437.56 358.053 1437.36 358.249C1436.53 359.091 1435.51 359.787 1434.3 360.337C1434.09 360.437 1433.85 360.492 1433.59 360.502C1433.39 360.506 1433.22 360.554 1433.09 360.645C1432.8 360.843 1432.4 360.95 1431.99 360.945C1431.57 360.939 1431.16 360.822 1430.83 360.616C1429.8 359.971 1428.82 359.232 1427.9 358.4C1427.71 358.219 1427.6 357.997 1427.6 357.769C1427.62 355.947 1427.19 353.637 1428.94 352.167C1429.47 351.717 1429.82 351.435 1429.99 351.321Z" fill="#060318"/>
<path d="M719.62 352.102C719.62 352.035 719.62 351.973 719.62 351.916C719.62 351.873 719.65 351.849 719.71 351.844C719.897 351.825 720.083 351.823 720.27 351.837C720.623 351.866 720.83 352.004 720.89 352.253C720.957 352.545 720.947 352.793 720.86 352.999C720.83 353.071 720.778 353.137 720.706 353.191C720.635 353.246 720.546 353.288 720.448 353.314C720.35 353.34 720.245 353.349 720.141 353.34C720.037 353.331 719.937 353.305 719.85 353.264C719.25 352.977 719.17 352.597 719.61 352.124C719.617 352.119 719.62 352.112 719.62 352.102Z" fill="#060318"/>
<path d="M836.62 360.681C836.2 360.231 836.28 359.82 836.86 359.447C837.133 359.27 837.39 359.282 837.63 359.483C837.977 359.765 838.04 360.129 837.82 360.573C837.78 360.658 837.708 360.733 837.611 360.79C837.514 360.846 837.397 360.882 837.272 360.894C837.147 360.905 837.02 360.891 836.905 360.853C836.79 360.816 836.691 360.756 836.62 360.681Z" fill="#86779A"/>
<path d="M647.39 363.152C647.376 365.062 648.596 366.614 650.115 366.62C651.634 366.626 652.876 365.082 652.89 363.173C652.904 361.264 651.684 359.711 650.165 359.705C648.646 359.7 647.404 361.243 647.39 363.152Z" fill="#86779A"/>
<path d="M967.64 366.384C967.626 367.807 968.784 368.965 970.225 368.972C971.666 368.98 972.846 367.833 972.86 366.411C972.874 364.988 971.717 363.83 970.275 363.823C968.834 363.815 967.654 364.962 967.64 366.384Z" fill="#86779A"/>
<path d="M531.37 369.51C531.317 369.377 531.383 369.231 531.57 369.073C531.628 369.025 531.703 368.989 531.787 368.968C531.871 368.947 531.962 368.942 532.05 368.953C532.138 368.965 532.221 368.992 532.291 369.033C532.361 369.074 532.416 369.128 532.45 369.188C532.823 369.871 532.813 370.519 532.42 371.131C532.388 371.181 532.34 371.225 532.28 371.259C532.22 371.293 532.15 371.316 532.075 371.328C532 371.339 531.923 371.337 531.849 371.323C531.775 371.309 531.707 371.283 531.65 371.246C530.923 370.797 530.83 370.218 531.37 369.51Z" fill="#86779A"/>
<path d="M1147.21 373.25C1147.1 374.917 1148.28 376.313 1149.85 376.368C1151.43 376.424 1152.79 375.117 1152.91 373.45C1153.02 371.782 1151.84 370.386 1150.27 370.331C1148.69 370.276 1147.33 371.583 1147.21 373.25Z" fill="#86779A"/>
<path d="M986.36 371.354C986.88 370.531 987.247 370.565 987.46 371.454C987.547 371.794 987.427 372.088 987.1 372.336C986.767 372.59 986.523 372.552 986.37 372.222C986.21 371.887 986.207 371.598 986.36 371.354Z" fill="#86779A"/>
<path d="M311.62 371.881C311.604 372.392 311.882 372.811 312.241 372.817C312.6 372.823 312.904 372.413 312.92 371.902C312.936 371.391 312.658 370.973 312.299 370.967C311.94 370.961 311.636 371.37 311.62 371.881Z" fill="#86779A"/>
<path d="M1094.29 372.63C1094.02 372.219 1093.96 371.846 1094.12 371.512C1094.17 371.411 1094.25 371.322 1094.36 371.256C1094.48 371.189 1094.62 371.147 1094.76 371.135C1094.91 371.123 1095.06 371.141 1095.19 371.187C1095.32 371.234 1095.43 371.307 1095.51 371.397C1095.76 371.693 1095.76 372.078 1095.5 372.552C1095.36 372.795 1095.2 373.006 1095.03 373.183C1094.63 373.599 1094.41 373.553 1094.37 373.047C1094.37 372.984 1094.37 372.922 1094.37 372.86C1094.37 372.779 1094.34 372.702 1094.29 372.63Z" fill="#060318"/>
<path d="M626.46 372.401C626.58 372.335 626.721 372.293 626.872 372.278C627.022 372.263 627.177 372.276 627.32 372.315C627.88 372.473 628.087 372.686 627.94 372.953C627.867 373.083 627.744 373.196 627.586 373.278C627.428 373.36 627.24 373.407 627.045 373.416C626.85 373.424 626.656 373.392 626.485 373.324C626.314 373.257 626.174 373.155 626.08 373.032C625.933 372.836 626.06 372.626 626.46 372.401Z" fill="#170336"/>
<path d="M382.18 377.357C382.147 376.874 382.307 376.434 382.66 376.037C382.853 375.813 383.097 375.779 383.39 375.937C383.997 376.262 384.177 376.69 383.93 377.221C383.643 377.819 383.14 378.443 382.42 379.093C382.147 379.342 382.013 379.308 382.02 378.993C382.04 378.419 382.21 377.945 382.18 377.357Z" fill="#86779A"/>
<path d="M654.861 378.413C654.899 379.252 655.49 379.919 656.18 379.903C656.87 379.886 657.398 379.193 657.359 378.353C657.32 377.514 656.73 376.847 656.04 376.863C655.35 376.88 654.822 377.573 654.861 378.413Z" fill="#86779A"/>
<path d="M140.2 377.651C140.467 378.058 140.543 378.426 140.43 378.756C140.157 379.598 139.72 379.643 139.12 378.892C138.893 378.605 139.007 378.185 139.46 377.63C139.727 377.305 139.973 377.312 140.2 377.651Z" fill="#86779A"/>
<path d="M907.25 379.889C907.663 380.42 907.8 380.927 907.66 381.41C907.587 381.663 907.37 381.804 907.01 381.833C906.83 381.847 906.657 381.831 906.49 381.783C906.163 381.687 905.99 381.513 905.97 381.259C905.917 380.671 906.217 380.195 906.87 379.832C907.03 379.746 907.157 379.765 907.25 379.889Z" fill="#86779A"/>
<path d="M485.822 384.242C485.769 384.847 486.092 385.354 486.544 385.374C486.996 385.395 487.405 384.921 487.458 384.316C487.511 383.711 487.188 383.204 486.736 383.184C486.284 383.163 485.875 383.637 485.822 384.242Z" fill="#86779A"/>
<path d="M617.16 388.881C617.188 390.029 617.873 390.952 618.691 390.942C619.508 390.932 620.148 389.992 620.12 388.844C620.092 387.695 619.407 386.772 618.589 386.782C617.772 386.793 617.132 387.732 617.16 388.881Z" fill="#86779A"/>
<path d="M973.95 392.429C973.963 393.32 974.529 394.039 975.214 394.034C975.898 394.028 976.443 393.302 976.43 392.411C976.417 391.519 975.851 390.801 975.166 390.806C974.482 390.811 973.937 391.538 973.95 392.429Z" fill="#86779A"/>
<path d="M389.2 396.345C389.214 397.74 390.053 398.866 391.075 398.861C392.096 398.856 392.914 397.721 392.9 396.327C392.886 394.933 392.047 393.806 391.025 393.811C390.004 393.817 389.186 394.951 389.2 396.345Z" fill="#86779A"/>
<path d="M231.53 397.003C231.883 396.501 232.2 396.513 232.48 397.039C232.74 397.527 232.8 398.003 232.66 398.466C232.587 398.71 232.377 398.832 232.03 398.832H231.54C231.207 398.832 231.043 398.71 231.05 398.466C231.077 397.916 231.237 397.429 231.53 397.003Z" fill="#060318"/>
<path d="M67.0503 402.636C67.5598 402.59 67.928 402.298 67.8727 401.983C67.8173 401.669 67.3593 401.452 66.8497 401.498C66.3402 401.544 65.972 401.836 66.0273 402.151C66.0827 402.465 66.5407 402.683 67.0503 402.636Z" fill="#86779A"/>
<path d="M142.252 404.295C142.314 404.895 142.766 405.361 143.261 405.335C143.757 405.309 144.109 404.801 144.048 404.2C143.986 403.6 143.534 403.134 143.039 403.16C142.543 403.186 142.191 403.694 142.252 404.295Z" fill="#86779A"/>
<path d="M1136.53 406.065C1136.55 407.57 1137.6 408.783 1138.86 408.773C1140.12 408.764 1141.13 407.536 1141.11 406.031C1141.09 404.525 1140.04 403.313 1138.78 403.322C1137.52 403.332 1136.51 404.56 1136.53 406.065Z" fill="#86779A"/>
<path d="M767.41 403.652C767.455 403.592 767.521 403.541 767.601 403.504C767.681 403.467 767.773 403.445 767.868 403.441C767.963 403.437 768.059 403.45 768.145 403.479C768.231 403.509 768.305 403.553 768.36 403.609C768.747 404.011 768.897 404.511 768.81 405.108C768.777 405.362 768.59 405.529 768.25 405.61C768.037 405.663 767.82 405.668 767.6 405.625C767.253 405.553 767.047 405.39 766.98 405.137C766.86 404.702 767.003 404.207 767.41 403.652Z" fill="#86779A"/>
<path d="M305.8 408.207C306.33 408.207 306.76 407.899 306.76 407.518C306.76 407.138 306.33 406.83 305.8 406.83C305.27 406.83 304.84 407.138 304.84 407.518C304.84 407.899 305.27 408.207 305.8 408.207Z" fill="#86779A"/>
<path d="M1297.36 412.41C1297.37 412.371 1297.4 412.336 1297.44 412.308C1297.49 412.281 1297.54 412.261 1297.59 412.252C1297.79 412.214 1297.99 412.212 1298.2 412.245C1298.54 412.312 1298.76 412.467 1298.85 412.711C1298.98 413.089 1298.92 413.452 1298.67 413.801C1298.49 414.036 1298.25 414.076 1297.94 413.923C1297.29 413.584 1297.09 413.079 1297.36 412.41Z" fill="#86779A"/>
<path d="M40.88 414.002V415.2C40.88 415.454 40.7167 415.53 40.39 415.43C39.6633 415.21 39.4533 414.732 39.76 413.995C39.9067 413.637 40.2133 413.558 40.68 413.758C40.7405 413.783 40.791 413.818 40.8262 413.861C40.8613 413.904 40.8799 413.953 40.88 414.002Z" fill="#86779A"/>
<path d="M620.31 418.196C620.299 419.693 621.427 420.911 622.83 420.917C624.233 420.922 625.379 419.712 625.39 418.215C625.401 416.718 624.273 415.5 622.87 415.494C621.467 415.489 620.321 416.699 620.31 418.196Z" fill="#86779A"/>
<path d="M348.43 419.991C349.303 420.79 349.1 421.189 347.82 421.189C347.643 421.19 347.471 421.148 347.331 421.07C347.192 420.992 347.093 420.882 347.05 420.759C346.91 420.367 347.2 420.075 347.92 419.884C348.01 419.861 348.108 419.859 348.2 419.878C348.291 419.897 348.372 419.937 348.43 419.991Z" fill="#170336"/>
<path d="M238.13 421.304C237.69 421.519 237.28 421.498 236.9 421.24C236.633 421.058 236.583 420.85 236.75 420.616C236.97 420.309 237.35 420.207 237.89 420.307C238.034 420.335 238.164 420.393 238.265 420.472C238.366 420.551 238.433 420.649 238.458 420.754C238.483 420.859 238.466 420.967 238.408 421.065C238.35 421.162 238.253 421.245 238.13 421.304Z" fill="#86779A"/>
<path d="M1015.74 421.532C1015.74 422.202 1016.14 422.745 1016.65 422.746C1017.15 422.746 1017.56 422.204 1017.56 421.535C1017.56 420.865 1017.16 420.322 1016.65 420.321C1016.15 420.321 1015.74 420.863 1015.74 421.532Z" fill="#86779A"/>
<path d="M1125.99 422.086C1125.83 422.492 1125.46 422.645 1124.87 422.545C1124.66 422.511 1124.51 422.423 1124.42 422.28C1124.33 422.146 1124.31 421.997 1124.34 421.835C1124.39 421.601 1124.57 421.462 1124.89 421.419C1125 421.405 1125.1 421.393 1125.18 421.383C1125.3 421.375 1125.43 421.389 1125.55 421.423C1125.66 421.458 1125.76 421.512 1125.84 421.581C1125.92 421.65 1125.98 421.733 1126 421.821C1126.03 421.908 1126.02 422 1125.99 422.086Z" fill="#86779A"/>
<path d="M324.59 424.74C324.619 424.68 324.666 424.626 324.728 424.582C324.79 424.538 324.865 424.504 324.947 424.484C325.029 424.464 325.116 424.458 325.202 424.466C325.287 424.474 325.369 424.497 325.44 424.532C325.847 424.728 325.913 425.022 325.64 425.414C325.413 425.73 325.123 425.763 324.77 425.514C324.49 425.323 324.43 425.065 324.59 424.74Z" fill="#86779A"/>
<path d="M919.92 424.661C919.993 424.747 919.993 424.847 919.92 424.962C919.5 425.612 919.217 425.581 919.07 424.869C919.05 424.759 919.143 424.661 919.35 424.575C919.577 424.474 919.767 424.503 919.92 424.661Z" fill="#86779A"/>
<path d="M1014.06 425.243C1013.95 425.567 1014.12 425.874 1014.43 425.928C1014.75 425.983 1015.1 425.765 1015.2 425.441C1015.31 425.118 1015.14 424.811 1014.83 424.756C1014.51 424.702 1014.16 424.92 1014.06 425.243Z" fill="#86779A"/>
<path d="M684.12 427.967C683.907 427.704 683.81 427.429 683.83 427.143C683.85 426.88 684.04 426.729 684.4 426.691C684.56 426.676 684.717 426.679 684.87 426.698C685.223 426.746 685.45 426.892 685.55 427.135C685.757 427.628 685.513 428.046 684.82 428.391C684.743 428.43 684.65 428.449 684.557 428.445C684.465 428.441 684.377 428.414 684.31 428.369C684.13 428.254 684.067 428.12 684.12 427.967Z" fill="#86779A"/>
<path d="M435.271 431.614C435.224 432.901 435.969 433.959 436.935 433.977C437.901 433.996 438.722 432.967 438.769 431.68C438.816 430.393 438.071 429.335 437.105 429.317C436.139 429.299 435.318 430.327 435.271 431.614Z" fill="#86779A"/>
<path d="M173.57 430.614C173.263 430.801 172.987 430.851 172.74 430.765C172.647 430.732 172.565 430.685 172.498 430.628C172.431 430.572 172.38 430.506 172.349 430.435C172.319 430.364 172.308 430.289 172.318 430.215C172.329 430.141 172.36 430.07 172.41 430.005C172.583 429.775 172.797 429.658 173.05 429.653C173.252 429.654 173.447 429.704 173.603 429.796C173.758 429.887 173.863 430.014 173.9 430.155C173.94 430.299 173.83 430.452 173.57 430.614Z" fill="#86779A"/>
<path d="M1020.12 431.161C1020.09 431.708 1020.34 432.159 1020.68 432.17C1021.02 432.18 1021.33 431.746 1021.36 431.2C1021.39 430.654 1021.14 430.203 1020.8 430.192C1020.46 430.181 1020.15 430.615 1020.12 431.161Z" fill="#86779A"/>
<path d="M848.66 432.823C848.36 432.67 848.24 432.465 848.3 432.207C848.38 431.805 848.59 431.568 848.93 431.496C849.283 431.42 849.547 431.499 849.72 431.733C849.893 431.987 849.95 432.247 849.89 432.515C849.83 432.778 849.617 432.921 849.25 432.945C849.03 432.955 848.833 432.914 848.66 432.823Z" fill="#86779A"/>
<path d="M88.81 435.613C88.01 436.245 87.46 436.206 87.16 435.499C87.1071 435.371 87.0834 435.237 87.09 435.104C87.1167 433.808 87.68 433.574 88.78 434.401C88.9978 434.563 89.122 434.778 89.1276 435.003C89.1331 435.228 89.0197 435.446 88.81 435.613Z" fill="#060318"/>
<path d="M593.931 438.529C593.965 439.368 594.517 440.038 595.163 440.024C595.809 440.01 596.304 439.319 596.269 438.479C596.235 437.64 595.683 436.97 595.037 436.984C594.391 436.998 593.896 437.69 593.931 438.529Z" fill="#86779A"/>
<path d="M393.07 444.405C393.068 445.419 393.71 446.242 394.506 446.243C395.301 446.244 395.948 445.423 395.95 444.409C395.952 443.395 395.31 442.572 394.514 442.571C393.719 442.57 393.072 443.391 393.07 444.405Z" fill="#86779A"/>
<path d="M669.58 447.446C669.609 448.935 670.492 450.134 671.552 450.123C672.613 450.113 673.449 448.897 673.42 447.408C673.391 445.918 672.508 444.72 671.447 444.73C670.387 444.741 669.551 445.957 669.58 447.446Z" fill="#86779A"/>
<path d="M725.692 451.038C725.735 451.512 726.145 451.879 726.607 451.858C727.07 451.836 727.411 451.434 727.368 450.96C727.326 450.486 726.916 450.118 726.453 450.14C725.99 450.161 725.649 450.563 725.692 451.038Z" fill="#86779A"/>
<path d="M1051.48 452.159C1051.49 453.315 1052.37 454.247 1053.44 454.241C1054.5 454.234 1055.35 453.291 1055.34 452.134C1055.33 450.978 1054.45 450.045 1053.38 450.052C1052.32 450.059 1051.47 451.002 1051.48 452.159Z" fill="#86779A"/>
<path d="M318.69 453.617C318.463 453.301 318.45 453.038 318.65 452.828C318.729 452.746 318.836 452.679 318.96 452.633C319.083 452.588 319.221 452.565 319.36 452.566C319.5 452.567 319.636 452.593 319.758 452.641C319.88 452.69 319.984 452.759 320.06 452.842C320.34 453.153 320.257 453.457 319.81 453.753C319.728 453.807 319.631 453.846 319.525 453.869C319.419 453.891 319.308 453.896 319.199 453.883C319.091 453.87 318.989 453.839 318.9 453.793C318.812 453.747 318.74 453.686 318.69 453.617Z" fill="#86779A"/>
<path d="M945.001 464.496C945.035 465.01 945.415 465.415 945.851 465.4C946.287 465.386 946.613 464.957 946.579 464.442C946.545 463.928 946.165 463.523 945.729 463.538C945.293 463.552 944.967 463.981 945.001 464.496Z" fill="#86779A"/>
<path d="M433.8 472.332C433.783 473.203 434.342 473.915 435.049 473.922C435.756 473.93 436.343 473.229 436.36 472.357C436.377 471.486 435.818 470.774 435.111 470.767C434.404 470.76 433.817 471.46 433.8 472.332Z" fill="#86779A"/>
<path d="M948.692 472.008C948.74 472.439 949.065 472.771 949.417 472.751C949.77 472.731 950.016 472.365 949.968 471.935C949.92 471.504 949.595 471.172 949.243 471.192C948.89 471.213 948.644 471.578 948.692 472.008Z" fill="#86779A"/>
<path d="M768.14 482.236C768.179 482.201 768.228 482.173 768.283 482.154C768.338 482.134 768.399 482.123 768.46 482.122C768.522 482.121 768.583 482.129 768.64 482.146C768.697 482.163 768.748 482.189 768.79 482.221C769.197 482.527 769.29 482.843 769.07 483.168C769.027 483.233 768.962 483.29 768.881 483.333C768.801 483.377 768.707 483.405 768.607 483.416C768.508 483.428 768.406 483.421 768.311 483.398C768.215 483.375 768.129 483.335 768.06 483.283C767.66 482.982 767.687 482.633 768.14 482.236Z" fill="#86779A"/>
<path d="M640.011 484.879C640.07 485.979 640.878 486.851 641.817 486.825C642.755 486.799 643.468 485.886 643.409 484.785C643.35 483.685 642.541 482.814 641.603 482.84C640.665 482.866 639.952 483.779 640.011 484.879Z" fill="#86779A"/>
<path d="M1281.68 500.461C1281.57 500.06 1281.56 499.79 1281.64 499.651C1281.69 499.562 1281.78 499.485 1281.89 499.432C1282.01 499.378 1282.14 499.35 1282.28 499.35C1282.41 499.35 1282.54 499.378 1282.66 499.432C1282.77 499.485 1282.86 499.562 1282.91 499.651C1283.01 499.818 1283.02 500.029 1282.95 500.282C1282.9 500.459 1282.79 500.581 1282.63 500.648C1282.43 500.729 1282.21 500.744 1281.97 500.691C1281.9 500.676 1281.83 500.647 1281.78 500.606C1281.73 500.566 1281.7 500.516 1281.68 500.461Z" fill="#86779A"/>
<path d="M1378.12 504.966C1378.15 506.127 1379.05 507.054 1380.13 507.038C1381.21 507.022 1382.05 506.068 1382.02 504.908C1381.99 503.747 1381.09 502.82 1380.01 502.836C1378.93 502.852 1378.09 503.806 1378.12 504.966Z" fill="#86779A"/>
<path d="M213.69 508.459C213.37 508.727 213.167 508.686 213.08 508.337C213.04 508.15 213.063 507.904 213.15 507.598C213.23 507.316 213.443 507.249 213.79 507.397C213.937 507.464 214.037 507.591 214.09 507.777C214.143 507.964 214.01 508.191 213.69 508.459Z" fill="#86779A"/>
<path d="M726.346 512.885C726.429 513.352 726.851 513.699 727.289 513.659C727.727 513.62 728.016 513.208 727.934 512.741C727.851 512.273 727.429 511.926 726.991 511.966C726.553 512.006 726.264 512.417 726.346 512.885Z" fill="#86779A"/>
<path d="M656.17 555.906C655.923 555.413 655.807 554.957 655.82 554.536C655.827 554.24 655.95 554.041 656.19 553.941C656.35 553.869 656.537 553.847 656.75 553.876C657.103 553.919 657.317 554.063 657.39 554.306C657.583 554.938 657.463 555.495 657.03 555.978C656.982 556.033 656.913 556.077 656.831 556.105C656.749 556.133 656.658 556.144 656.568 556.136C656.479 556.129 656.393 556.103 656.323 556.062C656.252 556.022 656.199 555.967 656.17 555.906Z" fill="#86779A"/>
<path d="M735.17 593.829C735.165 594.28 735.617 594.649 736.18 594.653C736.743 594.656 737.204 594.293 737.21 593.841C737.215 593.39 736.763 593.021 736.2 593.017C735.637 593.014 735.176 593.377 735.17 593.829Z" fill="#060318"/>
<path d="M752.89 599.025C752.884 599.782 753.216 600.396 753.63 600.398C754.044 600.399 754.384 599.787 754.39 599.031C754.395 598.274 754.064 597.659 753.65 597.658C753.236 597.656 752.896 598.268 752.89 599.025Z" fill="#86779A"/>
<path d="M1435.76 601.201C1435.69 602.464 1436.59 603.516 1437.78 603.552C1438.96 603.587 1439.98 602.593 1440.06 601.33C1440.13 600.068 1439.23 599.015 1438.04 598.98C1436.86 598.944 1435.84 599.939 1435.76 601.201Z" fill="#060318"/>
<path d="M712.652 604.765C712.6 605.524 713.126 606.16 713.826 606.185C714.527 606.209 715.137 605.613 715.188 604.854C715.24 604.094 714.714 603.458 714.014 603.434C713.313 603.409 712.703 604.005 712.652 604.765Z" fill="#060318"/>
<path d="M1108.79 605.663C1108.82 605.601 1108.87 605.545 1108.93 605.504C1109 605.462 1109.09 605.435 1109.18 605.428C1109.27 605.42 1109.36 605.432 1109.44 605.461C1109.52 605.49 1109.59 605.535 1109.63 605.591C1110.4 606.528 1110.16 607.437 1108.91 608.316C1108.54 608.584 1108.34 608.529 1108.32 608.151C1108.27 607.353 1108.43 606.523 1108.79 605.663Z" fill="#86779A"/>
<path d="M1026.55 610.923C1026.51 611.437 1026.83 611.869 1027.28 611.887C1027.72 611.905 1028.11 611.503 1028.15 610.989C1028.19 610.475 1027.87 610.043 1027.42 610.025C1026.98 610.007 1026.59 610.409 1026.55 610.923Z" fill="#86779A"/>
<path d="M1271.19 629.131C1271.23 632.605 1273.83 635.406 1276.99 635.386C1280.15 635.366 1282.67 632.534 1282.63 629.06C1282.59 625.586 1279.99 622.786 1276.83 622.805C1273.67 622.825 1271.15 625.657 1271.19 629.131Z" fill="#060318"/>
<path d="M1169.94 628.646C1170.1 631.389 1172.49 633.548 1175.3 633.467C1178.1 633.386 1180.25 631.097 1180.1 628.354C1179.94 625.611 1177.55 623.453 1174.74 623.534C1171.94 623.614 1169.79 625.903 1169.94 628.646Z" fill="#060318"/>
<path d="M691.18 630.623C691.264 630.557 691.37 630.506 691.487 630.474C691.604 630.443 691.73 630.432 691.853 630.442C691.977 630.453 692.095 630.485 692.197 630.535C692.299 630.585 692.382 630.652 692.44 630.731C692.907 631.362 692.957 632.036 692.59 632.754C692.45 633.026 692.18 633.165 691.78 633.17C690.827 633.179 690.327 632.794 690.28 632.015C690.253 631.584 690.553 631.121 691.18 630.623Z" fill="#060318"/>
<path d="M681.79 633.686C681.771 634.819 682.476 635.744 683.365 635.752C684.254 635.759 684.991 634.847 685.01 633.714C685.029 632.582 684.324 631.657 683.435 631.649C682.546 631.641 681.809 632.553 681.79 633.686Z" fill="#060318"/>
<path d="M477.842 641.439C477.902 642.163 478.473 642.727 479.119 642.7C479.764 642.672 480.238 642.063 480.178 641.34C480.118 640.616 479.546 640.052 478.901 640.079C478.256 640.107 477.782 640.716 477.842 641.439Z" fill="#060318"/>
<path d="M1065.9 652.574C1066 653.935 1066.99 655.005 1068.11 654.964C1069.24 654.923 1070.07 653.787 1069.98 652.426C1069.88 651.065 1068.89 649.995 1067.77 650.036C1066.64 650.077 1065.81 651.213 1065.9 652.574Z" fill="#060318"/>
<path d="M614.061 674.514C614.124 676.142 615.335 677.438 616.765 677.409C618.195 677.381 619.302 676.038 619.239 674.411C619.176 672.783 617.965 671.487 616.535 671.516C615.105 671.544 613.998 672.887 614.061 674.514Z" fill="#060318"/>
<path d="M639.721 687.227C639.776 689.314 641.353 690.985 643.241 690.959C645.13 690.933 646.615 689.22 646.559 687.133C646.503 685.045 644.927 683.374 643.039 683.4C641.15 683.426 639.665 685.14 639.721 687.227Z" fill="#060318"/>
<path d="M588.12 694.883C588.813 695.61 588.79 696.344 588.05 697.085C587.932 697.204 587.769 697.296 587.58 697.351C587.392 697.406 587.186 697.422 586.986 697.396C586.787 697.371 586.602 697.305 586.454 697.207C586.306 697.108 586.2 696.981 586.15 696.841C585.93 696.243 585.997 695.634 586.35 695.012C586.42 694.891 586.534 694.786 586.68 694.708C586.827 694.63 587 694.581 587.181 694.568C587.363 694.555 587.546 694.577 587.711 694.633C587.876 694.688 588.018 694.775 588.12 694.883Z" fill="#060318"/>
<path d="M833.891 699.858C833.821 702.456 835.967 704.592 838.684 704.63C841.401 704.667 843.66 702.591 843.729 699.993C843.799 697.395 841.653 695.258 838.936 695.221C836.219 695.184 833.96 697.26 833.891 699.858Z" fill="#060318"/>
<path d="M371.99 702.205C371.957 703.445 372.906 704.463 374.11 704.48C375.314 704.496 376.316 703.505 376.35 702.265C376.383 701.025 375.434 700.007 374.23 699.99C373.026 699.974 372.024 700.965 371.99 702.205Z" fill="#060318"/>
<path d="M1071.59 710.442C1071.52 711.792 1072.6 712.918 1074.01 712.956C1075.42 712.995 1076.62 711.932 1076.69 710.582C1076.76 709.233 1075.68 708.107 1074.27 708.068C1072.86 708.029 1071.66 709.092 1071.59 710.442Z" fill="#060318"/>
<path d="M607.801 714.344C607.86 715.626 608.741 716.647 609.767 716.622C610.794 716.598 611.578 715.538 611.519 714.255C611.46 712.972 610.579 711.952 609.553 711.977C608.526 712.001 607.742 713.061 607.801 714.344Z" fill="#060318"/>
<path d="M889.501 719.256C889.41 722.65 891.893 725.437 895.046 725.48C898.198 725.524 900.828 722.808 900.919 719.413C901.01 716.019 898.528 713.232 895.375 713.189C892.222 713.145 889.592 715.862 889.501 719.256Z" fill="#060318"/>
<path d="M365.392 722.31C365.489 723.901 366.681 725.156 368.055 725.113C369.429 725.07 370.464 723.745 370.368 722.154C370.271 720.564 369.079 719.309 367.705 719.352C366.331 719.395 365.296 720.719 365.392 722.31Z" fill="#060318"/>
<path d="M958.843 723.56C958.914 724.219 959.44 724.728 960.018 724.696C960.596 724.664 961.008 724.104 960.937 723.444C960.866 722.785 960.34 722.276 959.762 722.308C959.184 722.34 958.772 722.9 958.843 723.56Z" fill="#060318"/>
<path d="M1159.54 732.695C1159.5 734.402 1160.7 735.8 1162.22 735.817C1163.74 735.834 1165 734.464 1165.04 732.757C1165.08 731.05 1163.88 729.652 1162.36 729.635C1160.84 729.618 1159.58 730.988 1159.54 732.695Z" fill="#060318"/>
<path d="M415.601 732.064C415.657 733.109 416.486 733.935 417.451 733.908C418.417 733.881 419.155 733.013 419.099 731.968C419.043 730.923 418.214 730.097 417.249 730.124C416.283 730.15 415.545 731.019 415.601 732.064Z" fill="#060318"/>
<path d="M634.501 745.194C634.438 746.488 635.381 747.563 636.606 747.593C637.831 747.624 638.876 746.599 638.939 745.305C639.002 744.01 638.059 742.936 636.834 742.905C635.609 742.875 634.564 743.899 634.501 745.194Z" fill="#060318"/>
<path d="M1031.32 749.132C1031.31 749.928 1031.89 750.576 1032.6 750.579C1033.31 750.581 1033.89 749.938 1033.9 749.142C1033.91 748.346 1033.33 747.698 1032.62 747.695C1031.91 747.693 1031.33 748.336 1031.32 749.132Z" fill="#060318"/>
<path d="M414.871 759.828C414.827 761.198 415.683 762.323 416.781 762.341C417.88 762.359 418.806 761.263 418.849 759.892C418.893 758.522 418.037 757.397 416.938 757.379C415.84 757.361 414.914 758.457 414.871 759.828Z" fill="#060318"/>
<path d="M1418.76 766.593C1418.79 767.923 1419.85 768.991 1421.13 768.976C1422.41 768.962 1423.43 767.871 1423.4 766.54C1423.37 765.209 1422.31 764.142 1421.03 764.157C1419.75 764.171 1418.73 765.262 1418.76 766.593Z" fill="#060318"/>
<path d="M663.35 776.606C663.338 778.269 664.492 779.622 665.928 779.628C667.364 779.633 668.538 778.289 668.55 776.625C668.562 774.961 667.408 773.608 665.972 773.603C664.536 773.598 663.362 774.942 663.35 776.606Z" fill="#060318"/>
</g>
<path d="M-73.4582 503H1463.56M-73.4582 481.103H1463.56M-72.3871 462.227H1464.63M-72.3871 443.35H1464.63M-73.4625 425.229H1463.56M-73.4625 407.862H1463.56M-74 390.496H1463.02M-70.2512 373.885H1466.77M-71.8582 358.028H1465.16M-72.3866 342.039H1464.63M-72.3866 323.162H1464.63M-73.462 305.041H1463.56M-73.462 287.674H1463.56M-73.9995 270.308H1463.02M-70.2506 253.697H1466.77M-71.8577 237.84H1465.16M-70.7695 221.851H1466.25M-70.7695 202.974H1466.25M-71.8449 184.853H1465.18M-71.8449 167.486H1465.18M-72.3824 150.12H1464.64M-68.6335 133.509H1468.39M-70.2406 117.652H1466.78M-69.156 98.1984H1467.86M-69.156 79.3219H1467.86M-70.2314 61.2005H1466.79M-70.2314 43.834H1466.79M-70.7689 26.4676H1466.25M-67.0201 9.85629H1470M-68.6271 -6H1468.39" stroke="url(#paint1_linear_395_5127)"/>
</g>
<defs>
<filter id="filter0_f_395_5127" x="-109" y="-65" width="1753" height="864" filterUnits="userSpaceOnUse" color-interpolation-filters="sRGB">
<feFlood flood-opacity="0" result="BackgroundImageFix"/>
<feBlend mode="normal" in="SourceGraphic" in2="BackgroundImageFix" result="shape"/>
<feGaussianBlur stdDeviation="1" result="effect1_foregroundBlur_395_5127"/>
</filter>
<linearGradient id="paint0_linear_395_5127" x1="720" y1="0" x2="720" y2="797" gradientUnits="userSpaceOnUse">
<stop stop-color="#270537"/>
<stop offset="0.207458" stop-color="#0C052F"/>
<stop offset="1"/>
</linearGradient>
<linearGradient id="paint1_linear_395_5127" x1="698" y1="503" x2="698" y2="-6" gradientUnits="userSpaceOnUse">
<stop stop-color="#302571" stop-opacity="0"/>
<stop offset="1" stop-color="#897BDC"/>
</linearGradient>
<clipPath id="clip0_395_5127">
<rect width="1440" height="797" fill="white"/>
</clipPath>
</defs>
</svg>
