<svg width="407" height="587" viewBox="0 0 407 587" fill="none" xmlns="http://www.w3.org/2000/svg">
<g clip-path="url(#clip0_2085_10300)">
<path d="M21 518.585V210L37.8413 225.322V503.263L21 518.585Z" fill="url(#paint0_linear_2085_10300)" stroke="url(#paint1_linear_2085_10300)" stroke-width="0.0647743"/>
<path d="M406.156 289.735L375 260V283.73L406.156 311.107V289.735Z" fill="url(#paint2_linear_2085_10300)" stroke="black" stroke-width="2.46142" stroke-linejoin="round"/>
<path d="M0.00176986 -0.000471436L105.422 -0.000473022L0.00176239 89.1289L0.00176986 -0.000471436Z" fill="#9E0214"/>
<path d="M117.713 0L0.127292 98.6042V185.573L42.3883 216.917V511.068L0 545.292V586.401H299.327L405.616 487.263V319.944L369.211 285.988V0H243.462H117.713Z" fill="black"/>
</g>
<defs>
<linearGradient id="paint0_linear_2085_10300" x1="29.4207" y1="210" x2="29.4207" y2="624.944" gradientUnits="userSpaceOnUse">
<stop stop-color="#FF0435"/>
<stop offset="1" stop-opacity="0.65"/>
</linearGradient>
<linearGradient id="paint1_linear_2085_10300" x1="29.4207" y1="218.129" x2="29.4207" y2="518.585" gradientUnits="userSpaceOnUse">
<stop stop-color="#FAB7B7"/>
<stop offset="0.0001" stop-color="#F9B1B1" stop-opacity="0.775"/>
<stop offset="1" stop-color="#F89E9E" stop-opacity="0"/>
</linearGradient>
<linearGradient id="paint2_linear_2085_10300" x1="390.857" y1="261.292" x2="390.857" y2="314.656" gradientUnits="userSpaceOnUse">
<stop stop-color="#FF0000"/>
<stop offset="1" stop-color="#230000" stop-opacity="0"/>
<stop offset="1" stop-opacity="0"/>
</linearGradient>
<clipPath id="clip0_2085_10300">
<rect width="406.156" height="586.402" fill="white"/>
</clipPath>
</defs>
</svg>
