<svg width="47" height="47" viewBox="0 0 47 47" fill="none" xmlns="http://www.w3.org/2000/svg">
<path d="M23.3933 4.76172C20.8727 4.76172 18.3768 5.25819 16.048 6.22278C13.7193 7.18737 11.6034 8.6012 9.82103 10.3835C6.22145 13.9831 4.19922 18.8652 4.19922 23.9558C4.19922 32.4396 9.70792 39.6373 17.328 42.1901C18.2877 42.3437 18.5948 41.7487 18.5948 41.2304V37.9866C13.278 39.1383 12.1456 35.4146 12.1456 35.4146C11.2626 33.1881 10.015 32.5931 10.015 32.5931C8.26836 31.4031 10.1494 31.4415 10.1494 31.4415C12.0688 31.5758 13.0861 33.4185 13.0861 33.4185C14.756 36.336 17.5775 35.4722 18.6715 35.0116C18.8443 33.764 19.3433 32.9194 19.8808 32.4396C15.6197 31.9597 11.1475 30.309 11.1475 22.9961C11.1475 20.8655 11.8768 19.1573 13.1245 17.7945C12.9325 17.3146 12.2607 15.3185 13.3164 12.7273C13.3164 12.7273 14.9287 12.209 18.5948 14.6851C20.1111 14.2628 21.7618 14.0516 23.3933 14.0516C25.0248 14.0516 26.6755 14.2628 28.1918 14.6851C31.8579 12.209 33.4702 12.7273 33.4702 12.7273C34.5259 15.3185 33.8541 17.3146 33.6621 17.7945C34.9097 19.1573 35.6391 20.8655 35.6391 22.9961C35.6391 30.3282 31.1477 31.9405 26.8674 32.4204C27.5584 33.0154 28.1918 34.1862 28.1918 35.9713V41.2304C28.1918 41.7487 28.4989 42.3629 29.4778 42.1901C37.0979 39.6181 42.5874 32.4396 42.5874 23.9558C42.5874 21.4352 42.0909 18.9393 41.1263 16.6105C40.1617 14.2818 38.7479 12.1659 36.9655 10.3835C35.1832 8.6012 33.0673 7.18737 30.7385 6.22278C28.4098 5.25819 25.9139 4.76172 23.3933 4.76172Z" fill="#F8F8F8"/>
</svg>
