<svg width="289" height="928" viewBox="0 0 289 928" fill="none" xmlns="http://www.w3.org/2000/svg">
<path opacity="0.6" d="M144.235 966.001C220.47 966.001 282.27 918.183 282.27 859.197C282.27 800.21 220.47 752.393 144.235 752.393C67.9998 752.393 6.19922 800.21 6.19922 859.197C6.19922 918.183 67.9998 966.001 144.235 966.001Z" fill="url(#paint0_radial_2641_4192)"/>
<path d="M144.32 83.9448C220.511 83.9448 282.276 65.1531 282.276 41.9724C282.276 18.7917 220.511 0 144.32 0C68.1285 0 6.36328 18.7917 6.36328 41.9724C6.36328 65.1531 68.1285 83.9448 144.32 83.9448Z" fill="url(#paint1_radial_2641_4192)"/>
<path d="M271.572 41.9766H17.0687C11.157 41.9766 6.36328 54.1907 6.36328 69.2617V851.701C6.36328 866.768 11.157 878.986 17.0687 878.986H271.572C277.484 878.986 282.278 866.772 282.278 851.701V69.2617C282.278 54.1945 277.484 41.9766 271.572 41.9766Z" fill="url(#paint2_linear_2641_4192)"/>
<path d="M224.882 115.073C224.882 102.877 188.813 92.9922 144.319 92.9922C99.8255 92.9922 63.7578 102.877 63.7578 115.073C63.7578 127.268 99.8269 137.153 144.319 137.153C188.815 137.153 224.882 127.268 224.882 115.073Z" fill="url(#paint3_radial_2641_4192)"/>
<path d="M221.125 843.08C221.125 830.885 185.055 821 140.562 821C96.0676 821 60 830.885 60 843.08C60 855.275 96.0691 865.161 140.562 865.161C185.057 865.161 221.125 855.275 221.125 843.08Z" fill="url(#paint4_radial_2641_4192)"/>
<path d="M204.908 105.798H84.1469L79.8138 61.086L71.1758 41.9766H216.798L209.496 64.8965L204.908 105.798Z" fill="url(#paint5_linear_2641_4192)"/>
<path d="M284.643 368.516L282.276 364.569V68.6195C282.276 53.9018 277.596 41.9727 271.821 41.9727H271.56H271.557H216.114C212.556 41.9727 209.336 47.3484 207.916 55.6608L202.617 86.65C201.431 93.5758 198.748 98.0549 195.784 98.0549H92.8544C89.8896 98.0549 87.2065 93.5758 86.023 86.65L80.724 55.6608C79.302 47.3484 76.0823 41.9727 72.5258 41.9727H17.0821H17.0806H17.0791H16.8182C11.0437 41.9727 6.36327 53.9018 6.36327 68.6195V364.573L4.20641 368.171C1.5815 372.547 0 380.001 0 387.998V533.58C0 541.185 1.50549 548.278 4.00221 552.442L6.36477 556.382V852.339C6.36477 867.057 11.0452 878.986 16.8197 878.986H17.0806H17.0821C17.0836 878.986 17.0836 878.986 17.0836 878.986H57.845H230.799H271.56H271.563H271.824C277.599 878.986 282.279 867.057 282.279 852.339V556.389L284.441 552.784C287.065 548.407 288.647 540.954 288.647 532.956V387.375C288.644 379.773 287.14 372.68 284.643 368.516ZM274.823 825.65C273.793 824.811 272.698 824.351 271.559 824.351C265.64 824.351 260.842 836.58 260.842 851.667C260.842 854.569 261.022 857.361 261.351 859.987H226.054L224.629 854.276C222.957 847.575 220.056 843.517 216.941 843.517H71.4153C68.4759 843.517 65.7407 847.347 64.1622 853.665L62.5851 859.987H27.2881C27.6175 857.361 27.7979 854.569 27.7979 851.667C27.7979 836.58 22.9997 824.351 17.0806 824.351C15.9418 824.351 14.8462 824.811 13.8162 825.65V568.805L13.8237 568.816V352.131L13.8162 352.142V95.3044C14.8462 96.144 15.9418 96.6037 17.0806 96.6037C22.9997 96.6037 27.7979 84.3744 27.7979 69.2882C27.7979 66.3857 27.6175 63.5933 27.2881 60.9681H72.5258C73.119 60.9681 73.6556 61.8647 73.8926 63.2476L79.1917 94.2368C81.5617 108.092 86.9249 117.047 92.8559 117.047H195.784C201.715 117.047 207.078 108.092 209.448 94.2368L214.747 63.2476C214.984 61.8609 215.52 60.9681 216.114 60.9681H261.351C261.022 63.5933 260.842 66.3857 260.842 69.2882C260.842 84.3744 265.64 96.6037 271.559 96.6037C272.698 96.6037 273.793 96.144 274.823 95.3044V352.138L274.82 352.135V568.82L274.823 568.816V825.65Z" fill="url(#paint6_linear_2641_4192)"/>
<path d="M261.356 60.9718H261.364H261.356ZM261.356 60.9718C261.027 63.597 260.846 66.3893 260.846 69.2918C260.846 84.3781 265.645 96.6073 271.564 96.6073C272.703 96.6073 273.798 96.1477 274.828 95.3081V352.142L274.825 352.138V568.824L274.828 568.82V825.658C273.798 824.818 272.703 824.358 271.564 824.358C265.645 824.358 260.846 836.588 260.846 851.674C260.846 854.576 261.027 857.369 261.356 859.994H226.059L224.634 854.284C222.962 847.582 220.061 843.525 216.946 843.525H71.4201C68.4807 843.525 65.7455 847.354 64.167 853.672L62.5899 859.994H27.2929C27.6223 857.369 27.8027 854.576 27.8027 851.674C27.8027 836.588 23.0045 824.358 17.0854 824.358C15.9466 824.358 14.851 824.818 13.821 825.658V568.812L13.8285 568.824V352.138L13.821 352.15V95.3081C14.851 96.1477 15.9466 96.6073 17.0854 96.6073C23.0045 96.6073 27.8027 84.3781 27.8027 69.2918C27.8027 66.3893 27.6223 63.597 27.2929 60.9718H72.5306C73.1239 60.9718 73.6605 61.8684 73.8975 63.2513L79.1965 94.2405C81.5665 108.096 86.9297 117.05 92.8607 117.05H195.788C201.72 117.05 207.083 108.096 209.453 94.2405L214.752 63.2513C214.989 61.8646 215.525 60.9718 216.119 60.9718H261.356ZM261.364 59.0723H261.356H216.119C215.229 59.0723 214.424 60.4171 214.069 62.4953L208.768 93.4845C206.518 106.648 201.421 115.155 195.787 115.155H92.8592C87.2248 115.155 82.13 106.648 79.8777 93.4845L74.5787 62.4953C74.2225 60.4171 73.419 59.0723 72.5292 59.0723H27.2914C27.0529 59.0723 26.8293 59.361 26.6892 59.8511C26.5491 60.3412 26.5089 60.9718 26.5804 61.5493C26.8949 64.0605 27.0559 66.6667 27.0559 69.2918C27.0559 83.3067 22.5827 94.7078 17.0839 94.7078C16.0539 94.7078 15.0314 94.3013 14.0461 93.4959C13.9716 93.4351 13.8955 93.4047 13.8195 93.4047C13.663 93.4047 13.5095 93.5301 13.3798 93.7694C13.1875 94.1265 13.0742 94.6964 13.0742 95.3043V352.146C13.0742 352.237 13.0772 352.328 13.0817 352.416V568.539C13.0772 568.626 13.0742 568.713 13.0742 568.805V825.65C13.0742 826.258 13.1875 826.828 13.3798 827.185C13.5095 827.424 13.663 827.55 13.8195 827.55C13.8955 827.55 13.9716 827.519 14.0461 827.458C15.0314 826.657 16.0539 826.247 17.0839 826.247C22.5827 826.247 27.0559 837.648 27.0559 851.663C27.0559 854.288 26.8964 856.894 26.5804 859.405C26.5074 859.983 26.5476 860.613 26.6892 861.103C26.8293 861.594 27.0529 861.882 27.2914 861.882H62.5884C62.8433 861.882 63.0803 861.552 63.2175 861.001L64.796 854.679C66.2449 848.874 68.7207 845.409 71.4201 845.409H216.946C219.823 845.409 222.461 849.102 224.005 855.287L225.43 860.997C225.567 861.544 225.804 861.878 226.059 861.878H261.356C261.595 861.878 261.818 861.59 261.958 861.1C262.099 860.609 262.139 859.979 262.066 859.401C261.751 856.89 261.59 854.284 261.59 851.659C261.59 837.644 266.063 826.243 271.562 826.243C272.592 826.243 273.615 826.649 274.6 827.455C274.675 827.516 274.751 827.546 274.827 827.546C274.983 827.546 275.137 827.421 275.266 827.181C275.459 826.824 275.572 826.254 275.572 825.646V568.808C275.572 568.751 275.57 568.691 275.569 568.634V352.309C275.57 352.252 275.572 352.195 275.572 352.135V95.3081C275.572 94.7002 275.459 94.1303 275.266 93.7732C275.137 93.5339 274.983 93.4085 274.827 93.4085C274.751 93.4085 274.675 93.4389 274.6 93.4997C273.615 94.3013 272.592 94.7116 271.562 94.7116C266.063 94.7116 261.59 83.3105 261.59 69.2956C261.59 66.7275 261.744 64.1745 262.045 61.7126C262.082 61.4847 262.105 61.2377 262.105 60.9756C262.105 59.9233 261.775 59.0723 261.364 59.0723Z" fill="url(#paint7_linear_2641_4192)"/>
<path d="M88.3179 55.9769C88.6315 55.9769 88.8858 55.3289 88.8858 54.5295C88.8858 53.7301 88.6315 53.082 88.3179 53.082C88.0042 53.082 87.75 53.7301 87.75 54.5295C87.75 55.3289 88.0042 55.9769 88.3179 55.9769Z" fill="black"/>
<path d="M91.2046 55.9769C91.5183 55.9769 91.7726 55.3289 91.7726 54.5295C91.7726 53.7301 91.5183 53.082 91.2046 53.082C90.891 53.082 90.6367 53.7301 90.6367 54.5295C90.6367 55.3289 90.891 55.9769 91.2046 55.9769Z" fill="black"/>
<path d="M94.0991 53.082C93.7846 53.082 93.5312 53.7317 93.5312 54.5295C93.5312 55.3311 93.7861 55.9769 94.0991 55.9769C94.4136 55.9769 94.667 55.3273 94.667 54.5295C94.667 53.7317 94.4122 53.082 94.0991 53.082Z" fill="black"/>
<path d="M96.9859 53.082C96.6713 53.082 96.418 53.7317 96.418 54.5295C96.418 55.3311 96.6728 55.9769 96.9859 55.9769C97.3004 55.9769 97.5537 55.3273 97.5537 54.5295C97.5537 53.7317 97.3004 53.082 96.9859 53.082Z" fill="black"/>
<path d="M99.8765 53.082C99.562 53.082 99.3086 53.7317 99.3086 54.5295C99.3086 55.3311 99.5635 55.9769 99.8765 55.9769C100.191 55.9769 100.444 55.3273 100.444 54.5295C100.446 53.7317 100.191 53.082 99.8765 53.082Z" fill="black"/>
<path d="M102.763 53.082C102.449 53.082 102.195 53.7317 102.195 54.5295C102.195 55.3311 102.45 55.9769 102.763 55.9769C103.076 55.9769 103.331 55.3273 103.331 54.5295C103.331 53.7317 103.076 53.082 102.763 53.082Z" fill="black"/>
<path d="M105.65 53.082C105.335 53.082 105.082 53.7317 105.082 54.5295C105.082 55.3311 105.337 55.9769 105.65 55.9769C105.964 55.9769 106.218 55.3273 106.218 54.5295C106.218 53.7317 105.964 53.082 105.65 53.082Z" fill="black"/>
<path d="M108.541 53.082C108.226 53.082 107.973 53.7317 107.973 54.5295C107.973 55.3311 108.228 55.9769 108.541 55.9769C108.855 55.9769 109.108 55.3273 109.108 54.5295C109.11 53.7317 108.855 53.082 108.541 53.082Z" fill="black"/>
<path d="M111.435 53.082C111.121 53.082 110.867 53.7317 110.867 54.5295C110.867 55.3311 111.122 55.9769 111.435 55.9769C111.748 55.9769 112.003 55.3273 112.003 54.5295C112.003 53.7317 111.748 53.082 111.435 53.082Z" fill="black"/>
<path d="M114.322 53.082C114.009 53.082 113.754 53.7317 113.754 54.5295C113.754 55.3311 114.009 55.9769 114.322 55.9769C114.636 55.9769 114.89 55.3273 114.89 54.5295C114.89 53.7317 114.635 53.082 114.322 53.082Z" fill="black"/>
<path d="M117.209 53.082C116.894 53.082 116.641 53.7317 116.641 54.5295C116.641 55.3311 116.895 55.9769 117.209 55.9769C117.523 55.9769 117.776 55.3273 117.776 54.5295C117.776 53.7317 117.523 53.082 117.209 53.082Z" fill="black"/>
<path d="M120.099 55.9769C120.413 55.9769 120.667 55.3289 120.667 54.5295C120.667 53.7301 120.413 53.082 120.099 53.082C119.785 53.082 119.531 53.7301 119.531 54.5295C119.531 55.3289 119.785 55.9769 120.099 55.9769Z" fill="black"/>
<path d="M122.99 55.9769C123.303 55.9769 123.558 55.3289 123.558 54.5295C123.558 53.7301 123.303 53.082 122.99 53.082C122.676 53.082 122.422 53.7301 122.422 54.5295C122.422 55.3289 122.676 55.9769 122.99 55.9769Z" fill="black"/>
<path d="M125.88 55.9769C126.194 55.9769 126.448 55.3289 126.448 54.5295C126.448 53.7301 126.194 53.082 125.88 53.082C125.567 53.082 125.312 53.7301 125.312 54.5295C125.312 55.3289 125.567 55.9769 125.88 55.9769Z" fill="black"/>
<path d="M128.767 55.9769C129.081 55.9769 129.335 55.3289 129.335 54.5295C129.335 53.7301 129.081 53.082 128.767 53.082C128.453 53.082 128.199 53.7301 128.199 54.5295C128.199 55.3289 128.453 55.9769 128.767 55.9769Z" fill="black"/>
<path d="M131.654 53.082C131.339 53.082 131.086 53.7317 131.086 54.5295C131.086 55.3311 131.341 55.9769 131.654 55.9769C131.968 55.9769 132.222 55.3273 132.222 54.5295C132.222 53.7317 131.967 53.082 131.654 53.082Z" fill="black"/>
<path d="M134.544 53.082C134.23 53.082 133.977 53.7317 133.977 54.5295C133.977 55.3311 134.231 55.9769 134.544 55.9769C134.859 55.9769 135.112 55.3273 135.112 54.5295C135.112 53.7317 134.859 53.082 134.544 53.082Z" fill="black"/>
<path d="M137.431 53.082C137.117 53.082 136.863 53.7317 136.863 54.5295C136.863 55.3311 137.118 55.9769 137.431 55.9769C137.746 55.9769 137.999 55.3273 137.999 54.5295C138.001 53.7317 137.746 53.082 137.431 53.082Z" fill="black"/>
<path d="M140.326 55.9769C140.639 55.9769 140.894 55.3289 140.894 54.5295C140.894 53.7301 140.639 53.082 140.326 53.082C140.012 53.082 139.758 53.7301 139.758 54.5295C139.758 55.3289 140.012 55.9769 140.326 55.9769Z" fill="black"/>
<path d="M143.212 55.9769C143.526 55.9769 143.78 55.3289 143.78 54.5295C143.78 53.7301 143.526 53.082 143.212 53.082C142.899 53.082 142.645 53.7301 142.645 54.5295C142.645 55.3289 142.899 55.9769 143.212 55.9769Z" fill="black"/>
<path d="M146.103 53.082C145.789 53.082 145.535 53.7317 145.535 54.5295C145.535 55.3311 145.79 55.9769 146.103 55.9769C146.418 55.9769 146.671 55.3273 146.671 54.5295C146.673 53.7317 146.418 53.082 146.103 53.082Z" fill="black"/>
<path d="M148.99 55.9769C149.303 55.9769 149.558 55.3289 149.558 54.5295C149.558 53.7301 149.303 53.082 148.99 53.082C148.676 53.082 148.422 53.7301 148.422 54.5295C148.422 55.3289 148.676 55.9769 148.99 55.9769Z" fill="black"/>
<path d="M151.884 55.9769C152.198 55.9769 152.452 55.3289 152.452 54.5295C152.452 53.7301 152.198 53.082 151.884 53.082C151.571 53.082 151.316 53.7301 151.316 54.5295C151.316 55.3289 151.571 55.9769 151.884 55.9769Z" fill="black"/>
<path d="M154.771 55.9769C155.085 55.9769 155.339 55.3289 155.339 54.5295C155.339 53.7301 155.085 53.082 154.771 53.082C154.457 53.082 154.203 53.7301 154.203 54.5295C154.203 55.3289 154.457 55.9769 154.771 55.9769Z" fill="black"/>
<path d="M157.658 55.9769C157.971 55.9769 158.226 55.3289 158.226 54.5295C158.226 53.7301 157.971 53.082 157.658 53.082C157.344 53.082 157.09 53.7301 157.09 54.5295C157.09 55.3289 157.344 55.9769 157.658 55.9769Z" fill="black"/>
<path d="M160.548 55.9769C160.862 55.9769 161.116 55.3289 161.116 54.5295C161.116 53.7301 160.862 53.082 160.548 53.082C160.235 53.082 159.98 53.7301 159.98 54.5295C159.98 55.3289 160.235 55.9769 160.548 55.9769Z" fill="black"/>
<path d="M163.435 55.9769C163.749 55.9769 164.003 55.3289 164.003 54.5295C164.003 53.7301 163.749 53.082 163.435 53.082C163.121 53.082 162.867 53.7301 162.867 54.5295C162.867 55.3289 163.121 55.9769 163.435 55.9769Z" fill="black"/>
<path d="M166.322 55.9769C166.635 55.9769 166.89 55.3289 166.89 54.5295C166.89 53.7301 166.635 53.082 166.322 53.082C166.008 53.082 165.754 53.7301 165.754 54.5295C165.754 55.3289 166.008 55.9769 166.322 55.9769Z" fill="black"/>
<path d="M169.216 53.082C168.902 53.082 168.648 53.7317 168.648 54.5295C168.648 55.3311 168.903 55.9769 169.216 55.9769C169.531 55.9769 169.784 55.3273 169.784 54.5295C169.784 53.7317 169.529 53.082 169.216 53.082Z" fill="black"/>
<path d="M172.103 53.082C171.789 53.082 171.535 53.7317 171.535 54.5295C171.535 55.3311 171.79 55.9769 172.103 55.9769C172.418 55.9769 172.671 55.3273 172.671 54.5295C172.671 53.7317 172.418 53.082 172.103 53.082Z" fill="black"/>
<path d="M174.994 53.082C174.679 53.082 174.426 53.7317 174.426 54.5295C174.426 55.3311 174.681 55.9769 174.994 55.9769C175.308 55.9769 175.562 55.3273 175.562 54.5295C175.563 53.7317 175.308 53.082 174.994 53.082Z" fill="black"/>
<path d="M177.888 53.082C177.574 53.082 177.32 53.7317 177.32 54.5295C177.32 55.3311 177.575 55.9769 177.888 55.9769C178.203 55.9769 178.456 55.3273 178.456 54.5295C178.456 53.7317 178.201 53.082 177.888 53.082Z" fill="black"/>
<path d="M180.775 53.082C180.46 53.082 180.207 53.7317 180.207 54.5295C180.207 55.3311 180.462 55.9769 180.775 55.9769C181.089 55.9769 181.343 55.3273 181.343 54.5295C181.343 53.7317 181.089 53.082 180.775 53.082Z" fill="black"/>
<path d="M183.662 53.082C183.347 53.082 183.094 53.7317 183.094 54.5295C183.094 55.3311 183.349 55.9769 183.662 55.9769C183.976 55.9769 184.23 55.3273 184.23 54.5295C184.23 53.7317 183.976 53.082 183.662 53.082Z" fill="black"/>
<path d="M186.552 53.082C186.239 53.082 185.984 53.7317 185.984 54.5295C185.984 55.3311 186.239 55.9769 186.552 55.9769C186.867 55.9769 187.12 55.3273 187.12 54.5295C187.122 53.7317 186.867 53.082 186.552 53.082Z" fill="black"/>
<path d="M189.439 55.9769C189.753 55.9769 190.007 55.3289 190.007 54.5295C190.007 53.7301 189.753 53.082 189.439 53.082C189.125 53.082 188.871 53.7301 188.871 54.5295C188.871 55.3289 189.125 55.9769 189.439 55.9769Z" fill="black"/>
<path d="M192.326 55.9769C192.639 55.9769 192.894 55.3289 192.894 54.5295C192.894 53.7301 192.639 53.082 192.326 53.082C192.012 53.082 191.758 53.7301 191.758 54.5295C191.758 55.3289 192.012 55.9769 192.326 55.9769Z" fill="black"/>
<path d="M195.22 55.9769C195.534 55.9769 195.788 55.3289 195.788 54.5295C195.788 53.7301 195.534 53.082 195.22 53.082C194.907 53.082 194.652 53.7301 194.652 54.5295C194.652 55.3289 194.907 55.9769 195.22 55.9769Z" fill="black"/>
<path d="M198.107 55.9769C198.421 55.9769 198.675 55.3289 198.675 54.5295C198.675 53.7301 198.421 53.082 198.107 53.082C197.793 53.082 197.539 53.7301 197.539 54.5295C197.539 55.3289 197.793 55.9769 198.107 55.9769Z" fill="black"/>
<path d="M200.998 55.9769C201.311 55.9769 201.565 55.3289 201.565 54.5295C201.565 53.7301 201.311 53.082 200.998 53.082C200.684 53.082 200.43 53.7301 200.43 54.5295C200.43 55.3289 200.684 55.9769 200.998 55.9769Z" fill="black"/>
<path d="M89.7632 63.35C90.0768 63.35 90.3311 62.7019 90.3311 61.9025C90.3311 61.1031 90.0768 60.4551 89.7632 60.4551C89.4495 60.4551 89.1953 61.1031 89.1953 61.9025C89.1953 62.7019 89.4495 63.35 89.7632 63.35Z" fill="black"/>
<path d="M92.6499 60.4551C92.3369 60.4551 92.082 61.1047 92.082 61.9025C92.082 62.7041 92.3369 63.35 92.6499 63.35C92.9644 63.35 93.2179 62.7003 93.2179 61.9025C93.2194 61.1047 92.9644 60.4551 92.6499 60.4551Z" fill="black"/>
<path d="M95.5444 60.4551C95.2299 60.4551 94.9766 61.1047 94.9766 61.9025C94.9766 62.7041 95.2314 63.35 95.5444 63.35C95.859 63.35 96.1123 62.7003 96.1123 61.9025C96.1123 61.1047 95.859 60.4551 95.5444 60.4551Z" fill="black"/>
<path d="M98.4312 63.35C98.7448 63.35 98.9991 62.7019 98.9991 61.9025C98.9991 61.1031 98.7448 60.4551 98.4312 60.4551C98.1175 60.4551 97.8633 61.1031 97.8633 61.9025C97.8633 62.7019 98.1175 63.35 98.4312 63.35Z" fill="black"/>
<path d="M101.318 63.35C101.632 63.35 101.886 62.7019 101.886 61.9025C101.886 61.1031 101.632 60.4551 101.318 60.4551C101.004 60.4551 100.75 61.1031 100.75 61.9025C100.75 62.7019 101.004 63.35 101.318 63.35Z" fill="black"/>
<path d="M104.209 63.35C104.522 63.35 104.776 62.7019 104.776 61.9025C104.776 61.1031 104.522 60.4551 104.209 60.4551C103.895 60.4551 103.641 61.1031 103.641 61.9025C103.641 62.7019 103.895 63.35 104.209 63.35Z" fill="black"/>
<path d="M107.095 63.35C107.409 63.35 107.663 62.7019 107.663 61.9025C107.663 61.1031 107.409 60.4551 107.095 60.4551C106.782 60.4551 106.527 61.1031 106.527 61.9025C106.527 62.7019 106.782 63.35 107.095 63.35Z" fill="black"/>
<path d="M109.982 63.35C110.296 63.35 110.55 62.7019 110.55 61.9025C110.55 61.1031 110.296 60.4551 109.982 60.4551C109.668 60.4551 109.414 61.1031 109.414 61.9025C109.414 62.7019 109.668 63.35 109.982 63.35Z" fill="black"/>
<path d="M112.876 60.4551C112.562 60.4551 112.309 61.1047 112.309 61.9025C112.309 62.7041 112.563 63.35 112.876 63.35C113.191 63.35 113.444 62.7003 113.444 61.9025C113.444 61.1047 113.19 60.4551 112.876 60.4551Z" fill="black"/>
<path d="M115.767 60.4551C115.453 60.4551 115.199 61.1047 115.199 61.9025C115.199 62.7041 115.454 63.35 115.767 63.35C116.082 63.35 116.335 62.7003 116.335 61.9025C116.335 61.1047 116.082 60.4551 115.767 60.4551Z" fill="black"/>
<path d="M118.654 60.4551C118.339 60.4551 118.086 61.1047 118.086 61.9025C118.086 62.7041 118.341 63.35 118.654 63.35C118.968 63.35 119.222 62.7003 119.222 61.9025C119.223 61.1047 118.968 60.4551 118.654 60.4551Z" fill="black"/>
<path d="M121.548 63.35C121.862 63.35 122.116 62.7019 122.116 61.9025C122.116 61.1031 121.862 60.4551 121.548 60.4551C121.235 60.4551 120.98 61.1031 120.98 61.9025C120.98 62.7019 121.235 63.35 121.548 63.35Z" fill="black"/>
<path d="M124.435 60.4551C124.121 60.4551 123.867 61.1047 123.867 61.9025C123.867 62.7041 124.122 63.35 124.435 63.35C124.75 63.35 125.003 62.7003 125.003 61.9025C125.003 61.1047 124.75 60.4551 124.435 60.4551Z" fill="black"/>
<path d="M127.322 60.4551C127.007 60.4551 126.754 61.1047 126.754 61.9025C126.754 62.7041 127.009 63.35 127.322 63.35C127.636 63.35 127.89 62.7003 127.89 61.9025C127.89 61.1047 127.636 60.4551 127.322 60.4551Z" fill="black"/>
<path d="M130.212 60.4551C129.899 60.4551 129.645 61.1047 129.645 61.9025C129.645 62.7041 129.899 63.35 130.212 63.35C130.527 63.35 130.78 62.7003 130.78 61.9025C130.782 61.1047 130.527 60.4551 130.212 60.4551Z" fill="black"/>
<path d="M133.099 63.35C133.413 63.35 133.667 62.7019 133.667 61.9025C133.667 61.1031 133.413 60.4551 133.099 60.4551C132.785 60.4551 132.531 61.1031 132.531 61.9025C132.531 62.7019 132.785 63.35 133.099 63.35Z" fill="black"/>
<path d="M135.986 63.35C136.3 63.35 136.554 62.7019 136.554 61.9025C136.554 61.1031 136.3 60.4551 135.986 60.4551C135.672 60.4551 135.418 61.1031 135.418 61.9025C135.418 62.7019 135.672 63.35 135.986 63.35Z" fill="black"/>
<path d="M138.88 63.35C139.194 63.35 139.448 62.7019 139.448 61.9025C139.448 61.1031 139.194 60.4551 138.88 60.4551C138.567 60.4551 138.312 61.1031 138.312 61.9025C138.312 62.7019 138.567 63.35 138.88 63.35Z" fill="black"/>
<path d="M141.771 63.35C142.085 63.35 142.339 62.7019 142.339 61.9025C142.339 61.1031 142.085 60.4551 141.771 60.4551C141.457 60.4551 141.203 61.1031 141.203 61.9025C141.203 62.7019 141.457 63.35 141.771 63.35Z" fill="black"/>
<path d="M144.658 63.35C144.971 63.35 145.226 62.7019 145.226 61.9025C145.226 61.1031 144.971 60.4551 144.658 60.4551C144.344 60.4551 144.09 61.1031 144.09 61.9025C144.09 62.7019 144.344 63.35 144.658 63.35Z" fill="black"/>
<path d="M147.544 63.35C147.858 63.35 148.112 62.7019 148.112 61.9025C148.112 61.1031 147.858 60.4551 147.544 60.4551C147.231 60.4551 146.977 61.1031 146.977 61.9025C146.977 62.7019 147.231 63.35 147.544 63.35Z" fill="black"/>
<path d="M150.439 60.4551C150.124 60.4551 149.871 61.1047 149.871 61.9025C149.871 62.7041 150.126 63.35 150.439 63.35C150.753 63.35 151.007 62.7003 151.007 61.9025C151.007 61.1047 150.752 60.4551 150.439 60.4551Z" fill="black"/>
<path d="M153.326 60.4551C153.011 60.4551 152.758 61.1047 152.758 61.9025C152.758 62.7041 153.013 63.35 153.326 63.35C153.64 63.35 153.894 62.7003 153.894 61.9025C153.894 61.1047 153.64 60.4551 153.326 60.4551Z" fill="black"/>
<path d="M156.216 60.4551C155.902 60.4551 155.648 61.1047 155.648 61.9025C155.648 62.7041 155.903 63.35 156.216 63.35C156.531 63.35 156.784 62.7003 156.784 61.9025C156.786 61.1047 156.531 60.4551 156.216 60.4551Z" fill="black"/>
<path d="M159.103 60.4551C158.789 60.4551 158.535 61.1047 158.535 61.9025C158.535 62.7041 158.79 63.35 159.103 63.35C159.418 63.35 159.671 62.7003 159.671 61.9025C159.671 61.1047 159.416 60.4551 159.103 60.4551Z" fill="black"/>
<path d="M161.99 60.4551C161.675 60.4551 161.422 61.1047 161.422 61.9025C161.422 62.7041 161.677 63.35 161.99 63.35C162.304 63.35 162.558 62.7003 162.558 61.9025C162.558 61.1047 162.304 60.4551 161.99 60.4551Z" fill="black"/>
<path d="M164.88 60.4551C164.566 60.4551 164.312 61.1047 164.312 61.9025C164.312 62.7041 164.567 63.35 164.88 63.35C165.195 63.35 165.448 62.7003 165.448 61.9025C165.45 61.1047 165.195 60.4551 164.88 60.4551Z" fill="black"/>
<path d="M167.771 60.4551C167.456 60.4551 167.203 61.1047 167.203 61.9025C167.203 62.7041 167.458 63.35 167.771 63.35C168.084 63.35 168.339 62.7003 168.339 61.9025C168.339 61.1047 168.084 60.4551 167.771 60.4551Z" fill="black"/>
<path d="M170.662 63.35C170.975 63.35 171.23 62.7019 171.23 61.9025C171.23 61.1031 170.975 60.4551 170.662 60.4551C170.348 60.4551 170.094 61.1031 170.094 61.9025C170.094 62.7019 170.348 63.35 170.662 63.35Z" fill="black"/>
<path d="M173.548 63.35C173.862 63.35 174.116 62.7019 174.116 61.9025C174.116 61.1031 173.862 60.4551 173.548 60.4551C173.235 60.4551 172.98 61.1031 172.98 61.9025C172.98 62.7019 173.235 63.35 173.548 63.35Z" fill="black"/>
<path d="M176.435 63.35C176.749 63.35 177.003 62.7019 177.003 61.9025C177.003 61.1031 176.749 60.4551 176.435 60.4551C176.121 60.4551 175.867 61.1031 175.867 61.9025C175.867 62.7019 176.121 63.35 176.435 63.35Z" fill="black"/>
<path d="M179.33 63.35C179.643 63.35 179.897 62.7019 179.897 61.9025C179.897 61.1031 179.643 60.4551 179.33 60.4551C179.016 60.4551 178.762 61.1031 178.762 61.9025C178.762 62.7019 179.016 63.35 179.33 63.35Z" fill="black"/>
<path d="M182.22 63.35C182.534 63.35 182.788 62.7019 182.788 61.9025C182.788 61.1031 182.534 60.4551 182.22 60.4551C181.907 60.4551 181.652 61.1031 181.652 61.9025C181.652 62.7019 181.907 63.35 182.22 63.35Z" fill="black"/>
<path d="M185.107 63.35C185.421 63.35 185.675 62.7019 185.675 61.9025C185.675 61.1031 185.421 60.4551 185.107 60.4551C184.793 60.4551 184.539 61.1031 184.539 61.9025C184.539 62.7019 184.793 63.35 185.107 63.35Z" fill="black"/>
<path d="M187.994 60.4551C187.679 60.4551 187.426 61.1047 187.426 61.9025C187.426 62.7041 187.681 63.35 187.994 63.35C188.308 63.35 188.562 62.7003 188.562 61.9025C188.562 61.1047 188.307 60.4551 187.994 60.4551Z" fill="black"/>
<path d="M190.884 60.4551C190.57 60.4551 190.316 61.1047 190.316 61.9025C190.316 62.7041 190.571 63.35 190.884 63.35C191.199 63.35 191.452 62.7003 191.452 61.9025C191.452 61.1047 191.199 60.4551 190.884 60.4551Z" fill="black"/>
<path d="M193.771 60.4551C193.456 60.4551 193.203 61.1047 193.203 61.9025C193.203 62.7041 193.458 63.35 193.771 63.35C194.086 63.35 194.339 62.7003 194.339 61.9025C194.34 61.1047 194.086 60.4551 193.771 60.4551Z" fill="black"/>
<path d="M196.666 63.35C196.979 63.35 197.233 62.7019 197.233 61.9025C197.233 61.1031 196.979 60.4551 196.666 60.4551C196.352 60.4551 196.098 61.1031 196.098 61.9025C196.098 62.7019 196.352 63.35 196.666 63.35Z" fill="black"/>
<path d="M199.552 60.4551C199.238 60.4551 198.984 61.1047 198.984 61.9025C198.984 62.7041 199.239 63.35 199.552 63.35C199.867 63.35 200.12 62.7003 200.12 61.9025C200.12 61.1047 199.867 60.4551 199.552 60.4551Z" fill="black"/>
<path d="M91.2046 67.8398C90.8901 67.8398 90.6367 68.4895 90.6367 69.2873C90.6367 70.0851 90.8916 70.7348 91.2046 70.7348C91.5191 70.7348 91.7726 70.0851 91.7726 69.2873C91.7726 68.4895 91.5191 67.8398 91.2046 67.8398Z" fill="black"/>
<path d="M94.0991 67.8398C93.7846 67.8398 93.5312 68.4895 93.5312 69.2873C93.5312 70.0851 93.7861 70.7348 94.0991 70.7348C94.4136 70.7348 94.667 70.0851 94.667 69.2873C94.667 68.4895 94.4122 67.8398 94.0991 67.8398Z" fill="black"/>
<path d="M96.9859 67.8398C96.6713 67.8398 96.418 68.4895 96.418 69.2873C96.418 70.0851 96.6728 70.7348 96.9859 70.7348C97.3004 70.7348 97.5537 70.0851 97.5537 69.2873C97.5537 68.4895 97.3004 67.8398 96.9859 67.8398Z" fill="black"/>
<path d="M99.8765 67.8398C99.562 67.8398 99.3086 68.4895 99.3086 69.2873C99.3086 70.0851 99.5635 70.7348 99.8765 70.7348C100.191 70.7348 100.444 70.0851 100.444 69.2873C100.444 68.4895 100.191 67.8398 99.8765 67.8398Z" fill="black"/>
<path d="M102.763 67.8398C102.449 67.8398 102.195 68.4895 102.195 69.2873C102.195 70.0851 102.45 70.7348 102.763 70.7348C103.076 70.7348 103.331 70.0851 103.331 69.2873C103.331 68.4895 103.076 67.8398 102.763 67.8398Z" fill="black"/>
<path d="M105.65 67.8398C105.335 67.8398 105.082 68.4895 105.082 69.2873C105.082 70.0851 105.337 70.7348 105.65 70.7348C105.964 70.7348 106.218 70.0851 106.218 69.2873C106.218 68.4895 105.964 67.8398 105.65 67.8398Z" fill="black"/>
<path d="M108.541 67.8398C108.226 67.8398 107.973 68.4895 107.973 69.2873C107.973 70.0851 108.228 70.7348 108.541 70.7348C108.855 70.7348 109.108 70.0851 109.108 69.2873C109.108 68.4895 108.855 67.8398 108.541 67.8398Z" fill="black"/>
<path d="M111.435 67.8398C111.121 67.8398 110.867 68.4895 110.867 69.2873C110.867 70.0851 111.122 70.7348 111.435 70.7348C111.748 70.7348 112.003 70.0851 112.003 69.2873C112.003 68.4895 111.748 67.8398 111.435 67.8398Z" fill="black"/>
<path d="M114.322 67.8398C114.009 67.8398 113.754 68.4895 113.754 69.2873C113.754 70.0851 114.009 70.7348 114.322 70.7348C114.636 70.7348 114.89 70.0851 114.89 69.2873C114.89 68.4895 114.635 67.8398 114.322 67.8398Z" fill="black"/>
<path d="M117.209 67.8398C116.894 67.8398 116.641 68.4895 116.641 69.2873C116.641 70.0851 116.895 70.7348 117.209 70.7348C117.523 70.7348 117.776 70.0851 117.776 69.2873C117.776 68.4895 117.523 67.8398 117.209 67.8398Z" fill="black"/>
<path d="M120.099 67.8398C119.785 67.8398 119.531 68.4895 119.531 69.2873C119.531 70.0851 119.786 70.7348 120.099 70.7348C120.414 70.7348 120.667 70.0851 120.667 69.2873C120.667 68.4895 120.414 67.8398 120.099 67.8398Z" fill="black"/>
<path d="M122.99 67.8398C122.675 67.8398 122.422 68.4895 122.422 69.2873C122.422 70.0851 122.677 70.7348 122.99 70.7348C123.304 70.7348 123.558 70.0851 123.558 69.2873C123.558 68.4895 123.303 67.8398 122.99 67.8398Z" fill="black"/>
<path d="M125.88 67.8398C125.566 67.8398 125.312 68.4895 125.312 69.2873C125.312 70.0851 125.567 70.7348 125.88 70.7348C126.195 70.7348 126.448 70.0851 126.448 69.2873C126.448 68.4895 126.195 67.8398 125.88 67.8398Z" fill="black"/>
<path d="M128.767 67.8398C128.453 67.8398 128.199 68.4895 128.199 69.2873C128.199 70.0851 128.454 70.7348 128.767 70.7348C129.082 70.7348 129.335 70.0851 129.335 69.2873C129.335 68.4895 129.082 67.8398 128.767 67.8398Z" fill="black"/>
<path d="M131.654 67.8398C131.339 67.8398 131.086 68.4895 131.086 69.2873C131.086 70.0851 131.341 70.7348 131.654 70.7348C131.968 70.7348 132.222 70.0851 132.222 69.2873C132.222 68.4895 131.967 67.8398 131.654 67.8398Z" fill="black"/>
<path d="M134.544 67.8398C134.23 67.8398 133.977 68.4895 133.977 69.2873C133.977 70.0851 134.231 70.7348 134.544 70.7348C134.859 70.7348 135.112 70.0851 135.112 69.2873C135.112 68.4895 134.859 67.8398 134.544 67.8398Z" fill="black"/>
<path d="M137.431 67.8398C137.117 67.8398 136.863 68.4895 136.863 69.2873C136.863 70.0851 137.118 70.7348 137.431 70.7348C137.746 70.7348 137.999 70.0851 137.999 69.2873C137.999 68.4895 137.746 67.8398 137.431 67.8398Z" fill="black"/>
<path d="M140.326 67.8398C140.011 67.8398 139.758 68.4895 139.758 69.2873C139.758 70.0851 140.013 70.7348 140.326 70.7348C140.64 70.7348 140.894 70.0851 140.894 69.2873C140.894 68.4895 140.639 67.8398 140.326 67.8398Z" fill="black"/>
<path d="M143.212 67.8398C142.898 67.8398 142.645 68.4895 142.645 69.2873C142.645 70.0851 142.899 70.7348 143.212 70.7348C143.527 70.7348 143.78 70.0851 143.78 69.2873C143.78 68.4895 143.527 67.8398 143.212 67.8398Z" fill="black"/>
<path d="M146.103 67.8398C145.789 67.8398 145.535 68.4895 145.535 69.2873C145.535 70.0851 145.79 70.7348 146.103 70.7348C146.418 70.7348 146.671 70.0851 146.671 69.2873C146.671 68.4895 146.418 67.8398 146.103 67.8398Z" fill="black"/>
<path d="M148.99 67.8398C148.675 67.8398 148.422 68.4895 148.422 69.2873C148.422 70.0851 148.677 70.7348 148.99 70.7348C149.304 70.7348 149.558 70.0851 149.558 69.2873C149.558 68.4895 149.303 67.8398 148.99 67.8398Z" fill="black"/>
<path d="M151.884 67.8398C151.57 67.8398 151.316 68.4895 151.316 69.2873C151.316 70.0851 151.571 70.7348 151.884 70.7348C152.199 70.7348 152.452 70.0851 152.452 69.2873C152.452 68.4895 152.199 67.8398 151.884 67.8398Z" fill="black"/>
<path d="M154.771 67.8398C154.456 67.8398 154.203 68.4895 154.203 69.2873C154.203 70.0851 154.458 70.7348 154.771 70.7348C155.086 70.7348 155.339 70.0851 155.339 69.2873C155.339 68.4895 155.086 67.8398 154.771 67.8398Z" fill="black"/>
<path d="M157.658 67.8398C157.343 67.8398 157.09 68.4895 157.09 69.2873C157.09 70.0851 157.345 70.7348 157.658 70.7348C157.972 70.7348 158.226 70.0851 158.226 69.2873C158.226 68.4895 157.972 67.8398 157.658 67.8398Z" fill="black"/>
<path d="M160.548 67.8398C160.234 67.8398 159.98 68.4895 159.98 69.2873C159.98 70.0851 160.235 70.7348 160.548 70.7348C160.863 70.7348 161.116 70.0851 161.116 69.2873C161.116 68.4895 160.861 67.8398 160.548 67.8398Z" fill="black"/>
<path d="M163.435 67.8398C163.121 67.8398 162.867 68.4895 162.867 69.2873C162.867 70.0851 163.122 70.7348 163.435 70.7348C163.75 70.7348 164.003 70.0851 164.003 69.2873C164.003 68.4895 163.75 67.8398 163.435 67.8398Z" fill="black"/>
<path d="M166.322 67.8398C166.007 67.8398 165.754 68.4895 165.754 69.2873C165.754 70.0851 166.009 70.7348 166.322 70.7348C166.636 70.7348 166.89 70.0851 166.89 69.2873C166.89 68.4895 166.636 67.8398 166.322 67.8398Z" fill="black"/>
<path d="M169.216 67.8398C168.902 67.8398 168.648 68.4895 168.648 69.2873C168.648 70.0851 168.903 70.7348 169.216 70.7348C169.531 70.7348 169.784 70.0851 169.784 69.2873C169.784 68.4895 169.529 67.8398 169.216 67.8398Z" fill="black"/>
<path d="M172.103 67.8398C171.789 67.8398 171.535 68.4895 171.535 69.2873C171.535 70.0851 171.79 70.7348 172.103 70.7348C172.418 70.7348 172.671 70.0851 172.671 69.2873C172.671 68.4895 172.418 67.8398 172.103 67.8398Z" fill="black"/>
<path d="M174.994 67.8398C174.679 67.8398 174.426 68.4895 174.426 69.2873C174.426 70.0851 174.681 70.7348 174.994 70.7348C175.308 70.7348 175.562 70.0851 175.562 69.2873C175.562 68.4895 175.308 67.8398 174.994 67.8398Z" fill="black"/>
<path d="M177.888 67.8398C177.574 67.8398 177.32 68.4895 177.32 69.2873C177.32 70.0851 177.575 70.7348 177.888 70.7348C178.203 70.7348 178.456 70.0851 178.456 69.2873C178.456 68.4895 178.201 67.8398 177.888 67.8398Z" fill="black"/>
<path d="M180.775 67.8398C180.46 67.8398 180.207 68.4895 180.207 69.2873C180.207 70.0851 180.462 70.7348 180.775 70.7348C181.089 70.7348 181.343 70.0851 181.343 69.2873C181.343 68.4895 181.089 67.8398 180.775 67.8398Z" fill="black"/>
<path d="M183.662 67.8398C183.347 67.8398 183.094 68.4895 183.094 69.2873C183.094 70.0851 183.349 70.7348 183.662 70.7348C183.976 70.7348 184.23 70.0851 184.23 69.2873C184.23 68.4895 183.976 67.8398 183.662 67.8398Z" fill="black"/>
<path d="M186.552 67.8398C186.239 67.8398 185.984 68.4895 185.984 69.2873C185.984 70.0851 186.239 70.7348 186.552 70.7348C186.867 70.7348 187.12 70.0851 187.12 69.2873C187.12 68.4895 186.867 67.8398 186.552 67.8398Z" fill="black"/>
<path d="M189.439 67.8398C189.124 67.8398 188.871 68.4895 188.871 69.2873C188.871 70.0851 189.126 70.7348 189.439 70.7348C189.753 70.7348 190.007 70.0851 190.007 69.2873C190.007 68.4895 189.753 67.8398 189.439 67.8398Z" fill="black"/>
<path d="M192.326 67.8398C192.011 67.8398 191.758 68.4895 191.758 69.2873C191.758 70.0851 192.013 70.7348 192.326 70.7348C192.64 70.7348 192.894 70.0851 192.894 69.2873C192.894 68.4895 192.64 67.8398 192.326 67.8398Z" fill="black"/>
<path d="M195.22 67.8398C194.906 67.8398 194.652 68.4895 194.652 69.2873C194.652 70.0851 194.907 70.7348 195.22 70.7348C195.535 70.7348 195.788 70.0851 195.788 69.2873C195.788 68.4895 195.535 67.8398 195.22 67.8398Z" fill="black"/>
<path d="M198.107 67.8398C197.792 67.8398 197.539 68.4895 197.539 69.2873C197.539 70.0851 197.794 70.7348 198.107 70.7348C198.421 70.7348 198.675 70.0851 198.675 69.2873C198.675 68.4895 198.42 67.8398 198.107 67.8398Z" fill="black"/>
<path d="M92.6499 75.2188C92.3369 75.2188 92.082 75.8684 92.082 76.6662C92.082 77.4678 92.3369 78.1137 92.6499 78.1137C92.9644 78.1137 93.2179 77.464 93.2179 76.6662C93.2194 75.8684 92.9644 75.2188 92.6499 75.2188Z" fill="black"/>
<path d="M95.5444 75.2188C95.2299 75.2188 94.9766 75.8684 94.9766 76.6662C94.9766 77.4678 95.2314 78.1137 95.5444 78.1137C95.859 78.1137 96.1123 77.464 96.1123 76.6662C96.1123 75.8684 95.859 75.2188 95.5444 75.2188Z" fill="black"/>
<path d="M98.4312 78.1137C98.7448 78.1137 98.9991 77.4656 98.9991 76.6662C98.9991 75.8668 98.7448 75.2188 98.4312 75.2188C98.1175 75.2188 97.8633 75.8668 97.8633 76.6662C97.8633 77.4656 98.1175 78.1137 98.4312 78.1137Z" fill="black"/>
<path d="M101.318 78.1137C101.632 78.1137 101.886 77.4656 101.886 76.6662C101.886 75.8668 101.632 75.2188 101.318 75.2188C101.004 75.2188 100.75 75.8668 100.75 76.6662C100.75 77.4656 101.004 78.1137 101.318 78.1137Z" fill="black"/>
<path d="M104.209 78.1137C104.522 78.1137 104.776 77.4656 104.776 76.6662C104.776 75.8668 104.522 75.2188 104.209 75.2188C103.895 75.2188 103.641 75.8668 103.641 76.6662C103.641 77.4656 103.895 78.1137 104.209 78.1137Z" fill="black"/>
<path d="M107.095 78.1137C107.409 78.1137 107.663 77.4656 107.663 76.6662C107.663 75.8668 107.409 75.2188 107.095 75.2188C106.782 75.2188 106.527 75.8668 106.527 76.6662C106.527 77.4656 106.782 78.1137 107.095 78.1137Z" fill="black"/>
<path d="M109.982 78.1137C110.296 78.1137 110.55 77.4656 110.55 76.6662C110.55 75.8668 110.296 75.2188 109.982 75.2188C109.668 75.2188 109.414 75.8668 109.414 76.6662C109.414 77.4656 109.668 78.1137 109.982 78.1137Z" fill="black"/>
<path d="M112.876 75.2188C112.562 75.2188 112.309 75.8684 112.309 76.6662C112.309 77.4678 112.563 78.1137 112.876 78.1137C113.191 78.1137 113.444 77.464 113.444 76.6662C113.444 75.8684 113.19 75.2188 112.876 75.2188Z" fill="black"/>
<path d="M115.767 75.2188C115.453 75.2188 115.199 75.8684 115.199 76.6662C115.199 77.4678 115.454 78.1137 115.767 78.1137C116.082 78.1137 116.335 77.464 116.335 76.6662C116.335 75.8684 116.082 75.2188 115.767 75.2188Z" fill="black"/>
<path d="M118.654 75.2188C118.339 75.2188 118.086 75.8684 118.086 76.6662C118.086 77.4678 118.341 78.1137 118.654 78.1137C118.968 78.1137 119.222 77.464 119.222 76.6662C119.223 75.8684 118.968 75.2188 118.654 75.2188Z" fill="black"/>
<path d="M121.548 78.1137C121.862 78.1137 122.116 77.4656 122.116 76.6662C122.116 75.8668 121.862 75.2188 121.548 75.2188C121.235 75.2188 120.98 75.8668 120.98 76.6662C120.98 77.4656 121.235 78.1137 121.548 78.1137Z" fill="black"/>
<path d="M124.435 75.2188C124.121 75.2188 123.867 75.8684 123.867 76.6662C123.867 77.4678 124.122 78.1137 124.435 78.1137C124.75 78.1137 125.003 77.464 125.003 76.6662C125.003 75.8684 124.75 75.2188 124.435 75.2188Z" fill="black"/>
<path d="M127.322 75.2188C127.007 75.2188 126.754 75.8684 126.754 76.6662C126.754 77.4678 127.009 78.1137 127.322 78.1137C127.636 78.1137 127.89 77.464 127.89 76.6662C127.89 75.8684 127.636 75.2188 127.322 75.2188Z" fill="black"/>
<path d="M130.212 75.2188C129.899 75.2188 129.645 75.8684 129.645 76.6662C129.645 77.4678 129.899 78.1137 130.212 78.1137C130.527 78.1137 130.78 77.464 130.78 76.6662C130.782 75.8684 130.527 75.2188 130.212 75.2188Z" fill="black"/>
<path d="M133.099 78.1137C133.413 78.1137 133.667 77.4656 133.667 76.6662C133.667 75.8668 133.413 75.2188 133.099 75.2188C132.785 75.2188 132.531 75.8668 132.531 76.6662C132.531 77.4656 132.785 78.1137 133.099 78.1137Z" fill="black"/>
<path d="M135.986 78.1137C136.3 78.1137 136.554 77.4656 136.554 76.6662C136.554 75.8668 136.3 75.2188 135.986 75.2188C135.672 75.2188 135.418 75.8668 135.418 76.6662C135.418 77.4656 135.672 78.1137 135.986 78.1137Z" fill="black"/>
<path d="M138.88 78.1137C139.194 78.1137 139.448 77.4656 139.448 76.6662C139.448 75.8668 139.194 75.2188 138.88 75.2188C138.567 75.2188 138.312 75.8668 138.312 76.6662C138.312 77.4656 138.567 78.1137 138.88 78.1137Z" fill="black"/>
<path d="M141.771 78.1137C142.085 78.1137 142.339 77.4656 142.339 76.6662C142.339 75.8668 142.085 75.2188 141.771 75.2188C141.457 75.2188 141.203 75.8668 141.203 76.6662C141.203 77.4656 141.457 78.1137 141.771 78.1137Z" fill="black"/>
<path d="M144.658 78.1137C144.971 78.1137 145.226 77.4656 145.226 76.6662C145.226 75.8668 144.971 75.2188 144.658 75.2188C144.344 75.2188 144.09 75.8668 144.09 76.6662C144.09 77.4656 144.344 78.1137 144.658 78.1137Z" fill="black"/>
<path d="M147.544 78.1137C147.858 78.1137 148.112 77.4656 148.112 76.6662C148.112 75.8668 147.858 75.2188 147.544 75.2188C147.231 75.2188 146.977 75.8668 146.977 76.6662C146.977 77.4656 147.231 78.1137 147.544 78.1137Z" fill="black"/>
<path d="M150.439 75.2188C150.124 75.2188 149.871 75.8684 149.871 76.6662C149.871 77.4678 150.126 78.1137 150.439 78.1137C150.753 78.1137 151.007 77.464 151.007 76.6662C151.007 75.8684 150.752 75.2188 150.439 75.2188Z" fill="black"/>
<path d="M153.326 75.2188C153.011 75.2188 152.758 75.8684 152.758 76.6662C152.758 77.4678 153.013 78.1137 153.326 78.1137C153.64 78.1137 153.894 77.464 153.894 76.6662C153.894 75.8684 153.64 75.2188 153.326 75.2188Z" fill="black"/>
<path d="M156.216 75.2188C155.902 75.2188 155.648 75.8684 155.648 76.6662C155.648 77.4678 155.903 78.1137 156.216 78.1137C156.531 78.1137 156.784 77.464 156.784 76.6662C156.786 75.8684 156.531 75.2188 156.216 75.2188Z" fill="black"/>
<path d="M159.103 75.2188C158.789 75.2188 158.535 75.8684 158.535 76.6662C158.535 77.4678 158.79 78.1137 159.103 78.1137C159.418 78.1137 159.671 77.464 159.671 76.6662C159.671 75.8684 159.416 75.2188 159.103 75.2188Z" fill="black"/>
<path d="M161.99 75.2188C161.675 75.2188 161.422 75.8684 161.422 76.6662C161.422 77.4678 161.677 78.1137 161.99 78.1137C162.304 78.1137 162.558 77.464 162.558 76.6662C162.558 75.8684 162.304 75.2188 161.99 75.2188Z" fill="black"/>
<path d="M164.88 75.2188C164.566 75.2188 164.312 75.8684 164.312 76.6662C164.312 77.4678 164.567 78.1137 164.88 78.1137C165.195 78.1137 165.448 77.464 165.448 76.6662C165.45 75.8684 165.195 75.2188 164.88 75.2188Z" fill="black"/>
<path d="M167.771 75.2188C167.456 75.2188 167.203 75.8684 167.203 76.6662C167.203 77.4678 167.458 78.1137 167.771 78.1137C168.084 78.1137 168.339 77.464 168.339 76.6662C168.339 75.8684 168.084 75.2188 167.771 75.2188Z" fill="black"/>
<path d="M170.662 78.1137C170.975 78.1137 171.23 77.4656 171.23 76.6662C171.23 75.8668 170.975 75.2188 170.662 75.2188C170.348 75.2188 170.094 75.8668 170.094 76.6662C170.094 77.4656 170.348 78.1137 170.662 78.1137Z" fill="black"/>
<path d="M173.548 78.1137C173.862 78.1137 174.116 77.4656 174.116 76.6662C174.116 75.8668 173.862 75.2188 173.548 75.2188C173.235 75.2188 172.98 75.8668 172.98 76.6662C172.98 77.4656 173.235 78.1137 173.548 78.1137Z" fill="black"/>
<path d="M176.435 78.1137C176.749 78.1137 177.003 77.4656 177.003 76.6662C177.003 75.8668 176.749 75.2188 176.435 75.2188C176.121 75.2188 175.867 75.8668 175.867 76.6662C175.867 77.4656 176.121 78.1137 176.435 78.1137Z" fill="black"/>
<path d="M179.33 78.1137C179.643 78.1137 179.897 77.4656 179.897 76.6662C179.897 75.8668 179.643 75.2188 179.33 75.2188C179.016 75.2188 178.762 75.8668 178.762 76.6662C178.762 77.4656 179.016 78.1137 179.33 78.1137Z" fill="black"/>
<path d="M182.22 78.1137C182.534 78.1137 182.788 77.4656 182.788 76.6662C182.788 75.8668 182.534 75.2188 182.22 75.2188C181.907 75.2188 181.652 75.8668 181.652 76.6662C181.652 77.4656 181.907 78.1137 182.22 78.1137Z" fill="black"/>
<path d="M185.107 78.1137C185.421 78.1137 185.675 77.4656 185.675 76.6662C185.675 75.8668 185.421 75.2188 185.107 75.2188C184.793 75.2188 184.539 75.8668 184.539 76.6662C184.539 77.4656 184.793 78.1137 185.107 78.1137Z" fill="black"/>
<path d="M187.994 75.2188C187.679 75.2188 187.426 75.8684 187.426 76.6662C187.426 77.4678 187.681 78.1137 187.994 78.1137C188.308 78.1137 188.562 77.464 188.562 76.6662C188.562 75.8684 188.307 75.2188 187.994 75.2188Z" fill="black"/>
<path d="M190.884 75.2188C190.57 75.2188 190.316 75.8684 190.316 76.6662C190.316 77.4678 190.571 78.1137 190.884 78.1137C191.199 78.1137 191.452 77.464 191.452 76.6662C191.452 75.8684 191.199 75.2188 190.884 75.2188Z" fill="black"/>
<path d="M193.771 75.2188C193.456 75.2188 193.203 75.8684 193.203 76.6662C193.203 77.4678 193.458 78.1137 193.771 78.1137C194.086 78.1137 194.339 77.464 194.339 76.6662C194.34 75.8684 194.086 75.2188 193.771 75.2188Z" fill="black"/>
<path d="M196.666 78.1137C196.979 78.1137 197.233 77.4656 197.233 76.6662C197.233 75.8668 196.979 75.2188 196.666 75.2188C196.352 75.2188 196.098 75.8668 196.098 76.6662C196.098 77.4656 196.352 78.1137 196.666 78.1137Z" fill="black"/>
<path d="M94.0991 82.5918C93.7846 82.5918 93.5312 83.2414 93.5312 84.0392C93.5312 84.8371 93.7861 85.4867 94.0991 85.4867C94.4136 85.4867 94.667 84.8371 94.667 84.0392C94.667 83.2414 94.4122 82.5918 94.0991 82.5918Z" fill="black"/>
<path d="M96.9859 82.5918C96.6713 82.5918 96.418 83.2414 96.418 84.0392C96.418 84.8371 96.6728 85.4867 96.9859 85.4867C97.3004 85.4867 97.5537 84.8371 97.5537 84.0392C97.5537 83.2414 97.3004 82.5918 96.9859 82.5918Z" fill="black"/>
<path d="M99.8765 82.5918C99.562 82.5918 99.3086 83.2414 99.3086 84.0392C99.3086 84.8371 99.5635 85.4867 99.8765 85.4867C100.191 85.4867 100.444 84.8371 100.444 84.0392C100.444 83.2414 100.191 82.5918 99.8765 82.5918Z" fill="black"/>
<path d="M102.763 82.5918C102.449 82.5918 102.195 83.2414 102.195 84.0392C102.195 84.8371 102.45 85.4867 102.763 85.4867C103.076 85.4867 103.331 84.8371 103.331 84.0392C103.331 83.2414 103.076 82.5918 102.763 82.5918Z" fill="black"/>
<path d="M105.65 82.5918C105.335 82.5918 105.082 83.2414 105.082 84.0392C105.082 84.8371 105.337 85.4867 105.65 85.4867C105.964 85.4867 106.218 84.8371 106.218 84.0392C106.218 83.2414 105.964 82.5918 105.65 82.5918Z" fill="black"/>
<path d="M108.541 82.5918C108.226 82.5918 107.973 83.2414 107.973 84.0392C107.973 84.8371 108.228 85.4867 108.541 85.4867C108.855 85.4867 109.108 84.8371 109.108 84.0392C109.108 83.2414 108.855 82.5918 108.541 82.5918Z" fill="black"/>
<path d="M111.435 82.5918C111.121 82.5918 110.867 83.2414 110.867 84.0392C110.867 84.8371 111.122 85.4867 111.435 85.4867C111.748 85.4867 112.003 84.8371 112.003 84.0392C112.003 83.2414 111.748 82.5918 111.435 82.5918Z" fill="black"/>
<path d="M114.322 82.5918C114.009 82.5918 113.754 83.2414 113.754 84.0392C113.754 84.8371 114.009 85.4867 114.322 85.4867C114.636 85.4867 114.89 84.8371 114.89 84.0392C114.89 83.2414 114.635 82.5918 114.322 82.5918Z" fill="black"/>
<path d="M117.209 82.5918C116.894 82.5918 116.641 83.2414 116.641 84.0392C116.641 84.8371 116.895 85.4867 117.209 85.4867C117.523 85.4867 117.776 84.8371 117.776 84.0392C117.776 83.2414 117.523 82.5918 117.209 82.5918Z" fill="black"/>
<path d="M120.099 85.4867C120.413 85.4867 120.667 84.8386 120.667 84.0392C120.667 83.2398 120.413 82.5918 120.099 82.5918C119.785 82.5918 119.531 83.2398 119.531 84.0392C119.531 84.8386 119.785 85.4867 120.099 85.4867Z" fill="black"/>
<path d="M122.99 85.4867C123.303 85.4867 123.558 84.8386 123.558 84.0392C123.558 83.2398 123.303 82.5918 122.99 82.5918C122.676 82.5918 122.422 83.2398 122.422 84.0392C122.422 84.8386 122.676 85.4867 122.99 85.4867Z" fill="black"/>
<path d="M125.88 85.4867C126.194 85.4867 126.448 84.8386 126.448 84.0392C126.448 83.2398 126.194 82.5918 125.88 82.5918C125.567 82.5918 125.312 83.2398 125.312 84.0392C125.312 84.8386 125.567 85.4867 125.88 85.4867Z" fill="black"/>
<path d="M128.767 85.4867C129.081 85.4867 129.335 84.8386 129.335 84.0392C129.335 83.2398 129.081 82.5918 128.767 82.5918C128.453 82.5918 128.199 83.2398 128.199 84.0392C128.199 84.8386 128.453 85.4867 128.767 85.4867Z" fill="black"/>
<path d="M131.654 82.5918C131.339 82.5918 131.086 83.2414 131.086 84.0392C131.086 84.8371 131.341 85.4867 131.654 85.4867C131.968 85.4867 132.222 84.8371 132.222 84.0392C132.222 83.2414 131.967 82.5918 131.654 82.5918Z" fill="black"/>
<path d="M134.544 82.5918C134.23 82.5918 133.977 83.2414 133.977 84.0392C133.977 84.8371 134.231 85.4867 134.544 85.4867C134.859 85.4867 135.112 84.8371 135.112 84.0392C135.112 83.2414 134.859 82.5918 134.544 82.5918Z" fill="black"/>
<path d="M137.431 82.5918C137.117 82.5918 136.863 83.2414 136.863 84.0392C136.863 84.8371 137.118 85.4867 137.431 85.4867C137.746 85.4867 137.999 84.8371 137.999 84.0392C137.999 83.2414 137.746 82.5918 137.431 82.5918Z" fill="black"/>
<path d="M140.326 85.4867C140.639 85.4867 140.894 84.8386 140.894 84.0392C140.894 83.2398 140.639 82.5918 140.326 82.5918C140.012 82.5918 139.758 83.2398 139.758 84.0392C139.758 84.8386 140.012 85.4867 140.326 85.4867Z" fill="black"/>
<path d="M143.212 85.4867C143.526 85.4867 143.78 84.8386 143.78 84.0392C143.78 83.2398 143.526 82.5918 143.212 82.5918C142.899 82.5918 142.645 83.2398 142.645 84.0392C142.645 84.8386 142.899 85.4867 143.212 85.4867Z" fill="black"/>
<path d="M146.103 82.5918C145.789 82.5918 145.535 83.2414 145.535 84.0392C145.535 84.8371 145.79 85.4867 146.103 85.4867C146.418 85.4867 146.671 84.8371 146.671 84.0392C146.671 83.2414 146.418 82.5918 146.103 82.5918Z" fill="black"/>
<path d="M148.99 85.4867C149.303 85.4867 149.558 84.8386 149.558 84.0392C149.558 83.2398 149.303 82.5918 148.99 82.5918C148.676 82.5918 148.422 83.2398 148.422 84.0392C148.422 84.8386 148.676 85.4867 148.99 85.4867Z" fill="black"/>
<path d="M151.884 85.4867C152.198 85.4867 152.452 84.8386 152.452 84.0392C152.452 83.2398 152.198 82.5918 151.884 82.5918C151.571 82.5918 151.316 83.2398 151.316 84.0392C151.316 84.8386 151.571 85.4867 151.884 85.4867Z" fill="black"/>
<path d="M154.771 85.4867C155.085 85.4867 155.339 84.8386 155.339 84.0392C155.339 83.2398 155.085 82.5918 154.771 82.5918C154.457 82.5918 154.203 83.2398 154.203 84.0392C154.203 84.8386 154.457 85.4867 154.771 85.4867Z" fill="black"/>
<path d="M157.658 85.4867C157.971 85.4867 158.226 84.8386 158.226 84.0392C158.226 83.2398 157.971 82.5918 157.658 82.5918C157.344 82.5918 157.09 83.2398 157.09 84.0392C157.09 84.8386 157.344 85.4867 157.658 85.4867Z" fill="black"/>
<path d="M160.548 85.4867C160.862 85.4867 161.116 84.8386 161.116 84.0392C161.116 83.2398 160.862 82.5918 160.548 82.5918C160.235 82.5918 159.98 83.2398 159.98 84.0392C159.98 84.8386 160.235 85.4867 160.548 85.4867Z" fill="black"/>
<path d="M163.435 85.4867C163.749 85.4867 164.003 84.8386 164.003 84.0392C164.003 83.2398 163.749 82.5918 163.435 82.5918C163.121 82.5918 162.867 83.2398 162.867 84.0392C162.867 84.8386 163.121 85.4867 163.435 85.4867Z" fill="black"/>
<path d="M166.322 85.4867C166.635 85.4867 166.89 84.8386 166.89 84.0392C166.89 83.2398 166.635 82.5918 166.322 82.5918C166.008 82.5918 165.754 83.2398 165.754 84.0392C165.754 84.8386 166.008 85.4867 166.322 85.4867Z" fill="black"/>
<path d="M169.216 82.5918C168.902 82.5918 168.648 83.2414 168.648 84.0392C168.648 84.8371 168.903 85.4867 169.216 85.4867C169.531 85.4867 169.784 84.8371 169.784 84.0392C169.784 83.2414 169.529 82.5918 169.216 82.5918Z" fill="black"/>
<path d="M172.103 82.5918C171.789 82.5918 171.535 83.2414 171.535 84.0392C171.535 84.8371 171.79 85.4867 172.103 85.4867C172.418 85.4867 172.671 84.8371 172.671 84.0392C172.671 83.2414 172.418 82.5918 172.103 82.5918Z" fill="black"/>
<path d="M174.994 82.5918C174.679 82.5918 174.426 83.2414 174.426 84.0392C174.426 84.8371 174.681 85.4867 174.994 85.4867C175.308 85.4867 175.562 84.8371 175.562 84.0392C175.562 83.2414 175.308 82.5918 174.994 82.5918Z" fill="black"/>
<path d="M177.888 82.5918C177.574 82.5918 177.32 83.2414 177.32 84.0392C177.32 84.8371 177.575 85.4867 177.888 85.4867C178.203 85.4867 178.456 84.8371 178.456 84.0392C178.456 83.2414 178.201 82.5918 177.888 82.5918Z" fill="black"/>
<path d="M180.775 82.5918C180.46 82.5918 180.207 83.2414 180.207 84.0392C180.207 84.8371 180.462 85.4867 180.775 85.4867C181.089 85.4867 181.343 84.8371 181.343 84.0392C181.343 83.2414 181.089 82.5918 180.775 82.5918Z" fill="black"/>
<path d="M183.662 82.5918C183.347 82.5918 183.094 83.2414 183.094 84.0392C183.094 84.8371 183.349 85.4867 183.662 85.4867C183.976 85.4867 184.23 84.8371 184.23 84.0392C184.23 83.2414 183.976 82.5918 183.662 82.5918Z" fill="black"/>
<path d="M186.552 82.5918C186.239 82.5918 185.984 83.2414 185.984 84.0392C185.984 84.8371 186.239 85.4867 186.552 85.4867C186.867 85.4867 187.12 84.8371 187.12 84.0392C187.12 83.2414 186.867 82.5918 186.552 82.5918Z" fill="black"/>
<path d="M189.439 85.4867C189.753 85.4867 190.007 84.8386 190.007 84.0392C190.007 83.2398 189.753 82.5918 189.439 82.5918C189.125 82.5918 188.871 83.2398 188.871 84.0392C188.871 84.8386 189.125 85.4867 189.439 85.4867Z" fill="black"/>
<path d="M192.326 85.4867C192.639 85.4867 192.894 84.8386 192.894 84.0392C192.894 83.2398 192.639 82.5918 192.326 82.5918C192.012 82.5918 191.758 83.2398 191.758 84.0392C191.758 84.8386 192.012 85.4867 192.326 85.4867Z" fill="black"/>
<path d="M195.22 85.4867C195.534 85.4867 195.788 84.8386 195.788 84.0392C195.788 83.2398 195.534 82.5918 195.22 82.5918C194.907 82.5918 194.652 83.2398 194.652 84.0392C194.652 84.8386 194.907 85.4867 195.22 85.4867Z" fill="black"/>
<path d="M6.1875 527.937C6.1875 532.26 7.18469 536.341 8.88395 538.97L13.8208 546.613V527.644C14.657 526.353 15.2204 524.035 15.2204 521.361C15.2204 518.686 14.657 516.369 13.8208 515.077V503.288C14.657 501.997 15.2204 499.679 15.2204 497.005C15.2204 494.33 14.657 492.013 13.8208 490.721V478.932C14.657 477.641 15.2204 475.323 15.2204 472.649C15.2204 469.974 14.657 467.657 13.8208 466.365V454.576C14.657 453.285 15.2204 450.967 15.2204 448.293C15.2204 445.618 14.657 443.301 13.8208 442.009V430.22C14.657 428.929 15.2204 426.611 15.2204 423.937C15.2204 421.262 14.657 418.945 13.8208 417.653V405.864C14.657 404.573 15.2204 402.255 15.2204 399.581C15.2204 396.906 14.657 394.589 13.8208 393.297V374.328L8.88395 381.972C7.18469 384.605 6.1875 388.681 6.1875 393.004V527.937Z" fill="url(#paint8_linear_2641_4192)"/>
<path d="M282.451 393.022C282.451 388.699 281.455 384.618 279.754 381.989L274.818 374.346V393.315C273.981 394.606 273.418 396.924 273.418 399.598C273.418 402.273 273.981 404.59 274.818 405.882V417.671C273.981 418.962 273.418 421.28 273.418 423.954C273.418 426.629 273.981 428.946 274.818 430.238V442.027C273.981 443.318 273.418 445.636 273.418 448.31C273.418 450.985 273.981 453.302 274.818 454.594V466.383C273.981 467.674 273.418 469.992 273.418 472.666C273.418 475.341 273.981 477.658 274.818 478.95V490.739C273.981 492.03 273.418 494.348 273.418 497.022C273.418 499.697 273.981 502.014 274.818 503.306V515.095C273.981 516.386 273.418 518.704 273.418 521.378C273.418 524.053 273.981 526.37 274.818 527.662V546.631L279.754 538.987C281.454 536.354 282.451 532.278 282.451 527.955V393.022Z" fill="url(#paint9_linear_2641_4192)"/>
<path d="M121.039 859.201C121.039 856.527 120.188 854.357 119.139 854.357C118.089 854.357 117.238 856.527 117.238 859.201C117.238 861.876 118.089 864.045 119.139 864.045C120.188 864.045 121.039 861.876 121.039 859.201Z" fill="url(#paint10_linear_2641_4192)"/>
<path d="M131.215 859.197C131.215 856.059 130.217 853.518 128.986 853.518C127.755 853.518 126.758 856.059 126.758 859.197C126.758 862.335 127.755 864.877 128.986 864.877C130.216 864.877 131.215 862.335 131.215 859.197Z" fill="url(#paint11_linear_2641_4192)"/>
<path d="M141.054 859.197C141.054 856.059 140.057 853.518 138.826 853.518C137.595 853.518 136.598 856.059 136.598 859.197C136.598 862.335 137.595 864.877 138.826 864.877C140.057 864.877 141.054 862.335 141.054 859.197Z" fill="url(#paint12_linear_2641_4192)"/>
<path d="M150.902 859.197C150.902 856.059 149.905 853.518 148.674 853.518C147.443 853.518 146.445 856.059 146.445 859.197C146.445 862.335 147.444 864.877 148.674 864.877C149.905 864.877 150.902 862.335 150.902 859.197Z" fill="url(#paint13_linear_2641_4192)"/>
<path d="M160.746 859.197C160.746 856.059 159.749 853.518 158.517 853.518C157.286 853.518 156.289 856.059 156.289 859.197C156.289 862.335 157.288 864.877 158.517 864.877C159.749 864.877 160.746 862.335 160.746 859.197Z" fill="url(#paint14_linear_2641_4192)"/>
<path d="M170.262 859.201C170.262 856.527 169.411 854.357 168.361 854.357C167.312 854.357 166.461 856.527 166.461 859.201C166.461 861.876 167.312 864.045 168.361 864.045C169.411 864.045 170.262 861.876 170.262 859.201Z" fill="url(#paint15_linear_2641_4192)"/>
<path d="M104.934 852.119H74.6783C72.0623 852.119 69.5939 856.036 68.002 862.715L67.1523 866.282H99.3773C102.446 866.282 104.934 859.941 104.934 852.119Z" fill="url(#paint16_linear_2641_4192)"/>
<path d="M183.547 852.119H213.803C216.419 852.119 218.887 856.036 220.479 862.715L221.329 866.282H189.104C186.035 866.282 183.547 859.941 183.547 852.119Z" fill="url(#paint17_linear_2641_4192)"/>
<path d="M274.754 69.2917C274.754 64.7897 273.323 61.1426 271.557 61.1426C269.79 61.1426 268.359 64.7897 268.359 69.2917C268.359 73.7936 269.79 77.4407 271.557 77.4407C273.323 77.4407 274.754 73.7936 274.754 69.2917Z" fill="url(#paint18_linear_2641_4192)"/>
<path d="M274.395 852.149C274.395 847.647 272.964 844 271.197 844C269.431 844 268 847.647 268 852.149C268 856.651 269.431 860.298 271.197 860.298C272.964 860.298 274.395 856.651 274.395 852.149Z" fill="url(#paint19_linear_2641_4192)"/>
<path d="M19.3946 70.1491C19.3946 65.6471 17.9637 62 16.1973 62C14.431 62 13 65.6471 13 70.1491C13 74.651 14.431 78.2981 16.1973 78.2981C17.9637 78.2981 19.3946 74.651 19.3946 70.1491Z" fill="url(#paint20_linear_2641_4192)"/>
<path d="M22.3946 852.149C22.3946 847.647 20.9637 844 19.1973 844C17.431 844 16 847.647 16 852.149C16 856.651 17.431 860.298 19.1973 860.298C20.9637 860.298 22.3946 856.651 22.3946 852.149Z" fill="url(#paint21_linear_2641_4192)"/>
<path d="M106.667 81V67H102V64.6667H116V67H111.333V81H106.667ZM118.324 81V64.6667H132.324V67H122.991V71.6667H129.991V74H122.991V78.6667H132.324V81H118.324ZM139.315 67V64.6667H143.982V67H146.315V71.6667H148.648V81H143.982V76.3333H139.315V81H134.648V71.6667H136.982V67H139.315ZM139.315 74H143.982V69.3333H139.315V74ZM155.639 67H157.973V69.3333H162.639V67H164.973V64.6667H169.639V81H164.973V71.6667H162.639V74H157.973V71.6667H155.639V81H150.973V64.6667H155.639V67ZM174.306 78.6667H171.973V76.3333H176.639V78.6667H181.306V74H174.306V71.6667H171.973V67H174.306V64.6667H183.639V67H185.973V69.3333H181.306V67H176.639V71.6667H183.639V74H185.973V78.6667H183.639V81H174.306V78.6667Z" fill="white"/>
<defs>
<radialGradient id="paint0_radial_2641_4192" cx="0" cy="0" r="1" gradientUnits="userSpaceOnUse" gradientTransform="translate(144.235 859.174) scale(131.226 99.2273)">
<stop stop-color="#0D0542"/>
<stop offset="0.4304" stop-color="#100749" stop-opacity="0.5696"/>
<stop offset="1" stop-color="#170B5B" stop-opacity="0"/>
</radialGradient>
<radialGradient id="paint1_radial_2641_4192" cx="0" cy="0" r="1" gradientUnits="userSpaceOnUse" gradientTransform="translate(144.32 41.9668) scale(128.297 40.4902)">
<stop offset="0.005" stop-color="#8E2132"/>
<stop offset="1" stop-color="#8D2031" stop-opacity="0"/>
</radialGradient>
<linearGradient id="paint2_linear_2641_4192" x1="6.36328" y1="460.482" x2="282.278" y2="460.482" gradientUnits="userSpaceOnUse">
<stop/>
<stop offset="0.0193" stop-opacity="0.9"/>
<stop offset="0.0794" stop-opacity="0.85"/>
<stop offset="0.153" stop-opacity="0.81"/>
<stop offset="0.2532" stop-opacity="0.75"/>
<stop offset="0.5"/>
<stop offset="0.7111"/>
<stop offset="0.8238" stop-opacity="0.8"/>
<stop offset="0.9129" stop-opacity="0.85"/>
<stop offset="0.9897" stop-opacity="0.9"/>
<stop offset="1"/>
</linearGradient>
<radialGradient id="paint3_radial_2641_4192" cx="0" cy="0" r="1" gradientUnits="userSpaceOnUse" gradientTransform="translate(144.321 115.059) scale(74.9209 21.2926)">
<stop stop-color="#58151F"/>
<stop offset="1" stop-color="#8F2132" stop-opacity="0"/>
</radialGradient>
<radialGradient id="paint4_radial_2641_4192" cx="0" cy="0" r="1" gradientUnits="userSpaceOnUse" gradientTransform="translate(140.563 843.067) scale(74.9209 21.2926)">
<stop stop-color="#58151F"/>
<stop offset="1" stop-color="#8F2132" stop-opacity="0"/>
</radialGradient>
<linearGradient id="paint5_linear_2641_4192" x1="143.987" y1="42.2402" x2="143.987" y2="107.384" gradientUnits="userSpaceOnUse">
<stop stop-color="#370A0F"/>
<stop offset="1" stop-color="#3D1723"/>
</linearGradient>
<linearGradient id="paint6_linear_2641_4192" x1="143.114" y1="54.5522" x2="158.892" y2="871.565" gradientUnits="userSpaceOnUse">
<stop stop-color="#FF0027"/>
<stop offset="1" stop-color="#420800"/>
</linearGradient>
<linearGradient id="paint7_linear_2641_4192" x1="144.324" y1="849.496" x2="144.324" y2="74.1733" gradientUnits="userSpaceOnUse">
<stop stop-color="#8F2132"/>
<stop offset="1" stop-color="#58151F"/>
</linearGradient>
<linearGradient id="paint8_linear_2641_4192" x1="15.2194" y1="460.478" x2="6.1872" y2="460.478" gradientUnits="userSpaceOnUse">
<stop stop-color="#370A0F"/>
</linearGradient>
<linearGradient id="paint9_linear_2641_4192" x1="273.419" y1="460.48" x2="282.451" y2="460.48" gradientUnits="userSpaceOnUse">
<stop stop-color="#370A0F"/>
<stop offset="1" stop-color="#3D1723"/>
</linearGradient>
<linearGradient id="paint10_linear_2641_4192" x1="119.768" y1="854.629" x2="114.664" y2="860.336" gradientUnits="userSpaceOnUse">
<stop stop-color="#340304"/>
<stop offset="1" stop-color="#3D1723"/>
</linearGradient>
<linearGradient id="paint11_linear_2641_4192" x1="129.724" y1="853.836" x2="123.739" y2="860.527" gradientUnits="userSpaceOnUse">
<stop stop-color="#340304"/>
<stop offset="1" stop-color="#3D1723"/>
</linearGradient>
<linearGradient id="paint12_linear_2641_4192" x1="139.564" y1="853.836" x2="133.579" y2="860.527" gradientUnits="userSpaceOnUse">
<stop stop-color="#340304"/>
<stop offset="1" stop-color="#3D1723"/>
</linearGradient>
<linearGradient id="paint13_linear_2641_4192" x1="149.412" y1="853.836" x2="143.427" y2="860.527" gradientUnits="userSpaceOnUse">
<stop stop-color="#340304"/>
<stop offset="1" stop-color="#3D1723"/>
</linearGradient>
<linearGradient id="paint14_linear_2641_4192" x1="159.255" y1="853.836" x2="153.271" y2="860.527" gradientUnits="userSpaceOnUse">
<stop stop-color="#340304"/>
<stop offset="1" stop-color="#3D1723"/>
</linearGradient>
<linearGradient id="paint15_linear_2641_4192" x1="168.991" y1="854.629" x2="163.887" y2="860.335" gradientUnits="userSpaceOnUse">
<stop stop-color="#340304"/>
<stop offset="1" stop-color="#3D1723"/>
</linearGradient>
<linearGradient id="paint16_linear_2641_4192" x1="67.1516" y1="859.201" x2="104.934" y2="859.201" gradientUnits="userSpaceOnUse">
<stop stop-color="#5E56E3" stop-opacity="0.25098"/>
<stop offset="1" stop-color="#3D1723"/>
</linearGradient>
<linearGradient id="paint17_linear_2641_4192" x1="221.329" y1="859.201" x2="183.547" y2="859.201" gradientUnits="userSpaceOnUse">
<stop stop-color="#5E56E3" stop-opacity="0.25098"/>
<stop offset="1" stop-color="#3D1723"/>
</linearGradient>
<linearGradient id="paint18_linear_2641_4192" x1="272.471" y1="62.6447" x2="265.145" y2="70.8371" gradientUnits="userSpaceOnUse">
<stop stop-color="#340304"/>
<stop offset="1" stop-color="#3D1723"/>
</linearGradient>
<linearGradient id="paint19_linear_2641_4192" x1="272.112" y1="845.502" x2="264.785" y2="853.694" gradientUnits="userSpaceOnUse">
<stop stop-color="#340304"/>
<stop offset="1" stop-color="#3D1723"/>
</linearGradient>
<linearGradient id="paint20_linear_2641_4192" x1="17.1121" y1="63.5022" x2="9.78524" y2="71.6945" gradientUnits="userSpaceOnUse">
<stop stop-color="#340304"/>
<stop offset="1" stop-color="#3D1723"/>
</linearGradient>
<linearGradient id="paint21_linear_2641_4192" x1="20.1121" y1="845.502" x2="12.7852" y2="853.694" gradientUnits="userSpaceOnUse">
<stop stop-color="#340304"/>
<stop offset="1" stop-color="#3D1723"/>
</linearGradient>
</defs>
</svg>
