<?xml version="1.0" encoding="utf-8"?>
<!-- Generator: Adobe Illustrator 26.0.1, SVG Export Plug-In . SVG Version: 6.00 Build 0)  -->
<svg version="1.1" id="Layer_1" xmlns="http://www.w3.org/2000/svg" xmlns:xlink="http://www.w3.org/1999/xlink" x="0px" y="0px"
	 viewBox="0 0 289 928" style="enable-background:new 0 0 289 928;" xml:space="preserve">
<style type="text/css">
	.st0{opacity:0.6;fill:url(#SVGID_1_);enable-background:new    ;}
	.st1{fill:url(#SVGID_00000070096846428960217450000015934039597522256305_);}
	.st2{fill:url(#SVGID_00000065763738692911595680000008833680914580790961_);}
	.st3{fill:url(#SVGID_00000026855212943295463260000010705944050973122190_);}
	.st4{fill:url(#SVGID_00000178904491913964760290000014495565549868242864_);}
	.st5{fill:url(#SVGID_00000078007931292258424570000009323190396891034259_);}
	.st6{fill:url(#SVGID_00000157998933313039344470000013524723690541603212_);}
	.st7{fill:url(#SVGID_00000040558682826742995860000009568504462974501267_);}
	.st8{fill:url(#SVGID_00000120521597150932900620000016608148042369123253_);}
	.st9{fill:url(#SVGID_00000145778780170722935990000001185523980089813399_);}
	.st10{fill:url(#SVGID_00000099643721084879262090000010405799740236897673_);}
	.st11{fill:url(#SVGID_00000025437867978620196460000006677537022425095083_);}
	.st12{fill:url(#SVGID_00000001622124205179047960000004051708707702967190_);}
	.st13{fill:url(#SVGID_00000090289234878691606520000005646881824122127519_);}
	.st14{fill:url(#SVGID_00000152961634299492133490000014918681761610183298_);}
	.st15{fill:url(#SVGID_00000174568864884155548640000004124222663230689165_);}
	.st16{fill:url(#SVGID_00000010269389312524911880000013627496249221346203_);}
	.st17{fill:url(#SVGID_00000128442804374659285750000014691129614331004804_);}
	.st18{fill:url(#SVGID_00000063621596901397060270000015981080408220915619_);}
	.st19{fill:url(#SVGID_00000002357247675932594310000016231332541352493976_);}
	.st20{fill:url(#SVGID_00000109016828698236773840000003352212819776410043_);}
	.st21{fill:url(#SVGID_00000178913288635149533030000011504641855824567707_);}
</style>
<radialGradient id="SVGID_1_" cx="-159.7731" cy="860.6851" r="1.0001" gradientTransform="matrix(131.226 0 0 -99.2273 21110.6211 86262.6562)" gradientUnits="userSpaceOnUse">
	<stop  offset="0" style="stop-color:#0D0542"/>
	<stop  offset="0.4304" style="stop-color:#100749;stop-opacity:0.5696"/>
	<stop  offset="1" style="stop-color:#170B5B;stop-opacity:0"/>
</radialGradient>
<path class="st0" d="M144.2,966c76.2,0,138-47.8,138-106.8c0-59-61.8-106.8-138-106.8c-76.2,0-138,47.8-138,106.8
	C6.2,918.2,68,966,144.2,966z"/>
<radialGradient id="SVGID_00000127727127275488630960000016079377427391658909_" cx="-159.7451" cy="861.6793" r="1.0001" gradientTransform="matrix(128.297 0 0 -40.4902 20639.1367 34931.5391)" gradientUnits="userSpaceOnUse">
	<stop  offset="5.000000e-03" style="stop-color:#8E2132"/>
	<stop  offset="1" style="stop-color:#8D2031;stop-opacity:0"/>
</radialGradient>
<path style="fill:url(#SVGID_00000127727127275488630960000016079377427391658909_);" d="M144.3,83.9c76.2,0,138-18.8,138-42
	s-61.8-42-138-42C68.1,0,6.4,18.8,6.4,42S68.1,83.9,144.3,83.9z"/>
<linearGradient id="SVGID_00000150784055010021472550000006917566107314482061_" gradientUnits="userSpaceOnUse" x1="6.3633" y1="467.5187" x2="282.278" y2="467.5187" gradientTransform="matrix(1 0 0 -1 0 928)">
	<stop  offset="0" style="stop-color:#000000"/>
	<stop  offset="1.930000e-02" style="stop-color:#000000;stop-opacity:0.9"/>
	<stop  offset="7.940000e-02" style="stop-color:#000000;stop-opacity:0.85"/>
	<stop  offset="0.153" style="stop-color:#000000;stop-opacity:0.81"/>
	<stop  offset="0.2532" style="stop-color:#000000;stop-opacity:0.75"/>
	<stop  offset="0.5" style="stop-color:#000000"/>
	<stop  offset="0.7111" style="stop-color:#000000"/>
	<stop  offset="0.8238" style="stop-color:#000000;stop-opacity:0.8"/>
	<stop  offset="0.9129" style="stop-color:#000000;stop-opacity:0.85"/>
	<stop  offset="0.9897" style="stop-color:#000000;stop-opacity:0.9"/>
	<stop  offset="1" style="stop-color:#000000"/>
</linearGradient>
<path style="fill:url(#SVGID_00000150784055010021472550000006917566107314482061_);" d="M271.6,42H17.1C11.2,42,6.4,54.2,6.4,69.3
	v782.4c0,15.1,4.8,27.3,10.7,27.3h254.5c5.9,0,10.7-12.2,10.7-27.3V69.3C282.3,54.2,277.5,42,271.6,42z"/>
<radialGradient id="SVGID_00000172413502004481175170000005207177042482930619_" cx="-158.8511" cy="863.1929" r="1.0003" gradientTransform="matrix(74.9209 0 0 -21.2926 12045.5859 18494.6953)" gradientUnits="userSpaceOnUse">
	<stop  offset="0" style="stop-color:#58151F"/>
	<stop  offset="1" style="stop-color:#8F2132;stop-opacity:0"/>
</radialGradient>
<path style="fill:url(#SVGID_00000172413502004481175170000005207177042482930619_);" d="M224.9,115.1c0-12.2-36.1-22.1-80.6-22.1
	c-44.5,0-80.6,9.9-80.6,22.1c0,12.2,36.1,22.1,80.6,22.1C188.8,137.2,224.9,127.3,224.9,115.1z"/>
<radialGradient id="SVGID_00000063634109657223985530000004716770083198398888_" cx="-158.8511" cy="863.193" r="1.0003" gradientTransform="matrix(74.9209 0 0 -21.2926 12041.8281 19222.7031)" gradientUnits="userSpaceOnUse">
	<stop  offset="0" style="stop-color:#58151F"/>
	<stop  offset="1" style="stop-color:#8F2132;stop-opacity:0"/>
</radialGradient>
<path style="fill:url(#SVGID_00000063634109657223985530000004716770083198398888_);" d="M221.1,843.1c0-12.2-36.1-22.1-80.6-22.1
	c-44.5,0-80.6,9.9-80.6,22.1s36.1,22.1,80.6,22.1C185.1,865.2,221.1,855.3,221.1,843.1z"/>
<linearGradient id="SVGID_00000018231387363559866610000014071075911443961479_" gradientUnits="userSpaceOnUse" x1="143.9869" y1="885.7598" x2="143.9869" y2="820.616" gradientTransform="matrix(1 0 0 -1 0 928)">
	<stop  offset="0" style="stop-color:#370A0F"/>
	<stop  offset="1" style="stop-color:#3D1723"/>
</linearGradient>
<path style="fill:url(#SVGID_00000018231387363559866610000014071075911443961479_);" d="M204.9,105.8H84.1l-4.3-44.7L71.2,42h145.6
	l-7.3,22.9L204.9,105.8z"/>
<linearGradient id="SVGID_00000009555346788730973220000000908957501294483367_" gradientUnits="userSpaceOnUse" x1="136.4866" y1="873.3198" x2="152.2646" y2="56.307" gradientTransform="matrix(1 0 0 -1 0 928)">
	<stop  offset="0" style="stop-color:#FF0027"/>
	<stop  offset="1" style="stop-color:#420800"/>
</linearGradient>
<path style="fill:url(#SVGID_00000009555346788730973220000000908957501294483367_);" d="M284.6,368.5l-2.4-3.9V68.6
	c0-14.7-4.7-26.6-10.5-26.6h-0.3h0h-55.4c-3.6,0-6.8,5.4-8.2,13.7l-5.3,31c-1.2,6.9-3.9,11.4-6.8,11.4H92.9c-3,0-5.6-4.5-6.8-11.4
	l-5.3-31C79.3,47.3,76.1,42,72.5,42H17.1h0h0h-0.3C11,42,6.4,53.9,6.4,68.6v296l-2.2,3.6C1.6,372.5,0,380,0,388v145.6
	c0,7.6,1.5,14.7,4,18.9l2.4,3.9v296c0,14.7,4.7,26.6,10.5,26.6h0.3h0c0,0,0,0,0,0h40.8h173h40.8h0h0.3c5.8,0,10.5-11.9,10.5-26.6
	v-296l2.2-3.6c2.6-4.4,4.2-11.8,4.2-19.8V387.4C288.6,379.8,287.1,372.7,284.6,368.5z M274.8,825.7c-1-0.8-2.1-1.3-3.3-1.3
	c-5.9,0-10.7,12.2-10.7,27.3c0,2.9,0.2,5.7,0.5,8.3h-35.3l-1.4-5.7c-1.7-6.7-4.6-10.8-7.7-10.8H71.4c-2.9,0-5.7,3.8-7.3,10.1
	l-1.6,6.3H27.3c0.3-2.6,0.5-5.4,0.5-8.3c0-15.1-4.8-27.3-10.7-27.3c-1.1,0-2.2,0.5-3.3,1.3V568.8l0,0V352.1l0,0V95.3
	c1,0.8,2.1,1.3,3.3,1.3c5.9,0,10.7-12.2,10.7-27.3c0-2.9-0.2-5.7-0.5-8.3h45.2c0.6,0,1.1,0.9,1.4,2.3l5.3,31
	c2.4,13.9,7.7,22.8,13.7,22.8h102.9c5.9,0,11.3-9,13.7-22.8l5.3-31c0.2-1.4,0.8-2.3,1.4-2.3h45.2c-0.3,2.6-0.5,5.4-0.5,8.3
	c0,15.1,4.8,27.3,10.7,27.3c1.1,0,2.2-0.5,3.3-1.3v256.8l0,0v216.7l0,0V825.7z"/>
<linearGradient id="SVGID_00000088117295933587273980000017922020165871269253_" gradientUnits="userSpaceOnUse" x1="144.3231" y1="78.504" x2="144.3231" y2="853.8267" gradientTransform="matrix(1 0 0 -1 0 928)">
	<stop  offset="0" style="stop-color:#8F2132"/>
	<stop  offset="1" style="stop-color:#58151F"/>
</linearGradient>
<path style="fill:url(#SVGID_00000088117295933587273980000017922020165871269253_);" d="M261.4,61L261.4,61L261.4,61z M261.4,61
	c-0.3,2.6-0.5,5.4-0.5,8.3c0,15.1,4.8,27.3,10.7,27.3c1.1,0,2.2-0.5,3.3-1.3v256.8l0,0v216.7l0,0v256.8c-1-0.8-2.1-1.3-3.3-1.3
	c-5.9,0-10.7,12.2-10.7,27.3c0,2.9,0.2,5.7,0.5,8.3h-35.3l-1.4-5.7c-1.7-6.7-4.6-10.8-7.7-10.8H71.4c-2.9,0-5.7,3.8-7.3,10.1
	l-1.6,6.3H27.3c0.3-2.6,0.5-5.4,0.5-8.3c0-15.1-4.8-27.3-10.7-27.3c-1.1,0-2.2,0.5-3.3,1.3V568.8l0,0V352.1l0,0V95.3
	c1,0.8,2.1,1.3,3.3,1.3c5.9,0,10.7-12.2,10.7-27.3c0-2.9-0.2-5.7-0.5-8.3h45.2c0.6,0,1.1,0.9,1.4,2.3l5.3,31
	c2.4,13.9,7.7,22.8,13.7,22.8h102.9c5.9,0,11.3-9,13.7-22.8l5.3-31c0.2-1.4,0.8-2.3,1.4-2.3H261.4z M261.4,59.1L261.4,59.1h-45.2
	c-0.9,0-1.7,1.3-2.1,3.4l-5.3,31c-2.2,13.2-7.3,21.7-13,21.7H92.9c-5.6,0-10.7-8.5-13-21.7l-5.3-31c-0.4-2.1-1.2-3.4-2-3.4H27.3
	c-0.2,0-0.5,0.3-0.6,0.8c-0.1,0.5-0.2,1.1-0.1,1.7c0.3,2.5,0.5,5.1,0.5,7.7c0,14-4.5,25.4-10,25.4c-1,0-2.1-0.4-3-1.2
	c-0.1-0.1-0.2-0.1-0.2-0.1c-0.2,0-0.3,0.1-0.4,0.4c-0.2,0.4-0.3,0.9-0.3,1.5v256.8c0,0.1,0,0.2,0,0.3v216.1c0,0.1,0,0.2,0,0.3v256.8
	c0,0.6,0.1,1.2,0.3,1.5c0.1,0.2,0.3,0.4,0.4,0.4c0.1,0,0.2,0,0.2-0.1c1-0.8,2-1.2,3-1.2c5.5,0,10,11.4,10,25.4
	c0,2.6-0.2,5.2-0.5,7.7c-0.1,0.6,0,1.2,0.1,1.7c0.1,0.5,0.4,0.8,0.6,0.8h35.3c0.3,0,0.5-0.3,0.6-0.9l1.6-6.3
	c1.4-5.8,3.9-9.3,6.6-9.3h145.5c2.9,0,5.5,3.7,7.1,9.9l1.4,5.7c0.1,0.5,0.4,0.9,0.6,0.9h35.3c0.2,0,0.5-0.3,0.6-0.8
	c0.1-0.5,0.2-1.1,0.1-1.7c-0.3-2.5-0.5-5.1-0.5-7.7c0-14,4.5-25.4,10-25.4c1,0,2.1,0.4,3,1.2c0.1,0.1,0.2,0.1,0.2,0.1
	c0.2,0,0.3-0.1,0.4-0.4c0.2-0.4,0.3-0.9,0.3-1.5V568.8c0-0.1,0-0.1,0-0.2V352.3c0-0.1,0-0.1,0-0.2V95.3c0-0.6-0.1-1.2-0.3-1.5
	c-0.1-0.2-0.3-0.4-0.4-0.4c-0.1,0-0.2,0-0.2,0.1c-1,0.8-2,1.2-3,1.2c-5.5,0-10-11.4-10-25.4c0-2.6,0.2-5.1,0.5-7.6
	c0-0.2,0.1-0.5,0.1-0.7C262.1,59.9,261.8,59.1,261.4,59.1z"/>
<path d="M88.3,56c0.3,0,0.6-0.6,0.6-1.4s-0.3-1.4-0.6-1.4c-0.3,0-0.6,0.6-0.6,1.4S88,56,88.3,56z"/>
<path d="M91.2,56c0.3,0,0.6-0.6,0.6-1.4s-0.3-1.4-0.6-1.4c-0.3,0-0.6,0.6-0.6,1.4S90.9,56,91.2,56z"/>
<path d="M94.1,53.1c-0.3,0-0.6,0.6-0.6,1.4c0,0.8,0.3,1.4,0.6,1.4c0.3,0,0.6-0.6,0.6-1.4C94.7,53.7,94.4,53.1,94.1,53.1z"/>
<path d="M97,53.1c-0.3,0-0.6,0.6-0.6,1.4c0,0.8,0.3,1.4,0.6,1.4c0.3,0,0.6-0.6,0.6-1.4C97.6,53.7,97.3,53.1,97,53.1z"/>
<path d="M99.9,53.1c-0.3,0-0.6,0.6-0.6,1.4c0,0.8,0.3,1.4,0.6,1.4c0.3,0,0.6-0.6,0.6-1.4C100.4,53.7,100.2,53.1,99.9,53.1z"/>
<path d="M102.8,53.1c-0.3,0-0.6,0.6-0.6,1.4c0,0.8,0.3,1.4,0.6,1.4c0.3,0,0.6-0.6,0.6-1.4C103.3,53.7,103.1,53.1,102.8,53.1z"/>
<path d="M105.7,53.1c-0.3,0-0.6,0.6-0.6,1.4c0,0.8,0.3,1.4,0.6,1.4c0.3,0,0.6-0.6,0.6-1.4C106.2,53.7,106,53.1,105.7,53.1z"/>
<path d="M108.5,53.1c-0.3,0-0.6,0.6-0.6,1.4c0,0.8,0.3,1.4,0.6,1.4c0.3,0,0.6-0.6,0.6-1.4C109.1,53.7,108.9,53.1,108.5,53.1z"/>
<path d="M111.4,53.1c-0.3,0-0.6,0.6-0.6,1.4c0,0.8,0.3,1.4,0.6,1.4c0.3,0,0.6-0.6,0.6-1.4C112,53.7,111.7,53.1,111.4,53.1z"/>
<path d="M114.3,53.1c-0.3,0-0.6,0.6-0.6,1.4c0,0.8,0.3,1.4,0.6,1.4c0.3,0,0.6-0.6,0.6-1.4C114.9,53.7,114.6,53.1,114.3,53.1z"/>
<path d="M117.2,53.1c-0.3,0-0.6,0.6-0.6,1.4c0,0.8,0.3,1.4,0.6,1.4s0.6-0.6,0.6-1.4C117.8,53.7,117.5,53.1,117.2,53.1z"/>
<path d="M120.1,56c0.3,0,0.6-0.6,0.6-1.4s-0.3-1.4-0.6-1.4c-0.3,0-0.6,0.6-0.6,1.4S119.8,56,120.1,56z"/>
<path d="M123,56c0.3,0,0.6-0.6,0.6-1.4s-0.3-1.4-0.6-1.4c-0.3,0-0.6,0.6-0.6,1.4S122.7,56,123,56z"/>
<path d="M125.9,56c0.3,0,0.6-0.6,0.6-1.4s-0.3-1.4-0.6-1.4c-0.3,0-0.6,0.6-0.6,1.4S125.6,56,125.9,56z"/>
<path d="M128.8,56c0.3,0,0.6-0.6,0.6-1.4s-0.3-1.4-0.6-1.4s-0.6,0.6-0.6,1.4S128.5,56,128.8,56z"/>
<path d="M131.7,53.1c-0.3,0-0.6,0.6-0.6,1.4c0,0.8,0.3,1.4,0.6,1.4c0.3,0,0.6-0.6,0.6-1.4C132.2,53.7,132,53.1,131.7,53.1z"/>
<path d="M134.5,53.1c-0.3,0-0.6,0.6-0.6,1.4c0,0.8,0.3,1.4,0.6,1.4c0.3,0,0.6-0.6,0.6-1.4C135.1,53.7,134.9,53.1,134.5,53.1z"/>
<path d="M137.4,53.1c-0.3,0-0.6,0.6-0.6,1.4c0,0.8,0.3,1.4,0.6,1.4c0.3,0,0.6-0.6,0.6-1.4C138,53.7,137.7,53.1,137.4,53.1z"/>
<path d="M140.3,56c0.3,0,0.6-0.6,0.6-1.4s-0.3-1.4-0.6-1.4c-0.3,0-0.6,0.6-0.6,1.4S140,56,140.3,56z"/>
<path d="M143.2,56c0.3,0,0.6-0.6,0.6-1.4s-0.3-1.4-0.6-1.4c-0.3,0-0.6,0.6-0.6,1.4S142.9,56,143.2,56z"/>
<path d="M146.1,53.1c-0.3,0-0.6,0.6-0.6,1.4c0,0.8,0.3,1.4,0.6,1.4c0.3,0,0.6-0.6,0.6-1.4C146.7,53.7,146.4,53.1,146.1,53.1z"/>
<path d="M149,56c0.3,0,0.6-0.6,0.6-1.4s-0.3-1.4-0.6-1.4c-0.3,0-0.6,0.6-0.6,1.4S148.7,56,149,56z"/>
<path d="M151.9,56c0.3,0,0.6-0.6,0.6-1.4s-0.3-1.4-0.6-1.4c-0.3,0-0.6,0.6-0.6,1.4S151.6,56,151.9,56z"/>
<path d="M154.8,56c0.3,0,0.6-0.6,0.6-1.4s-0.3-1.4-0.6-1.4c-0.3,0-0.6,0.6-0.6,1.4S154.5,56,154.8,56z"/>
<path d="M157.7,56c0.3,0,0.6-0.6,0.6-1.4s-0.3-1.4-0.6-1.4c-0.3,0-0.6,0.6-0.6,1.4S157.3,56,157.7,56z"/>
<path d="M160.5,56c0.3,0,0.6-0.6,0.6-1.4s-0.3-1.4-0.6-1.4c-0.3,0-0.6,0.6-0.6,1.4S160.2,56,160.5,56z"/>
<path d="M163.4,56c0.3,0,0.6-0.6,0.6-1.4s-0.3-1.4-0.6-1.4s-0.6,0.6-0.6,1.4S163.1,56,163.4,56z"/>
<path d="M166.3,56c0.3,0,0.6-0.6,0.6-1.4s-0.3-1.4-0.6-1.4c-0.3,0-0.6,0.6-0.6,1.4S166,56,166.3,56z"/>
<path d="M169.2,53.1c-0.3,0-0.6,0.6-0.6,1.4c0,0.8,0.3,1.4,0.6,1.4c0.3,0,0.6-0.6,0.6-1.4C169.8,53.7,169.5,53.1,169.2,53.1z"/>
<path d="M172.1,53.1c-0.3,0-0.6,0.6-0.6,1.4c0,0.8,0.3,1.4,0.6,1.4c0.3,0,0.6-0.6,0.6-1.4C172.7,53.7,172.4,53.1,172.1,53.1z"/>
<path d="M175,53.1c-0.3,0-0.6,0.6-0.6,1.4c0,0.8,0.3,1.4,0.6,1.4c0.3,0,0.6-0.6,0.6-1.4C175.6,53.7,175.3,53.1,175,53.1z"/>
<path d="M177.9,53.1c-0.3,0-0.6,0.6-0.6,1.4c0,0.8,0.3,1.4,0.6,1.4c0.3,0,0.6-0.6,0.6-1.4C178.5,53.7,178.2,53.1,177.9,53.1z"/>
<path d="M180.8,53.1c-0.3,0-0.6,0.6-0.6,1.4c0,0.8,0.3,1.4,0.6,1.4c0.3,0,0.6-0.6,0.6-1.4C181.3,53.7,181.1,53.1,180.8,53.1z"/>
<path d="M183.7,53.1c-0.3,0-0.6,0.6-0.6,1.4c0,0.8,0.3,1.4,0.6,1.4c0.3,0,0.6-0.6,0.6-1.4C184.2,53.7,184,53.1,183.7,53.1z"/>
<path d="M186.6,53.1c-0.3,0-0.6,0.6-0.6,1.4c0,0.8,0.3,1.4,0.6,1.4c0.3,0,0.6-0.6,0.6-1.4C187.1,53.7,186.9,53.1,186.6,53.1z"/>
<path d="M189.4,56c0.3,0,0.6-0.6,0.6-1.4s-0.3-1.4-0.6-1.4c-0.3,0-0.6,0.6-0.6,1.4S189.1,56,189.4,56z"/>
<path d="M192.3,56c0.3,0,0.6-0.6,0.6-1.4s-0.3-1.4-0.6-1.4c-0.3,0-0.6,0.6-0.6,1.4S192,56,192.3,56z"/>
<path d="M195.2,56c0.3,0,0.6-0.6,0.6-1.4s-0.3-1.4-0.6-1.4c-0.3,0-0.6,0.6-0.6,1.4S194.9,56,195.2,56z"/>
<path d="M198.1,56c0.3,0,0.6-0.6,0.6-1.4s-0.3-1.4-0.6-1.4c-0.3,0-0.6,0.6-0.6,1.4S197.8,56,198.1,56z"/>
<path d="M201,56c0.3,0,0.6-0.6,0.6-1.4s-0.3-1.4-0.6-1.4c-0.3,0-0.6,0.6-0.6,1.4S200.7,56,201,56z"/>
<path d="M89.8,63.3c0.3,0,0.6-0.6,0.6-1.4s-0.3-1.4-0.6-1.4c-0.3,0-0.6,0.6-0.6,1.4S89.4,63.3,89.8,63.3z"/>
<path d="M92.6,60.5c-0.3,0-0.6,0.6-0.6,1.4c0,0.8,0.3,1.4,0.6,1.4c0.3,0,0.6-0.6,0.6-1.4C93.2,61.1,93,60.5,92.6,60.5z"/>
<path d="M95.5,60.5c-0.3,0-0.6,0.6-0.6,1.4c0,0.8,0.3,1.4,0.6,1.4c0.3,0,0.6-0.6,0.6-1.4C96.1,61.1,95.9,60.5,95.5,60.5z"/>
<path d="M98.4,63.3c0.3,0,0.6-0.6,0.6-1.4s-0.3-1.4-0.6-1.4c-0.3,0-0.6,0.6-0.6,1.4S98.1,63.3,98.4,63.3z"/>
<path d="M101.3,63.3c0.3,0,0.6-0.6,0.6-1.4s-0.3-1.4-0.6-1.4s-0.6,0.6-0.6,1.4S101,63.3,101.3,63.3z"/>
<path d="M104.2,63.3c0.3,0,0.6-0.6,0.6-1.4s-0.3-1.4-0.6-1.4c-0.3,0-0.6,0.6-0.6,1.4S103.9,63.3,104.2,63.3z"/>
<path d="M107.1,63.3c0.3,0,0.6-0.6,0.6-1.4s-0.3-1.4-0.6-1.4c-0.3,0-0.6,0.6-0.6,1.4S106.8,63.3,107.1,63.3z"/>
<path d="M110,63.3c0.3,0,0.6-0.6,0.6-1.4s-0.3-1.4-0.6-1.4c-0.3,0-0.6,0.6-0.6,1.4S109.7,63.3,110,63.3z"/>
<path d="M112.9,60.5c-0.3,0-0.6,0.6-0.6,1.4c0,0.8,0.3,1.4,0.6,1.4c0.3,0,0.6-0.6,0.6-1.4C113.4,61.1,113.2,60.5,112.9,60.5z"/>
<path d="M115.8,60.5c-0.3,0-0.6,0.6-0.6,1.4c0,0.8,0.3,1.4,0.6,1.4c0.3,0,0.6-0.6,0.6-1.4C116.3,61.1,116.1,60.5,115.8,60.5z"/>
<path d="M118.7,60.5c-0.3,0-0.6,0.6-0.6,1.4c0,0.8,0.3,1.4,0.6,1.4c0.3,0,0.6-0.6,0.6-1.4C119.2,61.1,119,60.5,118.7,60.5z"/>
<path d="M121.5,63.3c0.3,0,0.6-0.6,0.6-1.4s-0.3-1.4-0.6-1.4c-0.3,0-0.6,0.6-0.6,1.4S121.2,63.3,121.5,63.3z"/>
<path d="M124.4,60.5c-0.3,0-0.6,0.6-0.6,1.4c0,0.8,0.3,1.4,0.6,1.4c0.3,0,0.6-0.6,0.6-1.4C125,61.1,124.8,60.5,124.4,60.5z"/>
<path d="M127.3,60.5c-0.3,0-0.6,0.6-0.6,1.4c0,0.8,0.3,1.4,0.6,1.4c0.3,0,0.6-0.6,0.6-1.4C127.9,61.1,127.6,60.5,127.3,60.5z"/>
<path d="M130.2,60.5c-0.3,0-0.6,0.6-0.6,1.4c0,0.8,0.3,1.4,0.6,1.4c0.3,0,0.6-0.6,0.6-1.4C130.8,61.1,130.5,60.5,130.2,60.5z"/>
<path d="M133.1,63.3c0.3,0,0.6-0.6,0.6-1.4s-0.3-1.4-0.6-1.4s-0.6,0.6-0.6,1.4S132.8,63.3,133.1,63.3z"/>
<path d="M136,63.3c0.3,0,0.6-0.6,0.6-1.4s-0.3-1.4-0.6-1.4c-0.3,0-0.6,0.6-0.6,1.4S135.7,63.3,136,63.3z"/>
<path d="M138.9,63.3c0.3,0,0.6-0.6,0.6-1.4s-0.3-1.4-0.6-1.4c-0.3,0-0.6,0.6-0.6,1.4S138.6,63.3,138.9,63.3z"/>
<path d="M141.8,63.3c0.3,0,0.6-0.6,0.6-1.4s-0.3-1.4-0.6-1.4c-0.3,0-0.6,0.6-0.6,1.4S141.5,63.3,141.8,63.3z"/>
<path d="M144.7,63.3c0.3,0,0.6-0.6,0.6-1.4s-0.3-1.4-0.6-1.4c-0.3,0-0.6,0.6-0.6,1.4S144.3,63.3,144.7,63.3z"/>
<path d="M147.5,63.3c0.3,0,0.6-0.6,0.6-1.4s-0.3-1.4-0.6-1.4c-0.3,0-0.6,0.6-0.6,1.4S147.2,63.3,147.5,63.3z"/>
<path d="M150.4,60.5c-0.3,0-0.6,0.6-0.6,1.4c0,0.8,0.3,1.4,0.6,1.4c0.3,0,0.6-0.6,0.6-1.4C151,61.1,150.8,60.5,150.4,60.5z"/>
<path d="M153.3,60.5c-0.3,0-0.6,0.6-0.6,1.4c0,0.8,0.3,1.4,0.6,1.4c0.3,0,0.6-0.6,0.6-1.4C153.9,61.1,153.6,60.5,153.3,60.5z"/>
<path d="M156.2,60.5c-0.3,0-0.6,0.6-0.6,1.4c0,0.8,0.3,1.4,0.6,1.4c0.3,0,0.6-0.6,0.6-1.4C156.8,61.1,156.5,60.5,156.2,60.5z"/>
<path d="M159.1,60.5c-0.3,0-0.6,0.6-0.6,1.4c0,0.8,0.3,1.4,0.6,1.4c0.3,0,0.6-0.6,0.6-1.4C159.7,61.1,159.4,60.5,159.1,60.5z"/>
<path d="M162,60.5c-0.3,0-0.6,0.6-0.6,1.4c0,0.8,0.3,1.4,0.6,1.4c0.3,0,0.6-0.6,0.6-1.4C162.6,61.1,162.3,60.5,162,60.5z"/>
<path d="M164.9,60.5c-0.3,0-0.6,0.6-0.6,1.4c0,0.8,0.3,1.4,0.6,1.4c0.3,0,0.6-0.6,0.6-1.4C165.4,61.1,165.2,60.5,164.9,60.5z"/>
<path d="M167.8,60.5c-0.3,0-0.6,0.6-0.6,1.4c0,0.8,0.3,1.4,0.6,1.4s0.6-0.6,0.6-1.4C168.3,61.1,168.1,60.5,167.8,60.5z"/>
<path d="M170.7,63.3c0.3,0,0.6-0.6,0.6-1.4s-0.3-1.4-0.6-1.4c-0.3,0-0.6,0.6-0.6,1.4S170.3,63.3,170.7,63.3z"/>
<path d="M173.5,63.3c0.3,0,0.6-0.6,0.6-1.4s-0.3-1.4-0.6-1.4c-0.3,0-0.6,0.6-0.6,1.4S173.2,63.3,173.5,63.3z"/>
<path d="M176.4,63.3c0.3,0,0.6-0.6,0.6-1.4s-0.3-1.4-0.6-1.4s-0.6,0.6-0.6,1.4S176.1,63.3,176.4,63.3z"/>
<path d="M179.3,63.3c0.3,0,0.6-0.6,0.6-1.4s-0.3-1.4-0.6-1.4c-0.3,0-0.6,0.6-0.6,1.4S179,63.3,179.3,63.3z"/>
<path d="M182.2,63.3c0.3,0,0.6-0.6,0.6-1.4s-0.3-1.4-0.6-1.4c-0.3,0-0.6,0.6-0.6,1.4S181.9,63.3,182.2,63.3z"/>
<path d="M185.1,63.3c0.3,0,0.6-0.6,0.6-1.4s-0.3-1.4-0.6-1.4c-0.3,0-0.6,0.6-0.6,1.4S184.8,63.3,185.1,63.3z"/>
<path d="M188,60.5c-0.3,0-0.6,0.6-0.6,1.4c0,0.8,0.3,1.4,0.6,1.4c0.3,0,0.6-0.6,0.6-1.4C188.6,61.1,188.3,60.5,188,60.5z"/>
<path d="M190.9,60.5c-0.3,0-0.6,0.6-0.6,1.4c0,0.8,0.3,1.4,0.6,1.4c0.3,0,0.6-0.6,0.6-1.4C191.5,61.1,191.2,60.5,190.9,60.5z"/>
<path d="M193.8,60.5c-0.3,0-0.6,0.6-0.6,1.4c0,0.8,0.3,1.4,0.6,1.4c0.3,0,0.6-0.6,0.6-1.4C194.3,61.1,194.1,60.5,193.8,60.5z"/>
<path d="M196.7,63.3c0.3,0,0.6-0.6,0.6-1.4s-0.3-1.4-0.6-1.4c-0.3,0-0.6,0.6-0.6,1.4S196.4,63.3,196.7,63.3z"/>
<path d="M199.6,60.5c-0.3,0-0.6,0.6-0.6,1.4c0,0.8,0.3,1.4,0.6,1.4c0.3,0,0.6-0.6,0.6-1.4C200.1,61.1,199.9,60.5,199.6,60.5z"/>
<path d="M91.2,67.8c-0.3,0-0.6,0.6-0.6,1.4s0.3,1.4,0.6,1.4c0.3,0,0.6-0.6,0.6-1.4S91.5,67.8,91.2,67.8z"/>
<path d="M94.1,67.8c-0.3,0-0.6,0.6-0.6,1.4s0.3,1.4,0.6,1.4c0.3,0,0.6-0.6,0.6-1.4S94.4,67.8,94.1,67.8z"/>
<path d="M97,67.8c-0.3,0-0.6,0.6-0.6,1.4s0.3,1.4,0.6,1.4c0.3,0,0.6-0.6,0.6-1.4S97.3,67.8,97,67.8z"/>
<path d="M99.9,67.8c-0.3,0-0.6,0.6-0.6,1.4s0.3,1.4,0.6,1.4c0.3,0,0.6-0.6,0.6-1.4S100.2,67.8,99.9,67.8z"/>
<path d="M102.8,67.8c-0.3,0-0.6,0.6-0.6,1.4s0.3,1.4,0.6,1.4c0.3,0,0.6-0.6,0.6-1.4S103.1,67.8,102.8,67.8z"/>
<path d="M105.7,67.8c-0.3,0-0.6,0.6-0.6,1.4s0.3,1.4,0.6,1.4c0.3,0,0.6-0.6,0.6-1.4S106,67.8,105.7,67.8z"/>
<path d="M108.5,67.8c-0.3,0-0.6,0.6-0.6,1.4s0.3,1.4,0.6,1.4c0.3,0,0.6-0.6,0.6-1.4S108.9,67.8,108.5,67.8z"/>
<path d="M111.4,67.8c-0.3,0-0.6,0.6-0.6,1.4s0.3,1.4,0.6,1.4c0.3,0,0.6-0.6,0.6-1.4S111.7,67.8,111.4,67.8z"/>
<path d="M114.3,67.8c-0.3,0-0.6,0.6-0.6,1.4s0.3,1.4,0.6,1.4c0.3,0,0.6-0.6,0.6-1.4S114.6,67.8,114.3,67.8z"/>
<path d="M117.2,67.8c-0.3,0-0.6,0.6-0.6,1.4s0.3,1.4,0.6,1.4s0.6-0.6,0.6-1.4S117.5,67.8,117.2,67.8z"/>
<path d="M120.1,67.8c-0.3,0-0.6,0.6-0.6,1.4s0.3,1.4,0.6,1.4c0.3,0,0.6-0.6,0.6-1.4S120.4,67.8,120.1,67.8z"/>
<path d="M123,67.8c-0.3,0-0.6,0.6-0.6,1.4s0.3,1.4,0.6,1.4c0.3,0,0.6-0.6,0.6-1.4S123.3,67.8,123,67.8z"/>
<path d="M125.9,67.8c-0.3,0-0.6,0.6-0.6,1.4s0.3,1.4,0.6,1.4c0.3,0,0.6-0.6,0.6-1.4S126.2,67.8,125.9,67.8z"/>
<path d="M128.8,67.8c-0.3,0-0.6,0.6-0.6,1.4s0.3,1.4,0.6,1.4c0.3,0,0.6-0.6,0.6-1.4S129.1,67.8,128.8,67.8z"/>
<path d="M131.7,67.8c-0.3,0-0.6,0.6-0.6,1.4s0.3,1.4,0.6,1.4c0.3,0,0.6-0.6,0.6-1.4S132,67.8,131.7,67.8z"/>
<path d="M134.5,67.8c-0.3,0-0.6,0.6-0.6,1.4s0.3,1.4,0.6,1.4c0.3,0,0.6-0.6,0.6-1.4S134.9,67.8,134.5,67.8z"/>
<path d="M137.4,67.8c-0.3,0-0.6,0.6-0.6,1.4s0.3,1.4,0.6,1.4c0.3,0,0.6-0.6,0.6-1.4S137.7,67.8,137.4,67.8z"/>
<path d="M140.3,67.8c-0.3,0-0.6,0.6-0.6,1.4s0.3,1.4,0.6,1.4c0.3,0,0.6-0.6,0.6-1.4S140.6,67.8,140.3,67.8z"/>
<path d="M143.2,67.8c-0.3,0-0.6,0.6-0.6,1.4s0.3,1.4,0.6,1.4c0.3,0,0.6-0.6,0.6-1.4S143.5,67.8,143.2,67.8z"/>
<path d="M146.1,67.8c-0.3,0-0.6,0.6-0.6,1.4s0.3,1.4,0.6,1.4c0.3,0,0.6-0.6,0.6-1.4S146.4,67.8,146.1,67.8z"/>
<path d="M149,67.8c-0.3,0-0.6,0.6-0.6,1.4s0.3,1.4,0.6,1.4c0.3,0,0.6-0.6,0.6-1.4S149.3,67.8,149,67.8z"/>
<path d="M151.9,67.8c-0.3,0-0.6,0.6-0.6,1.4s0.3,1.4,0.6,1.4c0.3,0,0.6-0.6,0.6-1.4S152.2,67.8,151.9,67.8z"/>
<path d="M154.8,67.8c-0.3,0-0.6,0.6-0.6,1.4s0.3,1.4,0.6,1.4c0.3,0,0.6-0.6,0.6-1.4S155.1,67.8,154.8,67.8z"/>
<path d="M157.7,67.8c-0.3,0-0.6,0.6-0.6,1.4s0.3,1.4,0.6,1.4c0.3,0,0.6-0.6,0.6-1.4S158,67.8,157.7,67.8z"/>
<path d="M160.5,67.8c-0.3,0-0.6,0.6-0.6,1.4s0.3,1.4,0.6,1.4c0.3,0,0.6-0.6,0.6-1.4S160.9,67.8,160.5,67.8z"/>
<path d="M163.4,67.8c-0.3,0-0.6,0.6-0.6,1.4s0.3,1.4,0.6,1.4c0.3,0,0.6-0.6,0.6-1.4S163.8,67.8,163.4,67.8z"/>
<path d="M166.3,67.8c-0.3,0-0.6,0.6-0.6,1.4s0.3,1.4,0.6,1.4c0.3,0,0.6-0.6,0.6-1.4S166.6,67.8,166.3,67.8z"/>
<path d="M169.2,67.8c-0.3,0-0.6,0.6-0.6,1.4s0.3,1.4,0.6,1.4c0.3,0,0.6-0.6,0.6-1.4S169.5,67.8,169.2,67.8z"/>
<path d="M172.1,67.8c-0.3,0-0.6,0.6-0.6,1.4s0.3,1.4,0.6,1.4c0.3,0,0.6-0.6,0.6-1.4S172.4,67.8,172.1,67.8z"/>
<path d="M175,67.8c-0.3,0-0.6,0.6-0.6,1.4s0.3,1.4,0.6,1.4c0.3,0,0.6-0.6,0.6-1.4S175.3,67.8,175,67.8z"/>
<path d="M177.9,67.8c-0.3,0-0.6,0.6-0.6,1.4s0.3,1.4,0.6,1.4c0.3,0,0.6-0.6,0.6-1.4S178.2,67.8,177.9,67.8z"/>
<path d="M180.8,67.8c-0.3,0-0.6,0.6-0.6,1.4s0.3,1.4,0.6,1.4c0.3,0,0.6-0.6,0.6-1.4S181.1,67.8,180.8,67.8z"/>
<path d="M183.7,67.8c-0.3,0-0.6,0.6-0.6,1.4s0.3,1.4,0.6,1.4c0.3,0,0.6-0.6,0.6-1.4S184,67.8,183.7,67.8z"/>
<path d="M186.6,67.8c-0.3,0-0.6,0.6-0.6,1.4s0.3,1.4,0.6,1.4c0.3,0,0.6-0.6,0.6-1.4S186.9,67.8,186.6,67.8z"/>
<path d="M189.4,67.8c-0.3,0-0.6,0.6-0.6,1.4s0.3,1.4,0.6,1.4c0.3,0,0.6-0.6,0.6-1.4S189.8,67.8,189.4,67.8z"/>
<path d="M192.3,67.8c-0.3,0-0.6,0.6-0.6,1.4s0.3,1.4,0.6,1.4c0.3,0,0.6-0.6,0.6-1.4S192.6,67.8,192.3,67.8z"/>
<path d="M195.2,67.8c-0.3,0-0.6,0.6-0.6,1.4s0.3,1.4,0.6,1.4c0.3,0,0.6-0.6,0.6-1.4S195.5,67.8,195.2,67.8z"/>
<path d="M198.1,67.8c-0.3,0-0.6,0.6-0.6,1.4s0.3,1.4,0.6,1.4c0.3,0,0.6-0.6,0.6-1.4S198.4,67.8,198.1,67.8z"/>
<path d="M92.6,75.2c-0.3,0-0.6,0.6-0.6,1.4c0,0.8,0.3,1.4,0.6,1.4c0.3,0,0.6-0.6,0.6-1.4C93.2,75.9,93,75.2,92.6,75.2z"/>
<path d="M95.5,75.2c-0.3,0-0.6,0.6-0.6,1.4c0,0.8,0.3,1.4,0.6,1.4c0.3,0,0.6-0.6,0.6-1.4S95.9,75.2,95.5,75.2z"/>
<path d="M98.4,78.1c0.3,0,0.6-0.6,0.6-1.4s-0.3-1.4-0.6-1.4c-0.3,0-0.6,0.6-0.6,1.4S98.1,78.1,98.4,78.1z"/>
<path d="M101.3,78.1c0.3,0,0.6-0.6,0.6-1.4s-0.3-1.4-0.6-1.4s-0.6,0.6-0.6,1.4S101,78.1,101.3,78.1z"/>
<path d="M104.2,78.1c0.3,0,0.6-0.6,0.6-1.4s-0.3-1.4-0.6-1.4c-0.3,0-0.6,0.6-0.6,1.4S103.9,78.1,104.2,78.1z"/>
<path d="M107.1,78.1c0.3,0,0.6-0.6,0.6-1.4s-0.3-1.4-0.6-1.4c-0.3,0-0.6,0.6-0.6,1.4S106.8,78.1,107.1,78.1z"/>
<path d="M110,78.1c0.3,0,0.6-0.6,0.6-1.4s-0.3-1.4-0.6-1.4c-0.3,0-0.6,0.6-0.6,1.4S109.7,78.1,110,78.1z"/>
<path d="M112.9,75.2c-0.3,0-0.6,0.6-0.6,1.4c0,0.8,0.3,1.4,0.6,1.4c0.3,0,0.6-0.6,0.6-1.4S113.2,75.2,112.9,75.2z"/>
<path d="M115.8,75.2c-0.3,0-0.6,0.6-0.6,1.4c0,0.8,0.3,1.4,0.6,1.4c0.3,0,0.6-0.6,0.6-1.4S116.1,75.2,115.8,75.2z"/>
<path d="M118.7,75.2c-0.3,0-0.6,0.6-0.6,1.4c0,0.8,0.3,1.4,0.6,1.4c0.3,0,0.6-0.6,0.6-1.4C119.2,75.9,119,75.2,118.7,75.2z"/>
<path d="M121.5,78.1c0.3,0,0.6-0.6,0.6-1.4s-0.3-1.4-0.6-1.4c-0.3,0-0.6,0.6-0.6,1.4S121.2,78.1,121.5,78.1z"/>
<path d="M124.4,75.2c-0.3,0-0.6,0.6-0.6,1.4c0,0.8,0.3,1.4,0.6,1.4c0.3,0,0.6-0.6,0.6-1.4S124.8,75.2,124.4,75.2z"/>
<path d="M127.3,75.2c-0.3,0-0.6,0.6-0.6,1.4c0,0.8,0.3,1.4,0.6,1.4c0.3,0,0.6-0.6,0.6-1.4S127.6,75.2,127.3,75.2z"/>
<path d="M130.2,75.2c-0.3,0-0.6,0.6-0.6,1.4c0,0.8,0.3,1.4,0.6,1.4c0.3,0,0.6-0.6,0.6-1.4C130.8,75.9,130.5,75.2,130.2,75.2z"/>
<path d="M133.1,78.1c0.3,0,0.6-0.6,0.6-1.4s-0.3-1.4-0.6-1.4s-0.6,0.6-0.6,1.4S132.8,78.1,133.1,78.1z"/>
<path d="M136,78.1c0.3,0,0.6-0.6,0.6-1.4s-0.3-1.4-0.6-1.4c-0.3,0-0.6,0.6-0.6,1.4S135.7,78.1,136,78.1z"/>
<path d="M138.9,78.1c0.3,0,0.6-0.6,0.6-1.4s-0.3-1.4-0.6-1.4c-0.3,0-0.6,0.6-0.6,1.4S138.6,78.1,138.9,78.1z"/>
<path d="M141.8,78.1c0.3,0,0.6-0.6,0.6-1.4s-0.3-1.4-0.6-1.4c-0.3,0-0.6,0.6-0.6,1.4S141.5,78.1,141.8,78.1z"/>
<path d="M144.7,78.1c0.3,0,0.6-0.6,0.6-1.4s-0.3-1.4-0.6-1.4c-0.3,0-0.6,0.6-0.6,1.4S144.3,78.1,144.7,78.1z"/>
<path d="M147.5,78.1c0.3,0,0.6-0.6,0.6-1.4s-0.3-1.4-0.6-1.4c-0.3,0-0.6,0.6-0.6,1.4S147.2,78.1,147.5,78.1z"/>
<path d="M150.4,75.2c-0.3,0-0.6,0.6-0.6,1.4c0,0.8,0.3,1.4,0.6,1.4c0.3,0,0.6-0.6,0.6-1.4S150.8,75.2,150.4,75.2z"/>
<path d="M153.3,75.2c-0.3,0-0.6,0.6-0.6,1.4c0,0.8,0.3,1.4,0.6,1.4c0.3,0,0.6-0.6,0.6-1.4S153.6,75.2,153.3,75.2z"/>
<path d="M156.2,75.2c-0.3,0-0.6,0.6-0.6,1.4c0,0.8,0.3,1.4,0.6,1.4c0.3,0,0.6-0.6,0.6-1.4C156.8,75.9,156.5,75.2,156.2,75.2z"/>
<path d="M159.1,75.2c-0.3,0-0.6,0.6-0.6,1.4c0,0.8,0.3,1.4,0.6,1.4c0.3,0,0.6-0.6,0.6-1.4S159.4,75.2,159.1,75.2z"/>
<path d="M162,75.2c-0.3,0-0.6,0.6-0.6,1.4c0,0.8,0.3,1.4,0.6,1.4c0.3,0,0.6-0.6,0.6-1.4S162.3,75.2,162,75.2z"/>
<path d="M164.9,75.2c-0.3,0-0.6,0.6-0.6,1.4c0,0.8,0.3,1.4,0.6,1.4c0.3,0,0.6-0.6,0.6-1.4C165.4,75.9,165.2,75.2,164.9,75.2z"/>
<path d="M167.8,75.2c-0.3,0-0.6,0.6-0.6,1.4c0,0.8,0.3,1.4,0.6,1.4s0.6-0.6,0.6-1.4S168.1,75.2,167.8,75.2z"/>
<path d="M170.7,78.1c0.3,0,0.6-0.6,0.6-1.4s-0.3-1.4-0.6-1.4c-0.3,0-0.6,0.6-0.6,1.4S170.3,78.1,170.7,78.1z"/>
<path d="M173.5,78.1c0.3,0,0.6-0.6,0.6-1.4s-0.3-1.4-0.6-1.4c-0.3,0-0.6,0.6-0.6,1.4S173.2,78.1,173.5,78.1z"/>
<path d="M176.4,78.1c0.3,0,0.6-0.6,0.6-1.4s-0.3-1.4-0.6-1.4s-0.6,0.6-0.6,1.4S176.1,78.1,176.4,78.1z"/>
<path d="M179.3,78.1c0.3,0,0.6-0.6,0.6-1.4s-0.3-1.4-0.6-1.4c-0.3,0-0.6,0.6-0.6,1.4S179,78.1,179.3,78.1z"/>
<path d="M182.2,78.1c0.3,0,0.6-0.6,0.6-1.4s-0.3-1.4-0.6-1.4c-0.3,0-0.6,0.6-0.6,1.4S181.9,78.1,182.2,78.1z"/>
<path d="M185.1,78.1c0.3,0,0.6-0.6,0.6-1.4s-0.3-1.4-0.6-1.4c-0.3,0-0.6,0.6-0.6,1.4S184.8,78.1,185.1,78.1z"/>
<path d="M188,75.2c-0.3,0-0.6,0.6-0.6,1.4c0,0.8,0.3,1.4,0.6,1.4c0.3,0,0.6-0.6,0.6-1.4S188.3,75.2,188,75.2z"/>
<path d="M190.9,75.2c-0.3,0-0.6,0.6-0.6,1.4c0,0.8,0.3,1.4,0.6,1.4c0.3,0,0.6-0.6,0.6-1.4S191.2,75.2,190.9,75.2z"/>
<path d="M193.8,75.2c-0.3,0-0.6,0.6-0.6,1.4c0,0.8,0.3,1.4,0.6,1.4c0.3,0,0.6-0.6,0.6-1.4C194.3,75.9,194.1,75.2,193.8,75.2z"/>
<path d="M196.7,78.1c0.3,0,0.6-0.6,0.6-1.4s-0.3-1.4-0.6-1.4c-0.3,0-0.6,0.6-0.6,1.4S196.4,78.1,196.7,78.1z"/>
<path d="M94.1,82.6c-0.3,0-0.6,0.6-0.6,1.4c0,0.8,0.3,1.4,0.6,1.4c0.3,0,0.6-0.6,0.6-1.4C94.7,83.2,94.4,82.6,94.1,82.6z"/>
<path d="M97,82.6c-0.3,0-0.6,0.6-0.6,1.4c0,0.8,0.3,1.4,0.6,1.4c0.3,0,0.6-0.6,0.6-1.4C97.6,83.2,97.3,82.6,97,82.6z"/>
<path d="M99.9,82.6c-0.3,0-0.6,0.6-0.6,1.4c0,0.8,0.3,1.4,0.6,1.4c0.3,0,0.6-0.6,0.6-1.4C100.4,83.2,100.2,82.6,99.9,82.6z"/>
<path d="M102.8,82.6c-0.3,0-0.6,0.6-0.6,1.4c0,0.8,0.3,1.4,0.6,1.4c0.3,0,0.6-0.6,0.6-1.4C103.3,83.2,103.1,82.6,102.8,82.6z"/>
<path d="M105.7,82.6c-0.3,0-0.6,0.6-0.6,1.4c0,0.8,0.3,1.4,0.6,1.4c0.3,0,0.6-0.6,0.6-1.4C106.2,83.2,106,82.6,105.7,82.6z"/>
<path d="M108.5,82.6c-0.3,0-0.6,0.6-0.6,1.4c0,0.8,0.3,1.4,0.6,1.4c0.3,0,0.6-0.6,0.6-1.4C109.1,83.2,108.9,82.6,108.5,82.6z"/>
<path d="M111.4,82.6c-0.3,0-0.6,0.6-0.6,1.4c0,0.8,0.3,1.4,0.6,1.4c0.3,0,0.6-0.6,0.6-1.4C112,83.2,111.7,82.6,111.4,82.6z"/>
<path d="M114.3,82.6c-0.3,0-0.6,0.6-0.6,1.4c0,0.8,0.3,1.4,0.6,1.4c0.3,0,0.6-0.6,0.6-1.4C114.9,83.2,114.6,82.6,114.3,82.6z"/>
<path d="M117.2,82.6c-0.3,0-0.6,0.6-0.6,1.4c0,0.8,0.3,1.4,0.6,1.4s0.6-0.6,0.6-1.4C117.8,83.2,117.5,82.6,117.2,82.6z"/>
<path d="M120.1,85.5c0.3,0,0.6-0.6,0.6-1.4s-0.3-1.4-0.6-1.4c-0.3,0-0.6,0.6-0.6,1.4S119.8,85.5,120.1,85.5z"/>
<path d="M123,85.5c0.3,0,0.6-0.6,0.6-1.4s-0.3-1.4-0.6-1.4c-0.3,0-0.6,0.6-0.6,1.4S122.7,85.5,123,85.5z"/>
<path d="M125.9,85.5c0.3,0,0.6-0.6,0.6-1.4s-0.3-1.4-0.6-1.4c-0.3,0-0.6,0.6-0.6,1.4S125.6,85.5,125.9,85.5z"/>
<path d="M128.8,85.5c0.3,0,0.6-0.6,0.6-1.4s-0.3-1.4-0.6-1.4s-0.6,0.6-0.6,1.4S128.5,85.5,128.8,85.5z"/>
<path d="M131.7,82.6c-0.3,0-0.6,0.6-0.6,1.4c0,0.8,0.3,1.4,0.6,1.4c0.3,0,0.6-0.6,0.6-1.4C132.2,83.2,132,82.6,131.7,82.6z"/>
<path d="M134.5,82.6c-0.3,0-0.6,0.6-0.6,1.4c0,0.8,0.3,1.4,0.6,1.4c0.3,0,0.6-0.6,0.6-1.4C135.1,83.2,134.9,82.6,134.5,82.6z"/>
<path d="M137.4,82.6c-0.3,0-0.6,0.6-0.6,1.4c0,0.8,0.3,1.4,0.6,1.4c0.3,0,0.6-0.6,0.6-1.4C138,83.2,137.7,82.6,137.4,82.6z"/>
<path d="M140.3,85.5c0.3,0,0.6-0.6,0.6-1.4s-0.3-1.4-0.6-1.4c-0.3,0-0.6,0.6-0.6,1.4S140,85.5,140.3,85.5z"/>
<path d="M143.2,85.5c0.3,0,0.6-0.6,0.6-1.4s-0.3-1.4-0.6-1.4c-0.3,0-0.6,0.6-0.6,1.4S142.9,85.5,143.2,85.5z"/>
<path d="M146.1,82.6c-0.3,0-0.6,0.6-0.6,1.4c0,0.8,0.3,1.4,0.6,1.4c0.3,0,0.6-0.6,0.6-1.4C146.7,83.2,146.4,82.6,146.1,82.6z"/>
<path d="M149,85.5c0.3,0,0.6-0.6,0.6-1.4s-0.3-1.4-0.6-1.4c-0.3,0-0.6,0.6-0.6,1.4S148.7,85.5,149,85.5z"/>
<path d="M151.9,85.5c0.3,0,0.6-0.6,0.6-1.4s-0.3-1.4-0.6-1.4c-0.3,0-0.6,0.6-0.6,1.4S151.6,85.5,151.9,85.5z"/>
<path d="M154.8,85.5c0.3,0,0.6-0.6,0.6-1.4s-0.3-1.4-0.6-1.4c-0.3,0-0.6,0.6-0.6,1.4S154.5,85.5,154.8,85.5z"/>
<path d="M157.7,85.5c0.3,0,0.6-0.6,0.6-1.4s-0.3-1.4-0.6-1.4c-0.3,0-0.6,0.6-0.6,1.4S157.3,85.5,157.7,85.5z"/>
<path d="M160.5,85.5c0.3,0,0.6-0.6,0.6-1.4s-0.3-1.4-0.6-1.4c-0.3,0-0.6,0.6-0.6,1.4S160.2,85.5,160.5,85.5z"/>
<path d="M163.4,85.5c0.3,0,0.6-0.6,0.6-1.4s-0.3-1.4-0.6-1.4s-0.6,0.6-0.6,1.4S163.1,85.5,163.4,85.5z"/>
<path d="M166.3,85.5c0.3,0,0.6-0.6,0.6-1.4s-0.3-1.4-0.6-1.4c-0.3,0-0.6,0.6-0.6,1.4S166,85.5,166.3,85.5z"/>
<path d="M169.2,82.6c-0.3,0-0.6,0.6-0.6,1.4c0,0.8,0.3,1.4,0.6,1.4c0.3,0,0.6-0.6,0.6-1.4C169.8,83.2,169.5,82.6,169.2,82.6z"/>
<path d="M172.1,82.6c-0.3,0-0.6,0.6-0.6,1.4c0,0.8,0.3,1.4,0.6,1.4c0.3,0,0.6-0.6,0.6-1.4C172.7,83.2,172.4,82.6,172.1,82.6z"/>
<path d="M175,82.6c-0.3,0-0.6,0.6-0.6,1.4c0,0.8,0.3,1.4,0.6,1.4c0.3,0,0.6-0.6,0.6-1.4C175.6,83.2,175.3,82.6,175,82.6z"/>
<path d="M177.9,82.6c-0.3,0-0.6,0.6-0.6,1.4c0,0.8,0.3,1.4,0.6,1.4c0.3,0,0.6-0.6,0.6-1.4C178.5,83.2,178.2,82.6,177.9,82.6z"/>
<path d="M180.8,82.6c-0.3,0-0.6,0.6-0.6,1.4c0,0.8,0.3,1.4,0.6,1.4c0.3,0,0.6-0.6,0.6-1.4C181.3,83.2,181.1,82.6,180.8,82.6z"/>
<path d="M183.7,82.6c-0.3,0-0.6,0.6-0.6,1.4c0,0.8,0.3,1.4,0.6,1.4c0.3,0,0.6-0.6,0.6-1.4C184.2,83.2,184,82.6,183.7,82.6z"/>
<path d="M186.6,82.6c-0.3,0-0.6,0.6-0.6,1.4c0,0.8,0.3,1.4,0.6,1.4c0.3,0,0.6-0.6,0.6-1.4C187.1,83.2,186.9,82.6,186.6,82.6z"/>
<path d="M189.4,85.5c0.3,0,0.6-0.6,0.6-1.4s-0.3-1.4-0.6-1.4c-0.3,0-0.6,0.6-0.6,1.4S189.1,85.5,189.4,85.5z"/>
<path d="M192.3,85.5c0.3,0,0.6-0.6,0.6-1.4s-0.3-1.4-0.6-1.4c-0.3,0-0.6,0.6-0.6,1.4S192,85.5,192.3,85.5z"/>
<path d="M195.2,85.5c0.3,0,0.6-0.6,0.6-1.4s-0.3-1.4-0.6-1.4c-0.3,0-0.6,0.6-0.6,1.4S194.9,85.5,195.2,85.5z"/>
<linearGradient id="SVGID_00000112592848880182392460000002262020152724785796_" gradientUnits="userSpaceOnUse" x1="15.2204" y1="467.5295" x2="6.1875" y2="467.5295" gradientTransform="matrix(1 0 0 -1 0 928)">
	<stop  offset="0" style="stop-color:#370A0F"/>
	<stop  offset="1" style="stop-color:#000000"/>
</linearGradient>
<path style="fill:url(#SVGID_00000112592848880182392460000002262020152724785796_);" d="M6.2,527.9c0,4.3,1,8.4,2.7,11l4.9,7.6v-19
	c0.8-1.3,1.4-3.6,1.4-6.3c0-2.7-0.6-5-1.4-6.3v-11.8c0.8-1.3,1.4-3.6,1.4-6.3c0-2.7-0.6-5-1.4-6.3v-11.8c0.8-1.3,1.4-3.6,1.4-6.3
	c0-2.7-0.6-5-1.4-6.3v-11.8c0.8-1.3,1.4-3.6,1.4-6.3c0-2.7-0.6-5-1.4-6.3v-11.8c0.8-1.3,1.4-3.6,1.4-6.3c0-2.7-0.6-5-1.4-6.3v-11.8
	c0.8-1.3,1.4-3.6,1.4-6.3c0-2.7-0.6-5-1.4-6.3v-19L8.9,382c-1.7,2.6-2.7,6.7-2.7,11V527.9z"/>
<linearGradient id="SVGID_00000121255316589628973900000000419498931789216445_" gradientUnits="userSpaceOnUse" x1="273.418" y1="467.5115" x2="282.451" y2="467.5115" gradientTransform="matrix(1 0 0 -1 0 928)">
	<stop  offset="0" style="stop-color:#370A0F"/>
	<stop  offset="1" style="stop-color:#3D1723"/>
</linearGradient>
<path style="fill:url(#SVGID_00000121255316589628973900000000419498931789216445_);" d="M282.5,393c0-4.3-1-8.4-2.7-11l-4.9-7.6v19
	c-0.8,1.3-1.4,3.6-1.4,6.3c0,2.7,0.6,5,1.4,6.3v11.8c-0.8,1.3-1.4,3.6-1.4,6.3c0,2.7,0.6,5,1.4,6.3V442c-0.8,1.3-1.4,3.6-1.4,6.3
	c0,2.7,0.6,5,1.4,6.3v11.8c-0.8,1.3-1.4,3.6-1.4,6.3c0,2.7,0.6,5,1.4,6.3v11.8c-0.8,1.3-1.4,3.6-1.4,6.3c0,2.7,0.6,5,1.4,6.3v11.8
	c-0.8,1.3-1.4,3.6-1.4,6.3c0,2.7,0.6,5,1.4,6.3v19l4.9-7.6c1.7-2.6,2.7-6.7,2.7-11V393z"/>
<linearGradient id="SVGID_00000137825938638369888700000004962692854744959933_" gradientUnits="userSpaceOnUse" x1="121.6902" y1="71.6519" x2="116.5872" y2="65.9461" gradientTransform="matrix(1 0 0 -1 0 928)">
	<stop  offset="0" style="stop-color:#340304"/>
	<stop  offset="1" style="stop-color:#3D1723"/>
</linearGradient>
<path style="fill:url(#SVGID_00000137825938638369888700000004962692854744959933_);" d="M121,859.2c0-2.7-0.9-4.8-1.9-4.8
	c-1.1,0-1.9,2.2-1.9,4.8c0,2.7,0.9,4.8,1.9,4.8C120.2,864,121,861.9,121,859.2z"/>
<linearGradient id="SVGID_00000164504693295113030850000014330561091583358131_" gradientUnits="userSpaceOnUse" x1="131.9778" y1="72.1475" x2="125.994" y2="65.4578" gradientTransform="matrix(1 0 0 -1 0 928)">
	<stop  offset="0" style="stop-color:#340304"/>
	<stop  offset="1" style="stop-color:#3D1723"/>
</linearGradient>
<path style="fill:url(#SVGID_00000164504693295113030850000014330561091583358131_);" d="M131.2,859.2c0-3.1-1-5.7-2.2-5.7
	c-1.2,0-2.2,2.5-2.2,5.7s1,5.7,2.2,5.7C130.2,864.9,131.2,862.3,131.2,859.2z"/>
<linearGradient id="SVGID_00000099652814602520755080000018039971342939917960_" gradientUnits="userSpaceOnUse" x1="141.8179" y1="72.1473" x2="135.8341" y2="65.4578" gradientTransform="matrix(1 0 0 -1 0 928)">
	<stop  offset="0" style="stop-color:#340304"/>
	<stop  offset="1" style="stop-color:#3D1723"/>
</linearGradient>
<path style="fill:url(#SVGID_00000099652814602520755080000018039971342939917960_);" d="M141.1,859.2c0-3.1-1-5.7-2.2-5.7
	s-2.2,2.5-2.2,5.7s1,5.7,2.2,5.7S141.1,862.3,141.1,859.2z"/>
<linearGradient id="SVGID_00000090296955969051513970000005089385846034915464_" gradientUnits="userSpaceOnUse" x1="151.6658" y1="72.1474" x2="145.6822" y2="65.458" gradientTransform="matrix(1 0 0 -1 0 928)">
	<stop  offset="0" style="stop-color:#340304"/>
	<stop  offset="1" style="stop-color:#3D1723"/>
</linearGradient>
<path style="fill:url(#SVGID_00000090296955969051513970000005089385846034915464_);" d="M150.9,859.2c0-3.1-1-5.7-2.2-5.7
	s-2.2,2.5-2.2,5.7s1,5.7,2.2,5.7C149.9,864.9,150.9,862.3,150.9,859.2z"/>
<linearGradient id="SVGID_00000019674602524682838650000013856489861380358553_" gradientUnits="userSpaceOnUse" x1="161.5091" y1="72.1479" x2="155.5257" y2="65.4576" gradientTransform="matrix(1 0 0 -1 0 928)">
	<stop  offset="0" style="stop-color:#340304"/>
	<stop  offset="1" style="stop-color:#3D1723"/>
</linearGradient>
<path style="fill:url(#SVGID_00000019674602524682838650000013856489861380358553_);" d="M160.7,859.2c0-3.1-1-5.7-2.2-5.7
	c-1.2,0-2.2,2.5-2.2,5.7s1,5.7,2.2,5.7C159.7,864.9,160.7,862.3,160.7,859.2z"/>
<linearGradient id="SVGID_00000150810470343620674310000013456530809369553299_" gradientUnits="userSpaceOnUse" x1="170.9129" y1="71.6515" x2="165.8097" y2="65.9464" gradientTransform="matrix(1 0 0 -1 0 928)">
	<stop  offset="0" style="stop-color:#340304"/>
	<stop  offset="1" style="stop-color:#3D1723"/>
</linearGradient>
<path style="fill:url(#SVGID_00000150810470343620674310000013456530809369553299_);" d="M170.3,859.2c0-2.7-0.9-4.8-1.9-4.8
	c-1,0-1.9,2.2-1.9,4.8c0,2.7,0.9,4.8,1.9,4.8C169.4,864,170.3,861.9,170.3,859.2z"/>
<linearGradient id="SVGID_00000041258260987255975990000014467057572415203976_" gradientUnits="userSpaceOnUse" x1="67.1523" y1="68.7995" x2="104.934" y2="68.7995" gradientTransform="matrix(1 0 0 -1 0 928)">
	<stop  offset="0" style="stop-color:#5E56E3;stop-opacity:0.251"/>
	<stop  offset="1" style="stop-color:#3D1723"/>
</linearGradient>
<path style="fill:url(#SVGID_00000041258260987255975990000014467057572415203976_);" d="M104.9,852.1H74.7c-2.6,0-5.1,3.9-6.7,10.6
	l-0.8,3.6h32.2C102.4,866.3,104.9,859.9,104.9,852.1z"/>
<linearGradient id="SVGID_00000098211452192553032030000009535538232342785417_" gradientUnits="userSpaceOnUse" x1="221.329" y1="68.7995" x2="183.547" y2="68.7995" gradientTransform="matrix(1 0 0 -1 0 928)">
	<stop  offset="0" style="stop-color:#5E56E3;stop-opacity:0.251"/>
	<stop  offset="1" style="stop-color:#3D1723"/>
</linearGradient>
<path style="fill:url(#SVGID_00000098211452192553032030000009535538232342785417_);" d="M183.5,852.1h30.3c2.6,0,5.1,3.9,6.7,10.6
	l0.8,3.6h-32.2C186,866.3,183.5,859.9,183.5,852.1z"/>
<linearGradient id="SVGID_00000145022909339892976550000007562017903906925493_" gradientUnits="userSpaceOnUse" x1="275.2658" y1="862.8561" x2="267.9398" y2="854.6637" gradientTransform="matrix(1 0 0 -1 0 928)">
	<stop  offset="0" style="stop-color:#340304"/>
	<stop  offset="1" style="stop-color:#3D1723"/>
</linearGradient>
<path style="fill:url(#SVGID_00000145022909339892976550000007562017903906925493_);" d="M274.8,69.3c0-4.5-1.4-8.1-3.2-8.1
	c-1.8,0-3.2,3.6-3.2,8.1c0,4.5,1.4,8.1,3.2,8.1C273.3,77.4,274.8,73.8,274.8,69.3z"/>
<linearGradient id="SVGID_00000057830484196705145840000006835402964609836222_" gradientUnits="userSpaceOnUse" x1="274.9067" y1="79.9984" x2="267.5797" y2="71.8064" gradientTransform="matrix(1 0 0 -1 0 928)">
	<stop  offset="0" style="stop-color:#340304"/>
	<stop  offset="1" style="stop-color:#3D1723"/>
</linearGradient>
<path style="fill:url(#SVGID_00000057830484196705145840000006835402964609836222_);" d="M274.4,852.1c0-4.5-1.4-8.1-3.2-8.1
	c-1.8,0-3.2,3.6-3.2,8.1s1.4,8.1,3.2,8.1C273,860.3,274.4,856.7,274.4,852.1z"/>
<linearGradient id="SVGID_00000183955573430246995640000015250140809017871263_" gradientUnits="userSpaceOnUse" x1="19.9067" y1="861.9985" x2="12.5798" y2="853.8062" gradientTransform="matrix(1 0 0 -1 0 928)">
	<stop  offset="0" style="stop-color:#340304"/>
	<stop  offset="1" style="stop-color:#3D1723"/>
</linearGradient>
<path style="fill:url(#SVGID_00000183955573430246995640000015250140809017871263_);" d="M19.4,70.1c0-4.5-1.4-8.1-3.2-8.1
	c-1.8,0-3.2,3.6-3.2,8.1c0,4.5,1.4,8.1,3.2,8.1C18,78.3,19.4,74.7,19.4,70.1z"/>
<linearGradient id="SVGID_00000018235924699344444640000001390578026996946854_" gradientUnits="userSpaceOnUse" x1="22.9068" y1="79.9984" x2="15.5799" y2="71.8065" gradientTransform="matrix(1 0 0 -1 0 928)">
	<stop  offset="0" style="stop-color:#340304"/>
	<stop  offset="1" style="stop-color:#3D1723"/>
</linearGradient>
<path style="fill:url(#SVGID_00000018235924699344444640000001390578026996946854_);" d="M22.4,852.1c0-4.5-1.4-8.1-3.2-8.1
	c-1.8,0-3.2,3.6-3.2,8.1s1.4,8.1,3.2,8.1C21,860.3,22.4,856.7,22.4,852.1z"/>
</svg>
