<svg width="8" height="299" viewBox="0 0 8 299" fill="none" xmlns="http://www.w3.org/2000/svg">
<path d="M7.94336 296.565L1.27669 296.565L1.27669 298.787L0.165582 298.787L0.165582 292.12L1.27669 292.12L1.27669 294.343L7.94336 294.343L7.94336 296.565ZM7.94336 276.014L0.165581 276.014L0.165581 269.347L1.27669 269.347L1.27669 273.791L3.49891 273.791L3.49891 270.458L4.61003 270.458L4.61003 273.791L6.83225 273.791L6.83225 269.347L7.94336 269.347L7.94336 276.014ZM6.83225 252.129L6.83225 253.24L1.27669 253.24L1.27669 252.129L0.16558 252.129L0.16558 247.685L1.27669 247.685L1.27669 246.574L2.3878 246.574L2.3878 248.796L1.27669 248.796L1.27669 251.018L6.83225 251.018L6.83225 248.796L5.72113 248.796L5.72113 246.574L6.83225 246.574L6.83225 247.685L7.94336 247.685L7.94336 252.129L6.83225 252.129ZM0.165579 227.133L1.27669 227.133L1.27669 226.022L3.49891 226.022L3.49891 224.911L0.165579 224.911L0.165579 222.689L7.94336 222.689L7.94336 224.911L6.83225 224.911L6.83225 226.022L5.72113 226.022L5.72113 227.133L3.49891 227.133L3.49891 228.245L7.94336 228.245L7.94336 230.467L0.165579 230.467L0.165579 227.133ZM6.83224 205.469L6.83224 206.58L1.27669 206.58L1.27669 205.469L0.165578 205.469L0.165578 201.025L1.27669 201.025L1.27669 199.913L6.83224 199.913L6.83224 201.025L7.94336 201.025L7.94336 205.469L6.83224 205.469ZM6.83224 202.136L1.27669 202.136L1.27669 204.358L6.83224 204.358L6.83224 202.136ZM7.94335 183.807L0.165577 183.807L0.165577 177.14L1.27669 177.14L1.27669 181.584L3.49891 181.584L3.49891 178.251L4.61002 178.251L4.61002 181.584L6.83224 181.584L6.83224 177.14L7.94335 177.14L7.94335 183.807ZM6.83224 159.922L6.83224 161.033L5.72113 161.033L5.72113 158.811L6.83224 158.811L6.83224 156.589L4.61002 156.589L4.61002 159.922L3.49891 159.922L3.49891 161.033L1.27669 161.033L1.27669 159.922L0.165576 159.922L0.165576 155.478L1.27669 155.478L1.27669 154.367L2.3878 154.367L2.3878 156.589L1.27669 156.589L1.27669 158.811L3.49891 158.811L3.49891 155.478L4.61002 155.478L4.61002 154.367L6.83224 154.367L6.83224 155.478L7.94335 155.478L7.94335 159.922L6.83224 159.922ZM1.27669 137.149L1.27669 138.26L0.165575 138.26L0.165575 133.815L1.27669 133.815L1.27669 134.926L6.83224 134.926L6.83224 133.815L7.94335 133.815L7.94335 138.26L6.83224 138.26L6.83224 137.149L1.27669 137.149ZM6.83224 116.592L6.83224 117.703L5.72113 117.703L5.72113 115.481L6.83224 115.481L6.83224 113.259L4.61002 113.259L4.61002 116.592L3.49891 116.592L3.49891 117.703L1.27669 117.703L1.27669 116.592L0.165574 116.592L0.165574 112.148L1.27668 112.148L1.27668 111.036L2.3878 111.036L2.3878 113.259L1.27668 113.259L1.27669 115.481L3.49891 115.481L3.49891 112.148L4.61002 112.148L4.61002 111.036L6.83224 111.036L6.83224 112.148L7.94335 112.148L7.94335 116.592L6.83224 116.592ZM2.38779 75.4863L1.27668 75.4863L1.27668 74.3752L0.165572 74.3752L0.165572 69.9308L1.27668 69.9308L1.27668 68.8197L3.4989 68.8197L3.4989 69.9308L4.61002 69.9308L4.61002 71.0419L5.72113 71.0419L5.72113 72.153L6.83224 72.153L6.83224 68.8197L7.94335 68.8197L7.94335 75.4863L6.83224 75.4863L6.83224 74.3752L5.72113 74.3752L5.72113 73.2641L4.61002 73.2641L4.61002 72.153L3.4989 72.153L3.4989 71.0419L1.27668 71.0419L1.27668 73.2641L2.38779 73.2641L2.38779 75.4863ZM6.83224 51.6018L6.83224 52.7129L1.27668 52.7129L1.27668 51.6018L0.165571 51.6018L0.165571 47.1573L1.27668 47.1573L1.27668 46.0462L6.83224 46.0462L6.83224 47.1573L7.94335 47.1573L7.94335 51.6018L6.83224 51.6018ZM6.83224 48.2684L1.27668 48.2684L1.27668 50.4907L6.83224 50.4907L6.83224 48.2684ZM2.38779 29.9395L1.27668 29.9395L1.27668 28.8283L0.16557 28.8283L0.16557 24.3839L1.27668 24.3839L1.27668 23.2728L3.4989 23.2728L3.4989 24.3839L4.61001 24.3839L4.61001 25.495L5.72113 25.495L5.72113 26.6061L6.83224 26.6061L6.83224 23.2728L7.94335 23.2728L7.94335 29.9395L6.83224 29.9395L6.83224 28.8283L5.72113 28.8283L5.72113 27.7172L4.61001 27.7172L4.61001 26.6061L3.4989 26.6061L3.4989 25.495L1.27668 25.495L1.27668 27.7172L2.38779 27.7172L2.38779 29.9395ZM4.61001 2.72157L2.38779 2.72157L2.38779 3.83268L3.4989 3.83268L3.4989 4.94379L4.61001 4.94379L4.61001 2.72157ZM4.61001 1.61046L4.61001 0.499349L5.72112 0.499349L5.72112 1.61046L7.94335 1.61046L7.94335 3.83268L5.72112 3.83268L5.72112 7.16602L3.4989 7.16602L3.4989 6.0549L2.38779 6.0549L2.38779 4.94379L1.27668 4.94379L1.27668 3.83268L0.165569 3.83268L0.165569 1.61046L4.61001 1.61046Z" fill="white" fill-opacity="0.6"/>
</svg>
